<svg xmlns="http://www.w3.org/2000/svg" xmlns:xlink="http://www.w3.org/1999/xlink" width="536" height="457pt" viewBox="0 0 402 457"><g id="graph0" class="graph" transform="scale(1 1) rotate(0) translate(4 453)"><title>Level</title><g id="node1" class="node"><title>Node1</title><g id="a_node1"><a><polygon fill="#bfbfbf" stroke="#000" points="106 -160.5 106 -448.5 288 -448.5 288 -160.5 106 -160.5"/><text x="197" y="-436.5" font-family="Helvetica,sans-Serif" font-size="10" text-anchor="middle">Level</text><polyline fill="none" stroke="#000" points="106 -429.5 288 -429.5"/><text x="114" y="-417.5" font-family="Helvetica,sans-Serif" font-size="10" text-anchor="start">+ static const int DEFAULT</text><text x="114" y="-406.5" font-family="Helvetica,sans-Serif" font-size="10" text-anchor="start">_LAYER</text><text x="114" y="-395.5" font-family="Helvetica,sans-Serif" font-size="10" text-anchor="start">+ static const int DEFAULT</text><text x="114" y="-384.5" font-family="Helvetica,sans-Serif" font-size="10" text-anchor="start">_SPEED</text><text x="114" y="-373.5" font-family="Helvetica,sans-Serif" font-size="10" text-anchor="start">+ static const int DEFAULT_ROW</text><text x="114" y="-362.5" font-family="Helvetica,sans-Serif" font-size="10" text-anchor="start">+ static const int DEFAULT</text><text x="114" y="-351.5" font-family="Helvetica,sans-Serif" font-size="10" text-anchor="start">_PLAYER_WIDTH</text><text x="114" y="-340.5" font-family="Helvetica,sans-Serif" font-size="10" text-anchor="start">+ static const int DEFAULT</text><text x="114" y="-329.5" font-family="Helvetica,sans-Serif" font-size="10" text-anchor="start">_PLAYER_HEIGHT</text><polyline fill="none" stroke="#000" points="106 -322.5 288 -322.5"/><text x="114" y="-310.5" font-family="Helvetica,sans-Serif" font-size="10" text-anchor="start">+ static void LoadAnimated</text><text x="114" y="-299.5" font-family="Helvetica,sans-Serif" font-size="10" text-anchor="start">Sprite(std::vector&lt; platformer</text><text x="114" y="-288.5" font-family="Helvetica,sans-Serif" font-size="10" text-anchor="start">_engine::AnimatedSprite &gt; &amp;spriteList,</text><text x="114" y="-277.5" font-family="Helvetica,sans-Serif" font-size="10" text-anchor="start">std::string spriteId, std::string</text><text x="114" y="-266.5" font-family="Helvetica,sans-Serif" font-size="10" text-anchor="start">path, int spriteWidth, int spriteHeight,</text><text x="114" y="-255.5" font-family="Helvetica,sans-Serif" font-size="10" text-anchor="start">int frameCount)</text><text x="114" y="-244.5" font-family="Helvetica,sans-Serif" font-size="10" text-anchor="start">+ static auto LoadAnimations</text><text x="114" y="-233.5" font-family="Helvetica,sans-Serif" font-size="10" text-anchor="start">() -&gt; std::vector&lt; platformer</text><text x="114" y="-222.5" font-family="Helvetica,sans-Serif" font-size="10" text-anchor="start">_engine::AnimatedSprite &gt;</text><text x="114" y="-211.5" font-family="Helvetica,sans-Serif" font-size="10" text-anchor="start">+ static auto AddPlayer</text><text x="114" y="-200.5" font-family="Helvetica,sans-Serif" font-size="10" text-anchor="start">(Scene &amp;scene, double</text><text x="114" y="-189.5" font-family="Helvetica,sans-Serif" font-size="10" text-anchor="start">xPos, double yPos, double</text><text x="114" y="-178.5" font-family="Helvetica,sans-Serif" font-size="10" text-anchor="start">viewWidth, double viewHeight)</text><text x="114" y="-167.5" font-family="Helvetica,sans-Serif" font-size="10" text-anchor="start">-&gt; GameObject &amp;</text></a></g></g><g id="node2" class="node"><title>Node2</title><g id="a_node2"><a target="_top" xlink:href="classLevel1.html"><polygon fill="none" stroke="#000" points="0 -.5 0 -123.5 188 -123.5 188 -.5 0 -.5"/><text x="94" y="-111.5" font-family="Helvetica,sans-Serif" font-size="10" text-anchor="middle">Level1</text><polyline fill="none" stroke="#000" points="0 -104.5 188 -104.5"/><polyline fill="none" stroke="#000" points="0 -85.5 188 -85.5"/><text x="8" y="-73.5" font-family="Helvetica,sans-Serif" font-size="10" text-anchor="start">+ static void AddToEngine</text><text x="8" y="-62.5" font-family="Helvetica,sans-Serif" font-size="10" text-anchor="start">(std::string sceneName,</text><text x="8" y="-51.5" font-family="Helvetica,sans-Serif" font-size="10" text-anchor="start">int viewWidth, int viewHeight,</text><text x="8" y="-40.5" font-family="Helvetica,sans-Serif" font-size="10" text-anchor="start">const std::shared_ptr&lt; PlatformerGame</text><text x="8" y="-29.5" font-family="Helvetica,sans-Serif" font-size="10" text-anchor="start">::CoinCounter &gt; &amp;coinCounter, const</text><text x="8" y="-18.5" font-family="Helvetica,sans-Serif" font-size="10" text-anchor="start">std::shared_ptr&lt; platformer_engine</text><text x="8" y="-7.5" font-family="Helvetica,sans-Serif" font-size="10" text-anchor="start">::FPSCounter &gt; &amp;fpsCounter)</text></a></g></g><g id="edge1" class="edge"><title>Node1-&gt;Node2</title><path fill="none" stroke="#8b1a1a" d="M131.79,-151.24C127.7,-141.69 123.73,-132.43 120.01,-123.73"/><polygon fill="none" stroke="#8b1a1a" points="128.59 -152.66 135.75 -160.47 135.03 -149.9 128.59 -152.66"/></g><g id="node3" class="node"><title>Node3</title><g id="a_node3"><a target="_top" xlink:href="classLevel2.html"><polygon fill="none" stroke="#000" points="206 -.5 206 -123.5 394 -123.5 394 -.5 206 -.5"/><text x="300" y="-111.5" font-family="Helvetica,sans-Serif" font-size="10" text-anchor="middle">Level2</text><polyline fill="none" stroke="#000" points="206 -104.5 394 -104.5"/><polyline fill="none" stroke="#000" points="206 -85.5 394 -85.5"/><text x="214" y="-73.5" font-family="Helvetica,sans-Serif" font-size="10" text-anchor="start">+ static void AddToEngine</text><text x="214" y="-62.5" font-family="Helvetica,sans-Serif" font-size="10" text-anchor="start">(std::string sceneName,</text><text x="214" y="-51.5" font-family="Helvetica,sans-Serif" font-size="10" text-anchor="start">int viewWidth, int viewHeight,</text><text x="214" y="-40.5" font-family="Helvetica,sans-Serif" font-size="10" text-anchor="start">const std::shared_ptr&lt; PlatformerGame</text><text x="214" y="-29.5" font-family="Helvetica,sans-Serif" font-size="10" text-anchor="start">::CoinCounter &gt; &amp;coinCounter, const</text><text x="214" y="-18.5" font-family="Helvetica,sans-Serif" font-size="10" text-anchor="start">std::shared_ptr&lt; platformer_engine</text><text x="214" y="-7.5" font-family="Helvetica,sans-Serif" font-size="10" text-anchor="start">::FPSCounter &gt; &amp;fpsCounter)</text></a></g></g><g id="edge2" class="edge"><title>Node1-&gt;Node3</title><path fill="none" stroke="#8b1a1a" d="M262.21,-151.24C266.3,-141.69 270.27,-132.43 273.99,-123.73"/><polygon fill="none" stroke="#8b1a1a" points="258.97 -149.9 258.25 -160.47 265.41 -152.66 258.97 -149.9"/></g></g></svg>