<svg xmlns="http://www.w3.org/2000/svg" xmlns:xlink="http://www.w3.org/1999/xlink" width="193pt" height="360" viewBox="0 0 193 270"><g id="graph0" class="graph" transform="scale(1 1) rotate(0) translate(4 266)"><title>PlatformerGame::DynamicAnimationBehaviour</title><g id="node1" class="node"><title>Node1</title><g id="a_node1"><a><polygon fill="#bfbfbf" stroke="#000" points="0 -.5 0 -167.5 185 -167.5 185 -.5 0 -.5"/><text x="8" y="-155.5" font-family="Helvetica,sans-Serif" font-size="10" text-anchor="start">PlatformerGame::DynamicAnimation</text><text x="92.5" y="-144.5" font-family="Helvetica,sans-Serif" font-size="10" text-anchor="middle">Behaviour</text><polyline fill="none" stroke="#000" points="0 -137.5 185 -137.5"/><polyline fill="none" stroke="#000" points="0 -118.5 185 -118.5"/><text x="8" y="-106.5" font-family="Helvetica,sans-Serif" font-size="10" text-anchor="start">+ void serialize(archive</text><text x="8" y="-95.5" font-family="Helvetica,sans-Serif" font-size="10" text-anchor="start">&amp;ar, const unsigned)</text><text x="8" y="-84.5" font-family="Helvetica,sans-Serif" font-size="10" text-anchor="start">+ DynamicAnimationBehaviour</text><text x="8" y="-73.5" font-family="Helvetica,sans-Serif" font-size="10" text-anchor="start">(platformer_engine::AnimatedSprite</text><text x="8" y="-62.5" font-family="Helvetica,sans-Serif" font-size="10" text-anchor="start">idleSprite, platformer_engine</text><text x="8" y="-51.5" font-family="Helvetica,sans-Serif" font-size="10" text-anchor="start">::AnimatedSprite walkSprite, platformer</text><text x="8" y="-40.5" font-family="Helvetica,sans-Serif" font-size="10" text-anchor="start">_engine::AnimatedSprite jumpSprite)</text><text x="8" y="-29.5" font-family="Helvetica,sans-Serif" font-size="10" text-anchor="start">+ DynamicAnimationBehaviour()</text><text x="8" y="-18.5" font-family="Helvetica,sans-Serif" font-size="10" text-anchor="start">+ void OnUpdate(double</text><text x="8" y="-7.5" font-family="Helvetica,sans-Serif" font-size="10" text-anchor="start">speedMultiplier) override</text></a></g></g><g id="node2" class="node"><title>Node2</title><g id="a_node2"><a><polygon fill="none" stroke="#bfbfbf" points="38.5 -204.5 38.5 -261.5 146.5 -261.5 146.5 -204.5 38.5 -204.5"/><text x="92.5" y="-249.5" font-family="Helvetica,sans-Serif" font-size="10" text-anchor="middle">spic::BehaviourScript</text><polyline fill="none" stroke="#bfbfbf" points="38.5 -242.5 146.5 -242.5"/><polyline fill="none" stroke="#bfbfbf" points="38.5 -223.5 146.5 -223.5"/></a></g></g><g id="edge1" class="edge"><title>Node2-&gt;Node1</title><path fill="none" stroke="#191970" d="M92.5,-194.35C92.5,-186.08 92.5,-177.01 92.5,-167.74"/><polygon fill="none" stroke="#191970" points="89 -194.35 92.5 -204.35 96 -194.35 89 -194.35"/></g></g></svg>