<?xml version="1.0" encoding="UTF-8" standalone="no"?>
<!DOCTYPE svg PUBLIC "-//W3C//DTD SVG 1.1//EN"
 "http://www.w3.org/Graphics/SVG/1.1/DTD/svg11.dtd">
<!-- Generated by graphviz version 2.44.0 ()
 -->
<!-- Title: PlatformerGame::DynamicAnimationBehaviour Pages: 1 -->
<svg width="193pt" height="270pt"
 viewBox="0.00 0.00 193.00 270.00" xmlns="http://www.w3.org/2000/svg" xmlns:xlink="http://www.w3.org/1999/xlink">
<g id="graph0" class="graph" transform="scale(1 1) rotate(0) translate(4 266)">
<title>PlatformerGame::DynamicAnimationBehaviour</title>
<!-- Node1 -->
<g id="node1" class="node">
<title>Node1</title>
<g id="a_node1"><a xlink:title=" ">
<polygon fill="#bfbfbf" stroke="black" points="0,-0.5 0,-167.5 185,-167.5 185,-0.5 0,-0.5"/>
<text text-anchor="start" x="8" y="-155.5" font-family="Helvetica,sans-Serif" font-size="10.00">PlatformerGame::DynamicAnimation</text>
<text text-anchor="middle" x="92.5" y="-144.5" font-family="Helvetica,sans-Serif" font-size="10.00">Behaviour</text>
<polyline fill="none" stroke="black" points="0,-137.5 185,-137.5 "/>
<text text-anchor="middle" x="92.5" y="-125.5" font-family="Helvetica,sans-Serif" font-size="10.00"> </text>
<polyline fill="none" stroke="black" points="0,-118.5 185,-118.5 "/>
<text text-anchor="start" x="8" y="-106.5" font-family="Helvetica,sans-Serif" font-size="10.00">+ void serialize(archive</text>
<text text-anchor="start" x="8" y="-95.5" font-family="Helvetica,sans-Serif" font-size="10.00"> &amp;ar, const unsigned)</text>
<text text-anchor="start" x="8" y="-84.5" font-family="Helvetica,sans-Serif" font-size="10.00">+ DynamicAnimationBehaviour</text>
<text text-anchor="start" x="8" y="-73.5" font-family="Helvetica,sans-Serif" font-size="10.00">(platformer_engine::AnimatedSprite</text>
<text text-anchor="start" x="8" y="-62.5" font-family="Helvetica,sans-Serif" font-size="10.00"> idleSprite, platformer_engine</text>
<text text-anchor="start" x="8" y="-51.5" font-family="Helvetica,sans-Serif" font-size="10.00">::AnimatedSprite walkSprite, platformer</text>
<text text-anchor="start" x="8" y="-40.5" font-family="Helvetica,sans-Serif" font-size="10.00">_engine::AnimatedSprite jumpSprite)</text>
<text text-anchor="start" x="8" y="-29.5" font-family="Helvetica,sans-Serif" font-size="10.00">+ DynamicAnimationBehaviour()</text>
<text text-anchor="start" x="8" y="-18.5" font-family="Helvetica,sans-Serif" font-size="10.00">+ void OnUpdate(double</text>
<text text-anchor="start" x="8" y="-7.5" font-family="Helvetica,sans-Serif" font-size="10.00"> speedMultiplier) override</text>
</a>
</g>
</g>
<!-- Node2 -->
<g id="node2" class="node">
<title>Node2</title>
<g id="a_node2"><a xlink:title=" ">
<polygon fill="none" stroke="#bfbfbf" points="38.5,-204.5 38.5,-261.5 146.5,-261.5 146.5,-204.5 38.5,-204.5"/>
<text text-anchor="middle" x="92.5" y="-249.5" font-family="Helvetica,sans-Serif" font-size="10.00">spic::BehaviourScript</text>
<polyline fill="none" stroke="#bfbfbf" points="38.5,-242.5 146.5,-242.5 "/>
<text text-anchor="middle" x="92.5" y="-230.5" font-family="Helvetica,sans-Serif" font-size="10.00"> </text>
<polyline fill="none" stroke="#bfbfbf" points="38.5,-223.5 146.5,-223.5 "/>
<text text-anchor="middle" x="92.5" y="-211.5" font-family="Helvetica,sans-Serif" font-size="10.00"> </text>
</a>
</g>
</g>
<!-- Node2&#45;&gt;Node1 -->
<g id="edge1" class="edge">
<title>Node2&#45;&gt;Node1</title>
<path fill="none" stroke="midnightblue" d="M92.5,-194.35C92.5,-186.08 92.5,-177.01 92.5,-167.74"/>
<polygon fill="none" stroke="midnightblue" points="89,-194.35 92.5,-204.35 96,-194.35 89,-194.35"/>
</g>
</g>
</svg>
