<svg xmlns="http://www.w3.org/2000/svg" xmlns:xlink="http://www.w3.org/1999/xlink" width="169pt" height="226pt" viewBox="0 0 169 226"><g id="graph0" class="graph" transform="scale(1 1) rotate(0) translate(4 222)"><title>PlatformerGame::TimerBehaviour</title><g id="node1" class="node"><title>Node1</title><g id="a_node1"><a><polygon fill="#bfbfbf" stroke="#000" points="0 -.5 0 -123.5 161 -123.5 161 -.5 0 -.5"/><text x="80.5" y="-111.5" font-family="Helvetica,sans-Serif" font-size="10" text-anchor="middle">PlatformerGame::TimerBehaviour</text><polyline fill="none" stroke="#000" points="0 -104.5 161 -104.5"/><polyline fill="none" stroke="#000" points="0 -85.5 161 -85.5"/><text x="8" y="-73.5" font-family="Helvetica,sans-Serif" font-size="10" text-anchor="start">+ void serialize(archive</text><text x="8" y="-62.5" font-family="Helvetica,sans-Serif" font-size="10" text-anchor="start">&amp;ar, const unsigned)</text><text x="8" y="-51.5" font-family="Helvetica,sans-Serif" font-size="10" text-anchor="start">+ TimerBehaviour()</text><text x="8" y="-40.5" font-family="Helvetica,sans-Serif" font-size="10" text-anchor="start">+ TimerBehaviour(int</text><text x="8" y="-29.5" font-family="Helvetica,sans-Serif" font-size="10" text-anchor="start">milliseconds, std::</text><text x="8" y="-18.5" font-family="Helvetica,sans-Serif" font-size="10" text-anchor="start">function&lt; void()&gt; action)</text><text x="8" y="-7.5" font-family="Helvetica,sans-Serif" font-size="10" text-anchor="start">+ void OnStart() override</text></a></g></g><g id="node2" class="node"><title>Node2</title><g id="a_node2"><a><polygon fill="none" stroke="#bfbfbf" points="26.5 -160.5 26.5 -217.5 134.5 -217.5 134.5 -160.5 26.5 -160.5"/><text x="80.5" y="-205.5" font-family="Helvetica,sans-Serif" font-size="10" text-anchor="middle">spic::BehaviourScript</text><polyline fill="none" stroke="#bfbfbf" points="26.5 -198.5 134.5 -198.5"/><polyline fill="none" stroke="#bfbfbf" points="26.5 -179.5 134.5 -179.5"/></a></g></g><g id="edge1" class="edge"><title>Node2-&gt;Node1</title><path fill="none" stroke="#191970" d="M80.5,-150.1C80.5,-141.74 80.5,-132.68 80.5,-123.67"/><polygon fill="none" stroke="#191970" points="77 -150.26 80.5 -160.26 84 -150.26 77 -150.26"/></g></g></svg>