<svg xmlns="http://www.w3.org/2000/svg" xmlns:xlink="http://www.w3.org/1999/xlink" width="224" height="259pt" viewBox="0 0 168 259"><g id="graph0" class="graph" transform="scale(1 1) rotate(0) translate(4 255)"><title>PlatformerGame::MarioBehaviour</title><g id="node1" class="node"><title>Node1</title><g id="a_node1"><a><polygon fill="#bfbfbf" stroke="#000" points="0 -.5 0 -156.5 160 -156.5 160 -.5 0 -.5"/><text x="80" y="-144.5" font-family="Helvetica,sans-Serif" font-size="10" text-anchor="middle">PlatformerGame::MarioBehaviour</text><polyline fill="none" stroke="#000" points="0 -137.5 160 -137.5"/><polyline fill="none" stroke="#000" points="0 -118.5 160 -118.5"/><text x="8" y="-106.5" font-family="Helvetica,sans-Serif" font-size="10" text-anchor="start">+ void serialize(archive</text><text x="8" y="-95.5" font-family="Helvetica,sans-Serif" font-size="10" text-anchor="start">&amp;ar, const unsigned)</text><text x="8" y="-84.5" font-family="Helvetica,sans-Serif" font-size="10" text-anchor="start">+ void OnUpdate(double</text><text x="8" y="-73.5" font-family="Helvetica,sans-Serif" font-size="10" text-anchor="start">speedMultiplier) override</text><text x="8" y="-62.5" font-family="Helvetica,sans-Serif" font-size="10" text-anchor="start">+ void OnTriggerEnter2D</text><text x="8" y="-51.5" font-family="Helvetica,sans-Serif" font-size="10" text-anchor="start">(Collision collision)</text><text x="8" y="-40.5" font-family="Helvetica,sans-Serif" font-size="10" text-anchor="start">override</text><text x="8" y="-29.5" font-family="Helvetica,sans-Serif" font-size="10" text-anchor="start">+ void SetState(std::</text><text x="8" y="-18.5" font-family="Helvetica,sans-Serif" font-size="10" text-anchor="start">unique_ptr&lt; MarioState</text><text x="8" y="-7.5" font-family="Helvetica,sans-Serif" font-size="10" text-anchor="start">&gt; state)</text></a></g></g><g id="node2" class="node"><title>Node2</title><g id="a_node2"><a><polygon fill="none" stroke="#bfbfbf" points="26 -193.5 26 -250.5 134 -250.5 134 -193.5 26 -193.5"/><text x="80" y="-238.5" font-family="Helvetica,sans-Serif" font-size="10" text-anchor="middle">spic::BehaviourScript</text><polyline fill="none" stroke="#bfbfbf" points="26 -231.5 134 -231.5"/><polyline fill="none" stroke="#bfbfbf" points="26 -212.5 134 -212.5"/></a></g></g><g id="edge1" class="edge"><title>Node2-&gt;Node1</title><path fill="none" stroke="#191970" d="M80,-183.34C80,-175.04 80,-165.96 80,-156.74"/><polygon fill="none" stroke="#191970" points="76.5 -183.38 80 -193.38 83.5 -183.38 76.5 -183.38"/></g></g></svg>