<svg xmlns="http://www.w3.org/2000/svg" xmlns:xlink="http://www.w3.org/1999/xlink" width="163pt" height="248pt" viewBox="0 0 163 248"><g id="graph0" class="graph" transform="scale(1 1) rotate(0) translate(4 244)"><title>PlatformerGame::CoinBehaviour</title><g id="node1" class="node"><title>Node1</title><g id="a_node1"><a><polygon fill="#bfbfbf" stroke="#000" points="0 -.5 0 -145.5 155 -145.5 155 -.5 0 -.5"/><text x="77.5" y="-133.5" font-family="Helvetica,sans-Serif" font-size="10" text-anchor="middle">PlatformerGame::CoinBehaviour</text><polyline fill="none" stroke="#000" points="0 -126.5 155 -126.5"/><polyline fill="none" stroke="#000" points="0 -107.5 155 -107.5"/><text x="8" y="-95.5" font-family="Helvetica,sans-Serif" font-size="10" text-anchor="start">+ void serialize(Archive</text><text x="8" y="-84.5" font-family="Helvetica,sans-Serif" font-size="10" text-anchor="start">&amp;ar, unsigned int version)</text><text x="8" y="-73.5" font-family="Helvetica,sans-Serif" font-size="10" text-anchor="start">+ CoinBehaviour()=default</text><text x="8" y="-62.5" font-family="Helvetica,sans-Serif" font-size="10" text-anchor="start">+ CoinBehaviour(std</text><text x="8" y="-51.5" font-family="Helvetica,sans-Serif" font-size="10" text-anchor="start">::shared_ptr&lt; CoinCounter</text><text x="8" y="-40.5" font-family="Helvetica,sans-Serif" font-size="10" text-anchor="start">&gt; counter)</text><text x="8" y="-29.5" font-family="Helvetica,sans-Serif" font-size="10" text-anchor="start">+ void OnTriggerEnter2D</text><text x="8" y="-18.5" font-family="Helvetica,sans-Serif" font-size="10" text-anchor="start">(Collision collision)</text><text x="8" y="-7.5" font-family="Helvetica,sans-Serif" font-size="10" text-anchor="start">override</text></a></g></g><g id="node2" class="node"><title>Node2</title><g id="a_node2"><a><polygon fill="none" stroke="#bfbfbf" points="23.5 -182.5 23.5 -239.5 131.5 -239.5 131.5 -182.5 23.5 -182.5"/><text x="77.5" y="-227.5" font-family="Helvetica,sans-Serif" font-size="10" text-anchor="middle">spic::BehaviourScript</text><polyline fill="none" stroke="#bfbfbf" points="23.5 -220.5 131.5 -220.5"/><polyline fill="none" stroke="#bfbfbf" points="23.5 -201.5 131.5 -201.5"/></a></g></g><g id="edge1" class="edge"><title>Node2-&gt;Node1</title><path fill="none" stroke="#191970" d="M77.5,-172.36C77.5,-164 77.5,-154.87 77.5,-145.66"/><polygon fill="none" stroke="#191970" points="74 -172.48 77.5 -182.48 81 -172.48 74 -172.48"/></g></g></svg>