<svg xmlns="http://www.w3.org/2000/svg" xmlns:xlink="http://www.w3.org/1999/xlink" width="176" height="193pt" viewBox="0 0 132 193"><g id="graph0" class="graph" transform="scale(1 1) rotate(0) translate(4 189)"><title>EnemyAttackBehaviour</title><g id="node1" class="node"><title>Node1</title><g id="a_node1"><a><polygon fill="#bfbfbf" stroke="#000" points="0 -.5 0 -90.5 124 -90.5 124 -.5 0 -.5"/><text x="62" y="-78.5" font-family="Helvetica,sans-Serif" font-size="10" text-anchor="middle">EnemyAttackBehaviour</text><polyline fill="none" stroke="#000" points="0 -71.5 124 -71.5"/><polyline fill="none" stroke="#000" points="0 -52.5 124 -52.5"/><text x="8" y="-40.5" font-family="Helvetica,sans-Serif" font-size="10" text-anchor="start">+ void serialize(archive</text><text x="8" y="-29.5" font-family="Helvetica,sans-Serif" font-size="10" text-anchor="start">&amp;ar, const unsigned)</text><text x="8" y="-18.5" font-family="Helvetica,sans-Serif" font-size="10" text-anchor="start">+ void OnUpdate(double</text><text x="8" y="-7.5" font-family="Helvetica,sans-Serif" font-size="10" text-anchor="start">speedMultiplier) override</text></a></g></g><g id="node2" class="node"><title>Node2</title><g id="a_node2"><a><polygon fill="none" stroke="#bfbfbf" points="8 -127.5 8 -184.5 116 -184.5 116 -127.5 8 -127.5"/><text x="62" y="-172.5" font-family="Helvetica,sans-Serif" font-size="10" text-anchor="middle">spic::BehaviourScript</text><polyline fill="none" stroke="#bfbfbf" points="8 -165.5 116 -165.5"/><polyline fill="none" stroke="#bfbfbf" points="8 -146.5 116 -146.5"/></a></g></g><g id="edge1" class="edge"><title>Node2-&gt;Node1</title><path fill="none" stroke="#191970" d="M62,-117.21C62,-108.61 62,-99.39 62,-90.55"/><polygon fill="none" stroke="#191970" points="58.5 -117.34 62 -127.34 65.5 -117.34 58.5 -117.34"/></g></g></svg>