<svg xmlns="http://www.w3.org/2000/svg" xmlns:xlink="http://www.w3.org/1999/xlink" id="main" onload="init(evt)" version="1.1" xml:space="preserve"><style type="text/css">.edge:hover path{stroke:red}.edge:hover polygon{stroke:red;fill:red}</style><script type="text/javascript"><![CDATA[
var edges = document.getElementsByTagName('g');
if (edges && edges.length) {
  for (var i=0;i<edges.length;i++) {
    if (edges[i].id.substr(0,4)=='edge') {
      edges[i].setAttribute('class','edge');
    }
  }
}
]]></script><defs><circle id="rim" cx="0" cy="0" r="7"/><circle id="rim2" cx="0" cy="0" r="3.5"/><g id="zoomPlus"><use fill="#404040" xlink:href="#rim"><set attributeName="fill" begin="zoomplus.mouseover" end="zoomplus.mouseout" to="#808080"/></use><path fill="none" stroke="#fff" stroke-width="1.5" d="M-4,0h8M0,-4v8" pointer-events="none"/></g><g id="zoomMin"><use fill="#404040" xlink:href="#rim"><set attributeName="fill" begin="zoomminus.mouseover" end="zoomminus.mouseout" to="#808080"/></use><path fill="none" stroke="#fff" stroke-width="1.5" d="M-4,0h8" pointer-events="none"/></g><g id="dirArrow"><path fill="none" stroke="#fff" stroke-width="1.5" d="M0,-3.0v7 M-2.5,-0.5L0,-3.0L2.5,-0.5"/></g><g id="resetDef"><use fill="#404040" xlink:href="#rim2"><set attributeName="fill" begin="reset.mouseover" end="reset.mouseout" to="#808080"/></use></g></defs><script type="text/javascript">var viewWidth = 196; var viewHeight = 457; var sectionId = &apos;dynsection-1&apos;;</script><script xlink:href="svgpan.js"/><svg id="graph" class="graph"><g id="viewport"><title>Level1</title><g id="node1" class="node"><title>Node1</title><g id="a_node1"><a><polygon fill="#bfbfbf" stroke="#000" points="0 -.5 0 -123.5 188 -123.5 188 -.5 0 -.5"/><text x="94" y="-111.5" font-family="Helvetica,sans-Serif" font-size="10" text-anchor="middle">Level1</text><polyline fill="none" stroke="#000" points="0 -104.5 188 -104.5"/><polyline fill="none" stroke="#000" points="0 -85.5 188 -85.5"/><text x="8" y="-73.5" font-family="Helvetica,sans-Serif" font-size="10" text-anchor="start">+ static void AddToEngine</text><text x="8" y="-62.5" font-family="Helvetica,sans-Serif" font-size="10" text-anchor="start">(std::string sceneName,</text><text x="8" y="-51.5" font-family="Helvetica,sans-Serif" font-size="10" text-anchor="start">int viewWidth, int viewHeight,</text><text x="8" y="-40.5" font-family="Helvetica,sans-Serif" font-size="10" text-anchor="start">const std::shared_ptr&lt; PlatformerGame</text><text x="8" y="-29.5" font-family="Helvetica,sans-Serif" font-size="10" text-anchor="start">::CoinCounter &gt; &amp;coinCounter, const</text><text x="8" y="-18.5" font-family="Helvetica,sans-Serif" font-size="10" text-anchor="start">std::shared_ptr&lt; platformer_engine</text><text x="8" y="-7.5" font-family="Helvetica,sans-Serif" font-size="10" text-anchor="start">::FPSCounter &gt; &amp;fpsCounter)</text></a></g></g><g id="node2" class="node"><title>Node2</title><g id="a_node2"><a target="_top" xlink:href="classLevel.html"><polygon fill="none" stroke="#000" points="3 -160.5 3 -448.5 185 -448.5 185 -160.5 3 -160.5"/><text x="94" y="-436.5" font-family="Helvetica,sans-Serif" font-size="10" text-anchor="middle">Level</text><polyline fill="none" stroke="#000" points="3 -429.5 185 -429.5"/><text x="11" y="-417.5" font-family="Helvetica,sans-Serif" font-size="10" text-anchor="start">+ static const int DEFAULT</text><text x="11" y="-406.5" font-family="Helvetica,sans-Serif" font-size="10" text-anchor="start">_LAYER</text><text x="11" y="-395.5" font-family="Helvetica,sans-Serif" font-size="10" text-anchor="start">+ static const int DEFAULT</text><text x="11" y="-384.5" font-family="Helvetica,sans-Serif" font-size="10" text-anchor="start">_SPEED</text><text x="11" y="-373.5" font-family="Helvetica,sans-Serif" font-size="10" text-anchor="start">+ static const int DEFAULT_ROW</text><text x="11" y="-362.5" font-family="Helvetica,sans-Serif" font-size="10" text-anchor="start">+ static const int DEFAULT</text><text x="11" y="-351.5" font-family="Helvetica,sans-Serif" font-size="10" text-anchor="start">_PLAYER_WIDTH</text><text x="11" y="-340.5" font-family="Helvetica,sans-Serif" font-size="10" text-anchor="start">+ static const int DEFAULT</text><text x="11" y="-329.5" font-family="Helvetica,sans-Serif" font-size="10" text-anchor="start">_PLAYER_HEIGHT</text><polyline fill="none" stroke="#000" points="3 -322.5 185 -322.5"/><text x="11" y="-310.5" font-family="Helvetica,sans-Serif" font-size="10" text-anchor="start">+ static void LoadAnimated</text><text x="11" y="-299.5" font-family="Helvetica,sans-Serif" font-size="10" text-anchor="start">Sprite(std::vector&lt; platformer</text><text x="11" y="-288.5" font-family="Helvetica,sans-Serif" font-size="10" text-anchor="start">_engine::AnimatedSprite &gt; &amp;spriteList,</text><text x="11" y="-277.5" font-family="Helvetica,sans-Serif" font-size="10" text-anchor="start">std::string spriteId, std::string</text><text x="11" y="-266.5" font-family="Helvetica,sans-Serif" font-size="10" text-anchor="start">path, int spriteWidth, int spriteHeight,</text><text x="11" y="-255.5" font-family="Helvetica,sans-Serif" font-size="10" text-anchor="start">int frameCount)</text><text x="11" y="-244.5" font-family="Helvetica,sans-Serif" font-size="10" text-anchor="start">+ static auto LoadAnimations</text><text x="11" y="-233.5" font-family="Helvetica,sans-Serif" font-size="10" text-anchor="start">() -&gt; std::vector&lt; platformer</text><text x="11" y="-222.5" font-family="Helvetica,sans-Serif" font-size="10" text-anchor="start">_engine::AnimatedSprite &gt;</text><text x="11" y="-211.5" font-family="Helvetica,sans-Serif" font-size="10" text-anchor="start">+ static auto AddPlayer</text><text x="11" y="-200.5" font-family="Helvetica,sans-Serif" font-size="10" text-anchor="start">(Scene &amp;scene, double</text><text x="11" y="-189.5" font-family="Helvetica,sans-Serif" font-size="10" text-anchor="start">xPos, double yPos, double</text><text x="11" y="-178.5" font-family="Helvetica,sans-Serif" font-size="10" text-anchor="start">viewWidth, double viewHeight)</text><text x="11" y="-167.5" font-family="Helvetica,sans-Serif" font-size="10" text-anchor="start">-&gt; GameObject &amp;</text></a></g></g><g id="edge1" class="edge"><title>Node2-&gt;Node1</title><path fill="none" stroke="#8b1a1a" d="M94,-150.35C94,-141.12 94,-132.16 94,-123.73"/><polygon fill="none" stroke="#8b1a1a" points="90.5 -150.47 94 -160.47 97.5 -150.47 90.5 -150.47"/></g></g></svg><g id="navigator" fill="#404254" transform="translate(0 0)"><rect width="60" height="60" x="0" y="0" fill="#f2f5e9" fill-opacity=".5" stroke="#606060" stroke-width=".5"/><use id="zoomplus" x="17" y="9" onmousedown="handleZoom(evt,'in')" xlink:href="#zoomPlus"/><use id="zoomminus" x="42" y="9" onmousedown="handleZoom(evt,'out')" xlink:href="#zoomMin"/><use id="reset" x="30" y="36" onmousedown="handleReset()" xlink:href="#resetDef"/><g id="arrowUp" onmousedown="handlePan(0,-1)" transform="translate(30 24)" xlink:href="#dirArrow"><use fill="#404040" xlink:href="#rim"><set attributeName="fill" begin="arrowUp.mouseover" end="arrowUp.mouseout" to="#808080"/></use><path fill="none" stroke="#fff" stroke-width="1.5" d="M0,-3.0v7 M-2.5,-0.5L0,-3.0L2.5,-0.5"/></g><g id="arrowRight" onmousedown="handlePan(1,0)" transform="rotate(90) translate(36 -43)" xlink:href="#dirArrow"><use fill="#404040" xlink:href="#rim"><set attributeName="fill" begin="arrowRight.mouseover" end="arrowRight.mouseout" to="#808080"/></use><path fill="none" stroke="#fff" stroke-width="1.5" d="M0,-3.0v7 M-2.5,-0.5L0,-3.0L2.5,-0.5"/></g><g id="arrowDown" onmousedown="handlePan(0,1)" transform="rotate(180) translate(-30 -48)" xlink:href="#dirArrow"><use fill="#404040" xlink:href="#rim"><set attributeName="fill" begin="arrowDown.mouseover" end="arrowDown.mouseout" to="#808080"/></use><path fill="none" stroke="#fff" stroke-width="1.5" d="M0,-3.0v7 M-2.5,-0.5L0,-3.0L2.5,-0.5"/></g><g id="arrowLeft" onmousedown="handlePan(-1,0)" transform="rotate(270) translate(-36 17)" xlink:href="#dirArrow"><use fill="#404040" xlink:href="#rim"><set attributeName="fill" begin="arrowLeft.mouseover" end="arrowLeft.mouseout" to="#808080"/></use><path fill="none" stroke="#fff" stroke-width="1.5" d="M0,-3.0v7 M-2.5,-0.5L0,-3.0L2.5,-0.5"/></g></g><svg width="100%" height="30" preserveAspectRatio="xMaxYMin meet" viewBox="0 0 15 15"><g id="arrow_out" transform="scale(0.3 0.3)"><a target="_base" xlink:href="classLevel1__coll__graph_org.svg"><rect id="button" width="38" height="38" x="6" y="6" fill="#f2f5e9" fill-opacity=".5" stroke="#606060" stroke-width="1" rx="5" ry="5"/><path id="arrow" d="M 11.500037,31.436501 C 11.940474,20.09759 22.043105,11.32322 32.158766,21.979434 L 37.068811,17.246167 C 37.068811,17.246167 37.088388,32 37.088388,32 L 22.160133,31.978069 C 22.160133,31.978069 26.997745,27.140456 26.997745,27.140456 C 18.528582,18.264221 13.291696,25.230495 11.500037,31.436501 z" style="fill:#404040"/></a></g></svg></svg>