<svg xmlns="http://www.w3.org/2000/svg" xmlns:xlink="http://www.w3.org/1999/xlink" id="main" onload="init(evt)" version="1.1" xml:space="preserve"><style type="text/css">.edge:hover path{stroke:red}.edge:hover polygon{stroke:red;fill:red}</style><script type="text/javascript"><![CDATA[
var edges = document.getElementsByTagName('g');
if (edges && edges.length) {
  for (var i=0;i<edges.length;i++) {
    if (edges[i].id.substr(0,4)=='edge') {
      edges[i].setAttribute('class','edge');
    }
  }
}
]]></script><defs><circle id="rim" cx="0" cy="0" r="7"/><circle id="rim2" cx="0" cy="0" r="3.5"/><g id="zoomPlus"><use fill="#404040" xlink:href="#rim"><set attributeName="fill" begin="zoomplus.mouseover" end="zoomplus.mouseout" to="#808080"/></use><path fill="none" stroke="#fff" stroke-width="1.5" d="M-4,0h8M0,-4v8" pointer-events="none"/></g><g id="zoomMin"><use fill="#404040" xlink:href="#rim"><set attributeName="fill" begin="zoomminus.mouseover" end="zoomminus.mouseout" to="#808080"/></use><path fill="none" stroke="#fff" stroke-width="1.5" d="M-4,0h8" pointer-events="none"/></g><g id="dirArrow"><path fill="none" stroke="#fff" stroke-width="1.5" d="M0,-3.0v7 M-2.5,-0.5L0,-3.0L2.5,-0.5"/></g><g id="resetDef"><use fill="#404040" xlink:href="#rim2"><set attributeName="fill" begin="reset.mouseover" end="reset.mouseout" to="#808080"/></use></g></defs><script type="text/javascript">var viewWidth = 148; var viewHeight = 501; var sectionId = &apos;dynsection-0&apos;;</script><script xlink:href="svgpan.js"/><svg id="graph" class="graph"><g id="viewport"><title>PlatformerGame::StarMarioState</title><g id="node1" class="node"><title>Node1</title><g id="a_node1"><a><polygon fill="#bfbfbf" stroke="#000" points="1.5 -.5 1.5 -222.5 138.5 -222.5 138.5 -.5 1.5 -.5"/><text x="9.5" y="-210.5" font-family="Helvetica,sans-Serif" font-size="10" text-anchor="start">PlatformerGame::StarMario</text><text x="70" y="-199.5" font-family="Helvetica,sans-Serif" font-size="10" text-anchor="middle">State</text><polyline fill="none" stroke="#000" points="1.5 -192.5 138.5 -192.5"/><polyline fill="none" stroke="#000" points="1.5 -173.5 138.5 -173.5"/><text x="9.5" y="-161.5" font-family="Helvetica,sans-Serif" font-size="10" text-anchor="start">+ void serialize(archive</text><text x="9.5" y="-150.5" font-family="Helvetica,sans-Serif" font-size="10" text-anchor="start">&amp;ar, const unsigned)</text><text x="9.5" y="-139.5" font-family="Helvetica,sans-Serif" font-size="10" text-anchor="start">+ void Animate(std::shared</text><text x="9.5" y="-128.5" font-family="Helvetica,sans-Serif" font-size="10" text-anchor="start">_ptr&lt; spic::GameObject</text><text x="9.5" y="-117.5" font-family="Helvetica,sans-Serif" font-size="10" text-anchor="start">&gt; player) override</text><text x="9.5" y="-106.5" font-family="Helvetica,sans-Serif" font-size="10" text-anchor="start">+ void RegisterInput</text><text x="9.5" y="-95.5" font-family="Helvetica,sans-Serif" font-size="10" text-anchor="start">(std::shared_ptr&lt; spic</text><text x="9.5" y="-84.5" font-family="Helvetica,sans-Serif" font-size="10" text-anchor="start">::GameObject &gt; player,</text><text x="9.5" y="-73.5" font-family="Helvetica,sans-Serif" font-size="10" text-anchor="start">std::unique_ptr&lt; MarioState</text><text x="9.5" y="-62.5" font-family="Helvetica,sans-Serif" font-size="10" text-anchor="start">&gt; &amp;currentState) override</text><text x="9.5" y="-51.5" font-family="Helvetica,sans-Serif" font-size="10" text-anchor="start">+ void TouchEnemy(std</text><text x="9.5" y="-40.5" font-family="Helvetica,sans-Serif" font-size="10" text-anchor="start">::shared_ptr&lt; spic::</text><text x="9.5" y="-29.5" font-family="Helvetica,sans-Serif" font-size="10" text-anchor="start">GameObject &gt; player,</text><text x="9.5" y="-18.5" font-family="Helvetica,sans-Serif" font-size="10" text-anchor="start">Collision collision)</text><text x="9.5" y="-7.5" font-family="Helvetica,sans-Serif" font-size="10" text-anchor="start">override</text></a></g></g><g id="node2" class="node"><title>Node2</title><g id="a_node2"><a target="_top" xlink:href="classPlatformerGame_1_1MarioState.html"><polygon fill="none" stroke="#000" points="0 -259.5 0 -492.5 140 -492.5 140 -259.5 0 -259.5"/><text x="70" y="-480.5" font-family="Helvetica,sans-Serif" font-size="10" text-anchor="middle">PlatformerGame::MarioState</text><polyline fill="none" stroke="#000" points="0 -473.5 140 -473.5"/><text x="8" y="-461.5" font-family="Helvetica,sans-Serif" font-size="10" text-anchor="start"># spic::Point _lastVelocity</text><text x="8" y="-450.5" font-family="Helvetica,sans-Serif" font-size="10" text-anchor="start"># bool _lastMoveRight</text><polyline fill="none" stroke="#000" points="0 -443.5 140 -443.5"/><text x="8" y="-431.5" font-family="Helvetica,sans-Serif" font-size="10" text-anchor="start">+ void serialize(archive</text><text x="8" y="-420.5" font-family="Helvetica,sans-Serif" font-size="10" text-anchor="start">&amp;ar, const unsigned)</text><text x="8" y="-409.5" font-family="Helvetica,sans-Serif" font-size="10" text-anchor="start">+ virtual void Animate</text><text x="8" y="-398.5" font-family="Helvetica,sans-Serif" font-size="10" text-anchor="start">(std::shared_ptr&lt; spic</text><text x="8" y="-387.5" font-family="Helvetica,sans-Serif" font-size="10" text-anchor="start">::GameObject &gt; player)=0</text><text x="8" y="-376.5" font-family="Helvetica,sans-Serif" font-size="10" text-anchor="start">+ virtual void RegisterInput</text><text x="8" y="-365.5" font-family="Helvetica,sans-Serif" font-size="10" text-anchor="start">(std::shared_ptr&lt; spic::</text><text x="8" y="-354.5" font-family="Helvetica,sans-Serif" font-size="10" text-anchor="start">GameObject &gt; player, std</text><text x="8" y="-343.5" font-family="Helvetica,sans-Serif" font-size="10" text-anchor="start">::unique_ptr&lt; MarioState &gt;</text><text x="8" y="-332.5" font-family="Helvetica,sans-Serif" font-size="10" text-anchor="start">&amp;currentState)=0</text><text x="8" y="-321.5" font-family="Helvetica,sans-Serif" font-size="10" text-anchor="start">+ virtual void TouchEnemy</text><text x="8" y="-310.5" font-family="Helvetica,sans-Serif" font-size="10" text-anchor="start">(std::shared_ptr&lt; spic</text><text x="8" y="-299.5" font-family="Helvetica,sans-Serif" font-size="10" text-anchor="start">::GameObject &gt; player,</text><text x="8" y="-288.5" font-family="Helvetica,sans-Serif" font-size="10" text-anchor="start">Collision collision)=0</text><text x="8" y="-277.5" font-family="Helvetica,sans-Serif" font-size="10" text-anchor="start">+ virtual ~MarioState</text><text x="8" y="-266.5" font-family="Helvetica,sans-Serif" font-size="10" text-anchor="start">()=default</text></a></g></g><g id="edge1" class="edge"><title>Node2-&gt;Node1</title><path fill="none" stroke="#191970" d="M70,-249.41C70,-240.46 70,-231.48 70,-222.63"/><polygon fill="none" stroke="#191970" points="66.5 -249.48 70 -259.48 73.5 -249.48 66.5 -249.48"/></g></g></svg><g id="navigator" fill="#404254" transform="translate(0 0)"><rect width="60" height="60" x="0" y="0" fill="#f2f5e9" fill-opacity=".5" stroke="#606060" stroke-width=".5"/><use id="zoomplus" x="17" y="9" onmousedown="handleZoom(evt,'in')" xlink:href="#zoomPlus"/><use id="zoomminus" x="42" y="9" onmousedown="handleZoom(evt,'out')" xlink:href="#zoomMin"/><use id="reset" x="30" y="36" onmousedown="handleReset()" xlink:href="#resetDef"/><g id="arrowUp" onmousedown="handlePan(0,-1)" transform="translate(30 24)" xlink:href="#dirArrow"><use fill="#404040" xlink:href="#rim"><set attributeName="fill" begin="arrowUp.mouseover" end="arrowUp.mouseout" to="#808080"/></use><path fill="none" stroke="#fff" stroke-width="1.5" d="M0,-3.0v7 M-2.5,-0.5L0,-3.0L2.5,-0.5"/></g><g id="arrowRight" onmousedown="handlePan(1,0)" transform="rotate(90) translate(36 -43)" xlink:href="#dirArrow"><use fill="#404040" xlink:href="#rim"><set attributeName="fill" begin="arrowRight.mouseover" end="arrowRight.mouseout" to="#808080"/></use><path fill="none" stroke="#fff" stroke-width="1.5" d="M0,-3.0v7 M-2.5,-0.5L0,-3.0L2.5,-0.5"/></g><g id="arrowDown" onmousedown="handlePan(0,1)" transform="rotate(180) translate(-30 -48)" xlink:href="#dirArrow"><use fill="#404040" xlink:href="#rim"><set attributeName="fill" begin="arrowDown.mouseover" end="arrowDown.mouseout" to="#808080"/></use><path fill="none" stroke="#fff" stroke-width="1.5" d="M0,-3.0v7 M-2.5,-0.5L0,-3.0L2.5,-0.5"/></g><g id="arrowLeft" onmousedown="handlePan(-1,0)" transform="rotate(270) translate(-36 17)" xlink:href="#dirArrow"><use fill="#404040" xlink:href="#rim"><set attributeName="fill" begin="arrowLeft.mouseover" end="arrowLeft.mouseout" to="#808080"/></use><path fill="none" stroke="#fff" stroke-width="1.5" d="M0,-3.0v7 M-2.5,-0.5L0,-3.0L2.5,-0.5"/></g></g><svg width="100%" height="30" preserveAspectRatio="xMaxYMin meet" viewBox="0 0 15 15"><g id="arrow_out" transform="scale(0.3 0.3)"><a target="_base" xlink:href="classPlatformerGame_1_1StarMarioState__inherit__graph_org.svg"><rect id="button" width="38" height="38" x="6" y="6" fill="#f2f5e9" fill-opacity=".5" stroke="#606060" stroke-width="1" rx="5" ry="5"/><path id="arrow" d="M 11.500037,31.436501 C 11.940474,20.09759 22.043105,11.32322 32.158766,21.979434 L 37.068811,17.246167 C 37.068811,17.246167 37.088388,32 37.088388,32 L 22.160133,31.978069 C 22.160133,31.978069 26.997745,27.140456 26.997745,27.140456 C 18.528582,18.264221 13.291696,25.230495 11.500037,31.436501 z" style="fill:#404040"/></a></g></svg></svg>