<svg xmlns="http://www.w3.org/2000/svg" xmlns:xlink="http://www.w3.org/1999/xlink" width="908pt" height="151pt" viewBox="0 0 907.5 151"><g id="graph0" class="graph" transform="scale(1 1) rotate(0) translate(4 147)"><title>src/UI/CoinCounter.cpp</title><g id="node1" class="node"><title>Node1</title><g id="a_node1"><a><polygon fill="#bfbfbf" stroke="#000" points="511.5 -123.5 511.5 -142.5 629.5 -142.5 629.5 -123.5 511.5 -123.5"/><text x="570.5" y="-130.5" font-family="Helvetica,sans-Serif" font-size="10" text-anchor="middle">src/UI/CoinCounter.cpp</text></a></g></g><g id="node2" class="node"><title>Node2</title><g id="a_node2"><a target="_top" xlink:href="CoinCounter_8hpp.html"><polygon fill="none" stroke="#000" points="416.5 -67.5 416.5 -86.5 504.5 -86.5 504.5 -67.5 416.5 -67.5"/><text x="460.5" y="-74.5" font-family="Helvetica,sans-Serif" font-size="10" text-anchor="middle">CoinCounter.hpp</text></a></g></g><g id="edge1" class="edge"><title>Node1-&gt;Node2</title><path fill="none" stroke="#191970" d="M552.83,-123.32C535.11,-114.62 507.6,-101.12 487.21,-91.11"/><polygon fill="#191970" stroke="#191970" points="488.65 -87.92 478.13 -86.65 485.56 -94.2 488.65 -87.92"/></g><g id="node12" class="node"><title>Node12</title><g id="a_node12"><a><polygon fill="none" stroke="#bfbfbf" points="522.5 -67.5 522.5 -86.5 618.5 -86.5 618.5 -67.5 522.5 -67.5"/><text x="570.5" y="-74.5" font-family="Helvetica,sans-Serif" font-size="10" text-anchor="middle">Engine/Engine.hpp</text></a></g></g><g id="edge11" class="edge"><title>Node1-&gt;Node12</title><path fill="none" stroke="#191970" d="M570.5,-123.08C570.5,-116.01 570.5,-105.86 570.5,-96.99"/><polygon fill="#191970" stroke="#191970" points="574 -96.75 570.5 -86.75 567 -96.75 574 -96.75"/></g><g id="node13" class="node"><title>Node13</title><g id="a_node13"><a><polygon fill="none" stroke="#bfbfbf" points="636.5 -67.5 636.5 -86.5 794.5 -86.5 794.5 -67.5 636.5 -67.5"/><text x="715.5" y="-74.5" font-family="Helvetica,sans-Serif" font-size="10" text-anchor="middle">Director/GameObjectFactory.hpp</text></a></g></g><g id="edge12" class="edge"><title>Node1-&gt;Node13</title><path fill="none" stroke="#191970" d="M593.48,-123.44C617.66,-114.44 655.92,-100.19 683.15,-90.05"/><polygon fill="#191970" stroke="#191970" points="684.48 -93.29 692.63 -86.52 682.04 -86.73 684.48 -93.29"/></g><g id="node3" class="node"><title>Node3</title><g id="a_node3"><a><polygon fill="none" stroke="#bfbfbf" points="0 -6 0 -25 51 -25 51 -6 0 -6"/><text x="25.5" y="-13" font-family="Helvetica,sans-Serif" font-size="10" text-anchor="middle">memory</text></a></g></g><g id="edge2" class="edge"><title>Node2-&gt;Node3</title><path fill="none" stroke="#191970" d="M416.42,-75.22C341.76,-72.99 186.19,-64.35 59.5,-31 57.14,-30.38 54.74,-29.62 52.35,-28.79"/><polygon fill="#191970" stroke="#191970" points="53.39 -25.44 42.8 -25.03 50.83 -31.95 53.39 -25.44"/></g><g id="node4" class="node"><title>Node4</title><g id="a_node4"><a><polygon fill="none" stroke="#bfbfbf" points="69 -.5 69 -30.5 164 -30.5 164 -.5 69 -.5"/><text x="77" y="-18.5" font-family="Helvetica,sans-Serif" font-size="10" text-anchor="start">boost/serialization</text><text x="116.5" y="-7.5" font-family="Helvetica,sans-Serif" font-size="10" text-anchor="middle">/access.hpp</text></a></g></g><g id="edge3" class="edge"><title>Node2-&gt;Node4</title><path fill="none" stroke="#191970" d="M416.34,-70.47C361.61,-63.32 265.3,-49.75 174.04,-31.21"/><polygon fill="#191970" stroke="#191970" points="174.58 -27.75 164.08 -29.16 173.17 -34.6 174.58 -27.75"/></g><g id="node5" class="node"><title>Node5</title><g id="a_node5"><a><polygon fill="none" stroke="#bfbfbf" points="182 -.5 182 -30.5 277 -30.5 277 -.5 182 -.5"/><text x="190" y="-18.5" font-family="Helvetica,sans-Serif" font-size="10" text-anchor="start">boost/serialization</text><text x="229.5" y="-7.5" font-family="Helvetica,sans-Serif" font-size="10" text-anchor="middle">/export.hpp</text></a></g></g><g id="edge4" class="edge"><title>Node2-&gt;Node5</title><path fill="none" stroke="#191970" d="M427.27,-67.47C394.06,-58.95 341.27,-45.38 286.95,-31.37"/><polygon fill="#191970" stroke="#191970" points="287.71 -27.95 277.16 -28.85 285.97 -34.73 287.71 -27.95"/></g><g id="node6" class="node"><title>Node6</title><g id="a_node6"><a><polygon fill="none" stroke="#bfbfbf" points="295 -.5 295 -30.5 390 -30.5 390 -.5 295 -.5"/><text x="303" y="-18.5" font-family="Helvetica,sans-Serif" font-size="10" text-anchor="start">boost/serialization</text><text x="342.5" y="-7.5" font-family="Helvetica,sans-Serif" font-size="10" text-anchor="middle">/shared_ptr.hpp</text></a></g></g><g id="edge5" class="edge"><title>Node2-&gt;Node6</title><path fill="none" stroke="#191970" d="M443.59,-67.48C426.94,-59.08 400.95,-45.97 379.49,-35.15"/><polygon fill="#191970" stroke="#191970" points="380.82 -31.9 370.31 -30.52 377.66 -38.15 380.82 -31.9"/></g><g id="node7" class="node"><title>Node7</title><g id="a_node7"><a><polygon fill="none" stroke="#bfbfbf" points="408.5 -.5 408.5 -30.5 512.5 -30.5 512.5 -.5 408.5 -.5"/><text x="416.5" y="-18.5" font-family="Helvetica,sans-Serif" font-size="10" text-anchor="start">boost/archive/binary</text><text x="460.5" y="-7.5" font-family="Helvetica,sans-Serif" font-size="10" text-anchor="middle">_iarchive.hpp</text></a></g></g><g id="edge6" class="edge"><title>Node2-&gt;Node7</title><path fill="none" stroke="#191970" d="M460.5,-67.48C460.5,-60.47 460.5,-50.19 460.5,-40.7"/><polygon fill="#191970" stroke="#191970" points="464 -40.52 460.5 -30.52 457 -40.52 464 -40.52"/></g><g id="node8" class="node"><title>Node8</title><g id="a_node8"><a><polygon fill="none" stroke="#bfbfbf" points="530.5 -.5 530.5 -30.5 634.5 -30.5 634.5 -.5 530.5 -.5"/><text x="538.5" y="-18.5" font-family="Helvetica,sans-Serif" font-size="10" text-anchor="start">boost/archive/binary</text><text x="582.5" y="-7.5" font-family="Helvetica,sans-Serif" font-size="10" text-anchor="middle">_oarchive.hpp</text></a></g></g><g id="edge7" class="edge"><title>Node2-&gt;Node8</title><path fill="none" stroke="#191970" d="M477.98,-67.48C495.27,-59.04 522.31,-45.86 544.55,-35.01"/><polygon fill="#191970" stroke="#191970" points="546.29 -38.05 553.75 -30.52 543.22 -31.76 546.29 -38.05"/></g><g id="node9" class="node"><title>Node9</title><g id="a_node9"><a><polygon fill="none" stroke="#bfbfbf" points="653 -6 653 -25 710 -25 710 -6 653 -6"/><text x="681.5" y="-13" font-family="Helvetica,sans-Serif" font-size="10" text-anchor="middle">Color.hpp</text></a></g></g><g id="edge8" class="edge"><title>Node2-&gt;Node9</title><path fill="none" stroke="#191970" d="M501.24,-67.5C538.59,-59.34 595.25,-46.07 643.5,-31 645.92,-30.24 648.4,-29.42 650.89,-28.55"/><polygon fill="#191970" stroke="#191970" points="652.16 -31.81 660.36 -25.1 649.76 -25.24 652.16 -31.81"/></g><g id="node10" class="node"><title>Node10</title><g id="a_node10"><a><polygon fill="none" stroke="#bfbfbf" points="728 -6 728 -25 807 -25 807 -6 728 -6"/><text x="767.5" y="-13" font-family="Helvetica,sans-Serif" font-size="10" text-anchor="middle">Transform.hpp</text></a></g></g><g id="edge9" class="edge"><title>Node2-&gt;Node10</title><path fill="none" stroke="#191970" d="M504.54,-68.49C575.71,-56.34 709.12,-33.46 719.5,-31 723.39,-30.08 727.43,-29.02 731.44,-27.9"/><polygon fill="#191970" stroke="#191970" points="732.62 -31.21 741.25 -25.06 730.67 -24.48 732.62 -31.21"/></g><g id="node11" class="node"><title>Node11</title><g id="a_node11"><a><polygon fill="none" stroke="#bfbfbf" points="825.5 -6 825.5 -25 899.5 -25 899.5 -6 825.5 -6"/><text x="862.5" y="-13" font-family="Helvetica,sans-Serif" font-size="10" text-anchor="middle">UIObject.hpp</text></a></g></g><g id="edge10" class="edge"><title>Node2-&gt;Node11</title><path fill="none" stroke="#191970" d="M504.72,-68.32C507.69,-67.86 510.64,-67.41 513.5,-67 647.73,-47.64 683.92,-59.51 816.5,-31 820.44,-30.15 824.52,-29.11 828.56,-27.98"/><polygon fill="#191970" stroke="#191970" points="829.8 -31.26 838.38 -25.04 827.79 -24.56 829.8 -31.26"/></g></g></svg>