<?xml version="1.0" encoding="UTF-8" standalone="no"?>
<!DOCTYPE svg PUBLIC "-//W3C//DTD SVG 1.1//EN"
 "http://www.w3.org/Graphics/SVG/1.1/DTD/svg11.dtd">
<!-- Generated by graphviz version 2.44.0 ()
 -->
<!-- Title: src/UI/CoinCounter.hpp Pages: 1 -->
<svg width="650pt" height="207pt"
 viewBox="0.00 0.00 650.00 207.00" xmlns="http://www.w3.org/2000/svg" xmlns:xlink="http://www.w3.org/1999/xlink">
<g id="graph0" class="graph" transform="scale(1 1) rotate(0) translate(4 203)">
<title>src/UI/CoinCounter.hpp</title>
<!-- Node1 -->
<g id="node1" class="node">
<title>Node1</title>
<g id="a_node1"><a xlink:title=" ">
<polygon fill="#bfbfbf" stroke="black" points="271,-179.5 271,-198.5 389,-198.5 389,-179.5 271,-179.5"/>
<text text-anchor="middle" x="330" y="-186.5" font-family="Helvetica,sans-Serif" font-size="10.00">src/UI/CoinCounter.hpp</text>
</a>
</g>
</g>
<!-- Node2 -->
<g id="node2" class="node">
<title>Node2</title>
<g id="a_node2"><a xlink:href="Level1_8hpp.html" target="_top" xlink:title=" ">
<polygon fill="none" stroke="black" points="160,-123.5 160,-142.5 302,-142.5 302,-123.5 160,-123.5"/>
<text text-anchor="middle" x="231" y="-130.5" font-family="Helvetica,sans-Serif" font-size="10.00">src/Game/Levels/Level1.hpp</text>
</a>
</g>
</g>
<!-- Node1&#45;&gt;Node2 -->
<g id="edge1" class="edge">
<title>Node1&#45;&gt;Node2</title>
<path fill="none" stroke="midnightblue" d="M305.16,-174.45C286.89,-164.48 262.58,-151.23 246.87,-142.65"/>
<polygon fill="midnightblue" stroke="midnightblue" points="303.64,-177.61 314.09,-179.32 306.99,-171.46 303.64,-177.61"/>
</g>
<!-- Node5 -->
<g id="node5" class="node">
<title>Node5</title>
<g id="a_node5"><a xlink:href="Level2_8hpp.html" target="_top" xlink:title=" ">
<polygon fill="none" stroke="black" points="0,-123.5 0,-142.5 142,-142.5 142,-123.5 0,-123.5"/>
<text text-anchor="middle" x="71" y="-130.5" font-family="Helvetica,sans-Serif" font-size="10.00">src/Game/Levels/Level2.hpp</text>
</a>
</g>
</g>
<!-- Node1&#45;&gt;Node5 -->
<g id="edge4" class="edge">
<title>Node1&#45;&gt;Node5</title>
<path fill="none" stroke="midnightblue" d="M278.9,-177.35C229.95,-167.14 157.05,-151.94 111.85,-142.52"/>
<polygon fill="midnightblue" stroke="midnightblue" points="278.46,-180.83 288.96,-179.44 279.89,-173.98 278.46,-180.83"/>
</g>
<!-- Node7 -->
<g id="node7" class="node">
<title>Node7</title>
<g id="a_node7"><a xlink:href="CoinBehaviour_8hpp.html" target="_top" xlink:title=" ">
<polygon fill="none" stroke="black" points="358,-123.5 358,-142.5 506,-142.5 506,-123.5 358,-123.5"/>
<text text-anchor="middle" x="432" y="-130.5" font-family="Helvetica,sans-Serif" font-size="10.00">src/Scripts/CoinBehaviour.hpp</text>
</a>
</g>
</g>
<!-- Node1&#45;&gt;Node7 -->
<g id="edge7" class="edge">
<title>Node1&#45;&gt;Node7</title>
<path fill="none" stroke="midnightblue" d="M355.33,-174.59C374.19,-164.61 399.38,-151.27 415.65,-142.65"/>
<polygon fill="midnightblue" stroke="midnightblue" points="353.59,-171.55 346.39,-179.32 356.86,-177.74 353.59,-171.55"/>
</g>
<!-- Node9 -->
<g id="node9" class="node">
<title>Node9</title>
<g id="a_node9"><a xlink:href="TileConfig_8hpp.html" target="_top" xlink:title=" ">
<polygon fill="none" stroke="black" points="283,-67.5 283,-86.5 377,-86.5 377,-67.5 283,-67.5"/>
<text text-anchor="middle" x="330" y="-74.5" font-family="Helvetica,sans-Serif" font-size="10.00">src/TileConfig.hpp</text>
</a>
</g>
</g>
<!-- Node1&#45;&gt;Node9 -->
<g id="edge14" class="edge">
<title>Node1&#45;&gt;Node9</title>
<path fill="none" stroke="midnightblue" d="M330,-169.35C330,-145.25 330,-104.31 330,-86.59"/>
<polygon fill="midnightblue" stroke="midnightblue" points="326.5,-169.37 330,-179.37 333.5,-169.37 326.5,-169.37"/>
</g>
<!-- Node12 -->
<g id="node12" class="node">
<title>Node12</title>
<g id="a_node12"><a xlink:href="CoinCounter_8cpp.html" target="_top" xlink:title=" ">
<polygon fill="none" stroke="black" points="524,-123.5 524,-142.5 642,-142.5 642,-123.5 524,-123.5"/>
<text text-anchor="middle" x="583" y="-130.5" font-family="Helvetica,sans-Serif" font-size="10.00">src/UI/CoinCounter.cpp</text>
</a>
</g>
</g>
<!-- Node1&#45;&gt;Node12 -->
<g id="edge15" class="edge">
<title>Node1&#45;&gt;Node12</title>
<path fill="none" stroke="midnightblue" d="M379.92,-177.35C427.73,-167.14 498.95,-151.94 543.1,-142.52"/>
<polygon fill="midnightblue" stroke="midnightblue" points="379.14,-173.93 370.09,-179.44 380.6,-180.78 379.14,-173.93"/>
</g>
<!-- Node3 -->
<g id="node3" class="node">
<title>Node3</title>
<g id="a_node3"><a xlink:href="Game_8cpp.html" target="_top" xlink:title=" ">
<polygon fill="none" stroke="black" points="97.5,-67.5 97.5,-86.5 204.5,-86.5 204.5,-67.5 97.5,-67.5"/>
<text text-anchor="middle" x="151" y="-74.5" font-family="Helvetica,sans-Serif" font-size="10.00">src/Game/Game.cpp</text>
</a>
</g>
</g>
<!-- Node2&#45;&gt;Node3 -->
<g id="edge2" class="edge">
<title>Node2&#45;&gt;Node3</title>
<path fill="none" stroke="midnightblue" d="M209.7,-117.62C195.08,-107.76 176.17,-94.99 163.82,-86.65"/>
<polygon fill="midnightblue" stroke="midnightblue" points="207.9,-120.63 218.15,-123.32 211.82,-114.83 207.9,-120.63"/>
</g>
<!-- Node4 -->
<g id="node4" class="node">
<title>Node4</title>
<g id="a_node4"><a xlink:href="Level1_8cpp.html" target="_top" xlink:title=" ">
<polygon fill="none" stroke="black" points="161,-6 161,-25 303,-25 303,-6 161,-6"/>
<text text-anchor="middle" x="232" y="-13" font-family="Helvetica,sans-Serif" font-size="10.00">src/Game/Levels/Level1.cpp</text>
</a>
</g>
</g>
<!-- Node2&#45;&gt;Node4 -->
<g id="edge3" class="edge">
<title>Node2&#45;&gt;Node4</title>
<path fill="none" stroke="midnightblue" d="M231.16,-113.16C231.38,-87.87 231.76,-43.94 231.92,-25.28"/>
<polygon fill="midnightblue" stroke="midnightblue" points="227.66,-113.29 231.08,-123.32 234.66,-113.35 227.66,-113.29"/>
</g>
<!-- Node5&#45;&gt;Node3 -->
<g id="edge5" class="edge">
<title>Node5&#45;&gt;Node3</title>
<path fill="none" stroke="midnightblue" d="M92.3,-117.62C106.92,-107.76 125.83,-94.99 138.18,-86.65"/>
<polygon fill="midnightblue" stroke="midnightblue" points="90.18,-114.83 83.85,-123.32 94.1,-120.63 90.18,-114.83"/>
</g>
<!-- Node6 -->
<g id="node6" class="node">
<title>Node6</title>
<g id="a_node6"><a xlink:href="Level2_8cpp.html" target="_top" xlink:title=" ">
<polygon fill="none" stroke="black" points="0,-6 0,-25 142,-25 142,-6 0,-6"/>
<text text-anchor="middle" x="71" y="-13" font-family="Helvetica,sans-Serif" font-size="10.00">src/Game/Levels/Level2.cpp</text>
</a>
</g>
</g>
<!-- Node5&#45;&gt;Node6 -->
<g id="edge6" class="edge">
<title>Node5&#45;&gt;Node6</title>
<path fill="none" stroke="midnightblue" d="M71,-113.16C71,-87.87 71,-43.94 71,-25.28"/>
<polygon fill="midnightblue" stroke="midnightblue" points="67.5,-113.32 71,-123.32 74.5,-113.32 67.5,-113.32"/>
</g>
<!-- Node8 -->
<g id="node8" class="node">
<title>Node8</title>
<g id="a_node8"><a xlink:href="CoinBehaviour_8cpp.html" target="_top" xlink:title=" ">
<polygon fill="none" stroke="black" points="395,-67.5 395,-86.5 543,-86.5 543,-67.5 395,-67.5"/>
<text text-anchor="middle" x="469" y="-74.5" font-family="Helvetica,sans-Serif" font-size="10.00">src/Scripts/CoinBehaviour.cpp</text>
</a>
</g>
</g>
<!-- Node7&#45;&gt;Node8 -->
<g id="edge8" class="edge">
<title>Node7&#45;&gt;Node8</title>
<path fill="none" stroke="midnightblue" d="M443.95,-114.57C450.31,-105.27 457.87,-94.25 463,-86.75"/>
<polygon fill="midnightblue" stroke="midnightblue" points="440.87,-112.86 438.11,-123.08 446.65,-116.81 440.87,-112.86"/>
</g>
<!-- Node7&#45;&gt;Node9 -->
<g id="edge9" class="edge">
<title>Node7&#45;&gt;Node9</title>
<path fill="none" stroke="midnightblue" d="M406.67,-118.59C387.81,-108.61 362.62,-95.27 346.35,-86.65"/>
<polygon fill="midnightblue" stroke="midnightblue" points="405.14,-121.74 415.61,-123.32 408.41,-115.55 405.14,-121.74"/>
</g>
<!-- Node9&#45;&gt;Node4 -->
<g id="edge10" class="edge">
<title>Node9&#45;&gt;Node4</title>
<path fill="none" stroke="midnightblue" d="M307.34,-62.24C288.41,-50.75 262.01,-34.72 246.01,-25.01"/>
<polygon fill="midnightblue" stroke="midnightblue" points="305.59,-65.28 315.96,-67.48 309.23,-59.29 305.59,-65.28"/>
</g>
<!-- Node9&#45;&gt;Node6 -->
<g id="edge11" class="edge">
<title>Node9&#45;&gt;Node6</title>
<path fill="none" stroke="midnightblue" d="M282.93,-65.19C232.67,-53.64 154.07,-35.58 108.04,-25.01"/>
<polygon fill="midnightblue" stroke="midnightblue" points="282.36,-68.65 292.89,-67.48 283.93,-61.82 282.36,-68.65"/>
</g>
<!-- Node10 -->
<g id="node10" class="node">
<title>Node10</title>
<g id="a_node10"><a xlink:href="MainMenu_8cpp.html" target="_top" xlink:title=" ">
<polygon fill="none" stroke="black" points="321,-6 321,-25 479,-25 479,-6 321,-6"/>
<text text-anchor="middle" x="400" y="-13" font-family="Helvetica,sans-Serif" font-size="10.00">src/Game/Levels/MainMenu.cpp</text>
</a>
</g>
</g>
<!-- Node9&#45;&gt;Node10 -->
<g id="edge12" class="edge">
<title>Node9&#45;&gt;Node10</title>
<path fill="none" stroke="midnightblue" d="M347.68,-60.97C361.07,-49.59 378.98,-34.37 389.99,-25.01"/>
<polygon fill="midnightblue" stroke="midnightblue" points="345.38,-58.33 340.03,-67.48 349.92,-63.67 345.38,-58.33"/>
</g>
<!-- Node11 -->
<g id="node11" class="node">
<title>Node11</title>
<g id="a_node11"><a xlink:href="NetworkingClient_8cpp.html" target="_top" xlink:title=" ">
<polygon fill="none" stroke="black" points="497.5,-0.5 497.5,-30.5 632.5,-30.5 632.5,-0.5 497.5,-0.5"/>
<text text-anchor="start" x="505.5" y="-18.5" font-family="Helvetica,sans-Serif" font-size="10.00">src/Networking/Networking</text>
<text text-anchor="middle" x="565" y="-7.5" font-family="Helvetica,sans-Serif" font-size="10.00">Client.cpp</text>
</a>
</g>
</g>
<!-- Node9&#45;&gt;Node11 -->
<g id="edge13" class="edge">
<title>Node9&#45;&gt;Node11</title>
<path fill="none" stroke="midnightblue" d="M373.51,-64.98C411.89,-55.27 468.04,-41.05 509.62,-30.52"/>
<polygon fill="midnightblue" stroke="midnightblue" points="372.5,-61.63 363.67,-67.48 374.22,-68.41 372.5,-61.63"/>
</g>
</g>
</svg>
