<svg xmlns="http://www.w3.org/2000/svg" xmlns:xlink="http://www.w3.org/1999/xlink" id="main" onload="init(evt)" version="1.1" xml:space="preserve"><style type="text/css">.edge:hover path{stroke:red}.edge:hover polygon{stroke:red;fill:red}</style><script type="text/javascript"><![CDATA[
var edges = document.getElementsByTagName('g');
if (edges && edges.length) {
  for (var i=0;i<edges.length;i++) {
    if (edges[i].id.substr(0,4)=='edge') {
      edges[i].setAttribute('class','edge');
    }
  }
}
]]></script><defs><circle id="rim" cx="0" cy="0" r="7"/><circle id="rim2" cx="0" cy="0" r="3.5"/><g id="zoomPlus"><use fill="#404040" xlink:href="#rim"><set attributeName="fill" begin="zoomplus.mouseover" end="zoomplus.mouseout" to="#808080"/></use><path fill="none" stroke="#fff" stroke-width="1.5" d="M-4,0h8M0,-4v8" pointer-events="none"/></g><g id="zoomMin"><use fill="#404040" xlink:href="#rim"><set attributeName="fill" begin="zoomminus.mouseover" end="zoomminus.mouseout" to="#808080"/></use><path fill="none" stroke="#fff" stroke-width="1.5" d="M-4,0h8" pointer-events="none"/></g><g id="dirArrow"><path fill="none" stroke="#fff" stroke-width="1.5" d="M0,-3.0v7 M-2.5,-0.5L0,-3.0L2.5,-0.5"/></g><g id="resetDef"><use fill="#404040" xlink:href="#rim2"><set attributeName="fill" begin="reset.mouseover" end="reset.mouseout" to="#808080"/></use></g></defs><script type="text/javascript">var viewWidth = 908; var viewHeight = 151; var sectionId = &apos;dynsection-0&apos;;</script><script xlink:href="svgpan.js"/><svg id="graph" class="graph"><g id="viewport"><title>src/Scripts/CoinBehaviour.hpp</title><g id="node1" class="node"><title>Node1</title><g id="a_node1"><a><polygon fill="#bfbfbf" stroke="#000" points="105.5 -123.5 105.5 -142.5 253.5 -142.5 253.5 -123.5 105.5 -123.5"/><text x="179.5" y="-130.5" font-family="Helvetica,sans-Serif" font-size="10" text-anchor="middle">src/Scripts/CoinBehaviour.hpp</text></a></g></g><g id="node2" class="node"><title>Node2</title><g id="a_node2"><a><polygon fill="none" stroke="#bfbfbf" points="9.5 -67.5 9.5 -86.5 113.5 -86.5 113.5 -67.5 9.5 -67.5"/><text x="61.5" y="-74.5" font-family="Helvetica,sans-Serif" font-size="10" text-anchor="middle">BehaviourScript.hpp</text></a></g></g><g id="edge1" class="edge"><title>Node1-&gt;Node2</title><path fill="none" stroke="#191970" d="M160.8,-123.44C141.56,-114.64 111.35,-100.81 89.3,-90.72"/><polygon fill="#191970" stroke="#191970" points="90.66 -87.5 80.11 -86.52 87.75 -93.86 90.66 -87.5"/></g><g id="node3" class="node"><title>Node3</title><g id="a_node3"><a target="_top" xlink:href="CoinCounter_8hpp.html"><polygon fill="none" stroke="#000" points="356 -67.5 356 -86.5 465 -86.5 465 -67.5 356 -67.5"/><text x="410.5" y="-74.5" font-family="Helvetica,sans-Serif" font-size="10" text-anchor="middle">../UI/CoinCounter.hpp</text></a></g></g><g id="edge2" class="edge"><title>Node1-&gt;Node3</title><path fill="none" stroke="#191970" d="M216.1,-123.44C256.23,-114.06 320.7,-98.99 364.28,-88.8"/><polygon fill="#191970" stroke="#191970" points="365.13 -92.2 374.07 -86.52 363.53 -85.38 365.13 -92.2"/></g><g id="node5" class="node"><title>Node5</title><g id="a_node5"><a><polygon fill="none" stroke="#bfbfbf" points="0 -.5 0 -30.5 95 -30.5 95 -.5 0 -.5"/><text x="8" y="-18.5" font-family="Helvetica,sans-Serif" font-size="10" text-anchor="start">boost/serialization</text><text x="47.5" y="-7.5" font-family="Helvetica,sans-Serif" font-size="10" text-anchor="middle">/access.hpp</text></a></g></g><g id="edge12" class="edge"><title>Node1-&gt;Node5</title><path fill="none" stroke="#191970" d="M173.11,-123.37C163.16,-110.29 143.01,-85.05 122.5,-67 109.55,-55.6 93.89,-44.68 80.24,-35.93"/><polygon fill="#191970" stroke="#191970" points="81.94 -32.86 71.61 -30.51 78.21 -38.79 81.94 -32.86"/></g><g id="node6" class="node"><title>Node6</title><g id="a_node6"><a><polygon fill="none" stroke="#bfbfbf" points="113 -.5 113 -30.5 208 -30.5 208 -.5 113 -.5"/><text x="121" y="-18.5" font-family="Helvetica,sans-Serif" font-size="10" text-anchor="start">boost/serialization</text><text x="160.5" y="-7.5" font-family="Helvetica,sans-Serif" font-size="10" text-anchor="middle">/export.hpp</text></a></g></g><g id="edge13" class="edge"><title>Node1-&gt;Node6</title><path fill="none" stroke="#191970" d="M178.07,-123.32C175.22,-105.97 168.72,-66.46 164.47,-40.66"/><polygon fill="#191970" stroke="#191970" points="167.89 -39.84 162.81 -30.55 160.98 -40.98 167.89 -39.84"/></g><g id="node7" class="node"><title>Node7</title><g id="a_node7"><a><polygon fill="none" stroke="#bfbfbf" points="226 -.5 226 -30.5 321 -30.5 321 -.5 226 -.5"/><text x="234" y="-18.5" font-family="Helvetica,sans-Serif" font-size="10" text-anchor="start">boost/serialization</text><text x="273.5" y="-7.5" font-family="Helvetica,sans-Serif" font-size="10" text-anchor="middle">/shared_ptr.hpp</text></a></g></g><g id="edge14" class="edge"><title>Node1-&gt;Node7</title><path fill="none" stroke="#191970" d="M186.57,-123.32C201.07,-105.5 234.58,-64.32 255.5,-38.61"/><polygon fill="#191970" stroke="#191970" points="258.47 -40.51 262.07 -30.55 253.04 -36.09 258.47 -40.51"/></g><g id="node4" class="node"><title>Node4</title><g id="a_node4"><a><polygon fill="none" stroke="#bfbfbf" points="604 -6 604 -25 655 -25 655 -6 604 -6"/><text x="629.5" y="-13" font-family="Helvetica,sans-Serif" font-size="10" text-anchor="middle">memory</text></a></g></g><g id="edge3" class="edge"><title>Node3-&gt;Node4</title><path fill="none" stroke="#191970" d="M453.41,-67.45C491.03,-59.5 546.99,-46.55 594.5,-31 596.63,-30.3 598.82,-29.53 601.01,-28.72"/><polygon fill="#191970" stroke="#191970" points="602.42 -31.93 610.44 -25.01 599.86 -25.41 602.42 -31.93"/></g><g id="edge4" class="edge"><title>Node3-&gt;Node5</title><path fill="none" stroke="#191970" d="M355.85,-69.79C296.32,-62.63 198.15,-49.64 104.95,-31.17"/><polygon fill="#191970" stroke="#191970" points="105.57 -27.73 95.08 -29.19 104.19 -34.59 105.57 -27.73"/></g><g id="edge5" class="edge"><title>Node3-&gt;Node6</title><path fill="none" stroke="#191970" d="M372.73,-67.43C335.83,-59 277.84,-45.62 218.06,-31.11"/><polygon fill="#191970" stroke="#191970" points="218.61 -27.64 208.07 -28.68 216.96 -34.44 218.61 -27.64"/></g><g id="edge6" class="edge"><title>Node3-&gt;Node7</title><path fill="none" stroke="#191970" d="M390.87,-67.48C371.19,-58.93 340.28,-45.5 315.11,-34.57"/><polygon fill="#191970" stroke="#191970" points="316.35 -31.3 305.79 -30.52 313.57 -37.72 316.35 -31.3"/></g><g id="node8" class="node"><title>Node8</title><g id="a_node8"><a><polygon fill="none" stroke="#bfbfbf" points="673.5 -.5 673.5 -30.5 777.5 -30.5 777.5 -.5 673.5 -.5"/><text x="681.5" y="-18.5" font-family="Helvetica,sans-Serif" font-size="10" text-anchor="start">boost/archive/binary</text><text x="725.5" y="-7.5" font-family="Helvetica,sans-Serif" font-size="10" text-anchor="middle">_iarchive.hpp</text></a></g></g><g id="edge7" class="edge"><title>Node3-&gt;Node8</title><path fill="none" stroke="#191970" d="M463.7,-67.5C513,-59.41 588.59,-46.48 663.25,-31.19"/><polygon fill="#191970" stroke="#191970" points="664.21 -34.57 673.3 -29.12 662.8 -27.71 664.21 -34.57"/></g><g id="node9" class="node"><title>Node9</title><g id="a_node9"><a><polygon fill="none" stroke="#bfbfbf" points="795.5 -.5 795.5 -30.5 899.5 -30.5 899.5 -.5 795.5 -.5"/><text x="803.5" y="-18.5" font-family="Helvetica,sans-Serif" font-size="10" text-anchor="start">boost/archive/binary</text><text x="847.5" y="-7.5" font-family="Helvetica,sans-Serif" font-size="10" text-anchor="middle">_oarchive.hpp</text></a></g></g><g id="edge8" class="edge"><title>Node3-&gt;Node9</title><path fill="none" stroke="#191970" d="M465.27,-71.42C536.73,-65.01 665.77,-51.94 785.28,-31.09"/><polygon fill="#191970" stroke="#191970" points="786.1 -34.5 795.34 -29.31 784.88 -27.61 786.1 -34.5"/></g><g id="node10" class="node"><title>Node10</title><g id="a_node10"><a><polygon fill="none" stroke="#bfbfbf" points="339 -6 339 -25 396 -25 396 -6 339 -6"/><text x="367.5" y="-13" font-family="Helvetica,sans-Serif" font-size="10" text-anchor="middle">Color.hpp</text></a></g></g><g id="edge9" class="edge"><title>Node3-&gt;Node10</title><path fill="none" stroke="#191970" d="M404.34,-67.48C397.89,-58.55 387.6,-44.31 379.53,-33.14"/><polygon fill="#191970" stroke="#191970" points="382.34 -31.06 373.65 -25.01 376.67 -35.16 382.34 -31.06"/></g><g id="node11" class="node"><title>Node11</title><g id="a_node11"><a><polygon fill="none" stroke="#bfbfbf" points="414 -6 414 -25 493 -25 493 -6 414 -6"/><text x="453.5" y="-13" font-family="Helvetica,sans-Serif" font-size="10" text-anchor="middle">Transform.hpp</text></a></g></g><g id="edge10" class="edge"><title>Node3-&gt;Node11</title><path fill="none" stroke="#191970" d="M416.66,-67.48C423.11,-58.55 433.4,-44.31 441.47,-33.14"/><polygon fill="#191970" stroke="#191970" points="444.33 -35.16 447.35 -25.01 438.66 -31.06 444.33 -35.16"/></g><g id="node12" class="node"><title>Node12</title><g id="a_node12"><a><polygon fill="none" stroke="#bfbfbf" points="511.5 -6 511.5 -25 585.5 -25 585.5 -6 511.5 -6"/><text x="548.5" y="-13" font-family="Helvetica,sans-Serif" font-size="10" text-anchor="middle">UIObject.hpp</text></a></g></g><g id="edge11" class="edge"><title>Node3-&gt;Node12</title><path fill="none" stroke="#191970" d="M430.27,-67.48C453.64,-57.4 492.71,-40.55 519.5,-29"/><polygon fill="#191970" stroke="#191970" points="520.97 -32.18 528.76 -25.01 518.2 -25.75 520.97 -32.18"/></g></g></svg><g id="navigator" fill="#404254" transform="translate(0 0)"><rect width="60" height="60" x="0" y="0" fill="#f2f5e9" fill-opacity=".5" stroke="#606060" stroke-width=".5"/><use id="zoomplus" x="17" y="9" onmousedown="handleZoom(evt,'in')" xlink:href="#zoomPlus"/><use id="zoomminus" x="42" y="9" onmousedown="handleZoom(evt,'out')" xlink:href="#zoomMin"/><use id="reset" x="30" y="36" onmousedown="handleReset()" xlink:href="#resetDef"/><g id="arrowUp" onmousedown="handlePan(0,-1)" transform="translate(30 24)" xlink:href="#dirArrow"><use fill="#404040" xlink:href="#rim"><set attributeName="fill" begin="arrowUp.mouseover" end="arrowUp.mouseout" to="#808080"/></use><path fill="none" stroke="#fff" stroke-width="1.5" d="M0,-3.0v7 M-2.5,-0.5L0,-3.0L2.5,-0.5"/></g><g id="arrowRight" onmousedown="handlePan(1,0)" transform="rotate(90) translate(36 -43)" xlink:href="#dirArrow"><use fill="#404040" xlink:href="#rim"><set attributeName="fill" begin="arrowRight.mouseover" end="arrowRight.mouseout" to="#808080"/></use><path fill="none" stroke="#fff" stroke-width="1.5" d="M0,-3.0v7 M-2.5,-0.5L0,-3.0L2.5,-0.5"/></g><g id="arrowDown" onmousedown="handlePan(0,1)" transform="rotate(180) translate(-30 -48)" xlink:href="#dirArrow"><use fill="#404040" xlink:href="#rim"><set attributeName="fill" begin="arrowDown.mouseover" end="arrowDown.mouseout" to="#808080"/></use><path fill="none" stroke="#fff" stroke-width="1.5" d="M0,-3.0v7 M-2.5,-0.5L0,-3.0L2.5,-0.5"/></g><g id="arrowLeft" onmousedown="handlePan(-1,0)" transform="rotate(270) translate(-36 17)" xlink:href="#dirArrow"><use fill="#404040" xlink:href="#rim"><set attributeName="fill" begin="arrowLeft.mouseover" end="arrowLeft.mouseout" to="#808080"/></use><path fill="none" stroke="#fff" stroke-width="1.5" d="M0,-3.0v7 M-2.5,-0.5L0,-3.0L2.5,-0.5"/></g></g><svg width="100%" height="30" preserveAspectRatio="xMaxYMin meet" viewBox="0 0 15 15"><g id="arrow_out" transform="scale(0.3 0.3)"><a target="_base" xlink:href="CoinBehaviour_8hpp__incl_org.svg"><rect id="button" width="38" height="38" x="6" y="6" fill="#f2f5e9" fill-opacity=".5" stroke="#606060" stroke-width="1" rx="5" ry="5"/><path id="arrow" d="M 11.500037,31.436501 C 11.940474,20.09759 22.043105,11.32322 32.158766,21.979434 L 37.068811,17.246167 C 37.068811,17.246167 37.088388,32 37.088388,32 L 22.160133,31.978069 C 22.160133,31.978069 26.997745,27.140456 26.997745,27.140456 C 18.528582,18.264221 13.291696,25.230495 11.500037,31.436501 z" style="fill:#404040"/></a></g></svg></svg>