<?xml version="1.0" encoding="UTF-8" standalone="no"?>
<!DOCTYPE svg PUBLIC "-//W3C//DTD SVG 1.1//EN"
 "http://www.w3.org/Graphics/SVG/1.1/DTD/svg11.dtd">
<!-- Generated by graphviz version 2.44.0 ()
 -->
<!-- Title: src/Scripts/CoinBehaviour.cpp Pages: 1 -->
<svg width="908pt" height="207pt"
 viewBox="0.00 0.00 907.50 207.00" xmlns="http://www.w3.org/2000/svg" xmlns:xlink="http://www.w3.org/1999/xlink">
<g id="graph0" class="graph" transform="scale(1 1) rotate(0) translate(4 203)">
<title>src/Scripts/CoinBehaviour.cpp</title>
<!-- Node1 -->
<g id="node1" class="node">
<title>Node1</title>
<g id="a_node1"><a xlink:title=" ">
<polygon fill="#bfbfbf" stroke="black" points="61.5,-179.5 61.5,-198.5 209.5,-198.5 209.5,-179.5 61.5,-179.5"/>
<text text-anchor="middle" x="135.5" y="-186.5" font-family="Helvetica,sans-Serif" font-size="10.00">src/Scripts/CoinBehaviour.cpp</text>
</a>
</g>
</g>
<!-- Node2 -->
<g id="node2" class="node">
<title>Node2</title>
<g id="a_node2"><a xlink:title=" ">
<polygon fill="none" stroke="#bfbfbf" points="0.5,-123.5 0.5,-142.5 54.5,-142.5 54.5,-123.5 0.5,-123.5"/>
<text text-anchor="middle" x="27.5" y="-130.5" font-family="Helvetica,sans-Serif" font-size="10.00">iostream</text>
</a>
</g>
</g>
<!-- Node1&#45;&gt;Node2 -->
<g id="edge1" class="edge">
<title>Node1&#45;&gt;Node2</title>
<path fill="none" stroke="midnightblue" d="M118.15,-179.32C100.83,-170.66 73.98,-157.24 54,-147.25"/>
<polygon fill="midnightblue" stroke="midnightblue" points="55.32,-144 44.81,-142.65 52.19,-150.26 55.32,-144"/>
</g>
<!-- Node3 -->
<g id="node3" class="node">
<title>Node3</title>
<g id="a_node3"><a xlink:title=" ">
<polygon fill="none" stroke="#bfbfbf" points="73,-123.5 73,-142.5 112,-142.5 112,-123.5 73,-123.5"/>
<text text-anchor="middle" x="92.5" y="-130.5" font-family="Helvetica,sans-Serif" font-size="10.00">utility</text>
</a>
</g>
</g>
<!-- Node1&#45;&gt;Node3 -->
<g id="edge2" class="edge">
<title>Node1&#45;&gt;Node3</title>
<path fill="none" stroke="midnightblue" d="M128.4,-179.08C122.26,-171.38 113.23,-160.03 105.76,-150.65"/>
<polygon fill="midnightblue" stroke="midnightblue" points="108.44,-148.39 99.47,-142.75 102.96,-152.75 108.44,-148.39"/>
</g>
<!-- Node4 -->
<g id="node4" class="node">
<title>Node4</title>
<g id="a_node4"><a xlink:href="CoinBehaviour_8hpp.html" target="_top" xlink:title=" ">
<polygon fill="none" stroke="black" points="130.5,-123.5 130.5,-142.5 228.5,-142.5 228.5,-123.5 130.5,-123.5"/>
<text text-anchor="middle" x="179.5" y="-130.5" font-family="Helvetica,sans-Serif" font-size="10.00">CoinBehaviour.hpp</text>
</a>
</g>
</g>
<!-- Node1&#45;&gt;Node4 -->
<g id="edge3" class="edge">
<title>Node1&#45;&gt;Node4</title>
<path fill="none" stroke="midnightblue" d="M142.77,-179.08C149.04,-171.38 158.29,-160.03 165.93,-150.65"/>
<polygon fill="midnightblue" stroke="midnightblue" points="168.77,-152.71 172.37,-142.75 163.34,-148.29 168.77,-152.71"/>
</g>
<!-- Node16 -->
<g id="node16" class="node">
<title>Node16</title>
<g id="a_node16"><a xlink:title=" ">
<polygon fill="none" stroke="#bfbfbf" points="246.5,-123.5 246.5,-142.5 342.5,-142.5 342.5,-123.5 246.5,-123.5"/>
<text text-anchor="middle" x="294.5" y="-130.5" font-family="Helvetica,sans-Serif" font-size="10.00">Engine/Engine.hpp</text>
</a>
</g>
</g>
<!-- Node1&#45;&gt;Node16 -->
<g id="edge18" class="edge">
<title>Node1&#45;&gt;Node16</title>
<path fill="none" stroke="midnightblue" d="M160.69,-179.44C187.44,-170.36 229.9,-155.94 259.81,-145.78"/>
<polygon fill="midnightblue" stroke="midnightblue" points="261.08,-149.05 269.42,-142.52 258.83,-142.42 261.08,-149.05"/>
</g>
<!-- Node5 -->
<g id="node5" class="node">
<title>Node5</title>
<g id="a_node5"><a xlink:title=" ">
<polygon fill="none" stroke="#bfbfbf" points="9.5,-67.5 9.5,-86.5 113.5,-86.5 113.5,-67.5 9.5,-67.5"/>
<text text-anchor="middle" x="61.5" y="-74.5" font-family="Helvetica,sans-Serif" font-size="10.00">BehaviourScript.hpp</text>
</a>
</g>
</g>
<!-- Node4&#45;&gt;Node5 -->
<g id="edge4" class="edge">
<title>Node4&#45;&gt;Node5</title>
<path fill="none" stroke="midnightblue" d="M160.8,-123.44C141.56,-114.64 111.35,-100.81 89.3,-90.72"/>
<polygon fill="midnightblue" stroke="midnightblue" points="90.66,-87.5 80.11,-86.52 87.75,-93.86 90.66,-87.5"/>
</g>
<!-- Node6 -->
<g id="node6" class="node">
<title>Node6</title>
<g id="a_node6"><a xlink:href="CoinCounter_8hpp.html" target="_top" xlink:title=" ">
<polygon fill="none" stroke="black" points="356,-67.5 356,-86.5 465,-86.5 465,-67.5 356,-67.5"/>
<text text-anchor="middle" x="410.5" y="-74.5" font-family="Helvetica,sans-Serif" font-size="10.00">../UI/CoinCounter.hpp</text>
</a>
</g>
</g>
<!-- Node4&#45;&gt;Node6 -->
<g id="edge5" class="edge">
<title>Node4&#45;&gt;Node6</title>
<path fill="none" stroke="midnightblue" d="M216.1,-123.44C256.23,-114.06 320.7,-98.99 364.28,-88.8"/>
<polygon fill="midnightblue" stroke="midnightblue" points="365.13,-92.2 374.07,-86.52 363.53,-85.38 365.13,-92.2"/>
</g>
<!-- Node8 -->
<g id="node8" class="node">
<title>Node8</title>
<g id="a_node8"><a xlink:title=" ">
<polygon fill="none" stroke="#bfbfbf" points="0,-0.5 0,-30.5 95,-30.5 95,-0.5 0,-0.5"/>
<text text-anchor="start" x="8" y="-18.5" font-family="Helvetica,sans-Serif" font-size="10.00">boost/serialization</text>
<text text-anchor="middle" x="47.5" y="-7.5" font-family="Helvetica,sans-Serif" font-size="10.00">/access.hpp</text>
</a>
</g>
</g>
<!-- Node4&#45;&gt;Node8 -->
<g id="edge15" class="edge">
<title>Node4&#45;&gt;Node8</title>
<path fill="none" stroke="midnightblue" d="M173.11,-123.37C163.16,-110.29 143.01,-85.05 122.5,-67 109.55,-55.6 93.89,-44.68 80.24,-35.93"/>
<polygon fill="midnightblue" stroke="midnightblue" points="81.94,-32.86 71.61,-30.51 78.21,-38.79 81.94,-32.86"/>
</g>
<!-- Node9 -->
<g id="node9" class="node">
<title>Node9</title>
<g id="a_node9"><a xlink:title=" ">
<polygon fill="none" stroke="#bfbfbf" points="113,-0.5 113,-30.5 208,-30.5 208,-0.5 113,-0.5"/>
<text text-anchor="start" x="121" y="-18.5" font-family="Helvetica,sans-Serif" font-size="10.00">boost/serialization</text>
<text text-anchor="middle" x="160.5" y="-7.5" font-family="Helvetica,sans-Serif" font-size="10.00">/export.hpp</text>
</a>
</g>
</g>
<!-- Node4&#45;&gt;Node9 -->
<g id="edge16" class="edge">
<title>Node4&#45;&gt;Node9</title>
<path fill="none" stroke="midnightblue" d="M178.07,-123.32C175.22,-105.97 168.72,-66.46 164.47,-40.66"/>
<polygon fill="midnightblue" stroke="midnightblue" points="167.89,-39.84 162.81,-30.55 160.98,-40.98 167.89,-39.84"/>
</g>
<!-- Node10 -->
<g id="node10" class="node">
<title>Node10</title>
<g id="a_node10"><a xlink:title=" ">
<polygon fill="none" stroke="#bfbfbf" points="226,-0.5 226,-30.5 321,-30.5 321,-0.5 226,-0.5"/>
<text text-anchor="start" x="234" y="-18.5" font-family="Helvetica,sans-Serif" font-size="10.00">boost/serialization</text>
<text text-anchor="middle" x="273.5" y="-7.5" font-family="Helvetica,sans-Serif" font-size="10.00">/shared_ptr.hpp</text>
</a>
</g>
</g>
<!-- Node4&#45;&gt;Node10 -->
<g id="edge17" class="edge">
<title>Node4&#45;&gt;Node10</title>
<path fill="none" stroke="midnightblue" d="M186.57,-123.32C201.07,-105.5 234.58,-64.32 255.5,-38.61"/>
<polygon fill="midnightblue" stroke="midnightblue" points="258.47,-40.51 262.07,-30.55 253.04,-36.09 258.47,-40.51"/>
</g>
<!-- Node7 -->
<g id="node7" class="node">
<title>Node7</title>
<g id="a_node7"><a xlink:title=" ">
<polygon fill="none" stroke="#bfbfbf" points="604,-6 604,-25 655,-25 655,-6 604,-6"/>
<text text-anchor="middle" x="629.5" y="-13" font-family="Helvetica,sans-Serif" font-size="10.00">memory</text>
</a>
</g>
</g>
<!-- Node6&#45;&gt;Node7 -->
<g id="edge6" class="edge">
<title>Node6&#45;&gt;Node7</title>
<path fill="none" stroke="midnightblue" d="M453.41,-67.45C491.03,-59.5 546.99,-46.55 594.5,-31 596.63,-30.3 598.82,-29.53 601.01,-28.72"/>
<polygon fill="midnightblue" stroke="midnightblue" points="602.42,-31.93 610.44,-25.01 599.86,-25.41 602.42,-31.93"/>
</g>
<!-- Node6&#45;&gt;Node8 -->
<g id="edge7" class="edge">
<title>Node6&#45;&gt;Node8</title>
<path fill="none" stroke="midnightblue" d="M355.85,-69.79C296.32,-62.63 198.15,-49.64 104.95,-31.17"/>
<polygon fill="midnightblue" stroke="midnightblue" points="105.57,-27.73 95.08,-29.19 104.19,-34.59 105.57,-27.73"/>
</g>
<!-- Node6&#45;&gt;Node9 -->
<g id="edge8" class="edge">
<title>Node6&#45;&gt;Node9</title>
<path fill="none" stroke="midnightblue" d="M372.73,-67.43C335.83,-59 277.84,-45.62 218.06,-31.11"/>
<polygon fill="midnightblue" stroke="midnightblue" points="218.61,-27.64 208.07,-28.68 216.96,-34.44 218.61,-27.64"/>
</g>
<!-- Node6&#45;&gt;Node10 -->
<g id="edge9" class="edge">
<title>Node6&#45;&gt;Node10</title>
<path fill="none" stroke="midnightblue" d="M390.87,-67.48C371.19,-58.93 340.28,-45.5 315.11,-34.57"/>
<polygon fill="midnightblue" stroke="midnightblue" points="316.35,-31.3 305.79,-30.52 313.57,-37.72 316.35,-31.3"/>
</g>
<!-- Node11 -->
<g id="node11" class="node">
<title>Node11</title>
<g id="a_node11"><a xlink:title=" ">
<polygon fill="none" stroke="#bfbfbf" points="673.5,-0.5 673.5,-30.5 777.5,-30.5 777.5,-0.5 673.5,-0.5"/>
<text text-anchor="start" x="681.5" y="-18.5" font-family="Helvetica,sans-Serif" font-size="10.00">boost/archive/binary</text>
<text text-anchor="middle" x="725.5" y="-7.5" font-family="Helvetica,sans-Serif" font-size="10.00">_iarchive.hpp</text>
</a>
</g>
</g>
<!-- Node6&#45;&gt;Node11 -->
<g id="edge10" class="edge">
<title>Node6&#45;&gt;Node11</title>
<path fill="none" stroke="midnightblue" d="M463.7,-67.5C513,-59.41 588.59,-46.48 663.25,-31.19"/>
<polygon fill="midnightblue" stroke="midnightblue" points="664.21,-34.57 673.3,-29.12 662.8,-27.71 664.21,-34.57"/>
</g>
<!-- Node12 -->
<g id="node12" class="node">
<title>Node12</title>
<g id="a_node12"><a xlink:title=" ">
<polygon fill="none" stroke="#bfbfbf" points="795.5,-0.5 795.5,-30.5 899.5,-30.5 899.5,-0.5 795.5,-0.5"/>
<text text-anchor="start" x="803.5" y="-18.5" font-family="Helvetica,sans-Serif" font-size="10.00">boost/archive/binary</text>
<text text-anchor="middle" x="847.5" y="-7.5" font-family="Helvetica,sans-Serif" font-size="10.00">_oarchive.hpp</text>
</a>
</g>
</g>
<!-- Node6&#45;&gt;Node12 -->
<g id="edge11" class="edge">
<title>Node6&#45;&gt;Node12</title>
<path fill="none" stroke="midnightblue" d="M465.27,-71.42C536.73,-65.01 665.77,-51.94 785.28,-31.09"/>
<polygon fill="midnightblue" stroke="midnightblue" points="786.1,-34.5 795.34,-29.31 784.88,-27.61 786.1,-34.5"/>
</g>
<!-- Node13 -->
<g id="node13" class="node">
<title>Node13</title>
<g id="a_node13"><a xlink:title=" ">
<polygon fill="none" stroke="#bfbfbf" points="339,-6 339,-25 396,-25 396,-6 339,-6"/>
<text text-anchor="middle" x="367.5" y="-13" font-family="Helvetica,sans-Serif" font-size="10.00">Color.hpp</text>
</a>
</g>
</g>
<!-- Node6&#45;&gt;Node13 -->
<g id="edge12" class="edge">
<title>Node6&#45;&gt;Node13</title>
<path fill="none" stroke="midnightblue" d="M404.34,-67.48C397.89,-58.55 387.6,-44.31 379.53,-33.14"/>
<polygon fill="midnightblue" stroke="midnightblue" points="382.34,-31.06 373.65,-25.01 376.67,-35.16 382.34,-31.06"/>
</g>
<!-- Node14 -->
<g id="node14" class="node">
<title>Node14</title>
<g id="a_node14"><a xlink:title=" ">
<polygon fill="none" stroke="#bfbfbf" points="414,-6 414,-25 493,-25 493,-6 414,-6"/>
<text text-anchor="middle" x="453.5" y="-13" font-family="Helvetica,sans-Serif" font-size="10.00">Transform.hpp</text>
</a>
</g>
</g>
<!-- Node6&#45;&gt;Node14 -->
<g id="edge13" class="edge">
<title>Node6&#45;&gt;Node14</title>
<path fill="none" stroke="midnightblue" d="M416.66,-67.48C423.11,-58.55 433.4,-44.31 441.47,-33.14"/>
<polygon fill="midnightblue" stroke="midnightblue" points="444.33,-35.16 447.35,-25.01 438.66,-31.06 444.33,-35.16"/>
</g>
<!-- Node15 -->
<g id="node15" class="node">
<title>Node15</title>
<g id="a_node15"><a xlink:title=" ">
<polygon fill="none" stroke="#bfbfbf" points="511.5,-6 511.5,-25 585.5,-25 585.5,-6 511.5,-6"/>
<text text-anchor="middle" x="548.5" y="-13" font-family="Helvetica,sans-Serif" font-size="10.00">UIObject.hpp</text>
</a>
</g>
</g>
<!-- Node6&#45;&gt;Node15 -->
<g id="edge14" class="edge">
<title>Node6&#45;&gt;Node15</title>
<path fill="none" stroke="midnightblue" d="M430.27,-67.48C453.64,-57.4 492.71,-40.55 519.5,-29"/>
<polygon fill="midnightblue" stroke="midnightblue" points="520.97,-32.18 528.76,-25.01 518.2,-25.75 520.97,-32.18"/>
</g>
</g>
</svg>
