<?xml version="1.0" encoding="UTF-8" standalone="no"?>
<!DOCTYPE svg PUBLIC "-//W3C//DTD SVG 1.1//EN"
 "http://www.w3.org/Graphics/SVG/1.1/DTD/svg11.dtd">
<!-- Generated by graphviz version 2.44.0 ()
 -->
<!-- Title: src/UI/CoinCounter.hpp Pages: 1 -->
<svg width="908pt" height="95pt"
 viewBox="0.00 0.00 907.50 95.00" xmlns="http://www.w3.org/2000/svg" xmlns:xlink="http://www.w3.org/1999/xlink">
<g id="graph0" class="graph" transform="scale(1 1) rotate(0) translate(4 91)">
<title>src/UI/CoinCounter.hpp</title>
<!-- Node1 -->
<g id="node1" class="node">
<title>Node1</title>
<g id="a_node1"><a xlink:title=" ">
<polygon fill="#bfbfbf" stroke="black" points="401.5,-67.5 401.5,-86.5 519.5,-86.5 519.5,-67.5 401.5,-67.5"/>
<text text-anchor="middle" x="460.5" y="-74.5" font-family="Helvetica,sans-Serif" font-size="10.00">src/UI/CoinCounter.hpp</text>
</a>
</g>
</g>
<!-- Node2 -->
<g id="node2" class="node">
<title>Node2</title>
<g id="a_node2"><a xlink:title=" ">
<polygon fill="none" stroke="#bfbfbf" points="0,-6 0,-25 51,-25 51,-6 0,-6"/>
<text text-anchor="middle" x="25.5" y="-13" font-family="Helvetica,sans-Serif" font-size="10.00">memory</text>
</a>
</g>
</g>
<!-- Node1&#45;&gt;Node2 -->
<g id="edge1" class="edge">
<title>Node1&#45;&gt;Node2</title>
<path fill="none" stroke="midnightblue" d="M401.41,-74.72C322.32,-71.81 178.23,-62.26 59.5,-31 57.14,-30.38 54.74,-29.62 52.35,-28.79"/>
<polygon fill="midnightblue" stroke="midnightblue" points="53.39,-25.44 42.8,-25.03 50.83,-31.95 53.39,-25.44"/>
</g>
<!-- Node3 -->
<g id="node3" class="node">
<title>Node3</title>
<g id="a_node3"><a xlink:title=" ">
<polygon fill="none" stroke="#bfbfbf" points="69,-0.5 69,-30.5 164,-30.5 164,-0.5 69,-0.5"/>
<text text-anchor="start" x="77" y="-18.5" font-family="Helvetica,sans-Serif" font-size="10.00">boost/serialization</text>
<text text-anchor="middle" x="116.5" y="-7.5" font-family="Helvetica,sans-Serif" font-size="10.00">/access.hpp</text>
</a>
</g>
</g>
<!-- Node1&#45;&gt;Node3 -->
<g id="edge2" class="edge">
<title>Node1&#45;&gt;Node3</title>
<path fill="none" stroke="midnightblue" d="M401.45,-68.5C345.24,-60.98 258.12,-48.3 174.05,-31.21"/>
<polygon fill="midnightblue" stroke="midnightblue" points="174.58,-27.75 164.08,-29.16 173.17,-34.6 174.58,-27.75"/>
</g>
<!-- Node4 -->
<g id="node4" class="node">
<title>Node4</title>
<g id="a_node4"><a xlink:title=" ">
<polygon fill="none" stroke="#bfbfbf" points="182,-0.5 182,-30.5 277,-30.5 277,-0.5 182,-0.5"/>
<text text-anchor="start" x="190" y="-18.5" font-family="Helvetica,sans-Serif" font-size="10.00">boost/serialization</text>
<text text-anchor="middle" x="229.5" y="-7.5" font-family="Helvetica,sans-Serif" font-size="10.00">/export.hpp</text>
</a>
</g>
</g>
<!-- Node1&#45;&gt;Node4 -->
<g id="edge3" class="edge">
<title>Node1&#45;&gt;Node4</title>
<path fill="none" stroke="midnightblue" d="M427.27,-67.47C394.06,-58.95 341.27,-45.38 286.95,-31.37"/>
<polygon fill="midnightblue" stroke="midnightblue" points="287.71,-27.95 277.16,-28.85 285.97,-34.73 287.71,-27.95"/>
</g>
<!-- Node5 -->
<g id="node5" class="node">
<title>Node5</title>
<g id="a_node5"><a xlink:title=" ">
<polygon fill="none" stroke="#bfbfbf" points="295,-0.5 295,-30.5 390,-30.5 390,-0.5 295,-0.5"/>
<text text-anchor="start" x="303" y="-18.5" font-family="Helvetica,sans-Serif" font-size="10.00">boost/serialization</text>
<text text-anchor="middle" x="342.5" y="-7.5" font-family="Helvetica,sans-Serif" font-size="10.00">/shared_ptr.hpp</text>
</a>
</g>
</g>
<!-- Node1&#45;&gt;Node5 -->
<g id="edge4" class="edge">
<title>Node1&#45;&gt;Node5</title>
<path fill="none" stroke="midnightblue" d="M443.59,-67.48C426.94,-59.08 400.95,-45.97 379.49,-35.15"/>
<polygon fill="midnightblue" stroke="midnightblue" points="380.82,-31.9 370.31,-30.52 377.66,-38.15 380.82,-31.9"/>
</g>
<!-- Node6 -->
<g id="node6" class="node">
<title>Node6</title>
<g id="a_node6"><a xlink:title=" ">
<polygon fill="none" stroke="#bfbfbf" points="408.5,-0.5 408.5,-30.5 512.5,-30.5 512.5,-0.5 408.5,-0.5"/>
<text text-anchor="start" x="416.5" y="-18.5" font-family="Helvetica,sans-Serif" font-size="10.00">boost/archive/binary</text>
<text text-anchor="middle" x="460.5" y="-7.5" font-family="Helvetica,sans-Serif" font-size="10.00">_iarchive.hpp</text>
</a>
</g>
</g>
<!-- Node1&#45;&gt;Node6 -->
<g id="edge5" class="edge">
<title>Node1&#45;&gt;Node6</title>
<path fill="none" stroke="midnightblue" d="M460.5,-67.48C460.5,-60.47 460.5,-50.19 460.5,-40.7"/>
<polygon fill="midnightblue" stroke="midnightblue" points="464,-40.52 460.5,-30.52 457,-40.52 464,-40.52"/>
</g>
<!-- Node7 -->
<g id="node7" class="node">
<title>Node7</title>
<g id="a_node7"><a xlink:title=" ">
<polygon fill="none" stroke="#bfbfbf" points="530.5,-0.5 530.5,-30.5 634.5,-30.5 634.5,-0.5 530.5,-0.5"/>
<text text-anchor="start" x="538.5" y="-18.5" font-family="Helvetica,sans-Serif" font-size="10.00">boost/archive/binary</text>
<text text-anchor="middle" x="582.5" y="-7.5" font-family="Helvetica,sans-Serif" font-size="10.00">_oarchive.hpp</text>
</a>
</g>
</g>
<!-- Node1&#45;&gt;Node7 -->
<g id="edge6" class="edge">
<title>Node1&#45;&gt;Node7</title>
<path fill="none" stroke="midnightblue" d="M477.98,-67.48C495.27,-59.04 522.31,-45.86 544.55,-35.01"/>
<polygon fill="midnightblue" stroke="midnightblue" points="546.29,-38.05 553.75,-30.52 543.22,-31.76 546.29,-38.05"/>
</g>
<!-- Node8 -->
<g id="node8" class="node">
<title>Node8</title>
<g id="a_node8"><a xlink:title=" ">
<polygon fill="none" stroke="#bfbfbf" points="653,-6 653,-25 710,-25 710,-6 653,-6"/>
<text text-anchor="middle" x="681.5" y="-13" font-family="Helvetica,sans-Serif" font-size="10.00">Color.hpp</text>
</a>
</g>
</g>
<!-- Node1&#45;&gt;Node8 -->
<g id="edge7" class="edge">
<title>Node1&#45;&gt;Node8</title>
<path fill="none" stroke="midnightblue" d="M501.24,-67.5C538.59,-59.34 595.25,-46.07 643.5,-31 645.92,-30.24 648.4,-29.42 650.89,-28.55"/>
<polygon fill="midnightblue" stroke="midnightblue" points="652.16,-31.81 660.36,-25.1 649.76,-25.24 652.16,-31.81"/>
</g>
<!-- Node9 -->
<g id="node9" class="node">
<title>Node9</title>
<g id="a_node9"><a xlink:title=" ">
<polygon fill="none" stroke="#bfbfbf" points="728,-6 728,-25 807,-25 807,-6 728,-6"/>
<text text-anchor="middle" x="767.5" y="-13" font-family="Helvetica,sans-Serif" font-size="10.00">Transform.hpp</text>
</a>
</g>
</g>
<!-- Node1&#45;&gt;Node9 -->
<g id="edge8" class="edge">
<title>Node1&#45;&gt;Node9</title>
<path fill="none" stroke="midnightblue" d="M519.55,-67.83C572.31,-60.03 651.55,-47.1 719.5,-31 723.39,-30.08 727.43,-29.02 731.44,-27.9"/>
<polygon fill="midnightblue" stroke="midnightblue" points="732.62,-31.21 741.25,-25.06 730.67,-24.48 732.62,-31.21"/>
</g>
<!-- Node10 -->
<g id="node10" class="node">
<title>Node10</title>
<g id="a_node10"><a xlink:title=" ">
<polygon fill="none" stroke="#bfbfbf" points="825.5,-6 825.5,-25 899.5,-25 899.5,-6 825.5,-6"/>
<text text-anchor="middle" x="862.5" y="-13" font-family="Helvetica,sans-Serif" font-size="10.00">UIObject.hpp</text>
</a>
</g>
</g>
<!-- Node1&#45;&gt;Node10 -->
<g id="edge9" class="edge">
<title>Node1&#45;&gt;Node10</title>
<path fill="none" stroke="midnightblue" d="M519.64,-71.79C590.73,-65.99 713.35,-53.58 816.5,-31 820.44,-30.14 824.52,-29.09 828.55,-27.95"/>
<polygon fill="midnightblue" stroke="midnightblue" points="829.8,-31.23 838.37,-25 827.79,-24.53 829.8,-31.23"/>
</g>
</g>
</svg>
