<?xml version="1.0" encoding="UTF-8" standalone="no"?>
<!DOCTYPE svg PUBLIC "-//W3C//DTD SVG 1.1//EN"
 "http://www.w3.org/Graphics/SVG/1.1/DTD/svg11.dtd">
<!-- Generated by graphviz version 2.44.0 ()
 -->
<!-- Title: src/Game Pages: 1 -->
<svg width="186pt" height="319pt"
 viewBox="0.00 0.00 186.00 319.00" xmlns="http://www.w3.org/2000/svg" xmlns:xlink="http://www.w3.org/1999/xlink">
<g id="graph0" class="graph" transform="scale(1 1) rotate(0) translate(4 315)">
<title>src/Game</title>
<g id="clust1" class="cluster">
<title>clusterdir_68267d1309a1af8e8297ef4c3efbcdba</title>
<g id="a_clust1"><a xlink:href="dir_68267d1309a1af8e8297ef4c3efbcdba.html" target="_top" xlink:title="src">
<polygon fill="#ddddee" stroke="black" points="8,-8 8,-303 170,-303 170,-8 8,-8"/>
<text text-anchor="middle" x="89" y="-291" font-family="Helvetica,sans-Serif" font-size="10.00">src</text>
</a>
</g>
</g>
<g id="clust2" class="cluster">
<title>clusterdir_b43036362fece0f978c3c8156df55d19</title>
<g id="a_clust2"><a xlink:href="dir_b43036362fece0f978c3c8156df55d19.html" target="_top">
<polygon fill="#eeeeff" stroke="black" points="92,-152 92,-276 162,-276 162,-152 92,-152"/>
</a>
</g>
</g>
<!-- dir_bd51a612c92e41a52efc1573706495c8 -->
<g id="node1" class="node">
<title>dir_bd51a612c92e41a52efc1573706495c8</title>
<g id="a_node1"><a xlink:href="dir_bd51a612c92e41a52efc1573706495c8.html" target="_top" xlink:title="Networking">
<polygon fill="none" stroke="black" points="82,-268 16,-268 16,-232 82,-232 82,-268"/>
<text text-anchor="middle" x="49" y="-247.5" font-family="Helvetica,sans-Serif" font-size="10.00">Networking</text>
</a>
</g>
</g>
<!-- dir_3ac9928fc2e7e2cbc53db7c1a11acda2 -->
<g id="node2" class="node">
<title>dir_3ac9928fc2e7e2cbc53db7c1a11acda2</title>
<g id="a_node2"><a xlink:href="dir_3ac9928fc2e7e2cbc53db7c1a11acda2.html" target="_top" xlink:title="Scripts">
<polygon fill="none" stroke="red" points="85,-124 31,-124 31,-88 85,-88 85,-124"/>
<text text-anchor="middle" x="58" y="-103.5" font-family="Helvetica,sans-Serif" font-size="10.00">Scripts</text>
</a>
</g>
</g>
<!-- dir_bd51a612c92e41a52efc1573706495c8&#45;&gt;dir_3ac9928fc2e7e2cbc53db7c1a11acda2 -->
<g id="edge3" class="edge">
<title>dir_bd51a612c92e41a52efc1573706495c8&#45;&gt;dir_3ac9928fc2e7e2cbc53db7c1a11acda2</title>
<path fill="none" stroke="black" d="M50.09,-231.87C51.62,-207.67 54.44,-163.21 56.26,-134.39"/>
<polygon fill="black" stroke="black" points="59.77,-134.39 56.91,-124.19 52.78,-133.95 59.77,-134.39"/>
<g id="a_edge3&#45;headlabel"><a xlink:href="dir_000004_000005.html" target="_top" xlink:title="1">
<text text-anchor="middle" x="62.38" y="-135.66" font-family="Helvetica,sans-Serif" font-size="10.00">1</text>
</a>
</g>
</g>
<!-- dir_b43036362fece0f978c3c8156df55d19 -->
<g id="node5" class="node">
<title>dir_b43036362fece0f978c3c8156df55d19</title>
<text text-anchor="middle" x="127" y="-247.5" font-family="Helvetica,sans-Serif" font-size="10.00">Game</text>
</g>
<!-- dir_bd51a612c92e41a52efc1573706495c8&#45;&gt;dir_b43036362fece0f978c3c8156df55d19 -->
<g id="edge5" class="edge">
<title>dir_bd51a612c92e41a52efc1573706495c8&#45;&gt;dir_b43036362fece0f978c3c8156df55d19</title>
<path fill="none" stroke="black" d="M82.21,-250C84.67,-250 87.13,-250 89.59,-250"/>
<polygon fill="black" stroke="black" points="89.71,-253.5 99.71,-250 89.71,-246.5 89.71,-253.5"/>
<g id="a_edge5&#45;headlabel"><a xlink:href="dir_000004_000002.html" target="_top" xlink:title="1">
<text text-anchor="middle" x="86.11" y="-253.84" font-family="Helvetica,sans-Serif" font-size="10.00">1</text>
</a>
</g>
</g>
<!-- dir_676624d39155e642f7363158200b00e6 -->
<g id="node6" class="node">
<title>dir_676624d39155e642f7363158200b00e6</title>
<g id="a_node6"><a xlink:href="dir_676624d39155e642f7363158200b00e6.html" target="_top" xlink:title="Levels">
<polygon fill="white" stroke="black" points="154,-196 100,-196 100,-160 154,-160 154,-196"/>
<text text-anchor="middle" x="127" y="-175.5" font-family="Helvetica,sans-Serif" font-size="10.00">Levels</text>
</a>
</g>
</g>
<!-- dir_bd51a612c92e41a52efc1573706495c8&#45;&gt;dir_676624d39155e642f7363158200b00e6 -->
<g id="edge4" class="edge">
<title>dir_bd51a612c92e41a52efc1573706495c8&#45;&gt;dir_676624d39155e642f7363158200b00e6</title>
<path fill="none" stroke="black" d="M68.28,-231.7C77.92,-223.05 89.73,-212.45 100.23,-203.03"/>
<polygon fill="black" stroke="black" points="102.84,-205.39 107.94,-196.1 98.16,-200.18 102.84,-205.39"/>
<g id="a_edge4&#45;headlabel"><a xlink:href="dir_000004_000003.html" target="_top" xlink:title="1">
<text text-anchor="middle" x="102.06" y="-207.4" font-family="Helvetica,sans-Serif" font-size="10.00">1</text>
</a>
</g>
</g>
<!-- dir_55ef98a57036556dcc9a226e6204f780 -->
<g id="node3" class="node">
<title>dir_55ef98a57036556dcc9a226e6204f780</title>
<g id="a_node3"><a xlink:href="dir_55ef98a57036556dcc9a226e6204f780.html" target="_top" xlink:title="constants">
<polygon fill="none" stroke="black" points="85.5,-52 26.5,-52 26.5,-16 85.5,-16 85.5,-52"/>
<text text-anchor="middle" x="56" y="-31.5" font-family="Helvetica,sans-Serif" font-size="10.00">constants</text>
</a>
</g>
</g>
<!-- dir_3ac9928fc2e7e2cbc53db7c1a11acda2&#45;&gt;dir_55ef98a57036556dcc9a226e6204f780 -->
<g id="edge9" class="edge">
<title>dir_3ac9928fc2e7e2cbc53db7c1a11acda2&#45;&gt;dir_55ef98a57036556dcc9a226e6204f780</title>
<path fill="none" stroke="black" d="M57.51,-87.7C57.29,-79.98 57.02,-70.71 56.77,-62.11"/>
<polygon fill="black" stroke="black" points="60.27,-62 56.49,-52.1 53.28,-62.2 60.27,-62"/>
<g id="a_edge9&#45;headlabel"><a xlink:href="dir_000005_000001.html" target="_top" xlink:title="2">
<text text-anchor="middle" x="63.21" y="-63.01" font-family="Helvetica,sans-Serif" font-size="10.00">2</text>
</a>
</g>
</g>
<!-- dir_7ad25bca70c4d3d9103f75d82f41ef94 -->
<g id="node4" class="node">
<title>dir_7ad25bca70c4d3d9103f75d82f41ef94</title>
<g id="a_node4"><a xlink:href="dir_7ad25bca70c4d3d9103f75d82f41ef94.html" target="_top" xlink:title="UI">
<polygon fill="none" stroke="black" points="158,-52 104,-52 104,-16 158,-16 158,-52"/>
<text text-anchor="middle" x="131" y="-31.5" font-family="Helvetica,sans-Serif" font-size="10.00">UI</text>
</a>
</g>
</g>
<!-- dir_3ac9928fc2e7e2cbc53db7c1a11acda2&#45;&gt;dir_7ad25bca70c4d3d9103f75d82f41ef94 -->
<g id="edge10" class="edge">
<title>dir_3ac9928fc2e7e2cbc53db7c1a11acda2&#45;&gt;dir_7ad25bca70c4d3d9103f75d82f41ef94</title>
<path fill="none" stroke="black" d="M76.04,-87.7C85.06,-79.05 96.12,-68.45 105.94,-59.03"/>
<polygon fill="black" stroke="black" points="108.37,-61.55 113.16,-52.1 103.52,-56.5 108.37,-61.55"/>
<g id="a_edge10&#45;headlabel"><a xlink:href="dir_000005_000007.html" target="_top" xlink:title="1">
<text text-anchor="middle" x="107.74" y="-63.59" font-family="Helvetica,sans-Serif" font-size="10.00">1</text>
</a>
</g>
</g>
<!-- dir_b43036362fece0f978c3c8156df55d19&#45;&gt;dir_bd51a612c92e41a52efc1573706495c8 -->
<g id="edge2" class="edge">
<title>dir_b43036362fece0f978c3c8156df55d19&#45;&gt;dir_bd51a612c92e41a52efc1573706495c8</title>
<path fill="none" stroke="black" d="M99.71,-250C97.25,-250 94.79,-250 92.33,-250"/>
<polygon fill="black" stroke="black" points="92.21,-246.5 82.21,-250 92.21,-253.5 92.21,-246.5"/>
<g id="a_edge2&#45;headlabel"><a xlink:href="dir_000002_000004.html" target="_top" xlink:title="1">
<text text-anchor="middle" x="95.81" y="-241.16" font-family="Helvetica,sans-Serif" font-size="10.00">1</text>
</a>
</g>
</g>
<!-- dir_b43036362fece0f978c3c8156df55d19&#45;&gt;dir_676624d39155e642f7363158200b00e6 -->
<g id="edge1" class="edge">
<title>dir_b43036362fece0f978c3c8156df55d19&#45;&gt;dir_676624d39155e642f7363158200b00e6</title>
<path fill="none" stroke="black" d="M127,-231.7C127,-223.98 127,-214.71 127,-206.11"/>
<polygon fill="black" stroke="black" points="130.5,-206.1 127,-196.1 123.5,-206.1 130.5,-206.1"/>
<g id="a_edge1&#45;headlabel"><a xlink:href="dir_000002_000003.html" target="_top" xlink:title="4">
<text text-anchor="middle" x="133.34" y="-207.2" font-family="Helvetica,sans-Serif" font-size="10.00">4</text>
</a>
</g>
</g>
<!-- dir_676624d39155e642f7363158200b00e6&#45;&gt;dir_3ac9928fc2e7e2cbc53db7c1a11acda2 -->
<g id="edge6" class="edge">
<title>dir_676624d39155e642f7363158200b00e6&#45;&gt;dir_3ac9928fc2e7e2cbc53db7c1a11acda2</title>
<path fill="none" stroke="black" d="M109.94,-159.7C101.5,-151.14 91.18,-140.66 81.96,-131.3"/>
<polygon fill="black" stroke="black" points="84.37,-128.77 74.86,-124.1 79.39,-133.68 84.37,-128.77"/>
<g id="a_edge6&#45;headlabel"><a xlink:href="dir_000003_000005.html" target="_top" xlink:title="4">
<text text-anchor="middle" x="88.92" y="-126.84" font-family="Helvetica,sans-Serif" font-size="10.00">4</text>
</a>
</g>
</g>
<!-- dir_676624d39155e642f7363158200b00e6&#45;&gt;dir_55ef98a57036556dcc9a226e6204f780 -->
<g id="edge7" class="edge">
<title>dir_676624d39155e642f7363158200b00e6&#45;&gt;dir_55ef98a57036556dcc9a226e6204f780</title>
<path fill="none" stroke="black" d="M122.09,-159.69C116.54,-141.31 106.61,-111.72 94,-88 88.98,-78.55 82.49,-68.86 76.29,-60.39"/>
<polygon fill="black" stroke="black" points="79.07,-58.26 70.27,-52.38 73.48,-62.47 79.07,-58.26"/>
<g id="a_edge7&#45;headlabel"><a xlink:href="dir_000003_000001.html" target="_top" xlink:title="1">
<text text-anchor="middle" x="83.5" y="-56.93" font-family="Helvetica,sans-Serif" font-size="10.00">1</text>
</a>
</g>
</g>
<!-- dir_676624d39155e642f7363158200b00e6&#45;&gt;dir_7ad25bca70c4d3d9103f75d82f41ef94 -->
<g id="edge8" class="edge">
<title>dir_676624d39155e642f7363158200b00e6&#45;&gt;dir_7ad25bca70c4d3d9103f75d82f41ef94</title>
<path fill="none" stroke="black" d="M127.48,-159.87C128.16,-135.67 129.42,-91.21 130.23,-62.39"/>
<polygon fill="black" stroke="black" points="133.73,-62.28 130.52,-52.19 126.74,-62.09 133.73,-62.28"/>
<g id="a_edge8&#45;headlabel"><a xlink:href="dir_000003_000007.html" target="_top" xlink:title="2">
<text text-anchor="middle" x="136.47" y="-63.46" font-family="Helvetica,sans-Serif" font-size="10.00">2</text>
</a>
</g>
</g>
</g>
</svg>
