<svg xmlns="http://www.w3.org/2000/svg" xmlns:xlink="http://www.w3.org/1999/xlink" width="190pt" height="247pt" viewBox="0 0 190 247"><g id="graph0" class="graph" transform="scale(1 1) rotate(0) translate(4 243)"><title>src/Scripts</title><g id="clust1" class="cluster"><title>clusterdir_68267d1309a1af8e8297ef4c3efbcdba</title><g id="a_clust1"><a target="_top" xlink:href="dir_68267d1309a1af8e8297ef4c3efbcdba.html" xlink:title="src"><polygon fill="#dde" stroke="#000" points="8 -8 8 -231 174 -231 174 -8 8 -8"/><text x="91" y="-219" font-family="Helvetica,sans-Serif" font-size="10" text-anchor="middle">src</text></a></g></g><g id="clust2" class="cluster"><title>clusterdir_3ac9928fc2e7e2cbc53db7c1a11acda2</title><g id="a_clust2"><a target="_top" xlink:href="dir_3ac9928fc2e7e2cbc53db7c1a11acda2.html"><polygon fill="#eef" stroke="#000" points="16 -80 16 -204 102 -204 102 -80 16 -80"/></a></g></g><g id="node1" class="node"><title>dir_55ef98a57036556dcc9a226e6204f780</title><g id="a_node1"><a target="_top" xlink:href="dir_55ef98a57036556dcc9a226e6204f780.html" xlink:title="constants"><polygon fill="none" stroke="#000" points="88.5 -52 29.5 -52 29.5 -16 88.5 -16 88.5 -52"/><text x="59" y="-31.5" font-family="Helvetica,sans-Serif" font-size="10" text-anchor="middle">constants</text></a></g></g><g id="node2" class="node"><title>dir_7ad25bca70c4d3d9103f75d82f41ef94</title><g id="a_node2"><a target="_top" xlink:href="dir_7ad25bca70c4d3d9103f75d82f41ef94.html" xlink:title="UI"><polygon fill="none" stroke="#000" points="166 -124 112 -124 112 -88 166 -88 166 -124"/><text x="139" y="-103.5" font-family="Helvetica,sans-Serif" font-size="10" text-anchor="middle">UI</text></a></g></g><g id="node3" class="node"><title>dir_3ac9928fc2e7e2cbc53db7c1a11acda2</title><text x="63" y="-175.5" font-family="Helvetica,sans-Serif" font-size="10" text-anchor="middle">Scripts</text></g><g id="edge3" class="edge"><title>dir_3ac9928fc2e7e2cbc53db7c1a11acda2-&gt;dir_7ad25bca70c4d3d9103f75d82f41ef94</title><path fill="none" stroke="#000" d="M81.79,-159.7C91.17,-151.05 102.68,-140.45 112.91,-131.03"/><polygon fill="#000" stroke="#000" points="115.45 -133.45 120.43 -124.1 110.7 -128.3 115.45 -133.45"/><g id="a_edge3-headlabel"><a target="_top" xlink:href="dir_000005_000007.html" xlink:title="1"><text x="114.72" y="-135.48" font-family="Helvetica,sans-Serif" font-size="10" text-anchor="middle">1</text></a></g></g><g id="node4" class="node"><title>dir_732af4ad8dc86e678e5dd877b11f9507</title><g id="a_node4"><a target="_top" xlink:href="dir_732af4ad8dc86e678e5dd877b11f9507.html" xlink:title="MarioStates"><polygon fill="#fff" stroke="#000" points="93.5 -124 24.5 -124 24.5 -88 93.5 -88 93.5 -124"/><text x="59" y="-103.5" font-family="Helvetica,sans-Serif" font-size="10" text-anchor="middle">MarioStates</text></a></g></g><g id="edge2" class="edge"><title>dir_3ac9928fc2e7e2cbc53db7c1a11acda2-&gt;dir_732af4ad8dc86e678e5dd877b11f9507</title><path fill="none" stroke="#000" d="M62.01,-159.7C61.57,-151.98 61.04,-142.71 60.55,-134.11"/><polygon fill="#000" stroke="#000" points="64.04 -133.89 59.98 -124.1 57.05 -134.29 64.04 -133.89"/><g id="a_edge2-headlabel"><a target="_top" xlink:href="dir_000005_000006.html" xlink:title="3"><text x="67.08" y="-134.82" font-family="Helvetica,sans-Serif" font-size="10" text-anchor="middle">3</text></a></g></g><g id="edge1" class="edge"><title>dir_732af4ad8dc86e678e5dd877b11f9507-&gt;dir_55ef98a57036556dcc9a226e6204f780</title><path fill="none" stroke="#000" d="M59,-87.7C59,-79.98 59,-70.71 59,-62.11"/><polygon fill="#000" stroke="#000" points="62.5 -62.1 59 -52.1 55.5 -62.1 62.5 -62.1"/><g id="a_edge1-headlabel"><a target="_top" xlink:href="dir_000006_000001.html" xlink:title="2"><text x="65.34" y="-63.2" font-family="Helvetica,sans-Serif" font-size="10" text-anchor="middle">2</text></a></g></g></g></svg>