<?xml version="1.0" encoding="UTF-8" standalone="no"?>
<!DOCTYPE svg PUBLIC "-//W3C//DTD SVG 1.1//EN"
 "http://www.w3.org/Graphics/SVG/1.1/DTD/svg11.dtd">
<!-- Generated by graphviz version 2.44.0 ()
 -->
<!-- Title: src/Networking Pages: 1 -->
<svg width="126pt" height="239pt"
 viewBox="0.00 0.00 126.00 239.00" xmlns="http://www.w3.org/2000/svg" xmlns:xlink="http://www.w3.org/1999/xlink">
<g id="graph0" class="graph" transform="scale(1 1) rotate(0) translate(4 235)">
<title>src/Networking</title>
<g id="clust1" class="cluster">
<title>clusterdir_68267d1309a1af8e8297ef4c3efbcdba</title>
<g id="a_clust1"><a xlink:href="dir_68267d1309a1af8e8297ef4c3efbcdba.html" target="_top" xlink:title="src">
<polygon fill="#ddddee" stroke="black" points="8,-8 8,-223 110,-223 110,-8 8,-8"/>
<text text-anchor="middle" x="59" y="-211" font-family="Helvetica,sans-Serif" font-size="10.00">src</text>
</a>
</g>
</g>
<!-- dir_3ac9928fc2e7e2cbc53db7c1a11acda2 -->
<g id="node1" class="node">
<title>dir_3ac9928fc2e7e2cbc53db7c1a11acda2</title>
<g id="a_node1"><a xlink:href="dir_3ac9928fc2e7e2cbc53db7c1a11acda2.html" target="_top" xlink:title="Scripts">
<polygon fill="none" stroke="red" points="83,-52 29,-52 29,-16 83,-16 83,-52"/>
<text text-anchor="middle" x="56" y="-31.5" font-family="Helvetica,sans-Serif" font-size="10.00">Scripts</text>
</a>
</g>
</g>
<!-- dir_b43036362fece0f978c3c8156df55d19 -->
<g id="node2" class="node">
<title>dir_b43036362fece0f978c3c8156df55d19</title>
<g id="a_node2"><a xlink:href="dir_b43036362fece0f978c3c8156df55d19.html" target="_top" xlink:title="Game">
<polygon fill="none" stroke="red" points="96,-196 42,-196 42,-160 96,-160 96,-196"/>
<text text-anchor="middle" x="69" y="-175.5" font-family="Helvetica,sans-Serif" font-size="10.00">Game</text>
</a>
</g>
</g>
<!-- dir_b43036362fece0f978c3c8156df55d19&#45;&gt;dir_3ac9928fc2e7e2cbc53db7c1a11acda2 -->
<g id="edge2" class="edge">
<title>dir_b43036362fece0f978c3c8156df55d19&#45;&gt;dir_3ac9928fc2e7e2cbc53db7c1a11acda2</title>
<path fill="none" stroke="black" d="M50.4,-159.76C41.47,-150.2 31.71,-137.53 27,-124 21.74,-108.89 23.04,-103.5 27,-88 29.38,-78.7 33.76,-69.27 38.42,-61"/>
<polygon fill="black" stroke="black" points="41.54,-62.59 43.69,-52.22 35.54,-58.99 41.54,-62.59"/>
<g id="a_edge2&#45;headlabel"><a xlink:href="dir_000002_000005.html" target="_top" xlink:title="4">
<text text-anchor="middle" x="42.13" y="-64.63" font-family="Helvetica,sans-Serif" font-size="10.00">4</text>
</a>
</g>
</g>
<!-- dir_bd51a612c92e41a52efc1573706495c8 -->
<g id="node3" class="node">
<title>dir_bd51a612c92e41a52efc1573706495c8</title>
<g id="a_node3"><a xlink:href="dir_bd51a612c92e41a52efc1573706495c8.html" target="_top" xlink:title="Networking">
<polygon fill="#eeeeff" stroke="black" points="102,-124 36,-124 36,-88 102,-88 102,-124"/>
<text text-anchor="middle" x="69" y="-103.5" font-family="Helvetica,sans-Serif" font-size="10.00">Networking</text>
</a>
</g>
</g>
<!-- dir_b43036362fece0f978c3c8156df55d19&#45;&gt;dir_bd51a612c92e41a52efc1573706495c8 -->
<g id="edge1" class="edge">
<title>dir_b43036362fece0f978c3c8156df55d19&#45;&gt;dir_bd51a612c92e41a52efc1573706495c8</title>
<path fill="none" stroke="black" d="M63.08,-159.7C62.29,-151.98 62.06,-142.71 62.4,-134.11"/>
<polygon fill="black" stroke="black" points="65.9,-134.32 63.1,-124.1 58.92,-133.84 65.9,-134.32"/>
<g id="a_edge1&#45;headlabel"><a xlink:href="dir_000002_000004.html" target="_top" xlink:title="1">
<text text-anchor="middle" x="68.48" y="-135.61" font-family="Helvetica,sans-Serif" font-size="10.00">1</text>
</a>
</g>
</g>
<!-- dir_bd51a612c92e41a52efc1573706495c8&#45;&gt;dir_3ac9928fc2e7e2cbc53db7c1a11acda2 -->
<g id="edge3" class="edge">
<title>dir_bd51a612c92e41a52efc1573706495c8&#45;&gt;dir_3ac9928fc2e7e2cbc53db7c1a11acda2</title>
<path fill="none" stroke="black" d="M65.79,-87.7C64.35,-79.98 62.63,-70.71 61.04,-62.11"/>
<polygon fill="black" stroke="black" points="64.44,-61.3 59.18,-52.1 57.56,-62.58 64.44,-61.3"/>
<g id="a_edge3&#45;headlabel"><a xlink:href="dir_000004_000005.html" target="_top" xlink:title="1">
<text text-anchor="middle" x="67.89" y="-61.81" font-family="Helvetica,sans-Serif" font-size="10.00">1</text>
</a>
</g>
</g>
<!-- dir_bd51a612c92e41a52efc1573706495c8&#45;&gt;dir_b43036362fece0f978c3c8156df55d19 -->
<g id="edge4" class="edge">
<title>dir_bd51a612c92e41a52efc1573706495c8&#45;&gt;dir_b43036362fece0f978c3c8156df55d19</title>
<path fill="none" stroke="black" d="M74.9,-124.1C75.7,-131.79 75.94,-141.05 75.6,-149.67"/>
<polygon fill="black" stroke="black" points="72.11,-149.48 74.92,-159.7 79.09,-149.96 72.11,-149.48"/>
<g id="a_edge4&#45;headlabel"><a xlink:href="dir_000004_000002.html" target="_top" xlink:title="1">
<text text-anchor="middle" x="69.52" y="-143.2" font-family="Helvetica,sans-Serif" font-size="10.00">1</text>
</a>
</g>
</g>
</g>
</svg>
