<svg xmlns="http://www.w3.org/2000/svg" xmlns:xlink="http://www.w3.org/1999/xlink" width="110pt" height="151pt" viewBox="0 0 110 151"><g id="graph0" class="graph" transform="scale(1 1) rotate(0) translate(4 147)"><title>src/Scripts/MarioStates</title><g id="clust1" class="cluster"><title>clusterdir_3ac9928fc2e7e2cbc53db7c1a11acda2</title><g id="a_clust1"><a target="_top" xlink:href="dir_3ac9928fc2e7e2cbc53db7c1a11acda2.html" xlink:title="Scripts"><polygon fill="#dde" stroke="#000" points="8 -64 8 -135 94 -135 94 -64 8 -64"/><text x="51" y="-123" font-family="Helvetica,sans-Serif" font-size="10" text-anchor="middle">Scripts</text></a></g></g><g id="node1" class="node"><title>dir_732af4ad8dc86e678e5dd877b11f9507</title><g id="a_node1"><a target="_top" xlink:href="dir_732af4ad8dc86e678e5dd877b11f9507.html" xlink:title="MarioStates"><polygon fill="#eef" stroke="#000" points="85.5 -108 16.5 -108 16.5 -72 85.5 -72 85.5 -108"/><text x="51" y="-87.5" font-family="Helvetica,sans-Serif" font-size="10" text-anchor="middle">MarioStates</text></a></g></g><g id="node2" class="node"><title>dir_55ef98a57036556dcc9a226e6204f780</title><g id="a_node2"><a target="_top" xlink:href="dir_55ef98a57036556dcc9a226e6204f780.html" xlink:title="constants"><polygon fill="none" stroke="#000" points="80.5 -36 21.5 -36 21.5 0 80.5 0 80.5 -36"/><text x="51" y="-15.5" font-family="Helvetica,sans-Serif" font-size="10" text-anchor="middle">constants</text></a></g></g><g id="edge1" class="edge"><title>dir_732af4ad8dc86e678e5dd877b11f9507-&gt;dir_55ef98a57036556dcc9a226e6204f780</title><path fill="none" stroke="#000" d="M51,-71.7C51,-63.98 51,-54.71 51,-46.11"/><polygon fill="#000" stroke="#000" points="54.5 -46.1 51 -36.1 47.5 -46.1 54.5 -46.1"/><g id="a_edge1-headlabel"><a target="_top" xlink:href="dir_000006_000001.html" xlink:title="2"><text x="57.34" y="-47.2" font-family="Helvetica,sans-Serif" font-size="10" text-anchor="middle">2</text></a></g></g></g></svg>