<?xml version="1.0" encoding="UTF-8" standalone="no"?>
<!DOCTYPE svg PUBLIC "-//W3C//DTD SVG 1.1//EN"
 "http://www.w3.org/Graphics/SVG/1.1/DTD/svg11.dtd">
<!-- Generated by graphviz version 2.44.0 ()
 -->
<!-- Title: src Pages: 1 -->
<svg width="172pt" height="292pt"
 viewBox="0.00 0.00 172.00 292.00" xmlns="http://www.w3.org/2000/svg" xmlns:xlink="http://www.w3.org/1999/xlink">
<g id="graph0" class="graph" transform="scale(1 1) rotate(0) translate(4 288)">
<title>src</title>
<g id="clust1" class="cluster">
<title>clusterdir_68267d1309a1af8e8297ef4c3efbcdba</title>
<g id="a_clust1"><a xlink:href="dir_68267d1309a1af8e8297ef4c3efbcdba.html" target="_top">
<polygon fill="#eeeeff" stroke="black" points="8,-8 8,-276 156,-276 156,-8 8,-8"/>
</a>
</g>
</g>
<!-- dir_68267d1309a1af8e8297ef4c3efbcdba -->
<g id="node1" class="node">
<title>dir_68267d1309a1af8e8297ef4c3efbcdba</title>
<text text-anchor="middle" x="121" y="-247.5" font-family="Helvetica,sans-Serif" font-size="10.00">src</text>
</g>
<!-- dir_55ef98a57036556dcc9a226e6204f780 -->
<g id="node2" class="node">
<title>dir_55ef98a57036556dcc9a226e6204f780</title>
<g id="a_node2"><a xlink:href="dir_55ef98a57036556dcc9a226e6204f780.html" target="_top" xlink:title="constants">
<polygon fill="white" stroke="black" points="75.5,-52 16.5,-52 16.5,-16 75.5,-16 75.5,-52"/>
<text text-anchor="middle" x="46" y="-31.5" font-family="Helvetica,sans-Serif" font-size="10.00">constants</text>
</a>
</g>
</g>
<!-- dir_b43036362fece0f978c3c8156df55d19 -->
<g id="node3" class="node">
<title>dir_b43036362fece0f978c3c8156df55d19</title>
<g id="a_node3"><a xlink:href="dir_b43036362fece0f978c3c8156df55d19.html" target="_top" xlink:title="Game">
<polygon fill="white" stroke="red" points="76,-268 22,-268 22,-232 76,-232 76,-268"/>
<text text-anchor="middle" x="49" y="-247.5" font-family="Helvetica,sans-Serif" font-size="10.00">Game</text>
</a>
</g>
</g>
<!-- dir_b43036362fece0f978c3c8156df55d19&#45;&gt;dir_55ef98a57036556dcc9a226e6204f780 -->
<g id="edge3" class="edge">
<title>dir_b43036362fece0f978c3c8156df55d19&#45;&gt;dir_55ef98a57036556dcc9a226e6204f780</title>
<path fill="none" stroke="black" d="M39.87,-231.88C34.99,-221.76 29.49,-208.51 27,-196 17.71,-149.38 28.95,-94.19 37.67,-62.04"/>
<polygon fill="black" stroke="black" points="41.14,-62.64 40.5,-52.06 34.41,-60.73 41.14,-62.64"/>
<g id="a_edge3&#45;headlabel"><a xlink:href="dir_000002_000001.html" target="_top" xlink:title="1">
<text text-anchor="middle" x="42.89" y="-64.37" font-family="Helvetica,sans-Serif" font-size="10.00">1</text>
</a>
</g>
</g>
<!-- dir_bd51a612c92e41a52efc1573706495c8 -->
<g id="node4" class="node">
<title>dir_bd51a612c92e41a52efc1573706495c8</title>
<g id="a_node4"><a xlink:href="dir_bd51a612c92e41a52efc1573706495c8.html" target="_top" xlink:title="Networking">
<polygon fill="white" stroke="black" points="102,-196 36,-196 36,-160 102,-160 102,-196"/>
<text text-anchor="middle" x="69" y="-175.5" font-family="Helvetica,sans-Serif" font-size="10.00">Networking</text>
</a>
</g>
</g>
<!-- dir_b43036362fece0f978c3c8156df55d19&#45;&gt;dir_bd51a612c92e41a52efc1573706495c8 -->
<g id="edge1" class="edge">
<title>dir_b43036362fece0f978c3c8156df55d19&#45;&gt;dir_bd51a612c92e41a52efc1573706495c8</title>
<path fill="none" stroke="black" d="M48.03,-231.7C49.47,-223.81 51.97,-214.3 54.84,-205.55"/>
<polygon fill="black" stroke="black" points="58.15,-206.7 58.22,-196.1 51.56,-204.34 58.15,-206.7"/>
<g id="a_edge1&#45;headlabel"><a xlink:href="dir_000002_000004.html" target="_top" xlink:title="1">
<text text-anchor="middle" x="59.61" y="-208.54" font-family="Helvetica,sans-Serif" font-size="10.00">1</text>
</a>
</g>
</g>
<!-- dir_3ac9928fc2e7e2cbc53db7c1a11acda2 -->
<g id="node5" class="node">
<title>dir_3ac9928fc2e7e2cbc53db7c1a11acda2</title>
<g id="a_node5"><a xlink:href="dir_3ac9928fc2e7e2cbc53db7c1a11acda2.html" target="_top" xlink:title="Scripts">
<polygon fill="white" stroke="red" points="109,-124 55,-124 55,-88 109,-88 109,-124"/>
<text text-anchor="middle" x="82" y="-103.5" font-family="Helvetica,sans-Serif" font-size="10.00">Scripts</text>
</a>
</g>
</g>
<!-- dir_b43036362fece0f978c3c8156df55d19&#45;&gt;dir_3ac9928fc2e7e2cbc53db7c1a11acda2 -->
<g id="edge2" class="edge">
<title>dir_b43036362fece0f978c3c8156df55d19&#45;&gt;dir_3ac9928fc2e7e2cbc53db7c1a11acda2</title>
<path fill="none" stroke="black" d="M76.24,-233.54C89.35,-224.46 103.77,-211.69 111,-196 120.44,-175.51 111.12,-151.08 100.6,-133"/>
<polygon fill="black" stroke="black" points="103.36,-130.8 95.09,-124.18 97.42,-134.51 103.36,-130.8"/>
<g id="a_edge2&#45;headlabel"><a xlink:href="dir_000002_000005.html" target="_top" xlink:title="4">
<text text-anchor="middle" x="107.67" y="-129.85" font-family="Helvetica,sans-Serif" font-size="10.00">4</text>
</a>
</g>
</g>
<!-- dir_7ad25bca70c4d3d9103f75d82f41ef94 -->
<g id="node6" class="node">
<title>dir_7ad25bca70c4d3d9103f75d82f41ef94</title>
<g id="a_node6"><a xlink:href="dir_7ad25bca70c4d3d9103f75d82f41ef94.html" target="_top" xlink:title="UI">
<polygon fill="white" stroke="black" points="148,-52 94,-52 94,-16 148,-16 148,-52"/>
<text text-anchor="middle" x="121" y="-31.5" font-family="Helvetica,sans-Serif" font-size="10.00">UI</text>
</a>
</g>
</g>
<!-- dir_b43036362fece0f978c3c8156df55d19&#45;&gt;dir_7ad25bca70c4d3d9103f75d82f41ef94 -->
<g id="edge4" class="edge">
<title>dir_b43036362fece0f978c3c8156df55d19&#45;&gt;dir_7ad25bca70c4d3d9103f75d82f41ef94</title>
<path fill="none" stroke="black" d="M76.19,-235.54C91.11,-226.57 108.31,-213.24 117,-196 138.57,-153.19 133.04,-95.51 127.04,-62.08"/>
<polygon fill="black" stroke="black" points="130.45,-61.28 125.11,-52.13 123.58,-62.61 130.45,-61.28"/>
<g id="a_edge4&#45;headlabel"><a xlink:href="dir_000002_000007.html" target="_top" xlink:title="2">
<text text-anchor="middle" x="133.92" y="-61.76" font-family="Helvetica,sans-Serif" font-size="10.00">2</text>
</a>
</g>
</g>
<!-- dir_bd51a612c92e41a52efc1573706495c8&#45;&gt;dir_b43036362fece0f978c3c8156df55d19 -->
<g id="edge6" class="edge">
<title>dir_bd51a612c92e41a52efc1573706495c8&#45;&gt;dir_b43036362fece0f978c3c8156df55d19</title>
<path fill="none" stroke="black" d="M70.01,-196.1C68.59,-203.96 66.1,-213.46 63.23,-222.23"/>
<polygon fill="black" stroke="black" points="59.92,-221.1 59.86,-231.7 66.51,-223.45 59.92,-221.1"/>
<g id="a_edge6&#45;headlabel"><a xlink:href="dir_000004_000002.html" target="_top" xlink:title="1">
<text text-anchor="middle" x="58.45" y="-214.26" font-family="Helvetica,sans-Serif" font-size="10.00">1</text>
</a>
</g>
</g>
<!-- dir_bd51a612c92e41a52efc1573706495c8&#45;&gt;dir_3ac9928fc2e7e2cbc53db7c1a11acda2 -->
<g id="edge5" class="edge">
<title>dir_bd51a612c92e41a52efc1573706495c8&#45;&gt;dir_3ac9928fc2e7e2cbc53db7c1a11acda2</title>
<path fill="none" stroke="black" d="M72.21,-159.7C73.65,-151.98 75.37,-142.71 76.96,-134.11"/>
<polygon fill="black" stroke="black" points="80.44,-134.58 78.82,-124.1 73.56,-133.3 80.44,-134.58"/>
<g id="a_edge5&#45;headlabel"><a xlink:href="dir_000004_000005.html" target="_top" xlink:title="1">
<text text-anchor="middle" x="82.57" y="-136.13" font-family="Helvetica,sans-Serif" font-size="10.00">1</text>
</a>
</g>
</g>
<!-- dir_3ac9928fc2e7e2cbc53db7c1a11acda2&#45;&gt;dir_55ef98a57036556dcc9a226e6204f780 -->
<g id="edge7" class="edge">
<title>dir_3ac9928fc2e7e2cbc53db7c1a11acda2&#45;&gt;dir_55ef98a57036556dcc9a226e6204f780</title>
<path fill="none" stroke="black" d="M73.1,-87.7C69,-79.73 64.05,-70.1 59.51,-61.26"/>
<polygon fill="black" stroke="black" points="62.48,-59.4 54.8,-52.1 56.26,-62.6 62.48,-59.4"/>
<g id="a_edge7&#45;headlabel"><a xlink:href="dir_000005_000001.html" target="_top" xlink:title="2">
<text text-anchor="middle" x="66.65" y="-58.79" font-family="Helvetica,sans-Serif" font-size="10.00">2</text>
</a>
</g>
</g>
<!-- dir_3ac9928fc2e7e2cbc53db7c1a11acda2&#45;&gt;dir_7ad25bca70c4d3d9103f75d82f41ef94 -->
<g id="edge8" class="edge">
<title>dir_3ac9928fc2e7e2cbc53db7c1a11acda2&#45;&gt;dir_7ad25bca70c4d3d9103f75d82f41ef94</title>
<path fill="none" stroke="black" d="M91.64,-87.7C96.13,-79.64 101.56,-69.89 106.52,-60.98"/>
<polygon fill="black" stroke="black" points="109.66,-62.54 111.47,-52.1 103.55,-59.14 109.66,-62.54"/>
<g id="a_edge8&#45;headlabel"><a xlink:href="dir_000005_000007.html" target="_top" xlink:title="1">
<text text-anchor="middle" x="110.39" y="-64.57" font-family="Helvetica,sans-Serif" font-size="10.00">1</text>
</a>
</g>
</g>
</g>
</svg>
