<?xml version="1.0" encoding="UTF-8" standalone="no"?>
<!DOCTYPE svg PUBLIC "-//W3C//DTD SVG 1.1//EN"
 "http://www.w3.org/Graphics/SVG/1.1/DTD/svg11.dtd">
<!-- Generated by graphviz version 2.44.0 ()
 -->
<!-- Title: src/Game/Levels Pages: 1 -->
<svg width="149pt" height="223pt"
 viewBox="0.00 0.00 148.50 223.00" xmlns="http://www.w3.org/2000/svg" xmlns:xlink="http://www.w3.org/1999/xlink">
<g id="graph0" class="graph" transform="scale(1 1) rotate(0) translate(4 219)">
<title>src/Game/Levels</title>
<g id="clust1" class="cluster">
<title>clusterdir_b43036362fece0f978c3c8156df55d19</title>
<g id="a_clust1"><a xlink:href="dir_b43036362fece0f978c3c8156df55d19.html" target="_top" xlink:title="Game">
<polygon fill="#ddddee" stroke="black" points="32.5,-136 32.5,-207 102.5,-207 102.5,-136 32.5,-136"/>
<text text-anchor="middle" x="67.5" y="-195" font-family="Helvetica,sans-Serif" font-size="10.00">Game</text>
</a>
</g>
</g>
<!-- dir_676624d39155e642f7363158200b00e6 -->
<g id="node1" class="node">
<title>dir_676624d39155e642f7363158200b00e6</title>
<g id="a_node1"><a xlink:href="dir_676624d39155e642f7363158200b00e6.html" target="_top" xlink:title="Levels">
<polygon fill="#eeeeff" stroke="black" points="94.5,-180 40.5,-180 40.5,-144 94.5,-144 94.5,-180"/>
<text text-anchor="middle" x="67.5" y="-159.5" font-family="Helvetica,sans-Serif" font-size="10.00">Levels</text>
</a>
</g>
</g>
<!-- dir_3ac9928fc2e7e2cbc53db7c1a11acda2 -->
<g id="node2" class="node">
<title>dir_3ac9928fc2e7e2cbc53db7c1a11acda2</title>
<g id="a_node2"><a xlink:href="dir_3ac9928fc2e7e2cbc53db7c1a11acda2.html" target="_top" xlink:title="Scripts">
<polygon fill="none" stroke="red" points="94.5,-108 40.5,-108 40.5,-72 94.5,-72 94.5,-108"/>
<text text-anchor="middle" x="67.5" y="-87.5" font-family="Helvetica,sans-Serif" font-size="10.00">Scripts</text>
</a>
</g>
</g>
<!-- dir_676624d39155e642f7363158200b00e6&#45;&gt;dir_3ac9928fc2e7e2cbc53db7c1a11acda2 -->
<g id="edge1" class="edge">
<title>dir_676624d39155e642f7363158200b00e6&#45;&gt;dir_3ac9928fc2e7e2cbc53db7c1a11acda2</title>
<path fill="none" stroke="black" d="M67.5,-143.7C67.5,-135.98 67.5,-126.71 67.5,-118.11"/>
<polygon fill="black" stroke="black" points="71,-118.1 67.5,-108.1 64,-118.1 71,-118.1"/>
<g id="a_edge1&#45;headlabel"><a xlink:href="dir_000003_000005.html" target="_top" xlink:title="4">
<text text-anchor="middle" x="73.84" y="-119.2" font-family="Helvetica,sans-Serif" font-size="10.00">4</text>
</a>
</g>
</g>
<!-- dir_55ef98a57036556dcc9a226e6204f780 -->
<g id="node3" class="node">
<title>dir_55ef98a57036556dcc9a226e6204f780</title>
<g id="a_node3"><a xlink:href="dir_55ef98a57036556dcc9a226e6204f780.html" target="_top" xlink:title="constants">
<polygon fill="none" stroke="black" points="59,-36 0,-36 0,0 59,0 59,-36"/>
<text text-anchor="middle" x="29.5" y="-15.5" font-family="Helvetica,sans-Serif" font-size="10.00">constants</text>
</a>
</g>
</g>
<!-- dir_676624d39155e642f7363158200b00e6&#45;&gt;dir_55ef98a57036556dcc9a226e6204f780 -->
<g id="edge2" class="edge">
<title>dir_676624d39155e642f7363158200b00e6&#45;&gt;dir_55ef98a57036556dcc9a226e6204f780</title>
<path fill="none" stroke="black" d="M52.01,-143.74C44.28,-133.98 35.7,-121.14 31.5,-108 25.11,-88.04 24.93,-64.25 26.17,-46.29"/>
<polygon fill="black" stroke="black" points="29.67,-46.47 27.06,-36.2 22.7,-45.86 29.67,-46.47"/>
<g id="a_edge2&#45;headlabel"><a xlink:href="dir_000003_000001.html" target="_top" xlink:title="1">
<text text-anchor="middle" x="32.19" y="-47.8" font-family="Helvetica,sans-Serif" font-size="10.00">1</text>
</a>
</g>
</g>
<!-- dir_7ad25bca70c4d3d9103f75d82f41ef94 -->
<g id="node4" class="node">
<title>dir_7ad25bca70c4d3d9103f75d82f41ef94</title>
<g id="a_node4"><a xlink:href="dir_7ad25bca70c4d3d9103f75d82f41ef94.html" target="_top" xlink:title="UI">
<polygon fill="none" stroke="black" points="140.5,-36 86.5,-36 86.5,0 140.5,0 140.5,-36"/>
<text text-anchor="middle" x="113.5" y="-15.5" font-family="Helvetica,sans-Serif" font-size="10.00">UI</text>
</a>
</g>
</g>
<!-- dir_676624d39155e642f7363158200b00e6&#45;&gt;dir_7ad25bca70c4d3d9103f75d82f41ef94 -->
<g id="edge3" class="edge">
<title>dir_676624d39155e642f7363158200b00e6&#45;&gt;dir_7ad25bca70c4d3d9103f75d82f41ef94</title>
<path fill="none" stroke="black" d="M82.53,-143.58C90.12,-133.78 98.72,-120.94 103.5,-108 110.82,-88.22 113.19,-64.42 113.8,-46.41"/>
<polygon fill="black" stroke="black" points="117.3,-46.35 113.98,-36.29 110.3,-46.23 117.3,-46.35"/>
<g id="a_edge3&#45;headlabel"><a xlink:href="dir_000003_000007.html" target="_top" xlink:title="2">
<text text-anchor="middle" x="120.07" y="-47.5" font-family="Helvetica,sans-Serif" font-size="10.00">2</text>
</a>
</g>
</g>
<!-- dir_3ac9928fc2e7e2cbc53db7c1a11acda2&#45;&gt;dir_55ef98a57036556dcc9a226e6204f780 -->
<g id="edge4" class="edge">
<title>dir_3ac9928fc2e7e2cbc53db7c1a11acda2&#45;&gt;dir_55ef98a57036556dcc9a226e6204f780</title>
<path fill="none" stroke="black" d="M58.11,-71.7C53.74,-63.64 48.44,-53.89 43.6,-44.98"/>
<polygon fill="black" stroke="black" points="46.63,-43.22 38.79,-36.1 40.48,-46.56 46.63,-43.22"/>
<g id="a_edge4&#45;headlabel"><a xlink:href="dir_000005_000001.html" target="_top" xlink:title="2">
<text text-anchor="middle" x="50.84" y="-42.53" font-family="Helvetica,sans-Serif" font-size="10.00">2</text>
</a>
</g>
</g>
<!-- dir_3ac9928fc2e7e2cbc53db7c1a11acda2&#45;&gt;dir_7ad25bca70c4d3d9103f75d82f41ef94 -->
<g id="edge5" class="edge">
<title>dir_3ac9928fc2e7e2cbc53db7c1a11acda2&#45;&gt;dir_7ad25bca70c4d3d9103f75d82f41ef94</title>
<path fill="none" stroke="black" d="M78.87,-71.7C84.22,-63.56 90.7,-53.69 96.61,-44.7"/>
<polygon fill="black" stroke="black" points="99.69,-46.38 102.26,-36.1 93.84,-42.54 99.69,-46.38"/>
<g id="a_edge5&#45;headlabel"><a xlink:href="dir_000005_000007.html" target="_top" xlink:title="1">
<text text-anchor="middle" x="100.09" y="-48.45" font-family="Helvetica,sans-Serif" font-size="10.00">1</text>
</a>
</g>
</g>
</g>
</svg>
