<?xml version="1.0" encoding="UTF-8" standalone="no"?>
<!DOCTYPE svg PUBLIC "-//W3C//DTD SVG 1.1//EN"
 "http://www.w3.org/Graphics/SVG/1.1/DTD/svg11.dtd">
<!-- Generated by graphviz version 2.44.0 ()
 -->
<!-- Title: src/Scripts Pages: 1 -->
<svg width="190pt" height="247pt"
 viewBox="0.00 0.00 190.00 247.00" xmlns="http://www.w3.org/2000/svg" xmlns:xlink="http://www.w3.org/1999/xlink">
<g id="graph0" class="graph" transform="scale(1 1) rotate(0) translate(4 243)">
<title>src/Scripts</title>
<g id="clust1" class="cluster">
<title>clusterdir_68267d1309a1af8e8297ef4c3efbcdba</title>
<g id="a_clust1"><a xlink:href="dir_68267d1309a1af8e8297ef4c3efbcdba.html" target="_top" xlink:title="src">
<polygon fill="#ddddee" stroke="black" points="8,-8 8,-231 174,-231 174,-8 8,-8"/>
<text text-anchor="middle" x="91" y="-219" font-family="Helvetica,sans-Serif" font-size="10.00">src</text>
</a>
</g>
</g>
<g id="clust2" class="cluster">
<title>clusterdir_3ac9928fc2e7e2cbc53db7c1a11acda2</title>
<g id="a_clust2"><a xlink:href="dir_3ac9928fc2e7e2cbc53db7c1a11acda2.html" target="_top">
<polygon fill="#eeeeff" stroke="black" points="16,-80 16,-204 102,-204 102,-80 16,-80"/>
</a>
</g>
</g>
<!-- dir_55ef98a57036556dcc9a226e6204f780 -->
<g id="node1" class="node">
<title>dir_55ef98a57036556dcc9a226e6204f780</title>
<g id="a_node1"><a xlink:href="dir_55ef98a57036556dcc9a226e6204f780.html" target="_top" xlink:title="constants">
<polygon fill="none" stroke="black" points="88.5,-52 29.5,-52 29.5,-16 88.5,-16 88.5,-52"/>
<text text-anchor="middle" x="59" y="-31.5" font-family="Helvetica,sans-Serif" font-size="10.00">constants</text>
</a>
</g>
</g>
<!-- dir_7ad25bca70c4d3d9103f75d82f41ef94 -->
<g id="node2" class="node">
<title>dir_7ad25bca70c4d3d9103f75d82f41ef94</title>
<g id="a_node2"><a xlink:href="dir_7ad25bca70c4d3d9103f75d82f41ef94.html" target="_top" xlink:title="UI">
<polygon fill="none" stroke="black" points="166,-124 112,-124 112,-88 166,-88 166,-124"/>
<text text-anchor="middle" x="139" y="-103.5" font-family="Helvetica,sans-Serif" font-size="10.00">UI</text>
</a>
</g>
</g>
<!-- dir_3ac9928fc2e7e2cbc53db7c1a11acda2 -->
<g id="node3" class="node">
<title>dir_3ac9928fc2e7e2cbc53db7c1a11acda2</title>
<text text-anchor="middle" x="63" y="-175.5" font-family="Helvetica,sans-Serif" font-size="10.00">Scripts</text>
</g>
<!-- dir_3ac9928fc2e7e2cbc53db7c1a11acda2&#45;&gt;dir_7ad25bca70c4d3d9103f75d82f41ef94 -->
<g id="edge3" class="edge">
<title>dir_3ac9928fc2e7e2cbc53db7c1a11acda2&#45;&gt;dir_7ad25bca70c4d3d9103f75d82f41ef94</title>
<path fill="none" stroke="black" d="M81.79,-159.7C91.17,-151.05 102.68,-140.45 112.91,-131.03"/>
<polygon fill="black" stroke="black" points="115.45,-133.45 120.43,-124.1 110.7,-128.3 115.45,-133.45"/>
<g id="a_edge3&#45;headlabel"><a xlink:href="dir_000005_000007.html" target="_top" xlink:title="1">
<text text-anchor="middle" x="114.72" y="-135.48" font-family="Helvetica,sans-Serif" font-size="10.00">1</text>
</a>
</g>
</g>
<!-- dir_732af4ad8dc86e678e5dd877b11f9507 -->
<g id="node4" class="node">
<title>dir_732af4ad8dc86e678e5dd877b11f9507</title>
<g id="a_node4"><a xlink:href="dir_732af4ad8dc86e678e5dd877b11f9507.html" target="_top" xlink:title="MarioStates">
<polygon fill="white" stroke="black" points="93.5,-124 24.5,-124 24.5,-88 93.5,-88 93.5,-124"/>
<text text-anchor="middle" x="59" y="-103.5" font-family="Helvetica,sans-Serif" font-size="10.00">MarioStates</text>
</a>
</g>
</g>
<!-- dir_3ac9928fc2e7e2cbc53db7c1a11acda2&#45;&gt;dir_732af4ad8dc86e678e5dd877b11f9507 -->
<g id="edge2" class="edge">
<title>dir_3ac9928fc2e7e2cbc53db7c1a11acda2&#45;&gt;dir_732af4ad8dc86e678e5dd877b11f9507</title>
<path fill="none" stroke="black" d="M62.01,-159.7C61.57,-151.98 61.04,-142.71 60.55,-134.11"/>
<polygon fill="black" stroke="black" points="64.04,-133.89 59.98,-124.1 57.05,-134.29 64.04,-133.89"/>
<g id="a_edge2&#45;headlabel"><a xlink:href="dir_000005_000006.html" target="_top" xlink:title="3">
<text text-anchor="middle" x="67.08" y="-134.82" font-family="Helvetica,sans-Serif" font-size="10.00">3</text>
</a>
</g>
</g>
<!-- dir_732af4ad8dc86e678e5dd877b11f9507&#45;&gt;dir_55ef98a57036556dcc9a226e6204f780 -->
<g id="edge1" class="edge">
<title>dir_732af4ad8dc86e678e5dd877b11f9507&#45;&gt;dir_55ef98a57036556dcc9a226e6204f780</title>
<path fill="none" stroke="black" d="M59,-87.7C59,-79.98 59,-70.71 59,-62.11"/>
<polygon fill="black" stroke="black" points="62.5,-62.1 59,-52.1 55.5,-62.1 62.5,-62.1"/>
<g id="a_edge1&#45;headlabel"><a xlink:href="dir_000006_000001.html" target="_top" xlink:title="2">
<text text-anchor="middle" x="65.34" y="-63.2" font-family="Helvetica,sans-Serif" font-size="10.00">2</text>
</a>
</g>
</g>
</g>
</svg>
