<?xml version="1.0" encoding="UTF-8" standalone="no"?>
<!DOCTYPE svg PUBLIC "-//W3C//DTD SVG 1.1//EN"
 "http://www.w3.org/Graphics/SVG/1.1/DTD/svg11.dtd">
<!-- Generated by graphviz version 2.44.0 ()
 -->
<!-- Title: src/Scripts/DynamicAnimationBehaviour.hpp Pages: 1 -->
<svg width="640pt" height="173pt"
 viewBox="0.00 0.00 639.50 173.00" xmlns="http://www.w3.org/2000/svg" xmlns:xlink="http://www.w3.org/1999/xlink">
<g id="graph0" class="graph" transform="scale(1 1) rotate(0) translate(4 169)">
<title>src/Scripts/DynamicAnimationBehaviour.hpp</title>
<!-- Node1 -->
<g id="node1" class="node">
<title>Node1</title>
<g id="a_node1"><a xlink:title=" ">
<polygon fill="#bfbfbf" stroke="black" points="99,-134.5 99,-164.5 247,-164.5 247,-134.5 99,-134.5"/>
<text text-anchor="start" x="107" y="-152.5" font-family="Helvetica,sans-Serif" font-size="10.00">src/Scripts/DynamicAnimation</text>
<text text-anchor="middle" x="173" y="-141.5" font-family="Helvetica,sans-Serif" font-size="10.00">Behaviour.hpp</text>
</a>
</g>
</g>
<!-- Node2 -->
<g id="node2" class="node">
<title>Node2</title>
<g id="a_node2"><a xlink:href="Level1_8cpp.html" target="_top" xlink:title=" ">
<polygon fill="none" stroke="black" points="0,-6 0,-25 142,-25 142,-6 0,-6"/>
<text text-anchor="middle" x="71" y="-13" font-family="Helvetica,sans-Serif" font-size="10.00">src/Game/Levels/Level1.cpp</text>
</a>
</g>
</g>
<!-- Node1&#45;&gt;Node2 -->
<g id="edge1" class="edge">
<title>Node1&#45;&gt;Node2</title>
<path fill="none" stroke="midnightblue" d="M127.73,-129.54C113.77,-121.67 99.57,-111.23 90,-98 73.73,-75.52 71.16,-41.22 70.91,-25.25"/>
<polygon fill="midnightblue" stroke="midnightblue" points="126.35,-132.77 136.82,-134.35 129.62,-126.58 126.35,-132.77"/>
</g>
<!-- Node3 -->
<g id="node3" class="node">
<title>Node3</title>
<g id="a_node3"><a xlink:href="DynamicAnimationBehaviour_8cpp.html" target="_top" xlink:title=" ">
<polygon fill="none" stroke="black" points="99,-67.5 99,-97.5 247,-97.5 247,-67.5 99,-67.5"/>
<text text-anchor="start" x="107" y="-85.5" font-family="Helvetica,sans-Serif" font-size="10.00">src/Scripts/DynamicAnimation</text>
<text text-anchor="middle" x="173" y="-74.5" font-family="Helvetica,sans-Serif" font-size="10.00">Behaviour.cpp</text>
</a>
</g>
</g>
<!-- Node1&#45;&gt;Node3 -->
<g id="edge2" class="edge">
<title>Node1&#45;&gt;Node3</title>
<path fill="none" stroke="midnightblue" d="M173,-124.11C173,-115.15 173,-105.32 173,-97.58"/>
<polygon fill="midnightblue" stroke="midnightblue" points="169.5,-124.4 173,-134.4 176.5,-124.4 169.5,-124.4"/>
</g>
<!-- Node4 -->
<g id="node4" class="node">
<title>Node4</title>
<g id="a_node4"><a xlink:href="TileConfig_8hpp.html" target="_top" xlink:title=" ">
<polygon fill="none" stroke="black" points="265,-73 265,-92 359,-92 359,-73 265,-73"/>
<text text-anchor="middle" x="312" y="-80" font-family="Helvetica,sans-Serif" font-size="10.00">src/TileConfig.hpp</text>
</a>
</g>
</g>
<!-- Node1&#45;&gt;Node4 -->
<g id="edge3" class="edge">
<title>Node1&#45;&gt;Node4</title>
<path fill="none" stroke="midnightblue" d="M212.28,-130.13C239.03,-117.62 273.21,-101.64 293.81,-92.01"/>
<polygon fill="midnightblue" stroke="midnightblue" points="210.74,-126.99 203.16,-134.4 213.7,-133.33 210.74,-126.99"/>
</g>
<!-- Node4&#45;&gt;Node2 -->
<g id="edge4" class="edge">
<title>Node4&#45;&gt;Node2</title>
<path fill="none" stroke="midnightblue" d="M270.3,-70.25C222.66,-57.41 145.77,-36.67 102.75,-25.06"/>
<polygon fill="midnightblue" stroke="midnightblue" points="269.43,-73.64 280,-72.87 271.25,-66.89 269.43,-73.64"/>
</g>
<!-- Node5 -->
<g id="node5" class="node">
<title>Node5</title>
<g id="a_node5"><a xlink:href="Level2_8cpp.html" target="_top" xlink:title=" ">
<polygon fill="none" stroke="black" points="160,-6 160,-25 302,-25 302,-6 160,-6"/>
<text text-anchor="middle" x="231" y="-13" font-family="Helvetica,sans-Serif" font-size="10.00">src/Game/Levels/Level2.cpp</text>
</a>
</g>
</g>
<!-- Node4&#45;&gt;Node5 -->
<g id="edge5" class="edge">
<title>Node4&#45;&gt;Node5</title>
<path fill="none" stroke="midnightblue" d="M292.95,-66.21C276.99,-53.41 254.79,-35.59 241.75,-25.13"/>
<polygon fill="midnightblue" stroke="midnightblue" points="291.09,-69.2 301.08,-72.73 295.47,-63.75 291.09,-69.2"/>
</g>
<!-- Node6 -->
<g id="node6" class="node">
<title>Node6</title>
<g id="a_node6"><a xlink:href="MainMenu_8cpp.html" target="_top" xlink:title=" ">
<polygon fill="none" stroke="black" points="320,-6 320,-25 478,-25 478,-6 320,-6"/>
<text text-anchor="middle" x="399" y="-13" font-family="Helvetica,sans-Serif" font-size="10.00">src/Game/Levels/MainMenu.cpp</text>
</a>
</g>
</g>
<!-- Node4&#45;&gt;Node6 -->
<g id="edge6" class="edge">
<title>Node4&#45;&gt;Node6</title>
<path fill="none" stroke="midnightblue" d="M331.99,-66.57C349.16,-53.74 373.32,-35.69 387.45,-25.13"/>
<polygon fill="midnightblue" stroke="midnightblue" points="329.65,-63.94 323.73,-72.73 333.84,-69.55 329.65,-63.94"/>
</g>
<!-- Node7 -->
<g id="node7" class="node">
<title>Node7</title>
<g id="a_node7"><a xlink:href="NetworkingClient_8cpp.html" target="_top" xlink:title=" ">
<polygon fill="none" stroke="black" points="496.5,-0.5 496.5,-30.5 631.5,-30.5 631.5,-0.5 496.5,-0.5"/>
<text text-anchor="start" x="504.5" y="-18.5" font-family="Helvetica,sans-Serif" font-size="10.00">src/Networking/Networking</text>
<text text-anchor="middle" x="564" y="-7.5" font-family="Helvetica,sans-Serif" font-size="10.00">Client.cpp</text>
</a>
</g>
</g>
<!-- Node4&#45;&gt;Node7 -->
<g id="edge7" class="edge">
<title>Node4&#45;&gt;Node7</title>
<path fill="none" stroke="midnightblue" d="M355,-70.41C397.67,-59.4 463.2,-42.5 509.49,-30.56"/>
<polygon fill="midnightblue" stroke="midnightblue" points="354.01,-67.05 345.2,-72.94 355.76,-73.83 354.01,-67.05"/>
</g>
</g>
</svg>
