<svg xmlns="http://www.w3.org/2000/svg" xmlns:xlink="http://www.w3.org/1999/xlink" width="960" height="151pt" viewBox="0 0 720 151"><g id="graph0" class="graph" transform="scale(1 1) rotate(0) translate(4 147)"><title>src/Scripts/DynamicAnimationBehaviour.cpp</title><g id="node1" class="node"><title>Node1</title><g id="a_node1"><a><polygon fill="#bfbfbf" stroke="#000" points="340 -112.5 340 -142.5 488 -142.5 488 -112.5 340 -112.5"/><text x="348" y="-130.5" font-family="Helvetica,sans-Serif" font-size="10" text-anchor="start">src/Scripts/DynamicAnimation</text><text x="414" y="-119.5" font-family="Helvetica,sans-Serif" font-size="10" text-anchor="middle">Behaviour.cpp</text></a></g></g><g id="node2" class="node"><title>Node2</title><g id="a_node2"><a target="_top" xlink:href="DynamicAnimationBehaviour_8hpp.html"><polygon fill="none" stroke="#000" points="41.5 -56.5 41.5 -75.5 200.5 -75.5 200.5 -56.5 41.5 -56.5"/><text x="121" y="-63.5" font-family="Helvetica,sans-Serif" font-size="10" text-anchor="middle">DynamicAnimationBehaviour.hpp</text></a></g></g><g id="edge1" class="edge"><title>Node1-&gt;Node2</title><path fill="none" stroke="#191970" d="M344.93,-112.47C292.18,-101.76 220.62,-87.23 172.73,-77.51"/><polygon fill="#191970" stroke="#191970" points="173.39 -74.07 162.89 -75.51 171.99 -80.93 173.39 -74.07"/></g><g id="node5" class="node"><title>Node5</title><g id="a_node5"><a><polygon fill="none" stroke="#bfbfbf" points="218.5 -56.5 218.5 -75.5 307.5 -75.5 307.5 -56.5 218.5 -56.5"/><text x="263" y="-63.5" font-family="Helvetica,sans-Serif" font-size="10" text-anchor="middle">GameObject.hpp</text></a></g></g><g id="edge4" class="edge"><title>Node1-&gt;Node5</title><path fill="none" stroke="#191970" d="M378.22,-112.4C352.77,-102.37 318.9,-89.03 294.48,-79.4"/><polygon fill="#191970" stroke="#191970" points="295.56 -76.07 284.97 -75.66 292.99 -82.58 295.56 -76.07"/></g><g id="node6" class="node"><title>Node6</title><g id="a_node6"><a><polygon fill="none" stroke="#bfbfbf" points="326 -56.5 326 -75.5 404 -75.5 404 -56.5 326 -56.5"/><text x="365" y="-63.5" font-family="Helvetica,sans-Serif" font-size="10" text-anchor="middle">RigidBody.hpp</text></a></g></g><g id="edge5" class="edge"><title>Node1-&gt;Node6</title><path fill="none" stroke="#191970" d="M402.39,-112.4C395.27,-103.75 386.12,-92.64 378.65,-83.58"/><polygon fill="#191970" stroke="#191970" points="381.19 -81.15 372.13 -75.66 375.79 -85.6 381.19 -81.15"/></g><g id="node7" class="node"><title>Node7</title><g id="a_node7"><a><polygon fill="none" stroke="#bfbfbf" points="422.5 -56.5 422.5 -75.5 505.5 -75.5 505.5 -56.5 422.5 -56.5"/><text x="464" y="-63.5" font-family="Helvetica,sans-Serif" font-size="10" text-anchor="middle">BoxCollider.hpp</text></a></g></g><g id="edge6" class="edge"><title>Node1-&gt;Node7</title><path fill="none" stroke="#191970" d="M425.85,-112.4C433.11,-103.75 442.45,-92.64 450.07,-83.58"/><polygon fill="#191970" stroke="#191970" points="452.97 -85.57 456.72 -75.66 447.61 -81.06 452.97 -85.57"/></g><g id="node8" class="node"><title>Node8</title><g id="a_node8"><a><polygon fill="none" stroke="#bfbfbf" points="524 -56.5 524 -75.5 598 -75.5 598 -56.5 524 -56.5"/><text x="561" y="-63.5" font-family="Helvetica,sans-Serif" font-size="10" text-anchor="middle">Animator.hpp</text></a></g></g><g id="edge7" class="edge"><title>Node1-&gt;Node8</title><path fill="none" stroke="#191970" d="M448.84,-112.4C473.5,-102.42 506.29,-89.15 530.03,-79.53"/><polygon fill="#191970" stroke="#191970" points="531.65 -82.65 539.61 -75.66 529.03 -76.17 531.65 -82.65"/></g><g id="node9" class="node"><title>Node9</title><g id="a_node9"><a><polygon fill="none" stroke="#bfbfbf" points="616 -56.5 616 -75.5 712 -75.5 712 -56.5 616 -56.5"/><text x="664" y="-63.5" font-family="Helvetica,sans-Serif" font-size="10" text-anchor="middle">Engine/Engine.hpp</text></a></g></g><g id="edge8" class="edge"><title>Node1-&gt;Node9</title><path fill="none" stroke="#191970" d="M472.93,-112.47C517.38,-101.9 577.47,-87.59 618.31,-77.87"/><polygon fill="#191970" stroke="#191970" points="619.34 -81.23 628.26 -75.51 617.72 -74.42 619.34 -81.23"/></g><g id="node3" class="node"><title>Node3</title><g id="a_node3"><a><polygon fill="none" stroke="#bfbfbf" points="0 -.5 0 -19.5 104 -19.5 104 -.5 0 -.5"/><text x="52" y="-7.5" font-family="Helvetica,sans-Serif" font-size="10" text-anchor="middle">BehaviourScript.hpp</text></a></g></g><g id="edge2" class="edge"><title>Node2-&gt;Node3</title><path fill="none" stroke="#191970" d="M109.91,-56.32C99.51,-48.18 83.74,-35.84 71.28,-26.09"/><polygon fill="#191970" stroke="#191970" points="73.32 -23.24 63.29 -19.83 69.01 -28.75 73.32 -23.24"/></g><g id="node4" class="node"><title>Node4</title><g id="a_node4"><a><polygon fill="none" stroke="#bfbfbf" points="122.5 -.5 122.5 -19.5 259.5 -19.5 259.5 -.5 122.5 -.5"/><text x="191" y="-7.5" font-family="Helvetica,sans-Serif" font-size="10" text-anchor="middle">Texture/AnimatedSprite.hpp</text></a></g></g><g id="edge3" class="edge"><title>Node2-&gt;Node4</title><path fill="none" stroke="#191970" d="M132.25,-56.32C142.8,-48.18 158.8,-35.84 171.44,-26.09"/><polygon fill="#191970" stroke="#191970" points="173.77 -28.71 179.55 -19.83 169.49 -23.17 173.77 -28.71"/></g></g></svg>