<svg xmlns="http://www.w3.org/2000/svg" xmlns:xlink="http://www.w3.org/1999/xlink" width="268pt" height="95pt" viewBox="0 0 267.5 95"><g id="graph0" class="graph" transform="scale(1 1) rotate(0) translate(4 91)"><title>src/Scripts/DynamicAnimationBehaviour.hpp</title><g id="node1" class="node"><title>Node1</title><g id="a_node1"><a><polygon fill="#bfbfbf" stroke="#000" points="47 -56.5 47 -86.5 195 -86.5 195 -56.5 47 -56.5"/><text x="55" y="-74.5" font-family="Helvetica,sans-Serif" font-size="10" text-anchor="start">src/Scripts/DynamicAnimation</text><text x="121" y="-63.5" font-family="Helvetica,sans-Serif" font-size="10" text-anchor="middle">Behaviour.hpp</text></a></g></g><g id="node2" class="node"><title>Node2</title><g id="a_node2"><a><polygon fill="none" stroke="#bfbfbf" points="0 -.5 0 -19.5 104 -19.5 104 -.5 0 -.5"/><text x="52" y="-7.5" font-family="Helvetica,sans-Serif" font-size="10" text-anchor="middle">BehaviourScript.hpp</text></a></g></g><g id="edge1" class="edge"><title>Node1-&gt;Node2</title><path fill="none" stroke="#191970" d="M104.65,-56.4C94.1,-47.31 80.4,-35.49 69.62,-26.19"/><polygon fill="#191970" stroke="#191970" points="71.9 -23.54 62.04 -19.66 67.33 -28.84 71.9 -23.54"/></g><g id="node3" class="node"><title>Node3</title><g id="a_node3"><a><polygon fill="none" stroke="#bfbfbf" points="122.5 -.5 122.5 -19.5 259.5 -19.5 259.5 -.5 122.5 -.5"/><text x="191" y="-7.5" font-family="Helvetica,sans-Serif" font-size="10" text-anchor="middle">Texture/AnimatedSprite.hpp</text></a></g></g><g id="edge2" class="edge"><title>Node1-&gt;Node3</title><path fill="none" stroke="#191970" d="M137.59,-56.4C148.29,-47.31 162.19,-35.49 173.13,-26.19"/><polygon fill="#191970" stroke="#191970" points="175.46 -28.8 180.81 -19.66 170.93 -23.47 175.46 -28.8"/></g></g></svg>