<svg xmlns="http://www.w3.org/2000/svg" xmlns:xlink="http://www.w3.org/1999/xlink" id="main" onload="init(evt)" version="1.1" xml:space="preserve"><style type="text/css">.edge:hover path{stroke:red}.edge:hover polygon{stroke:red;fill:red}</style><script type="text/javascript"><![CDATA[
var edges = document.getElementsByTagName('g');
if (edges && edges.length) {
  for (var i=0;i<edges.length;i++) {
    if (edges[i].id.substr(0,4)=='edge') {
      edges[i].setAttribute('class','edge');
    }
  }
}
]]></script><defs><circle id="rim" cx="0" cy="0" r="7"/><circle id="rim2" cx="0" cy="0" r="3.5"/><g id="zoomPlus"><use fill="#404040" xlink:href="#rim"><set attributeName="fill" begin="zoomplus.mouseover" end="zoomplus.mouseout" to="#808080"/></use><path fill="none" stroke="#fff" stroke-width="1.5" d="M-4,0h8M0,-4v8" pointer-events="none"/></g><g id="zoomMin"><use fill="#404040" xlink:href="#rim"><set attributeName="fill" begin="zoomminus.mouseover" end="zoomminus.mouseout" to="#808080"/></use><path fill="none" stroke="#fff" stroke-width="1.5" d="M-4,0h8" pointer-events="none"/></g><g id="dirArrow"><path fill="none" stroke="#fff" stroke-width="1.5" d="M0,-3.0v7 M-2.5,-0.5L0,-3.0L2.5,-0.5"/></g><g id="resetDef"><use fill="#404040" xlink:href="#rim2"><set attributeName="fill" begin="reset.mouseover" end="reset.mouseout" to="#808080"/></use></g></defs><script type="text/javascript">var viewWidth = 640; var viewHeight = 151; var sectionId = &apos;dynsection-1&apos;;</script><script xlink:href="svgpan.js"/><svg id="graph" class="graph"><g id="viewport"><title>src/Scripts/EnemyAttackBehaviour.hpp</title><g id="node1" class="node"><title>Node1</title><g id="a_node1"><a><polygon fill="#bfbfbf" stroke="#000" points="99 -123.5 99 -142.5 285 -142.5 285 -123.5 99 -123.5"/><text x="192" y="-130.5" font-family="Helvetica,sans-Serif" font-size="10" text-anchor="middle">src/Scripts/EnemyAttackBehaviour.hpp</text></a></g></g><g id="node2" class="node"><title>Node2</title><g id="a_node2"><a target="_top" xlink:href="Level1_8cpp.html"><polygon fill="none" stroke="#000" points="0 -6 0 -25 142 -25 142 -6 0 -6"/><text x="71" y="-13" font-family="Helvetica,sans-Serif" font-size="10" text-anchor="middle">src/Game/Levels/Level1.cpp</text></a></g></g><g id="edge1" class="edge"><title>Node1-&gt;Node2</title><path fill="none" stroke="#191970" d="M142.87,-120.2C123.95,-113.38 103.63,-102.88 90,-87 74.64,-69.11 71.57,-40 71.04,-25.42"/><polygon fill="#191970" stroke="#191970" points="142 -123.6 152.6 -123.45 144.22 -116.96 142 -123.6"/></g><g id="node3" class="node"><title>Node3</title><g id="a_node3"><a target="_top" xlink:href="EnemyAttackBehaviour_8cpp.html"><polygon fill="none" stroke="#000" points="99 -67.5 99 -86.5 285 -86.5 285 -67.5 99 -67.5"/><text x="192" y="-74.5" font-family="Helvetica,sans-Serif" font-size="10" text-anchor="middle">src/Scripts/EnemyAttackBehaviour.cpp</text></a></g></g><g id="edge2" class="edge"><title>Node1-&gt;Node3</title><path fill="none" stroke="#191970" d="M192,-112.8C192,-103.91 192,-93.78 192,-86.75"/><polygon fill="#191970" stroke="#191970" points="188.5 -113.08 192 -123.08 195.5 -113.08 188.5 -113.08"/></g><g id="node4" class="node"><title>Node4</title><g id="a_node4"><a target="_top" xlink:href="TileConfig_8hpp.html"><polygon fill="none" stroke="#000" points="303 -67.5 303 -86.5 397 -86.5 397 -67.5 303 -67.5"/><text x="350" y="-74.5" font-family="Helvetica,sans-Serif" font-size="10" text-anchor="middle">src/TileConfig.hpp</text></a></g></g><g id="edge3" class="edge"><title>Node1-&gt;Node4</title><path fill="none" stroke="#191970" d="M226.61,-120.17C256.36,-110 298.55,-95.59 325.08,-86.52"/><polygon fill="#191970" stroke="#191970" points="225.37 -116.9 217.04 -123.44 227.63 -123.52 225.37 -116.9"/></g><g id="edge4" class="edge"><title>Node4-&gt;Node2</title><path fill="none" stroke="#191970" d="M299.97,-65.33C245.86,-53.79 160.69,-35.63 110.9,-25.01"/><polygon fill="#191970" stroke="#191970" points="299.52 -68.81 310.03 -67.48 300.98 -61.97 299.52 -68.81"/></g><g id="node5" class="node"><title>Node5</title><g id="a_node5"><a target="_top" xlink:href="Level2_8cpp.html"><polygon fill="none" stroke="#000" points="160 -6 160 -25 302 -25 302 -6 160 -6"/><text x="231" y="-13" font-family="Helvetica,sans-Serif" font-size="10" text-anchor="middle">src/Game/Levels/Level2.cpp</text></a></g></g><g id="edge5" class="edge"><title>Node4-&gt;Node5</title><path fill="none" stroke="#191970" d="M323.73,-62.87C300.67,-51.33 267.8,-34.9 248.02,-25.01"/><polygon fill="#191970" stroke="#191970" points="322.44 -66.13 332.95 -67.48 325.57 -59.87 322.44 -66.13"/></g><g id="node6" class="node"><title>Node6</title><g id="a_node6"><a target="_top" xlink:href="MainMenu_8cpp.html"><polygon fill="none" stroke="#000" points="320 -6 320 -25 478 -25 478 -6 320 -6"/><text x="399" y="-13" font-family="Helvetica,sans-Serif" font-size="10" text-anchor="middle">src/Game/Levels/MainMenu.cpp</text></a></g></g><g id="edge6" class="edge"><title>Node4-&gt;Node6</title><path fill="none" stroke="#191970" d="M363.45,-59.67C372.69,-48.45 384.57,-34.02 391.99,-25.01"/><polygon fill="#191970" stroke="#191970" points="360.68 -57.53 357.02 -67.48 366.08 -61.98 360.68 -57.53"/></g><g id="node7" class="node"><title>Node7</title><g id="a_node7"><a target="_top" xlink:href="NetworkingClient_8cpp.html"><polygon fill="none" stroke="#000" points="496.5 -.5 496.5 -30.5 631.5 -30.5 631.5 -.5 496.5 -.5"/><text x="504.5" y="-18.5" font-family="Helvetica,sans-Serif" font-size="10" text-anchor="start">src/Networking/Networking</text><text x="564" y="-7.5" font-family="Helvetica,sans-Serif" font-size="10" text-anchor="middle">Client.cpp</text></a></g></g><g id="edge7" class="edge"><title>Node4-&gt;Node7</title><path fill="none" stroke="#191970" d="M390.52,-64.73C425.45,-55.02 476.02,-40.96 513.56,-30.52"/><polygon fill="#191970" stroke="#191970" points="389.36 -61.42 380.66 -67.48 391.23 -68.17 389.36 -61.42"/></g></g></svg><g id="navigator" fill="#404254" transform="translate(0 0)"><rect width="60" height="60" x="0" y="0" fill="#f2f5e9" fill-opacity=".5" stroke="#606060" stroke-width=".5"/><use id="zoomplus" x="17" y="9" onmousedown="handleZoom(evt,'in')" xlink:href="#zoomPlus"/><use id="zoomminus" x="42" y="9" onmousedown="handleZoom(evt,'out')" xlink:href="#zoomMin"/><use id="reset" x="30" y="36" onmousedown="handleReset()" xlink:href="#resetDef"/><g id="arrowUp" onmousedown="handlePan(0,-1)" transform="translate(30 24)" xlink:href="#dirArrow"><use fill="#404040" xlink:href="#rim"><set attributeName="fill" begin="arrowUp.mouseover" end="arrowUp.mouseout" to="#808080"/></use><path fill="none" stroke="#fff" stroke-width="1.5" d="M0,-3.0v7 M-2.5,-0.5L0,-3.0L2.5,-0.5"/></g><g id="arrowRight" onmousedown="handlePan(1,0)" transform="rotate(90) translate(36 -43)" xlink:href="#dirArrow"><use fill="#404040" xlink:href="#rim"><set attributeName="fill" begin="arrowRight.mouseover" end="arrowRight.mouseout" to="#808080"/></use><path fill="none" stroke="#fff" stroke-width="1.5" d="M0,-3.0v7 M-2.5,-0.5L0,-3.0L2.5,-0.5"/></g><g id="arrowDown" onmousedown="handlePan(0,1)" transform="rotate(180) translate(-30 -48)" xlink:href="#dirArrow"><use fill="#404040" xlink:href="#rim"><set attributeName="fill" begin="arrowDown.mouseover" end="arrowDown.mouseout" to="#808080"/></use><path fill="none" stroke="#fff" stroke-width="1.5" d="M0,-3.0v7 M-2.5,-0.5L0,-3.0L2.5,-0.5"/></g><g id="arrowLeft" onmousedown="handlePan(-1,0)" transform="rotate(270) translate(-36 17)" xlink:href="#dirArrow"><use fill="#404040" xlink:href="#rim"><set attributeName="fill" begin="arrowLeft.mouseover" end="arrowLeft.mouseout" to="#808080"/></use><path fill="none" stroke="#fff" stroke-width="1.5" d="M0,-3.0v7 M-2.5,-0.5L0,-3.0L2.5,-0.5"/></g></g><svg width="100%" height="30" preserveAspectRatio="xMaxYMin meet" viewBox="0 0 15 15"><g id="arrow_out" transform="scale(0.3 0.3)"><a target="_base" xlink:href="EnemyAttackBehaviour_8hpp__dep__incl_org.svg"><rect id="button" width="38" height="38" x="6" y="6" fill="#f2f5e9" fill-opacity=".5" stroke="#606060" stroke-width="1" rx="5" ry="5"/><path id="arrow" d="M 11.500037,31.436501 C 11.940474,20.09759 22.043105,11.32322 32.158766,21.979434 L 37.068811,17.246167 C 37.068811,17.246167 37.088388,32 37.088388,32 L 22.160133,31.978069 C 22.160133,31.978069 26.997745,27.140456 26.997745,27.140456 C 18.528582,18.264221 13.291696,25.230495 11.500037,31.436501 z" style="fill:#404040"/></a></g></svg></svg>