<?xml version="1.0" encoding="UTF-8" standalone="no"?>
<!DOCTYPE svg PUBLIC "-//W3C//DTD SVG 1.1//EN"
 "http://www.w3.org/Graphics/SVG/1.1/DTD/svg11.dtd">
<!-- Generated by graphviz version 2.44.0 ()
 -->
<!-- Title: src/Scripts/FlagBehaviour.cpp Pages: 1 -->
<svg width="694pt" height="285pt"
 viewBox="0.00 0.00 694.00 285.00" xmlns="http://www.w3.org/2000/svg" xmlns:xlink="http://www.w3.org/1999/xlink">
<g id="graph0" class="graph" transform="scale(1 1) rotate(0) translate(4 281)">
<title>src/Scripts/FlagBehaviour.cpp</title>
<!-- Node1 -->
<g id="node1" class="node">
<title>Node1</title>
<g id="a_node1"><a xlink:title=" ">
<polygon fill="#bfbfbf" stroke="black" points="149,-257.5 149,-276.5 296,-276.5 296,-257.5 149,-257.5"/>
<text text-anchor="middle" x="222.5" y="-264.5" font-family="Helvetica,sans-Serif" font-size="10.00">src/Scripts/FlagBehaviour.cpp</text>
</a>
</g>
</g>
<!-- Node2 -->
<g id="node2" class="node">
<title>Node2</title>
<g id="a_node2"><a xlink:href="FlagBehaviour_8hpp.html" target="_top" xlink:title=" ">
<polygon fill="none" stroke="black" points="289,-201.5 289,-220.5 386,-220.5 386,-201.5 289,-201.5"/>
<text text-anchor="middle" x="337.5" y="-208.5" font-family="Helvetica,sans-Serif" font-size="10.00">FlagBehaviour.hpp</text>
</a>
</g>
</g>
<!-- Node1&#45;&gt;Node2 -->
<g id="edge1" class="edge">
<title>Node1&#45;&gt;Node2</title>
<path fill="none" stroke="midnightblue" d="M240.72,-257.44C259.4,-248.68 288.66,-234.94 310.12,-224.86"/>
<polygon fill="midnightblue" stroke="midnightblue" points="311.8,-227.93 319.36,-220.52 308.82,-221.6 311.8,-227.93"/>
</g>
<!-- Node4 -->
<g id="node4" class="node">
<title>Node4</title>
<g id="a_node4"><a xlink:title=" ">
<polygon fill="none" stroke="#bfbfbf" points="67,-201.5 67,-220.5 156,-220.5 156,-201.5 67,-201.5"/>
<text text-anchor="middle" x="111.5" y="-208.5" font-family="Helvetica,sans-Serif" font-size="10.00">GameObject.hpp</text>
</a>
</g>
</g>
<!-- Node1&#45;&gt;Node4 -->
<g id="edge3" class="edge">
<title>Node1&#45;&gt;Node4</title>
<path fill="none" stroke="midnightblue" d="M204.67,-257.32C186.78,-248.62 159.02,-235.12 138.45,-225.11"/>
<polygon fill="midnightblue" stroke="midnightblue" points="139.81,-221.88 129.29,-220.65 136.75,-228.18 139.81,-221.88"/>
</g>
<!-- Node5 -->
<g id="node5" class="node">
<title>Node5</title>
<g id="a_node5"><a xlink:title=" ">
<polygon fill="none" stroke="#bfbfbf" points="174.5,-201.5 174.5,-220.5 270.5,-220.5 270.5,-201.5 174.5,-201.5"/>
<text text-anchor="middle" x="222.5" y="-208.5" font-family="Helvetica,sans-Serif" font-size="10.00">Engine/Engine.hpp</text>
</a>
</g>
</g>
<!-- Node1&#45;&gt;Node5 -->
<g id="edge4" class="edge">
<title>Node1&#45;&gt;Node5</title>
<path fill="none" stroke="midnightblue" d="M222.5,-257.08C222.5,-250.01 222.5,-239.86 222.5,-230.99"/>
<polygon fill="midnightblue" stroke="midnightblue" points="226,-230.75 222.5,-220.75 219,-230.75 226,-230.75"/>
</g>
<!-- Node6 -->
<g id="node6" class="node">
<title>Node6</title>
<g id="a_node6"><a xlink:title=" ">
<polygon fill="none" stroke="#bfbfbf" points="0,-0.5 0,-30.5 95,-30.5 95,-0.5 0,-0.5"/>
<text text-anchor="start" x="8" y="-18.5" font-family="Helvetica,sans-Serif" font-size="10.00">boost/serialization</text>
<text text-anchor="middle" x="47.5" y="-7.5" font-family="Helvetica,sans-Serif" font-size="10.00">/export.hpp</text>
</a>
</g>
</g>
<!-- Node1&#45;&gt;Node6 -->
<g id="edge5" class="edge">
<title>Node1&#45;&gt;Node6</title>
<path fill="none" stroke="midnightblue" d="M164.37,-257.5C122.48,-250.08 71.03,-237.84 57.5,-221 15.42,-168.61 30.03,-82.08 40.56,-40.4"/>
<polygon fill="midnightblue" stroke="midnightblue" points="43.98,-41.15 43.17,-30.59 37.22,-39.35 43.98,-41.15"/>
</g>
<!-- Node7 -->
<g id="node7" class="node">
<title>Node7</title>
<g id="a_node7"><a xlink:href="MarioBehaviour_8hpp.html" target="_top" xlink:title=" ">
<polygon fill="none" stroke="black" points="403.5,-201.5 403.5,-220.5 505.5,-220.5 505.5,-201.5 403.5,-201.5"/>
<text text-anchor="middle" x="454.5" y="-208.5" font-family="Helvetica,sans-Serif" font-size="10.00">MarioBehaviour.hpp</text>
</a>
</g>
</g>
<!-- Node1&#45;&gt;Node7 -->
<g id="edge6" class="edge">
<title>Node1&#45;&gt;Node7</title>
<path fill="none" stroke="midnightblue" d="M259.26,-257.44C299.56,-248.06 364.31,-232.99 408.08,-222.8"/>
<polygon fill="midnightblue" stroke="midnightblue" points="408.96,-226.19 417.91,-220.52 407.38,-219.37 408.96,-226.19"/>
</g>
<!-- Node3 -->
<g id="node3" class="node">
<title>Node3</title>
<g id="a_node3"><a xlink:title=" ">
<polygon fill="none" stroke="#bfbfbf" points="285.5,-140 285.5,-159 389.5,-159 389.5,-140 285.5,-140"/>
<text text-anchor="middle" x="337.5" y="-147" font-family="Helvetica,sans-Serif" font-size="10.00">BehaviourScript.hpp</text>
</a>
</g>
</g>
<!-- Node2&#45;&gt;Node3 -->
<g id="edge2" class="edge">
<title>Node2&#45;&gt;Node3</title>
<path fill="none" stroke="midnightblue" d="M337.5,-201.48C337.5,-193.08 337.5,-179.98 337.5,-169.16"/>
<polygon fill="midnightblue" stroke="midnightblue" points="341,-169.01 337.5,-159.01 334,-169.01 341,-169.01"/>
</g>
<!-- Node7&#45;&gt;Node3 -->
<g id="edge7" class="edge">
<title>Node7&#45;&gt;Node3</title>
<path fill="none" stroke="midnightblue" d="M437.74,-201.48C418.28,-191.58 385.95,-175.14 363.29,-163.62"/>
<polygon fill="midnightblue" stroke="midnightblue" points="364.73,-160.42 354.23,-159.01 361.56,-166.66 364.73,-160.42"/>
</g>
<!-- Node8 -->
<g id="node8" class="node">
<title>Node8</title>
<g id="a_node8"><a xlink:href="MarioState_8hpp.html" target="_top" xlink:title=" ">
<polygon fill="none" stroke="black" points="366,-67.5 366,-97.5 469,-97.5 469,-67.5 366,-67.5"/>
<text text-anchor="start" x="374" y="-85.5" font-family="Helvetica,sans-Serif" font-size="10.00">Scripts/MarioStates</text>
<text text-anchor="middle" x="417.5" y="-74.5" font-family="Helvetica,sans-Serif" font-size="10.00">/MarioState.hpp</text>
</a>
</g>
</g>
<!-- Node7&#45;&gt;Node8 -->
<g id="edge8" class="edge">
<title>Node7&#45;&gt;Node8</title>
<path fill="none" stroke="midnightblue" d="M450.51,-201.18C446.56,-192.21 440.54,-177.84 436.5,-165 430.49,-145.9 425.45,-123.75 422.07,-107.36"/>
<polygon fill="midnightblue" stroke="midnightblue" points="425.49,-106.63 420.1,-97.52 418.63,-108.01 425.49,-106.63"/>
</g>
<!-- Node14 -->
<g id="node14" class="node">
<title>Node14</title>
<g id="a_node14"><a xlink:href="SmallMarioState_8hpp.html" target="_top" xlink:title=" ">
<polygon fill="none" stroke="black" points="445.5,-134.5 445.5,-164.5 555.5,-164.5 555.5,-134.5 445.5,-134.5"/>
<text text-anchor="start" x="453.5" y="-152.5" font-family="Helvetica,sans-Serif" font-size="10.00">Scripts/MarioStates</text>
<text text-anchor="middle" x="500.5" y="-141.5" font-family="Helvetica,sans-Serif" font-size="10.00">/SmallMarioState.hpp</text>
</a>
</g>
</g>
<!-- Node7&#45;&gt;Node14 -->
<g id="edge15" class="edge">
<title>Node7&#45;&gt;Node14</title>
<path fill="none" stroke="midnightblue" d="M461.09,-201.48C466.91,-193.94 475.66,-182.63 483.44,-172.57"/>
<polygon fill="midnightblue" stroke="midnightblue" points="486.31,-174.58 489.66,-164.52 480.77,-170.29 486.31,-174.58"/>
</g>
<!-- Node8&#45;&gt;Node6 -->
<g id="edge10" class="edge">
<title>Node8&#45;&gt;Node6</title>
<path fill="none" stroke="midnightblue" d="M365.9,-73.94C304.94,-64.78 200.54,-48.42 111.5,-31 109.45,-30.6 107.36,-30.18 105.25,-29.75"/>
<polygon fill="midnightblue" stroke="midnightblue" points="105.82,-26.29 95.31,-27.66 104.38,-33.14 105.82,-26.29"/>
</g>
<!-- Node9 -->
<g id="node9" class="node">
<title>Node9</title>
<g id="a_node9"><a xlink:title=" ">
<polygon fill="none" stroke="#bfbfbf" points="591,-0.5 591,-30.5 686,-30.5 686,-0.5 591,-0.5"/>
<text text-anchor="start" x="599" y="-18.5" font-family="Helvetica,sans-Serif" font-size="10.00">boost/serialization</text>
<text text-anchor="middle" x="638.5" y="-7.5" font-family="Helvetica,sans-Serif" font-size="10.00">/access.hpp</text>
</a>
</g>
</g>
<!-- Node8&#45;&gt;Node9 -->
<g id="edge9" class="edge">
<title>Node8&#45;&gt;Node9</title>
<path fill="none" stroke="midnightblue" d="M465.18,-67.48C499.17,-57.48 545.02,-43.99 581.03,-33.4"/>
<polygon fill="midnightblue" stroke="midnightblue" points="582.3,-36.68 590.9,-30.5 580.32,-29.96 582.3,-36.68"/>
</g>
<!-- Node10 -->
<g id="node10" class="node">
<title>Node10</title>
<g id="a_node10"><a xlink:title=" ">
<polygon fill="none" stroke="#bfbfbf" points="121,-0.5 121,-30.5 216,-30.5 216,-0.5 121,-0.5"/>
<text text-anchor="start" x="129" y="-18.5" font-family="Helvetica,sans-Serif" font-size="10.00">boost/serialization</text>
<text text-anchor="middle" x="168.5" y="-7.5" font-family="Helvetica,sans-Serif" font-size="10.00">/shared_ptr.hpp</text>
</a>
</g>
</g>
<!-- Node8&#45;&gt;Node10 -->
<g id="edge11" class="edge">
<title>Node8&#45;&gt;Node10</title>
<path fill="none" stroke="midnightblue" d="M365.91,-68.03C325.16,-57.39 268.32,-42.56 226.09,-31.53"/>
<polygon fill="midnightblue" stroke="midnightblue" points="226.79,-28.1 216.23,-28.96 225.02,-34.87 226.79,-28.1"/>
</g>
<!-- Node11 -->
<g id="node11" class="node">
<title>Node11</title>
<g id="a_node11"><a xlink:title=" ">
<polygon fill="none" stroke="#bfbfbf" points="234,-6 234,-25 371,-25 371,-6 234,-6"/>
<text text-anchor="middle" x="302.5" y="-13" font-family="Helvetica,sans-Serif" font-size="10.00">Texture/AnimatedSprite.hpp</text>
</a>
</g>
</g>
<!-- Node8&#45;&gt;Node11 -->
<g id="edge12" class="edge">
<title>Node8&#45;&gt;Node11</title>
<path fill="none" stroke="midnightblue" d="M392.55,-67.4C372.9,-56.29 345.71,-40.92 326.35,-29.98"/>
<polygon fill="midnightblue" stroke="midnightblue" points="327.98,-26.88 317.55,-25.01 324.53,-32.97 327.98,-26.88"/>
</g>
<!-- Node12 -->
<g id="node12" class="node">
<title>Node12</title>
<g id="a_node12"><a xlink:title=" ">
<polygon fill="none" stroke="#bfbfbf" points="389,-6 389,-25 446,-25 446,-6 389,-6"/>
<text text-anchor="middle" x="417.5" y="-13" font-family="Helvetica,sans-Serif" font-size="10.00">Point.hpp</text>
</a>
</g>
</g>
<!-- Node8&#45;&gt;Node12 -->
<g id="edge13" class="edge">
<title>Node8&#45;&gt;Node12</title>
<path fill="none" stroke="midnightblue" d="M417.5,-67.4C417.5,-58.06 417.5,-45.71 417.5,-35.52"/>
<polygon fill="midnightblue" stroke="midnightblue" points="421,-35.19 417.5,-25.19 414,-35.19 421,-35.19"/>
</g>
<!-- Node13 -->
<g id="node13" class="node">
<title>Node13</title>
<g id="a_node13"><a xlink:title=" ">
<polygon fill="none" stroke="#bfbfbf" points="464,-6 464,-25 573,-25 573,-6 464,-6"/>
<text text-anchor="middle" x="518.5" y="-13" font-family="Helvetica,sans-Serif" font-size="10.00">Physics/Collision.hpp</text>
</a>
</g>
</g>
<!-- Node8&#45;&gt;Node13 -->
<g id="edge14" class="edge">
<title>Node8&#45;&gt;Node13</title>
<path fill="none" stroke="midnightblue" d="M439.42,-67.4C456.35,-56.5 479.69,-41.48 496.62,-30.58"/>
<polygon fill="midnightblue" stroke="midnightblue" points="498.77,-33.36 505.28,-25.01 494.98,-27.48 498.77,-33.36"/>
</g>
<!-- Node14&#45;&gt;Node8 -->
<g id="edge16" class="edge">
<title>Node14&#45;&gt;Node8</title>
<path fill="none" stroke="midnightblue" d="M482.49,-134.4C471.07,-125.45 456.11,-113.74 443.42,-103.8"/>
<polygon fill="midnightblue" stroke="midnightblue" points="445.51,-100.99 435.47,-97.58 441.19,-106.5 445.51,-100.99"/>
</g>
</g>
</svg>
