<?xml version="1.0" encoding="UTF-8" standalone="no"?>
<!DOCTYPE svg PUBLIC "-//W3C//DTD SVG 1.1//EN"
 "http://www.w3.org/Graphics/SVG/1.1/DTD/svg11.dtd">
<!-- Generated by graphviz version 2.44.0 ()
 -->
<!-- Title: src/Scripts/FlagBehaviour.hpp Pages: 1 -->
<svg width="640pt" height="151pt"
 viewBox="0.00 0.00 639.50 151.00" xmlns="http://www.w3.org/2000/svg" xmlns:xlink="http://www.w3.org/1999/xlink">
<g id="graph0" class="graph" transform="scale(1 1) rotate(0) translate(4 147)">
<title>src/Scripts/FlagBehaviour.hpp</title>
<!-- Node1 -->
<g id="node1" class="node">
<title>Node1</title>
<g id="a_node1"><a xlink:title=" ">
<polygon fill="#bfbfbf" stroke="black" points="171.5,-123.5 171.5,-142.5 318.5,-142.5 318.5,-123.5 171.5,-123.5"/>
<text text-anchor="middle" x="245" y="-130.5" font-family="Helvetica,sans-Serif" font-size="10.00">src/Scripts/FlagBehaviour.hpp</text>
</a>
</g>
</g>
<!-- Node2 -->
<g id="node2" class="node">
<title>Node2</title>
<g id="a_node2"><a xlink:href="FlagBehaviour_8cpp.html" target="_top" xlink:title=" ">
<polygon fill="none" stroke="black" points="102.5,-67.5 102.5,-86.5 249.5,-86.5 249.5,-67.5 102.5,-67.5"/>
<text text-anchor="middle" x="176" y="-74.5" font-family="Helvetica,sans-Serif" font-size="10.00">src/Scripts/FlagBehaviour.cpp</text>
</a>
</g>
</g>
<!-- Node1&#45;&gt;Node2 -->
<g id="edge1" class="edge">
<title>Node1&#45;&gt;Node2</title>
<path fill="none" stroke="midnightblue" d="M225.96,-117.1C213.54,-107.38 197.76,-95.03 187.29,-86.83"/>
<polygon fill="midnightblue" stroke="midnightblue" points="223.88,-119.92 233.91,-123.32 228.2,-114.4 223.88,-119.92"/>
</g>
<!-- Node3 -->
<g id="node3" class="node">
<title>Node3</title>
<g id="a_node3"><a xlink:href="TileConfig_8hpp.html" target="_top" xlink:title=" ">
<polygon fill="none" stroke="black" points="268,-67.5 268,-86.5 362,-86.5 362,-67.5 268,-67.5"/>
<text text-anchor="middle" x="315" y="-74.5" font-family="Helvetica,sans-Serif" font-size="10.00">src/TileConfig.hpp</text>
</a>
</g>
</g>
<!-- Node1&#45;&gt;Node3 -->
<g id="edge2" class="edge">
<title>Node1&#45;&gt;Node3</title>
<path fill="none" stroke="midnightblue" d="M264.31,-117.1C276.91,-107.38 292.93,-95.03 303.55,-86.83"/>
<polygon fill="midnightblue" stroke="midnightblue" points="262.03,-114.44 256.25,-123.32 266.3,-119.99 262.03,-114.44"/>
</g>
<!-- Node4 -->
<g id="node4" class="node">
<title>Node4</title>
<g id="a_node4"><a xlink:href="Level1_8cpp.html" target="_top" xlink:title=" ">
<polygon fill="none" stroke="black" points="0,-6 0,-25 142,-25 142,-6 0,-6"/>
<text text-anchor="middle" x="71" y="-13" font-family="Helvetica,sans-Serif" font-size="10.00">src/Game/Levels/Level1.cpp</text>
</a>
</g>
</g>
<!-- Node3&#45;&gt;Node4 -->
<g id="edge3" class="edge">
<title>Node3&#45;&gt;Node4</title>
<path fill="none" stroke="midnightblue" d="M270.06,-65.04C222.69,-53.49 149.08,-35.54 105.89,-25.01"/>
<polygon fill="midnightblue" stroke="midnightblue" points="269.5,-68.51 280.04,-67.48 271.15,-61.71 269.5,-68.51"/>
</g>
<!-- Node5 -->
<g id="node5" class="node">
<title>Node5</title>
<g id="a_node5"><a xlink:href="Level2_8cpp.html" target="_top" xlink:title=" ">
<polygon fill="none" stroke="black" points="160,-6 160,-25 302,-25 302,-6 160,-6"/>
<text text-anchor="middle" x="231" y="-13" font-family="Helvetica,sans-Serif" font-size="10.00">src/Game/Levels/Level2.cpp</text>
</a>
</g>
</g>
<!-- Node3&#45;&gt;Node5 -->
<g id="edge4" class="edge">
<title>Node3&#45;&gt;Node5</title>
<path fill="none" stroke="midnightblue" d="M294.69,-61.61C278.53,-50.17 256.48,-34.55 243.01,-25.01"/>
<polygon fill="midnightblue" stroke="midnightblue" points="292.78,-64.55 302.96,-67.48 296.83,-58.84 292.78,-64.55"/>
</g>
<!-- Node6 -->
<g id="node6" class="node">
<title>Node6</title>
<g id="a_node6"><a xlink:href="MainMenu_8cpp.html" target="_top" xlink:title=" ">
<polygon fill="none" stroke="black" points="320,-6 320,-25 478,-25 478,-6 320,-6"/>
<text text-anchor="middle" x="399" y="-13" font-family="Helvetica,sans-Serif" font-size="10.00">src/Game/Levels/MainMenu.cpp</text>
</a>
</g>
</g>
<!-- Node3&#45;&gt;Node6 -->
<g id="edge5" class="edge">
<title>Node3&#45;&gt;Node6</title>
<path fill="none" stroke="midnightblue" d="M335.31,-61.61C351.47,-50.17 373.52,-34.55 386.99,-25.01"/>
<polygon fill="midnightblue" stroke="midnightblue" points="333.17,-58.84 327.04,-67.48 337.22,-64.55 333.17,-58.84"/>
</g>
<!-- Node7 -->
<g id="node7" class="node">
<title>Node7</title>
<g id="a_node7"><a xlink:href="NetworkingClient_8cpp.html" target="_top" xlink:title=" ">
<polygon fill="none" stroke="black" points="496.5,-0.5 496.5,-30.5 631.5,-30.5 631.5,-0.5 496.5,-0.5"/>
<text text-anchor="start" x="504.5" y="-18.5" font-family="Helvetica,sans-Serif" font-size="10.00">src/Networking/Networking</text>
<text text-anchor="middle" x="564" y="-7.5" font-family="Helvetica,sans-Serif" font-size="10.00">Client.cpp</text>
</a>
</g>
</g>
<!-- Node3&#45;&gt;Node7 -->
<g id="edge6" class="edge">
<title>Node3&#45;&gt;Node7</title>
<path fill="none" stroke="midnightblue" d="M360.59,-65.11C401.27,-55.39 461.07,-41.1 505.32,-30.52"/>
<polygon fill="midnightblue" stroke="midnightblue" points="359.59,-61.75 350.68,-67.48 361.22,-68.56 359.59,-61.75"/>
</g>
</g>
</svg>
