<?xml version="1.0" encoding="UTF-8" standalone="no"?>
<!DOCTYPE svg PUBLIC "-//W3C//DTD SVG 1.1//EN"
 "http://www.w3.org/Graphics/SVG/1.1/DTD/svg11.dtd">
<!-- Generated by graphviz version 2.44.0 ()
 -->
<!-- Title: src/Game/Game.cpp Pages: 1 -->
<!--zoomable 397 -->
<svg id="main" version="1.1" xmlns="http://www.w3.org/2000/svg" xmlns:xlink="http://www.w3.org/1999/xlink" xml:space="preserve" onload="init(evt)">
<style type="text/css"><![CDATA[
.edge:hover path { stroke: red; }
.edge:hover polygon { stroke: red; fill: red; }
]]></style>
<script type="text/javascript"><![CDATA[
var edges = document.getElementsByTagName('g');
if (edges && edges.length) {
  for (var i=0;i<edges.length;i++) {
    if (edges[i].id.substr(0,4)=='edge') {
      edges[i].setAttribute('class','edge');
    }
  }
}
]]></script>
        <defs>
                <circle id="rim" cx="0" cy="0" r="7"/>
                <circle id="rim2" cx="0" cy="0" r="3.5"/>
                <g id="zoomPlus">
                        <use xlink:href="#rim" fill="#404040">
                                <set attributeName="fill" to="#808080" begin="zoomplus.mouseover" end="zoomplus.mouseout"/>
                        </use>
                        <path d="M-4,0h8M0,-4v8" fill="none" stroke="white" stroke-width="1.5" pointer-events="none"/>
                </g>
                <g id="zoomMin">
                        <use xlink:href="#rim" fill="#404040">
                                <set attributeName="fill" to="#808080" begin="zoomminus.mouseover" end="zoomminus.mouseout"/>
                        </use>
                        <path d="M-4,0h8" fill="none" stroke="white" stroke-width="1.5" pointer-events="none"/>
                </g>
                <g id="dirArrow">
                        <path fill="none" stroke="white" stroke-width="1.5" d="M0,-3.0v7 M-2.5,-0.5L0,-3.0L2.5,-0.5"/>
                </g>
               <g id="resetDef">
                       <use xlink:href="#rim2" fill="#404040">
                               <set attributeName="fill" to="#808080" begin="reset.mouseover" end="reset.mouseout"/>
                       </use>
               </g>
        </defs>

<script type="text/javascript">
var viewWidth = 1504;
var viewHeight = 397;
var sectionId = 'dynsection-0';
</script>
<script xlink:href="svgpan.js"/>
<svg id="graph" class="graph">
<g id="viewport">
<title>src/Game/Game.cpp</title>
<!-- Node1 -->
<g id="node1" class="node">
<title>Node1</title>
<g id="a_node1"><a xlink:title=" ">
<polygon fill="#bfbfbf" stroke="black" points="316,-369.5 316,-388.5 423,-388.5 423,-369.5 316,-369.5"/>
<text text-anchor="middle" x="369.5" y="-376.5" font-family="Helvetica,sans-Serif" font-size="10.00">src/Game/Game.cpp</text>
</a>
</g>
</g>
<!-- Node2 -->
<g id="node2" class="node">
<title>Node2</title>
<g id="a_node2"><a xlink:href="Game_8hpp.html" target="_top" xlink:title=" ">
<polygon fill="none" stroke="black" points="0,-257.5 0,-276.5 61,-276.5 61,-257.5 0,-257.5"/>
<text text-anchor="middle" x="30.5" y="-264.5" font-family="Helvetica,sans-Serif" font-size="10.00">Game.hpp</text>
</a>
</g>
</g>
<!-- Node1&#45;&gt;Node2 -->
<g id="edge1" class="edge">
<title>Node1&#45;&gt;Node2</title>
<path fill="none" stroke="midnightblue" d="M315.98,-374.5C243.41,-368.95 118.41,-356.29 79.5,-333 61,-321.93 47.15,-300.96 38.97,-285.83"/>
<polygon fill="midnightblue" stroke="midnightblue" points="42.08,-284.22 34.43,-276.89 35.84,-287.39 42.08,-284.22"/>
</g>
<!-- Node4 -->
<g id="node4" class="node">
<title>Node4</title>
<g id="a_node4"><a xlink:title=" ">
<polygon fill="none" stroke="#bfbfbf" points="712,-313.5 712,-332.5 837,-332.5 837,-313.5 712,-313.5"/>
<text text-anchor="middle" x="774.5" y="-320.5" font-family="Helvetica,sans-Serif" font-size="10.00">Builder/SceneBuilder.hpp</text>
</a>
</g>
</g>
<!-- Node1&#45;&gt;Node4 -->
<g id="edge3" class="edge">
<title>Node1&#45;&gt;Node4</title>
<path fill="none" stroke="midnightblue" d="M423.28,-370.83C494.88,-361.28 621.77,-344.36 701.84,-333.69"/>
<polygon fill="midnightblue" stroke="midnightblue" points="702.4,-337.15 711.85,-332.35 701.47,-330.21 702.4,-337.15"/>
</g>
<!-- Node5 -->
<g id="node5" class="node">
<title>Node5</title>
<g id="a_node5"><a xlink:href="NetworkingServer_8hpp.html" target="_top" xlink:title=" ">
<polygon fill="none" stroke="black" points="79,-257.5 79,-276.5 244,-276.5 244,-257.5 79,-257.5"/>
<text text-anchor="middle" x="161.5" y="-264.5" font-family="Helvetica,sans-Serif" font-size="10.00">Networking/NetworkingServer.hpp</text>
</a>
</g>
</g>
<!-- Node1&#45;&gt;Node5 -->
<g id="edge4" class="edge">
<title>Node1&#45;&gt;Node5</title>
<path fill="none" stroke="midnightblue" d="M315.82,-377.39C242.34,-375.28 116.26,-366.71 87.5,-333 70.13,-312.64 101.67,-292.87 128.8,-280.59"/>
<polygon fill="midnightblue" stroke="midnightblue" points="130.33,-283.74 138.13,-276.57 127.56,-277.31 130.33,-283.74"/>
</g>
<!-- Node8 -->
<g id="node8" class="node">
<title>Node8</title>
<g id="a_node8"><a xlink:href="MainMenu_8hpp.html" target="_top" xlink:title=" ">
<polygon fill="none" stroke="black" points="96.5,-313.5 96.5,-332.5 208.5,-332.5 208.5,-313.5 96.5,-313.5"/>
<text text-anchor="middle" x="152.5" y="-320.5" font-family="Helvetica,sans-Serif" font-size="10.00">Levels/MainMenu.hpp</text>
</a>
</g>
</g>
<!-- Node1&#45;&gt;Node8 -->
<g id="edge7" class="edge">
<title>Node1&#45;&gt;Node8</title>
<path fill="none" stroke="midnightblue" d="M335.12,-369.44C297.58,-360.1 237.37,-345.12 196.43,-334.93"/>
<polygon fill="midnightblue" stroke="midnightblue" points="197.27,-331.53 186.72,-332.52 195.58,-338.33 197.27,-331.53"/>
</g>
<!-- Node9 -->
<g id="node9" class="node">
<title>Node9</title>
<g id="a_node9"><a xlink:title=" ">
<polygon fill="none" stroke="#bfbfbf" points="372,-257.5 372,-276.5 473,-276.5 473,-257.5 372,-257.5"/>
<text text-anchor="middle" x="422.5" y="-264.5" font-family="Helvetica,sans-Serif" font-size="10.00">UI/FPSCounter.hpp</text>
</a>
</g>
</g>
<!-- Node1&#45;&gt;Node9 -->
<g id="edge51" class="edge">
<title>Node1&#45;&gt;Node9</title>
<path fill="none" stroke="midnightblue" d="M379.1,-369.29C387.81,-360.85 400.36,-347.26 407.5,-333 414.79,-318.44 418.6,-300.26 420.55,-286.83"/>
<polygon fill="midnightblue" stroke="midnightblue" points="424.03,-287.21 421.79,-276.86 417.08,-286.35 424.03,-287.21"/>
</g>
<!-- Node10 -->
<g id="node10" class="node">
<title>Node10</title>
<g id="a_node10"><a xlink:href="Level1_8hpp.html" target="_top" xlink:title=" ">
<polygon fill="none" stroke="black" points="454.5,-313.5 454.5,-332.5 550.5,-332.5 550.5,-313.5 454.5,-313.5"/>
<text text-anchor="middle" x="502.5" y="-320.5" font-family="Helvetica,sans-Serif" font-size="10.00">Levels/Level1.hpp</text>
</a>
</g>
</g>
<!-- Node1&#45;&gt;Node10 -->
<g id="edge10" class="edge">
<title>Node1&#45;&gt;Node10</title>
<path fill="none" stroke="midnightblue" d="M390.57,-369.44C412.56,-360.52 447.23,-346.44 472.16,-336.32"/>
<polygon fill="midnightblue" stroke="midnightblue" points="473.58,-339.52 481.52,-332.52 470.94,-333.04 473.58,-339.52"/>
</g>
<!-- Node34 -->
<g id="node34" class="node">
<title>Node34</title>
<g id="a_node34"><a xlink:href="Level2_8hpp.html" target="_top" xlink:title=" ">
<polygon fill="none" stroke="black" points="569,-313.5 569,-332.5 694,-332.5 694,-313.5 569,-313.5"/>
<text text-anchor="middle" x="631.5" y="-320.5" font-family="Helvetica,sans-Serif" font-size="10.00">Game/Levels/Level2.hpp</text>
</a>
</g>
</g>
<!-- Node1&#45;&gt;Node34 -->
<g id="edge43" class="edge">
<title>Node1&#45;&gt;Node34</title>
<path fill="none" stroke="midnightblue" d="M411.01,-369.44C456.91,-359.98 530.88,-344.74 580.33,-334.55"/>
<polygon fill="midnightblue" stroke="midnightblue" points="581.09,-337.96 590.18,-332.52 579.68,-331.11 581.09,-337.96"/>
</g>
<!-- Node35 -->
<g id="node35" class="node">
<title>Node35</title>
<g id="a_node35"><a xlink:href="GameOverScene_8hpp.html" target="_top" xlink:title=" ">
<polygon fill="none" stroke="black" points="227,-313.5 227,-332.5 398,-332.5 398,-313.5 227,-313.5"/>
<text text-anchor="middle" x="312.5" y="-320.5" font-family="Helvetica,sans-Serif" font-size="10.00">Game/Levels/GameOverScene.hpp</text>
</a>
</g>
</g>
<!-- Node1&#45;&gt;Node35 -->
<g id="edge48" class="edge">
<title>Node1&#45;&gt;Node35</title>
<path fill="none" stroke="midnightblue" d="M360.34,-369.32C352,-361.42 339.47,-349.55 329.32,-339.94"/>
<polygon fill="midnightblue" stroke="midnightblue" points="331.49,-337.17 321.82,-332.83 326.68,-342.25 331.49,-337.17"/>
</g>
<!-- Node3 -->
<g id="node3" class="node">
<title>Node3</title>
<g id="a_node3"><a xlink:title=" ">
<polygon fill="none" stroke="#bfbfbf" points="10.5,-201.5 10.5,-220.5 106.5,-220.5 106.5,-201.5 10.5,-201.5"/>
<text text-anchor="middle" x="58.5" y="-208.5" font-family="Helvetica,sans-Serif" font-size="10.00">Engine/Engine.hpp</text>
</a>
</g>
</g>
<!-- Node2&#45;&gt;Node3 -->
<g id="edge2" class="edge">
<title>Node2&#45;&gt;Node3</title>
<path fill="none" stroke="midnightblue" d="M35.12,-257.08C38.96,-249.69 44.52,-238.95 49.26,-229.81"/>
<polygon fill="midnightblue" stroke="midnightblue" points="52.47,-231.24 53.96,-220.75 46.25,-228.02 52.47,-231.24"/>
</g>
<!-- Node6 -->
<g id="node6" class="node">
<title>Node6</title>
<g id="a_node6"><a xlink:title=" ">
<polygon fill="none" stroke="#bfbfbf" points="246,-140 246,-159 287,-159 287,-140 246,-140"/>
<text text-anchor="middle" x="266.5" y="-147" font-family="Helvetica,sans-Serif" font-size="10.00">string</text>
</a>
</g>
</g>
<!-- Node5&#45;&gt;Node6 -->
<g id="edge5" class="edge">
<title>Node5&#45;&gt;Node6</title>
<path fill="none" stroke="midnightblue" d="M162.05,-257.08C163.29,-243.61 167.35,-217.88 180.5,-201 194.82,-182.63 217.85,-169.62 236.47,-161.41"/>
<polygon fill="midnightblue" stroke="midnightblue" points="237.85,-164.62 245.73,-157.55 235.16,-158.16 237.85,-164.62"/>
</g>
<!-- Node7 -->
<g id="node7" class="node">
<title>Node7</title>
<g id="a_node7"><a xlink:title=" ">
<polygon fill="none" stroke="#bfbfbf" points="189.5,-201.5 189.5,-220.5 251.5,-220.5 251.5,-201.5 189.5,-201.5"/>
<text text-anchor="middle" x="220.5" y="-208.5" font-family="Helvetica,sans-Serif" font-size="10.00">Scene.hpp</text>
</a>
</g>
</g>
<!-- Node5&#45;&gt;Node7 -->
<g id="edge6" class="edge">
<title>Node5&#45;&gt;Node7</title>
<path fill="none" stroke="midnightblue" d="M170.98,-257.32C179.7,-249.34 192.84,-237.31 203.4,-227.65"/>
<polygon fill="midnightblue" stroke="midnightblue" points="205.83,-230.17 210.85,-220.83 201.11,-225 205.83,-230.17"/>
</g>
<!-- Node8&#45;&gt;Node7 -->
<g id="edge8" class="edge">
<title>Node8&#45;&gt;Node7</title>
<path fill="none" stroke="midnightblue" d="M197.2,-313.48C217.73,-307.09 240.2,-296.02 252.5,-277 262.78,-261.11 249.92,-241.44 237.57,-227.93"/>
<polygon fill="midnightblue" stroke="midnightblue" points="240.04,-225.45 230.54,-220.76 235.04,-230.35 240.04,-225.45"/>
</g>
<!-- Node8&#45;&gt;Node9 -->
<g id="edge9" class="edge">
<title>Node8&#45;&gt;Node9</title>
<path fill="none" stroke="midnightblue" d="M195.28,-313.44C242.68,-303.96 319.13,-288.67 370.08,-278.48"/>
<polygon fill="midnightblue" stroke="midnightblue" points="370.8,-281.91 379.92,-276.52 369.43,-275.05 370.8,-281.91"/>
</g>
<!-- Node10&#45;&gt;Node7 -->
<g id="edge11" class="edge">
<title>Node10&#45;&gt;Node7</title>
<path fill="none" stroke="midnightblue" d="M502.55,-313.31C502.12,-299.2 499.07,-271.42 482.5,-257 409.21,-193.21 361.19,-237.25 261.66,-221.17"/>
<polygon fill="midnightblue" stroke="midnightblue" points="262,-217.68 251.54,-219.36 260.77,-224.57 262,-217.68"/>
</g>
<!-- Node10&#45;&gt;Node9 -->
<g id="edge42" class="edge">
<title>Node10&#45;&gt;Node9</title>
<path fill="none" stroke="midnightblue" d="M489.65,-313.32C477.28,-304.98 458.37,-292.21 443.76,-282.35"/>
<polygon fill="midnightblue" stroke="midnightblue" points="445.57,-279.35 435.32,-276.65 441.65,-285.15 445.57,-279.35"/>
</g>
<!-- Node11 -->
<g id="node11" class="node">
<title>Node11</title>
<g id="a_node11"><a xlink:href="Level_8hpp.html" target="_top" xlink:title=" ">
<polygon fill="none" stroke="black" points="568,-257.5 568,-276.5 627,-276.5 627,-257.5 568,-257.5"/>
<text text-anchor="middle" x="597.5" y="-264.5" font-family="Helvetica,sans-Serif" font-size="10.00">Level.hpp</text>
</a>
</g>
</g>
<!-- Node10&#45;&gt;Node11 -->
<g id="edge12" class="edge">
<title>Node10&#45;&gt;Node11</title>
<path fill="none" stroke="midnightblue" d="M517.76,-313.32C532.72,-304.82 555.75,-291.73 573.23,-281.8"/>
<polygon fill="midnightblue" stroke="midnightblue" points="575.31,-284.64 582.27,-276.65 571.85,-278.55 575.31,-284.64"/>
</g>
<!-- Node27 -->
<g id="node27" class="node">
<title>Node27</title>
<g id="a_node27"><a xlink:href="CoinCounter_8hpp.html" target="_top" xlink:title=" ">
<polygon fill="none" stroke="black" points="1103,-73 1103,-92 1204,-92 1204,-73 1103,-73"/>
<text text-anchor="middle" x="1153.5" y="-80" font-family="Helvetica,sans-Serif" font-size="10.00">UI/CoinCounter.hpp</text>
</a>
</g>
</g>
<!-- Node10&#45;&gt;Node27 -->
<g id="edge32" class="edge">
<title>Node10&#45;&gt;Node27</title>
<path fill="none" stroke="midnightblue" d="M550.56,-314.51C697.65,-291.57 1131.92,-223.64 1134.5,-221 1165.61,-189.23 1161.74,-131.83 1157.16,-102.25"/>
<polygon fill="midnightblue" stroke="midnightblue" points="1160.55,-101.31 1155.38,-92.06 1153.65,-102.52 1160.55,-101.31"/>
</g>
<!-- Node11&#45;&gt;Node3 -->
<g id="edge16" class="edge">
<title>Node11&#45;&gt;Node3</title>
<path fill="none" stroke="midnightblue" d="M567.75,-263.02C481.63,-254.39 230.97,-229.28 116.61,-217.82"/>
<polygon fill="midnightblue" stroke="midnightblue" points="116.93,-214.34 106.63,-216.82 116.23,-221.3 116.93,-214.34"/>
</g>
<!-- Node11&#45;&gt;Node7 -->
<g id="edge13" class="edge">
<title>Node11&#45;&gt;Node7</title>
<path fill="none" stroke="midnightblue" d="M567.74,-259.58C562.99,-258.65 558.12,-257.75 553.5,-257 426.75,-236.31 390.89,-243.46 261.42,-221.2"/>
<polygon fill="midnightblue" stroke="midnightblue" points="261.97,-217.74 251.52,-219.47 260.77,-224.63 261.97,-217.74"/>
</g>
<!-- Node12 -->
<g id="node12" class="node">
<title>Node12</title>
<g id="a_node12"><a xlink:href="Sprites_8hpp.html" target="_top" xlink:title=" ">
<polygon fill="none" stroke="black" points="269,-201.5 269,-220.5 380,-220.5 380,-201.5 269,-201.5"/>
<text text-anchor="middle" x="324.5" y="-208.5" font-family="Helvetica,sans-Serif" font-size="10.00">constants/Sprites.hpp</text>
</a>
</g>
</g>
<!-- Node11&#45;&gt;Node12 -->
<g id="edge14" class="edge">
<title>Node11&#45;&gt;Node12</title>
<path fill="none" stroke="midnightblue" d="M567.68,-259.87C562.94,-258.9 558.09,-257.92 553.5,-257 493.54,-244.98 424.69,-231.49 378.26,-222.44"/>
<polygon fill="midnightblue" stroke="midnightblue" points="378.91,-219 368.42,-220.53 377.57,-225.87 378.91,-219"/>
</g>
<!-- Node13 -->
<g id="node13" class="node">
<title>Node13</title>
<g id="a_node13"><a xlink:title=" ">
<polygon fill="none" stroke="#bfbfbf" points="1016,-201.5 1016,-220.5 1125,-220.5 1125,-201.5 1016,-201.5"/>
<text text-anchor="middle" x="1070.5" y="-208.5" font-family="Helvetica,sans-Serif" font-size="10.00">Utility/InputEnum.hpp</text>
</a>
</g>
</g>
<!-- Node11&#45;&gt;Node13 -->
<g id="edge17" class="edge">
<title>Node11&#45;&gt;Node13</title>
<path fill="none" stroke="midnightblue" d="M627.12,-263.08C693.15,-256.51 857.62,-239.74 1005.7,-221.2"/>
<polygon fill="midnightblue" stroke="midnightblue" points="1006.39,-224.64 1015.88,-219.91 1005.52,-217.69 1006.39,-224.64"/>
</g>
<!-- Node14 -->
<g id="node14" class="node">
<title>Node14</title>
<g id="a_node14"><a xlink:title=" ">
<polygon fill="none" stroke="#bfbfbf" points="552.5,-201.5 552.5,-220.5 642.5,-220.5 642.5,-201.5 552.5,-201.5"/>
<text text-anchor="middle" x="597.5" y="-208.5" font-family="Helvetica,sans-Serif" font-size="10.00">AudioSource.hpp</text>
</a>
</g>
</g>
<!-- Node11&#45;&gt;Node14 -->
<g id="edge18" class="edge">
<title>Node11&#45;&gt;Node14</title>
<path fill="none" stroke="midnightblue" d="M597.5,-257.08C597.5,-250.01 597.5,-239.86 597.5,-230.99"/>
<polygon fill="midnightblue" stroke="midnightblue" points="601,-230.75 597.5,-220.75 594,-230.75 601,-230.75"/>
</g>
<!-- Node15 -->
<g id="node15" class="node">
<title>Node15</title>
<g id="a_node15"><a xlink:href="MarioBehaviour_8hpp.html" target="_top" xlink:title=" ">
<polygon fill="none" stroke="black" points="398.5,-201.5 398.5,-220.5 534.5,-220.5 534.5,-201.5 398.5,-201.5"/>
<text text-anchor="middle" x="466.5" y="-208.5" font-family="Helvetica,sans-Serif" font-size="10.00">Scripts/MarioBehaviour.hpp</text>
</a>
</g>
</g>
<!-- Node11&#45;&gt;Node15 -->
<g id="edge19" class="edge">
<title>Node11&#45;&gt;Node15</title>
<path fill="none" stroke="midnightblue" d="M576.74,-257.44C555.18,-248.56 521.24,-234.56 496.71,-224.45"/>
<polygon fill="midnightblue" stroke="midnightblue" points="497.74,-221.09 487.16,-220.52 495.07,-227.56 497.74,-221.09"/>
</g>
<!-- Node25 -->
<g id="node25" class="node">
<title>Node25</title>
<g id="a_node25"><a xlink:title=" ">
<polygon fill="none" stroke="#bfbfbf" points="660.5,-201.5 660.5,-220.5 818.5,-220.5 818.5,-201.5 660.5,-201.5"/>
<text text-anchor="middle" x="739.5" y="-208.5" font-family="Helvetica,sans-Serif" font-size="10.00">Director/GameObjectFactory.hpp</text>
</a>
</g>
</g>
<!-- Node11&#45;&gt;Node25 -->
<g id="edge30" class="edge">
<title>Node11&#45;&gt;Node25</title>
<path fill="none" stroke="midnightblue" d="M620,-257.44C643.58,-248.48 680.82,-234.31 707.46,-224.18"/>
<polygon fill="midnightblue" stroke="midnightblue" points="709,-227.34 717.1,-220.52 706.51,-220.8 709,-227.34"/>
</g>
<!-- Node26 -->
<g id="node26" class="node">
<title>Node26</title>
<g id="a_node26"><a xlink:title=" ">
<polygon fill="none" stroke="#bfbfbf" points="837,-201.5 837,-220.5 998,-220.5 998,-201.5 837,-201.5"/>
<text text-anchor="middle" x="917.5" y="-208.5" font-family="Helvetica,sans-Serif" font-size="10.00">Behaviour/CollisionBehaviour.hpp</text>
</a>
</g>
</g>
<!-- Node11&#45;&gt;Node26 -->
<g id="edge31" class="edge">
<title>Node11&#45;&gt;Node26</title>
<path fill="none" stroke="midnightblue" d="M627.03,-261.02C679.06,-252.24 788.02,-233.85 856.7,-222.26"/>
<polygon fill="midnightblue" stroke="midnightblue" points="857.67,-225.65 866.95,-220.53 856.51,-218.74 857.67,-225.65"/>
</g>
<!-- Node12&#45;&gt;Node6 -->
<g id="edge15" class="edge">
<title>Node12&#45;&gt;Node6</title>
<path fill="none" stroke="midnightblue" d="M316.19,-201.48C307.32,-192.37 293.05,-177.74 282.08,-166.48"/>
<polygon fill="midnightblue" stroke="midnightblue" points="284.28,-163.73 274.79,-159.01 279.27,-168.61 284.28,-163.73"/>
</g>
<!-- Node16 -->
<g id="node16" class="node">
<title>Node16</title>
<g id="a_node16"><a xlink:title=" ">
<polygon fill="none" stroke="#bfbfbf" points="551.5,-140 551.5,-159 655.5,-159 655.5,-140 551.5,-140"/>
<text text-anchor="middle" x="603.5" y="-147" font-family="Helvetica,sans-Serif" font-size="10.00">BehaviourScript.hpp</text>
</a>
</g>
</g>
<!-- Node15&#45;&gt;Node16 -->
<g id="edge20" class="edge">
<title>Node15&#45;&gt;Node16</title>
<path fill="none" stroke="midnightblue" d="M486.13,-201.48C509.32,-191.4 548.12,-174.55 574.71,-163"/>
<polygon fill="midnightblue" stroke="midnightblue" points="576.13,-166.2 583.91,-159.01 573.34,-159.78 576.13,-166.2"/>
</g>
<!-- Node17 -->
<g id="node17" class="node">
<title>Node17</title>
<g id="a_node17"><a xlink:href="MarioState_8hpp.html" target="_top" xlink:title=" ">
<polygon fill="none" stroke="black" points="472,-67.5 472,-97.5 575,-97.5 575,-67.5 472,-67.5"/>
<text text-anchor="start" x="480" y="-85.5" font-family="Helvetica,sans-Serif" font-size="10.00">Scripts/MarioStates</text>
<text text-anchor="middle" x="523.5" y="-74.5" font-family="Helvetica,sans-Serif" font-size="10.00">/MarioState.hpp</text>
</a>
</g>
</g>
<!-- Node15&#45;&gt;Node17 -->
<g id="edge21" class="edge">
<title>Node15&#45;&gt;Node17</title>
<path fill="none" stroke="midnightblue" d="M476.09,-201.29C484.8,-192.85 497.34,-179.26 504.5,-165 513.53,-147 518.36,-124.59 520.88,-107.83"/>
<polygon fill="midnightblue" stroke="midnightblue" points="524.37,-108.11 522.22,-97.74 517.43,-107.19 524.37,-108.11"/>
</g>
<!-- Node24 -->
<g id="node24" class="node">
<title>Node24</title>
<g id="a_node24"><a xlink:href="SmallMarioState_8hpp.html" target="_top" xlink:title=" ">
<polygon fill="none" stroke="black" points="385.5,-134.5 385.5,-164.5 495.5,-164.5 495.5,-134.5 385.5,-134.5"/>
<text text-anchor="start" x="393.5" y="-152.5" font-family="Helvetica,sans-Serif" font-size="10.00">Scripts/MarioStates</text>
<text text-anchor="middle" x="440.5" y="-141.5" font-family="Helvetica,sans-Serif" font-size="10.00">/SmallMarioState.hpp</text>
</a>
</g>
</g>
<!-- Node15&#45;&gt;Node24 -->
<g id="edge28" class="edge">
<title>Node15&#45;&gt;Node24</title>
<path fill="none" stroke="midnightblue" d="M462.77,-201.48C459.62,-194.25 454.93,-183.53 450.67,-173.78"/>
<polygon fill="midnightblue" stroke="midnightblue" points="453.84,-172.28 446.63,-164.52 447.42,-175.09 453.84,-172.28"/>
</g>
<!-- Node18 -->
<g id="node18" class="node">
<title>Node18</title>
<g id="a_node18"><a xlink:title=" ">
<polygon fill="none" stroke="#bfbfbf" points="709,-0.5 709,-30.5 804,-30.5 804,-0.5 709,-0.5"/>
<text text-anchor="start" x="717" y="-18.5" font-family="Helvetica,sans-Serif" font-size="10.00">boost/serialization</text>
<text text-anchor="middle" x="756.5" y="-7.5" font-family="Helvetica,sans-Serif" font-size="10.00">/access.hpp</text>
</a>
</g>
</g>
<!-- Node17&#45;&gt;Node18 -->
<g id="edge22" class="edge">
<title>Node17&#45;&gt;Node18</title>
<path fill="none" stroke="midnightblue" d="M573.77,-67.48C610.49,-57.23 660.35,-43.32 698.72,-32.62"/>
<polygon fill="midnightblue" stroke="midnightblue" points="700.02,-35.89 708.71,-29.83 698.13,-29.15 700.02,-35.89"/>
</g>
<!-- Node19 -->
<g id="node19" class="node">
<title>Node19</title>
<g id="a_node19"><a xlink:title=" ">
<polygon fill="none" stroke="#bfbfbf" points="822,-0.5 822,-30.5 917,-30.5 917,-0.5 822,-0.5"/>
<text text-anchor="start" x="830" y="-18.5" font-family="Helvetica,sans-Serif" font-size="10.00">boost/serialization</text>
<text text-anchor="middle" x="869.5" y="-7.5" font-family="Helvetica,sans-Serif" font-size="10.00">/export.hpp</text>
</a>
</g>
</g>
<!-- Node17&#45;&gt;Node19 -->
<g id="edge23" class="edge">
<title>Node17&#45;&gt;Node19</title>
<path fill="none" stroke="midnightblue" d="M575.08,-73.81C631.16,-65.16 723.6,-50.06 811.98,-31.24"/>
<polygon fill="midnightblue" stroke="midnightblue" points="812.86,-34.63 821.9,-29.1 811.39,-27.78 812.86,-34.63"/>
</g>
<!-- Node20 -->
<g id="node20" class="node">
<title>Node20</title>
<g id="a_node20"><a xlink:title=" ">
<polygon fill="none" stroke="#bfbfbf" points="596,-0.5 596,-30.5 691,-30.5 691,-0.5 596,-0.5"/>
<text text-anchor="start" x="604" y="-18.5" font-family="Helvetica,sans-Serif" font-size="10.00">boost/serialization</text>
<text text-anchor="middle" x="643.5" y="-7.5" font-family="Helvetica,sans-Serif" font-size="10.00">/shared_ptr.hpp</text>
</a>
</g>
</g>
<!-- Node17&#45;&gt;Node20 -->
<g id="edge24" class="edge">
<title>Node17&#45;&gt;Node20</title>
<path fill="none" stroke="midnightblue" d="M549.54,-67.4C566.84,-58.03 589.75,-45.62 608.62,-35.39"/>
<polygon fill="midnightblue" stroke="midnightblue" points="610.39,-38.42 617.51,-30.58 607.05,-32.26 610.39,-38.42"/>
</g>
<!-- Node21 -->
<g id="node21" class="node">
<title>Node21</title>
<g id="a_node21"><a xlink:title=" ">
<polygon fill="none" stroke="#bfbfbf" points="239,-6 239,-25 376,-25 376,-6 239,-6"/>
<text text-anchor="middle" x="307.5" y="-13" font-family="Helvetica,sans-Serif" font-size="10.00">Texture/AnimatedSprite.hpp</text>
</a>
</g>
</g>
<!-- Node17&#45;&gt;Node21 -->
<g id="edge25" class="edge">
<title>Node17&#45;&gt;Node21</title>
<path fill="none" stroke="midnightblue" d="M476.9,-67.48C437.67,-55.67 382.27,-39 345.65,-27.98"/>
<polygon fill="midnightblue" stroke="midnightblue" points="346.43,-24.56 335.84,-25.03 344.41,-31.26 346.43,-24.56"/>
</g>
<!-- Node22 -->
<g id="node22" class="node">
<title>Node22</title>
<g id="a_node22"><a xlink:title=" ">
<polygon fill="none" stroke="#bfbfbf" points="394,-6 394,-25 451,-25 451,-6 394,-6"/>
<text text-anchor="middle" x="422.5" y="-13" font-family="Helvetica,sans-Serif" font-size="10.00">Point.hpp</text>
</a>
</g>
</g>
<!-- Node17&#45;&gt;Node22 -->
<g id="edge26" class="edge">
<title>Node17&#45;&gt;Node22</title>
<path fill="none" stroke="midnightblue" d="M501.58,-67.4C484.65,-56.5 461.31,-41.48 444.38,-30.58"/>
<polygon fill="midnightblue" stroke="midnightblue" points="446.02,-27.48 435.72,-25.01 442.23,-33.36 446.02,-27.48"/>
</g>
<!-- Node23 -->
<g id="node23" class="node">
<title>Node23</title>
<g id="a_node23"><a xlink:title=" ">
<polygon fill="none" stroke="#bfbfbf" points="469,-6 469,-25 578,-25 578,-6 469,-6"/>
<text text-anchor="middle" x="523.5" y="-13" font-family="Helvetica,sans-Serif" font-size="10.00">Physics/Collision.hpp</text>
</a>
</g>
</g>
<!-- Node17&#45;&gt;Node23 -->
<g id="edge27" class="edge">
<title>Node17&#45;&gt;Node23</title>
<path fill="none" stroke="midnightblue" d="M523.5,-67.4C523.5,-58.06 523.5,-45.71 523.5,-35.52"/>
<polygon fill="midnightblue" stroke="midnightblue" points="527,-35.19 523.5,-25.19 520,-35.19 527,-35.19"/>
</g>
<!-- Node24&#45;&gt;Node17 -->
<g id="edge29" class="edge">
<title>Node24&#45;&gt;Node17</title>
<path fill="none" stroke="midnightblue" d="M458.51,-134.4C469.93,-125.45 484.89,-113.74 497.58,-103.8"/>
<polygon fill="midnightblue" stroke="midnightblue" points="499.81,-106.5 505.53,-97.58 495.49,-100.99 499.81,-106.5"/>
</g>
<!-- Node27&#45;&gt;Node18 -->
<g id="edge34" class="edge">
<title>Node27&#45;&gt;Node18</title>
<path fill="none" stroke="midnightblue" d="M1102.82,-75.61C1038.09,-67.72 922.47,-52.41 813.82,-30.93"/>
<polygon fill="midnightblue" stroke="midnightblue" points="814.5,-27.5 804,-28.97 813.12,-34.36 814.5,-27.5"/>
</g>
<!-- Node27&#45;&gt;Node19 -->
<g id="edge35" class="edge">
<title>Node27&#45;&gt;Node19</title>
<path fill="none" stroke="midnightblue" d="M1113.23,-72.93C1069.83,-63.6 998.47,-48.02 927.12,-31.11"/>
<polygon fill="midnightblue" stroke="midnightblue" points="927.6,-27.62 917.06,-28.71 925.98,-34.43 927.6,-27.62"/>
</g>
<!-- Node27&#45;&gt;Node20 -->
<g id="edge36" class="edge">
<title>Node27&#45;&gt;Node20</title>
<path fill="none" stroke="midnightblue" d="M1102.89,-78.15C1020.63,-72.2 852.72,-57.99 701.24,-30.97"/>
<polygon fill="midnightblue" stroke="midnightblue" points="701.75,-27.5 691.29,-29.17 700.51,-34.39 701.75,-27.5"/>
</g>
<!-- Node28 -->
<g id="node28" class="node">
<title>Node28</title>
<g id="a_node28"><a xlink:title=" ">
<polygon fill="none" stroke="#bfbfbf" points="935,-6 935,-25 986,-25 986,-6 935,-6"/>
<text text-anchor="middle" x="960.5" y="-13" font-family="Helvetica,sans-Serif" font-size="10.00">memory</text>
</a>
</g>
</g>
<!-- Node27&#45;&gt;Node28 -->
<g id="edge33" class="edge">
<title>Node27&#45;&gt;Node28</title>
<path fill="none" stroke="midnightblue" d="M1124.13,-72.91C1092.22,-63.4 1039.85,-47.24 995.5,-31 993.65,-30.32 991.75,-29.6 989.84,-28.86"/>
<polygon fill="midnightblue" stroke="midnightblue" points="990.96,-25.54 980.38,-25.07 988.36,-32.04 990.96,-25.54"/>
</g>
<!-- Node29 -->
<g id="node29" class="node">
<title>Node29</title>
<g id="a_node29"><a xlink:title=" ">
<polygon fill="none" stroke="#bfbfbf" points="1004.5,-0.5 1004.5,-30.5 1108.5,-30.5 1108.5,-0.5 1004.5,-0.5"/>
<text text-anchor="start" x="1012.5" y="-18.5" font-family="Helvetica,sans-Serif" font-size="10.00">boost/archive/binary</text>
<text text-anchor="middle" x="1056.5" y="-7.5" font-family="Helvetica,sans-Serif" font-size="10.00">_iarchive.hpp</text>
</a>
</g>
</g>
<!-- Node27&#45;&gt;Node29 -->
<g id="edge37" class="edge">
<title>Node27&#45;&gt;Node29</title>
<path fill="none" stroke="midnightblue" d="M1140.42,-72.73C1126.55,-63.44 1104.2,-48.46 1086.04,-36.3"/>
<polygon fill="midnightblue" stroke="midnightblue" points="1087.78,-33.25 1077.53,-30.59 1083.88,-39.06 1087.78,-33.25"/>
</g>
<!-- Node30 -->
<g id="node30" class="node">
<title>Node30</title>
<g id="a_node30"><a xlink:title=" ">
<polygon fill="none" stroke="#bfbfbf" points="1126.5,-0.5 1126.5,-30.5 1230.5,-30.5 1230.5,-0.5 1126.5,-0.5"/>
<text text-anchor="start" x="1134.5" y="-18.5" font-family="Helvetica,sans-Serif" font-size="10.00">boost/archive/binary</text>
<text text-anchor="middle" x="1178.5" y="-7.5" font-family="Helvetica,sans-Serif" font-size="10.00">_oarchive.hpp</text>
</a>
</g>
</g>
<!-- Node27&#45;&gt;Node30 -->
<g id="edge38" class="edge">
<title>Node27&#45;&gt;Node30</title>
<path fill="none" stroke="midnightblue" d="M1156.87,-72.73C1160.09,-64.37 1165.08,-51.4 1169.45,-40.02"/>
<polygon fill="midnightblue" stroke="midnightblue" points="1172.76,-41.18 1173.08,-30.59 1166.22,-38.67 1172.76,-41.18"/>
</g>
<!-- Node31 -->
<g id="node31" class="node">
<title>Node31</title>
<g id="a_node31"><a xlink:title=" ">
<polygon fill="none" stroke="#bfbfbf" points="1249,-6 1249,-25 1306,-25 1306,-6 1249,-6"/>
<text text-anchor="middle" x="1277.5" y="-13" font-family="Helvetica,sans-Serif" font-size="10.00">Color.hpp</text>
</a>
</g>
</g>
<!-- Node27&#45;&gt;Node31 -->
<g id="edge39" class="edge">
<title>Node27&#45;&gt;Node31</title>
<path fill="none" stroke="midnightblue" d="M1169.97,-72.87C1190.9,-61.89 1227.28,-42.82 1251.86,-29.94"/>
<polygon fill="midnightblue" stroke="midnightblue" points="1253.73,-32.91 1260.97,-25.17 1250.48,-26.71 1253.73,-32.91"/>
</g>
<!-- Node32 -->
<g id="node32" class="node">
<title>Node32</title>
<g id="a_node32"><a xlink:title=" ">
<polygon fill="none" stroke="#bfbfbf" points="1324,-6 1324,-25 1403,-25 1403,-6 1324,-6"/>
<text text-anchor="middle" x="1363.5" y="-13" font-family="Helvetica,sans-Serif" font-size="10.00">Transform.hpp</text>
</a>
</g>
</g>
<!-- Node27&#45;&gt;Node32 -->
<g id="edge40" class="edge">
<title>Node27&#45;&gt;Node32</title>
<path fill="none" stroke="midnightblue" d="M1181.39,-72.87C1218.6,-61.35 1284.6,-40.92 1326.1,-28.08"/>
<polygon fill="midnightblue" stroke="midnightblue" points="1327.31,-31.36 1335.83,-25.06 1325.24,-24.68 1327.31,-31.36"/>
</g>
<!-- Node33 -->
<g id="node33" class="node">
<title>Node33</title>
<g id="a_node33"><a xlink:title=" ">
<polygon fill="none" stroke="#bfbfbf" points="1421.5,-6 1421.5,-25 1495.5,-25 1495.5,-6 1421.5,-6"/>
<text text-anchor="middle" x="1458.5" y="-13" font-family="Helvetica,sans-Serif" font-size="10.00">UIObject.hpp</text>
</a>
</g>
</g>
<!-- Node27&#45;&gt;Node33 -->
<g id="edge41" class="edge">
<title>Node27&#45;&gt;Node33</title>
<path fill="none" stroke="midnightblue" d="M1204.01,-73.39C1256.48,-64.56 1340.79,-49.23 1412.5,-31 1415.93,-30.13 1419.48,-29.15 1423.02,-28.12"/>
<polygon fill="midnightblue" stroke="midnightblue" points="1424.3,-31.39 1432.86,-25.15 1422.27,-24.69 1424.3,-31.39"/>
</g>
<!-- Node34&#45;&gt;Node7 -->
<g id="edge44" class="edge">
<title>Node34&#45;&gt;Node7</title>
<path fill="none" stroke="midnightblue" d="M618.18,-313.47C595.43,-299.32 547.2,-271.17 502.5,-257 401.47,-224.98 368.69,-240.32 261.45,-221.22"/>
<polygon fill="midnightblue" stroke="midnightblue" points="262,-217.76 251.53,-219.4 260.73,-224.65 262,-217.76"/>
</g>
<!-- Node34&#45;&gt;Node9 -->
<g id="edge47" class="edge">
<title>Node34&#45;&gt;Node9</title>
<path fill="none" stroke="midnightblue" d="M598.38,-313.44C562.38,-304.14 504.73,-289.25 465.31,-279.06"/>
<polygon fill="midnightblue" stroke="midnightblue" points="466.02,-275.63 455.46,-276.52 464.27,-282.41 466.02,-275.63"/>
</g>
<!-- Node34&#45;&gt;Node11 -->
<g id="edge45" class="edge">
<title>Node34&#45;&gt;Node11</title>
<path fill="none" stroke="midnightblue" d="M625.89,-313.08C621.13,-305.53 614.18,-294.49 608.35,-285.23"/>
<polygon fill="midnightblue" stroke="midnightblue" points="611.3,-283.35 603.01,-276.75 605.38,-287.08 611.3,-283.35"/>
</g>
<!-- Node34&#45;&gt;Node27 -->
<g id="edge46" class="edge">
<title>Node34&#45;&gt;Node27</title>
<path fill="none" stroke="midnightblue" d="M694.31,-313.97C697.42,-313.63 700.49,-313.3 703.5,-313 754.95,-307.79 1132.38,-314.95 1167.5,-277 1212.67,-228.19 1179.84,-139.57 1162.45,-101.58"/>
<polygon fill="midnightblue" stroke="midnightblue" points="1165.49,-99.82 1158.04,-92.29 1159.17,-102.82 1165.49,-99.82"/>
</g>
<!-- Node35&#45;&gt;Node7 -->
<g id="edge49" class="edge">
<title>Node35&#45;&gt;Node7</title>
<path fill="none" stroke="midnightblue" d="M307.38,-313.15C299.71,-300.21 284.42,-275.66 268.5,-257 259.44,-246.38 248.09,-235.65 238.7,-227.33"/>
<polygon fill="midnightblue" stroke="midnightblue" points="240.91,-224.61 231.07,-220.7 236.33,-229.9 240.91,-224.61"/>
</g>
<!-- Node35&#45;&gt;Node9 -->
<g id="edge50" class="edge">
<title>Node35&#45;&gt;Node9</title>
<path fill="none" stroke="midnightblue" d="M330.17,-313.32C347.89,-304.62 375.4,-291.12 395.79,-281.11"/>
<polygon fill="midnightblue" stroke="midnightblue" points="397.44,-284.2 404.87,-276.65 394.35,-277.92 397.44,-284.2"/>
</g>
</g>
</svg>
        <g id="navigator" transform="translate(0 0)" fill="#404254">
                <rect fill="#f2f5e9" fill-opacity="0.5" stroke="#606060" stroke-width=".5" x="0" y="0" width="60" height="60"/>
                <use id="zoomplus" xlink:href="#zoomPlus" x="17" y="9" onmousedown="handleZoom(evt,'in')"/>
                <use id="zoomminus" xlink:href="#zoomMin" x="42" y="9" onmousedown="handleZoom(evt,'out')"/>
                <use id="reset" xlink:href="#resetDef" x="30" y="36" onmousedown="handleReset()"/>
                <g id="arrowUp" xlink:href="#dirArrow" transform="translate(30 24)" onmousedown="handlePan(0,-1)">
                  <use xlink:href="#rim" fill="#404040">
                        <set attributeName="fill" to="#808080" begin="arrowUp.mouseover" end="arrowUp.mouseout"/>
                  </use>
                  <path fill="none" stroke="white" stroke-width="1.5" d="M0,-3.0v7 M-2.5,-0.5L0,-3.0L2.5,-0.5"/>
                </g>
                <g id="arrowRight" xlink:href="#dirArrow" transform="rotate(90) translate(36 -43)" onmousedown="handlePan(1,0)">
                  <use xlink:href="#rim" fill="#404040">
                        <set attributeName="fill" to="#808080" begin="arrowRight.mouseover" end="arrowRight.mouseout"/>
                  </use>
                  <path fill="none" stroke="white" stroke-width="1.5" d="M0,-3.0v7 M-2.5,-0.5L0,-3.0L2.5,-0.5"/>
                </g>
                <g id="arrowDown" xlink:href="#dirArrow" transform="rotate(180) translate(-30 -48)" onmousedown="handlePan(0,1)">
                  <use xlink:href="#rim" fill="#404040">
                        <set attributeName="fill" to="#808080" begin="arrowDown.mouseover" end="arrowDown.mouseout"/>
                  </use>
                  <path fill="none" stroke="white" stroke-width="1.5" d="M0,-3.0v7 M-2.5,-0.5L0,-3.0L2.5,-0.5"/>
                </g>
                <g id="arrowLeft" xlink:href="#dirArrow" transform="rotate(270) translate(-36 17)" onmousedown="handlePan(-1,0)">
                  <use xlink:href="#rim" fill="#404040">
                        <set attributeName="fill" to="#808080" begin="arrowLeft.mouseover" end="arrowLeft.mouseout"/>
                  </use>
                  <path fill="none" stroke="white" stroke-width="1.5" d="M0,-3.0v7 M-2.5,-0.5L0,-3.0L2.5,-0.5"/>
                </g>
        </g>
        <svg viewBox="0 0 15 15" width="100%" height="30px" preserveAspectRatio="xMaxYMin meet">
         <g id="arrow_out" transform="scale(0.3 0.3)">
          <a xlink:href="Game_8cpp__incl_org.svg" target="_base">
           <rect id="button" ry="5" rx="5" y="6" x="6" height="38" width="38"
                fill="#f2f5e9" fill-opacity="0.5" stroke="#606060" stroke-width="1.0"/>
           <path id="arrow"
             d="M 11.500037,31.436501 C 11.940474,20.09759 22.043105,11.32322 32.158766,21.979434 L 37.068811,17.246167 C 37.068811,17.246167 37.088388,32 37.088388,32 L 22.160133,31.978069 C 22.160133,31.978069 26.997745,27.140456 26.997745,27.140456 C 18.528582,18.264221 13.291696,25.230495 11.500037,31.436501 z"
             style="fill:#404040;"/>
          </a>
         </g>
        </svg>
</svg>
