<svg xmlns="http://www.w3.org/2000/svg" xmlns:xlink="http://www.w3.org/1999/xlink" width="206pt" height="112" viewBox="0 0 205.5 84"><g id="graph0" class="graph" transform="scale(1 1) rotate(0) translate(4 80)"><title>src/Game/Game.hpp</title><g id="node1" class="node"><title>Node1</title><g id="a_node1"><a><polygon fill="#bfbfbf" stroke="#000" points="54 -56.5 54 -75.5 161 -75.5 161 -56.5 54 -56.5"/><text x="107.5" y="-63.5" font-family="Helvetica,sans-Serif" font-size="10" text-anchor="middle">src/Game/Game.hpp</text></a></g></g><g id="node2" class="node"><title>Node2</title><g id="a_node2"><a target="_top" xlink:href="Game_8cpp.html"><polygon fill="none" stroke="#000" points="0 -.5 0 -19.5 107 -19.5 107 -.5 0 -.5"/><text x="53.5" y="-7.5" font-family="Helvetica,sans-Serif" font-size="10" text-anchor="middle">src/Game/Game.cpp</text></a></g></g><g id="edge1" class="edge"><title>Node1-&gt;Node2</title><path fill="none" stroke="#191970" d="M91.5,-49C81.93,-39.43 70.14,-27.64 62.25,-19.75"/><polygon fill="#191970" stroke="#191970" points="89.04 -51.49 98.58 -56.08 93.99 -46.54 89.04 -51.49"/></g><g id="node3" class="node"><title>Node3</title><g id="a_node3"><a target="_top" xlink:href="main_8cpp.html"><polygon fill="none" stroke="#000" points="125.5 -.5 125.5 -19.5 197.5 -19.5 197.5 -.5 125.5 -.5"/><text x="161.5" y="-7.5" font-family="Helvetica,sans-Serif" font-size="10" text-anchor="middle">src/main.cpp</text></a></g></g><g id="edge2" class="edge"><title>Node1-&gt;Node3</title><path fill="none" stroke="#191970" d="M123.5,-49C133.07,-39.43 144.86,-27.64 152.75,-19.75"/><polygon fill="#191970" stroke="#191970" points="121.01 -46.54 116.42 -56.08 125.96 -51.49 121.01 -46.54"/></g></g></svg>