<svg xmlns="http://www.w3.org/2000/svg" xmlns:xlink="http://www.w3.org/1999/xlink" id="main" onload="init(evt)" version="1.1" xml:space="preserve"><style type="text/css">.edge:hover path{stroke:red}.edge:hover polygon{stroke:red;fill:red}</style><script type="text/javascript"><![CDATA[
var edges = document.getElementsByTagName('g');
if (edges && edges.length) {
  for (var i=0;i<edges.length;i++) {
    if (edges[i].id.substr(0,4)=='edge') {
      edges[i].setAttribute('class','edge');
    }
  }
}
]]></script><defs><circle id="rim" cx="0" cy="0" r="7"/><circle id="rim2" cx="0" cy="0" r="3.5"/><g id="zoomPlus"><use fill="#404040" xlink:href="#rim"><set attributeName="fill" begin="zoomplus.mouseover" end="zoomplus.mouseout" to="#808080"/></use><path fill="none" stroke="#fff" stroke-width="1.5" d="M-4,0h8M0,-4v8" pointer-events="none"/></g><g id="zoomMin"><use fill="#404040" xlink:href="#rim"><set attributeName="fill" begin="zoomminus.mouseover" end="zoomminus.mouseout" to="#808080"/></use><path fill="none" stroke="#fff" stroke-width="1.5" d="M-4,0h8" pointer-events="none"/></g><g id="dirArrow"><path fill="none" stroke="#fff" stroke-width="1.5" d="M0,-3.0v7 M-2.5,-0.5L0,-3.0L2.5,-0.5"/></g><g id="resetDef"><use fill="#404040" xlink:href="#rim2"><set attributeName="fill" begin="reset.mouseover" end="reset.mouseout" to="#808080"/></use></g></defs><script type="text/javascript">var viewWidth = 819; var viewHeight = 151; var sectionId = &apos;dynsection-0&apos;;</script><script xlink:href="svgpan.js"/><svg id="graph" class="graph"><g id="viewport"><title>src/Game/Levels/GameOverScene.cpp</title><g id="node1" class="node"><title>Node1</title><g id="a_node1"><a><polygon fill="#bfbfbf" stroke="#000" points="347 -112.5 347 -142.5 489 -142.5 489 -112.5 347 -112.5"/><text x="355" y="-130.5" font-family="Helvetica,sans-Serif" font-size="10" text-anchor="start">src/Game/Levels/GameOver</text><text x="418" y="-119.5" font-family="Helvetica,sans-Serif" font-size="10" text-anchor="middle">Scene.cpp</text></a></g></g><g id="node2" class="node"><title>Node2</title><g id="a_node2"><a target="_top" xlink:href="GameOverScene_8hpp.html"><polygon fill="none" stroke="#000" points="26 -56.5 26 -75.5 136 -75.5 136 -56.5 26 -56.5"/><text x="81" y="-63.5" font-family="Helvetica,sans-Serif" font-size="10" text-anchor="middle">GameOverScene.hpp</text></a></g></g><g id="edge1" class="edge"><title>Node1-&gt;Node2</title><path fill="none" stroke="#191970" d="M346.94,-113.95C285.19,-103.05 196.82,-87.45 139.18,-77.27"/><polygon fill="#191970" stroke="#191970" points="139.6 -73.79 129.15 -75.5 138.39 -80.69 139.6 -73.79"/></g><g id="node5" class="node"><title>Node5</title><g id="a_node5"><a><polygon fill="none" stroke="#bfbfbf" points="154.5 -56.5 154.5 -75.5 279.5 -75.5 279.5 -56.5 154.5 -56.5"/><text x="217" y="-63.5" font-family="Helvetica,sans-Serif" font-size="10" text-anchor="middle">Builder/SceneBuilder.hpp</text></a></g></g><g id="edge4" class="edge"><title>Node1-&gt;Node5</title><path fill="none" stroke="#191970" d="M370.62,-112.47C335.49,-102.08 288.21,-88.08 255.42,-78.37"/><polygon fill="#191970" stroke="#191970" points="256.32 -74.99 245.74 -75.51 254.33 -81.7 256.32 -74.99"/></g><g id="node6" class="node"><title>Node6</title><g id="a_node6"><a><polygon fill="none" stroke="#bfbfbf" points="298 -56.5 298 -75.5 394 -75.5 394 -56.5 298 -56.5"/><text x="346" y="-63.5" font-family="Helvetica,sans-Serif" font-size="10" text-anchor="middle">Engine/Engine.hpp</text></a></g></g><g id="edge5" class="edge"><title>Node1-&gt;Node6</title><path fill="none" stroke="#191970" d="M400.94,-112.4C389.94,-103.31 375.63,-91.49 364.38,-82.19"/><polygon fill="#191970" stroke="#191970" points="366.41 -79.33 356.48 -75.66 361.96 -84.73 366.41 -79.33"/></g><g id="node7" class="node"><title>Node7</title><g id="a_node7"><a><polygon fill="none" stroke="#bfbfbf" points="412 -56.5 412 -75.5 570 -75.5 570 -56.5 412 -56.5"/><text x="491" y="-63.5" font-family="Helvetica,sans-Serif" font-size="10" text-anchor="middle">Director/GameObjectFactory.hpp</text></a></g></g><g id="edge6" class="edge"><title>Node1-&gt;Node7</title><path fill="none" stroke="#191970" d="M435.3,-112.4C446.45,-103.31 460.95,-91.49 472.36,-82.19"/><polygon fill="#191970" stroke="#191970" points="474.84 -84.69 480.38 -75.66 470.42 -79.26 474.84 -84.69"/></g><g id="node8" class="node"><title>Node8</title><g id="a_node8"><a><polygon fill="none" stroke="#bfbfbf" points="587.5 -56.5 587.5 -75.5 644.5 -75.5 644.5 -56.5 587.5 -56.5"/><text x="616" y="-63.5" font-family="Helvetica,sans-Serif" font-size="10" text-anchor="middle">Color.hpp</text></a></g></g><g id="edge7" class="edge"><title>Node1-&gt;Node8</title><path fill="none" stroke="#191970" d="M464.67,-112.47C499.13,-102.12 545.46,-88.2 577.74,-78.5"/><polygon fill="#191970" stroke="#191970" points="579.12 -81.74 587.69 -75.51 577.11 -75.03 579.12 -81.74"/></g><g id="node9" class="node"><title>Node9</title><g id="a_node9"><a target="_top" xlink:href="TimerBehaviour_8hpp.html"><polygon fill="none" stroke="#000" points="662.5 -56.5 662.5 -75.5 799.5 -75.5 799.5 -56.5 662.5 -56.5"/><text x="731" y="-63.5" font-family="Helvetica,sans-Serif" font-size="10" text-anchor="middle">Scripts/TimerBehaviour.hpp</text></a></g></g><g id="edge8" class="edge"><title>Node1-&gt;Node9</title><path fill="none" stroke="#191970" d="M489.02,-113C545.67,-102.23 623.87,-87.36 675.87,-77.48"/><polygon fill="#191970" stroke="#191970" points="676.73 -80.88 685.9 -75.57 675.42 -74 676.73 -80.88"/></g><g id="node3" class="node"><title>Node3</title><g id="a_node3"><a><polygon fill="none" stroke="#bfbfbf" points="0 -.5 0 -19.5 62 -19.5 62 -.5 0 -.5"/><text x="31" y="-7.5" font-family="Helvetica,sans-Serif" font-size="10" text-anchor="middle">Scene.hpp</text></a></g></g><g id="edge2" class="edge"><title>Node2-&gt;Node3</title><path fill="none" stroke="#191970" d="M72.74,-56.08C65.54,-48.3 54.89,-36.8 46.15,-27.37"/><polygon fill="#191970" stroke="#191970" points="48.47 -24.71 39.1 -19.75 43.33 -29.47 48.47 -24.71"/></g><g id="node4" class="node"><title>Node4</title><g id="a_node4"><a><polygon fill="none" stroke="#bfbfbf" points="80.5 -.5 80.5 -19.5 181.5 -19.5 181.5 -.5 80.5 -.5"/><text x="131" y="-7.5" font-family="Helvetica,sans-Serif" font-size="10" text-anchor="middle">UI/FPSCounter.hpp</text></a></g></g><g id="edge3" class="edge"><title>Node2-&gt;Node4</title><path fill="none" stroke="#191970" d="M89.26,-56.08C96.46,-48.3 107.11,-36.8 115.85,-27.37"/><polygon fill="#191970" stroke="#191970" points="118.67 -29.47 122.9 -19.75 113.53 -24.71 118.67 -29.47"/></g><g id="node10" class="node"><title>Node10</title><g id="a_node10"><a><polygon fill="none" stroke="#bfbfbf" points="629 -.5 629 -19.5 733 -19.5 733 -.5 629 -.5"/><text x="681" y="-7.5" font-family="Helvetica,sans-Serif" font-size="10" text-anchor="middle">BehaviourScript.hpp</text></a></g></g><g id="edge9" class="edge"><title>Node9-&gt;Node10</title><path fill="none" stroke="#191970" d="M722.74,-56.08C715.54,-48.3 704.89,-36.8 696.15,-27.37"/><polygon fill="#191970" stroke="#191970" points="698.47 -24.71 689.1 -19.75 693.33 -29.47 698.47 -24.71"/></g><g id="node11" class="node"><title>Node11</title><g id="a_node11"><a><polygon fill="none" stroke="#bfbfbf" points="751.5 -.5 751.5 -19.5 810.5 -19.5 810.5 -.5 751.5 -.5"/><text x="781" y="-7.5" font-family="Helvetica,sans-Serif" font-size="10" text-anchor="middle">functional</text></a></g></g><g id="edge10" class="edge"><title>Node9-&gt;Node11</title><path fill="none" stroke="#191970" d="M739.26,-56.08C746.46,-48.3 757.11,-36.8 765.85,-27.37"/><polygon fill="#191970" stroke="#191970" points="768.67 -29.47 772.9 -19.75 763.53 -24.71 768.67 -29.47"/></g></g></svg><g id="navigator" fill="#404254" transform="translate(0 0)"><rect width="60" height="60" x="0" y="0" fill="#f2f5e9" fill-opacity=".5" stroke="#606060" stroke-width=".5"/><use id="zoomplus" x="17" y="9" onmousedown="handleZoom(evt,'in')" xlink:href="#zoomPlus"/><use id="zoomminus" x="42" y="9" onmousedown="handleZoom(evt,'out')" xlink:href="#zoomMin"/><use id="reset" x="30" y="36" onmousedown="handleReset()" xlink:href="#resetDef"/><g id="arrowUp" onmousedown="handlePan(0,-1)" transform="translate(30 24)" xlink:href="#dirArrow"><use fill="#404040" xlink:href="#rim"><set attributeName="fill" begin="arrowUp.mouseover" end="arrowUp.mouseout" to="#808080"/></use><path fill="none" stroke="#fff" stroke-width="1.5" d="M0,-3.0v7 M-2.5,-0.5L0,-3.0L2.5,-0.5"/></g><g id="arrowRight" onmousedown="handlePan(1,0)" transform="rotate(90) translate(36 -43)" xlink:href="#dirArrow"><use fill="#404040" xlink:href="#rim"><set attributeName="fill" begin="arrowRight.mouseover" end="arrowRight.mouseout" to="#808080"/></use><path fill="none" stroke="#fff" stroke-width="1.5" d="M0,-3.0v7 M-2.5,-0.5L0,-3.0L2.5,-0.5"/></g><g id="arrowDown" onmousedown="handlePan(0,1)" transform="rotate(180) translate(-30 -48)" xlink:href="#dirArrow"><use fill="#404040" xlink:href="#rim"><set attributeName="fill" begin="arrowDown.mouseover" end="arrowDown.mouseout" to="#808080"/></use><path fill="none" stroke="#fff" stroke-width="1.5" d="M0,-3.0v7 M-2.5,-0.5L0,-3.0L2.5,-0.5"/></g><g id="arrowLeft" onmousedown="handlePan(-1,0)" transform="rotate(270) translate(-36 17)" xlink:href="#dirArrow"><use fill="#404040" xlink:href="#rim"><set attributeName="fill" begin="arrowLeft.mouseover" end="arrowLeft.mouseout" to="#808080"/></use><path fill="none" stroke="#fff" stroke-width="1.5" d="M0,-3.0v7 M-2.5,-0.5L0,-3.0L2.5,-0.5"/></g></g><svg width="100%" height="30" preserveAspectRatio="xMaxYMin meet" viewBox="0 0 15 15"><g id="arrow_out" transform="scale(0.3 0.3)"><a target="_base" xlink:href="GameOverScene_8cpp__incl_org.svg"><rect id="button" width="38" height="38" x="6" y="6" fill="#f2f5e9" fill-opacity=".5" stroke="#606060" stroke-width="1" rx="5" ry="5"/><path id="arrow" d="M 11.500037,31.436501 C 11.940474,20.09759 22.043105,11.32322 32.158766,21.979434 L 37.068811,17.246167 C 37.068811,17.246167 37.088388,32 37.088388,32 L 22.160133,31.978069 C 22.160133,31.978069 26.997745,27.140456 26.997745,27.140456 C 18.528582,18.264221 13.291696,25.230495 11.500037,31.436501 z" style="fill:#404040"/></a></g></svg></svg>