<svg xmlns="http://www.w3.org/2000/svg" xmlns:xlink="http://www.w3.org/1999/xlink" width="190pt" height="95pt" viewBox="0 0 189.5 95"><g id="graph0" class="graph" transform="scale(1 1) rotate(0) translate(4 91)"><title>src/Game/Levels/GameOverScene.hpp</title><g id="node1" class="node"><title>Node1</title><g id="a_node1"><a><polygon fill="#bfbfbf" stroke="#000" points="10 -56.5 10 -86.5 152 -86.5 152 -56.5 10 -56.5"/><text x="18" y="-74.5" font-family="Helvetica,sans-Serif" font-size="10" text-anchor="start">src/Game/Levels/GameOver</text><text x="81" y="-63.5" font-family="Helvetica,sans-Serif" font-size="10" text-anchor="middle">Scene.hpp</text></a></g></g><g id="node2" class="node"><title>Node2</title><g id="a_node2"><a><polygon fill="none" stroke="#bfbfbf" points="0 -.5 0 -19.5 62 -19.5 62 -.5 0 -.5"/><text x="31" y="-7.5" font-family="Helvetica,sans-Serif" font-size="10" text-anchor="middle">Scene.hpp</text></a></g></g><g id="edge1" class="edge"><title>Node1-&gt;Node2</title><path fill="none" stroke="#191970" d="M69.15,-56.4C61.89,-47.75 52.55,-36.64 44.93,-27.58"/><polygon fill="#191970" stroke="#191970" points="47.39 -25.06 38.28 -19.66 42.03 -29.57 47.39 -25.06"/></g><g id="node3" class="node"><title>Node3</title><g id="a_node3"><a><polygon fill="none" stroke="#bfbfbf" points="80.5 -.5 80.5 -19.5 181.5 -19.5 181.5 -.5 80.5 -.5"/><text x="131" y="-7.5" font-family="Helvetica,sans-Serif" font-size="10" text-anchor="middle">UI/FPSCounter.hpp</text></a></g></g><g id="edge2" class="edge"><title>Node1-&gt;Node3</title><path fill="none" stroke="#191970" d="M92.85,-56.4C100.11,-47.75 109.45,-36.64 117.07,-27.58"/><polygon fill="#191970" stroke="#191970" points="119.97 -29.57 123.72 -19.66 114.61 -25.06 119.97 -29.57"/></g></g></svg>