<svg xmlns="http://www.w3.org/2000/svg" xmlns:xlink="http://www.w3.org/1999/xlink" width="511pt" height="212" viewBox="0 0 511 159"><g id="graph0" class="graph" transform="scale(1 1) rotate(0) translate(4 155)"><title>Graph Legend</title><g id="node1" class="node"><title>Node9</title><polygon fill="#bfbfbf" stroke="#000" points="293 -19 239 -19 239 0 293 0 293 -19"/><text x="266" y="-7" font-family="Helvetica,sans-Serif" font-size="10" text-anchor="middle">Inherited</text></g><g id="node2" class="node"><title>Node10</title><polygon fill="none" stroke="#000" points="66 -85 0 -85 0 -66 66 -66 66 -85"/><text x="33" y="-73" font-family="Helvetica,sans-Serif" font-size="10" text-anchor="middle">PublicBase</text></g><g id="edge1" class="edge"><title>Node10-&gt;Node9</title><path fill="none" stroke="#191970" d="M74.07,-63.22C121.46,-50.2 198.08,-29.16 238.69,-18"/><polygon fill="#191970" stroke="#191970" points="73.14 -59.84 64.42 -65.87 74.99 -66.59 73.14 -59.84"/></g><g id="node3" class="node"><title>Node11</title><polygon fill="none" stroke="red" points="63 -151 3 -151 3 -132 63 -132 63 -151"/><text x="33" y="-139" font-family="Helvetica,sans-Serif" font-size="10" text-anchor="middle">Truncated</text></g><g id="edge2" class="edge"><title>Node11-&gt;Node10</title><path fill="none" stroke="#191970" d="M33,-121.58C33,-109.63 33,-94.72 33,-85.41"/><polygon fill="#191970" stroke="#191970" points="29.5 -121.87 33 -131.87 36.5 -121.87 29.5 -121.87"/></g><g id="node4" class="node"><title>Node13</title><polygon fill="none" stroke="#000" points="165.5 -85 84.5 -85 84.5 -66 165.5 -66 165.5 -85"/><text x="125" y="-73" font-family="Helvetica,sans-Serif" font-size="10" text-anchor="middle">ProtectedBase</text></g><g id="edge3" class="edge"><title>Node13-&gt;Node9</title><path fill="none" stroke="#006400" d="M153.21,-61.69C181,-49.08 222.69,-30.16 246.84,-19.2"/><polygon fill="#006400" stroke="#006400" points="151.68 -58.55 144.02 -65.87 154.57 -64.92 151.68 -58.55"/></g><g id="node5" class="node"><title>Node14</title><polygon fill="none" stroke="#000" points="254 -85 184 -85 184 -66 254 -66 254 -85"/><text x="219" y="-73" font-family="Helvetica,sans-Serif" font-size="10" text-anchor="middle">PrivateBase</text></g><g id="edge4" class="edge"><title>Node14-&gt;Node9</title><path fill="none" stroke="#8b1a1a" d="M231.29,-57.77C240.3,-45.49 252.2,-29.3 259.46,-19.41"/><polygon fill="#8b1a1a" stroke="#8b1a1a" points="228.44 -55.74 225.34 -65.87 234.08 -59.88 228.44 -55.74"/></g><g id="node6" class="node"><title>Node15</title><polygon fill="none" stroke="#bfbfbf" points="355.5 -85 272.5 -85 272.5 -66 355.5 -66 355.5 -85"/><text x="314" y="-73" font-family="Helvetica,sans-Serif" font-size="10" text-anchor="middle">Undocumented</text></g><g id="edge5" class="edge"><title>Node15-&gt;Node9</title><path fill="none" stroke="#191970" d="M301.45,-57.77C292.24,-45.49 280.1,-29.3 272.68,-19.41"/><polygon fill="#191970" stroke="#191970" points="298.73 -59.97 307.53 -65.87 304.33 -55.77 298.73 -59.97"/></g><g id="node7" class="node"><title>Node16</title><polygon fill="none" stroke="#000" points="444.5 -85 373.5 -85 373.5 -66 444.5 -66 444.5 -85"/><text x="409" y="-73" font-family="Helvetica,sans-Serif" font-size="10" text-anchor="middle">Templ&lt; int &gt;</text></g><g id="edge6" class="edge"><title>Node16-&gt;Node9</title><path fill="none" stroke="#191970" d="M380.39,-61.69C352.2,-49.08 309.92,-30.16 285.44,-19.2"/><polygon fill="#191970" stroke="#191970" points="379.16 -64.98 389.71 -65.87 382.02 -58.59 379.16 -64.98"/></g><g id="node8" class="node"><title>Node17</title><polygon fill="none" stroke="#000" points="442 -151 376 -151 376 -132 442 -132 442 -151"/><text x="409" y="-139" font-family="Helvetica,sans-Serif" font-size="10" text-anchor="middle">Templ&lt; T &gt;</text></g><g id="edge7" class="edge"><title>Node17-&gt;Node16</title><path fill="none" stroke="orange" stroke-dasharray="5 2" d="M409,-121.58C409,-109.63 409,-94.72 409,-85.41"/><polygon fill="orange" stroke="orange" points="405.5 -121.87 409 -131.87 412.5 -121.87 405.5 -121.87"/><text x="423" y="-106" font-family="Helvetica,sans-Serif" font-size="10" text-anchor="middle">&lt; int &gt;</text></g><g id="node9" class="node"><title>Node18</title><polygon fill="none" stroke="#000" points="503 -85 463 -85 463 -66 503 -66 503 -85"/><text x="483" y="-73" font-family="Helvetica,sans-Serif" font-size="10" text-anchor="middle">Used</text></g><g id="edge8" class="edge"><title>Node18-&gt;Node9</title><path fill="none" stroke="#9a32cd" stroke-dasharray="5 2" d="M453.24,-65.72C410.88,-53.23 333.82,-30.5 293.02,-18.47"/><polygon fill="#9a32cd" stroke="#9a32cd" points="452.39 -69.12 462.97 -68.59 454.37 -62.41 452.39 -69.12"/><text x="417" y="-40" font-family="Helvetica,sans-Serif" font-size="10" text-anchor="middle">m_usedClass</text></g></g></svg>