<?xml version="1.0" encoding="UTF-8" standalone="no"?>
<!DOCTYPE svg PUBLIC "-//W3C//DTD SVG 1.1//EN"
 "http://www.w3.org/Graphics/SVG/1.1/DTD/svg11.dtd">
<!-- Generated by graphviz version 2.44.0 ()
 -->
<!-- Title: Graphical Class Hierarchy Pages: 1 -->
<svg width="325pt" height="268pt"
 viewBox="0.00 0.00 325.00 268.00" xmlns="http://www.w3.org/2000/svg" xmlns:xlink="http://www.w3.org/1999/xlink">
<g id="graph0" class="graph" transform="scale(1 1) rotate(0) translate(4 264)">
<title>Graphical Class Hierarchy</title>
<!-- Node1 -->
<g id="node1" class="node">
<title>Node1</title>
<g id="a_node1"><a xlink:title=" ">
<polygon fill="none" stroke="#bfbfbf" points="0,-114.5 0,-133.5 108,-133.5 108,-114.5 0,-114.5"/>
<text text-anchor="middle" x="54" y="-121.5" font-family="Helvetica,sans-Serif" font-size="10.00">spic::BehaviourScript</text>
</a>
</g>
</g>
<!-- Node0 -->
<g id="node2" class="node">
<title>Node0</title>
<g id="a_node2"><a xlink:href="classEnemyAttackBehaviour.html" target="_top" xlink:title=" ">
<polygon fill="none" stroke="black" points="171.5,-240.5 171.5,-259.5 289.5,-259.5 289.5,-240.5 171.5,-240.5"/>
<text text-anchor="middle" x="230.5" y="-247.5" font-family="Helvetica,sans-Serif" font-size="10.00">EnemyAttackBehaviour</text>
</a>
</g>
</g>
<!-- Node1&#45;&gt;Node0 -->
<g id="edge1" class="edge">
<title>Node1&#45;&gt;Node0</title>
<path fill="none" stroke="midnightblue" d="M65.06,-142.42C79.32,-166.69 107.74,-208.88 144,-231 152.31,-236.07 161.81,-239.79 171.38,-242.52"/>
<polygon fill="midnightblue" stroke="midnightblue" points="67.98,-140.47 59.99,-133.51 61.89,-143.93 67.98,-140.47"/>
</g>
<!-- Node3 -->
<g id="node3" class="node">
<title>Node3</title>
<g id="a_node3"><a xlink:href="classPlatformerGame_1_1CoinBehaviour.html" target="_top" xlink:title=" ">
<polygon fill="none" stroke="black" points="153,-202.5 153,-221.5 308,-221.5 308,-202.5 153,-202.5"/>
<text text-anchor="middle" x="230.5" y="-209.5" font-family="Helvetica,sans-Serif" font-size="10.00">PlatformerGame::CoinBehaviour</text>
</a>
</g>
</g>
<!-- Node1&#45;&gt;Node3 -->
<g id="edge2" class="edge">
<title>Node1&#45;&gt;Node3</title>
<path fill="none" stroke="midnightblue" d="M71.81,-140.78C88.65,-156.63 116.02,-179.86 144,-193 152.26,-196.88 161.34,-199.98 170.41,-202.46"/>
<polygon fill="midnightblue" stroke="midnightblue" points="74.06,-138.09 64.43,-133.67 69.21,-143.13 74.06,-138.09"/>
</g>
<!-- Node4 -->
<g id="node4" class="node">
<title>Node4</title>
<g id="a_node4"><a xlink:href="classPlatformerGame_1_1DynamicAnimationBehaviour.html" target="_top" xlink:title=" ">
<polygon fill="none" stroke="black" points="144,-153 144,-183 317,-183 317,-153 144,-153"/>
<text text-anchor="start" x="152" y="-171" font-family="Helvetica,sans-Serif" font-size="10.00">PlatformerGame::DynamicAnimation</text>
<text text-anchor="middle" x="230.5" y="-160" font-family="Helvetica,sans-Serif" font-size="10.00">Behaviour</text>
</a>
</g>
</g>
<!-- Node1&#45;&gt;Node4 -->
<g id="edge3" class="edge">
<title>Node1&#45;&gt;Node4</title>
<path fill="none" stroke="midnightblue" d="M102.69,-136.03C123.39,-141.25 147.86,-147.41 169.75,-152.93"/>
<polygon fill="midnightblue" stroke="midnightblue" points="103.42,-132.6 92.86,-133.55 101.7,-139.39 103.42,-132.6"/>
</g>
<!-- Node5 -->
<g id="node5" class="node">
<title>Node5</title>
<g id="a_node5"><a xlink:href="classPlatformerGame_1_1FlagBehaviour.html" target="_top" xlink:title=" ">
<polygon fill="none" stroke="black" points="153,-114.5 153,-133.5 308,-133.5 308,-114.5 153,-114.5"/>
<text text-anchor="middle" x="230.5" y="-121.5" font-family="Helvetica,sans-Serif" font-size="10.00">PlatformerGame::FlagBehaviour</text>
</a>
</g>
</g>
<!-- Node1&#45;&gt;Node5 -->
<g id="edge4" class="edge">
<title>Node1&#45;&gt;Node5</title>
<path fill="none" stroke="midnightblue" d="M118.38,-124C129.54,-124 141.27,-124 152.76,-124"/>
<polygon fill="midnightblue" stroke="midnightblue" points="118.3,-120.5 108.3,-124 118.3,-127.5 118.3,-120.5"/>
</g>
<!-- Node6 -->
<g id="node6" class="node">
<title>Node6</title>
<g id="a_node6"><a xlink:href="classPlatformerGame_1_1MarioBehaviour.html" target="_top" xlink:title=" ">
<polygon fill="none" stroke="black" points="150.5,-76.5 150.5,-95.5 310.5,-95.5 310.5,-76.5 150.5,-76.5"/>
<text text-anchor="middle" x="230.5" y="-83.5" font-family="Helvetica,sans-Serif" font-size="10.00">PlatformerGame::MarioBehaviour</text>
</a>
</g>
</g>
<!-- Node1&#45;&gt;Node6 -->
<g id="edge5" class="edge">
<title>Node1&#45;&gt;Node6</title>
<path fill="none" stroke="midnightblue" d="M108.97,-112.25C133.64,-106.87 162.49,-100.59 185.78,-95.52"/>
<polygon fill="midnightblue" stroke="midnightblue" points="108.06,-108.86 99.03,-114.41 109.55,-115.7 108.06,-108.86"/>
</g>
<!-- Node7 -->
<g id="node7" class="node">
<title>Node7</title>
<g id="a_node7"><a xlink:href="classPlatformerGame_1_1StarBehaviour.html" target="_top" xlink:title=" ">
<polygon fill="none" stroke="black" points="153.5,-38.5 153.5,-57.5 307.5,-57.5 307.5,-38.5 153.5,-38.5"/>
<text text-anchor="middle" x="230.5" y="-45.5" font-family="Helvetica,sans-Serif" font-size="10.00">PlatformerGame::StarBehaviour</text>
</a>
</g>
</g>
<!-- Node1&#45;&gt;Node7 -->
<g id="edge6" class="edge">
<title>Node1&#45;&gt;Node7</title>
<path fill="none" stroke="midnightblue" d="M75.11,-108.18C92.44,-95.29 118.61,-77.56 144,-67 153.13,-63.2 163.13,-60.11 172.98,-57.61"/>
<polygon fill="midnightblue" stroke="midnightblue" points="72.75,-105.58 66.91,-114.41 76.99,-111.15 72.75,-105.58"/>
</g>
<!-- Node8 -->
<g id="node8" class="node">
<title>Node8</title>
<g id="a_node8"><a xlink:href="classPlatformerGame_1_1TimerBehaviour.html" target="_top" xlink:title=" ">
<polygon fill="none" stroke="black" points="150,-0.5 150,-19.5 311,-19.5 311,-0.5 150,-0.5"/>
<text text-anchor="middle" x="230.5" y="-7.5" font-family="Helvetica,sans-Serif" font-size="10.00">PlatformerGame::TimerBehaviour</text>
</a>
</g>
</g>
<!-- Node1&#45;&gt;Node8 -->
<g id="edge7" class="edge">
<title>Node1&#45;&gt;Node8</title>
<path fill="none" stroke="midnightblue" d="M66.68,-106.06C81.83,-84.31 110.33,-48.2 144,-29 150.87,-25.08 158.47,-21.97 166.23,-19.5"/>
<polygon fill="midnightblue" stroke="midnightblue" points="63.74,-104.16 61.03,-114.41 69.54,-108.09 63.74,-104.16"/>
</g>
</g>
</svg>
