<svg xmlns="http://www.w3.org/2000/svg" xmlns:xlink="http://www.w3.org/1999/xlink" width="325pt" height="88pt" viewBox="0 0 325 88"><g id="graph0" class="graph" transform="scale(1 1) rotate(0) translate(4 84)"><title>Graphical Class Hierarchy</title><g id="node1" class="node"><title>Node0</title><g id="a_node1"><a target="_top" xlink:href="classPlatformerGame_1_1MarioState.html"><polygon fill="none" stroke="#000" points="0 -30 0 -49 140 -49 140 -30 0 -30"/><text x="70" y="-37" font-family="Helvetica,sans-Serif" font-size="10" text-anchor="middle">PlatformerGame::MarioState</text></a></g></g><g id="node2" class="node"><title>Node1</title><g id="a_node2"><a target="_top" xlink:href="classPlatformerGame_1_1SmallMarioState.html"><polygon fill="none" stroke="#000" points="176 -49.5 176 -79.5 317 -79.5 317 -49.5 176 -49.5"/><text x="184" y="-67.5" font-family="Helvetica,sans-Serif" font-size="10" text-anchor="start">PlatformerGame::SmallMario</text><text x="246.5" y="-56.5" font-family="Helvetica,sans-Serif" font-size="10" text-anchor="middle">State</text></a></g></g><g id="edge1" class="edge"><title>Node0-&gt;Node1</title><path fill="none" stroke="#191970" d="M147.55,-50.47C156.93,-51.81 166.47,-53.18 175.74,-54.51"/><polygon fill="#191970" stroke="#191970" points="147.86 -46.98 137.47 -49.02 146.87 -53.91 147.86 -46.98"/></g><g id="node3" class="node"><title>Node2</title><g id="a_node3"><a target="_top" xlink:href="classPlatformerGame_1_1StarMarioState.html"><polygon fill="none" stroke="#000" points="179.5 -.5 179.5 -30.5 313.5 -30.5 313.5 -.5 179.5 -.5"/><text x="187.5" y="-18.5" font-family="Helvetica,sans-Serif" font-size="10" text-anchor="start">PlatformerGame::StarMario</text><text x="246.5" y="-7.5" font-family="Helvetica,sans-Serif" font-size="10" text-anchor="middle">State</text></a></g></g><g id="edge2" class="edge"><title>Node0-&gt;Node2</title><path fill="none" stroke="#191970" d="M150.32,-28.59C160.07,-27.25 169.96,-25.89 179.49,-24.58"/><polygon fill="#191970" stroke="#191970" points="149.65 -25.15 140.22 -29.98 150.6 -32.08 149.65 -25.15"/></g></g></svg>