<?xml version="1.0" encoding="UTF-8" standalone="no"?>
<!DOCTYPE svg PUBLIC "-//W3C//DTD SVG 1.1//EN"
 "http://www.w3.org/Graphics/SVG/1.1/DTD/svg11.dtd">
<!-- Generated by graphviz version 2.44.0 ()
 -->
<!-- Title: src/Game/Levels/Level2.cpp Pages: 1 -->
<!--zoomable 397 -->
<svg id="main" version="1.1" xmlns="http://www.w3.org/2000/svg" xmlns:xlink="http://www.w3.org/1999/xlink" xml:space="preserve" onload="init(evt)">
<style type="text/css"><![CDATA[
.edge:hover path { stroke: red; }
.edge:hover polygon { stroke: red; fill: red; }
]]></style>
<script type="text/javascript"><![CDATA[
var edges = document.getElementsByTagName('g');
if (edges && edges.length) {
  for (var i=0;i<edges.length;i++) {
    if (edges[i].id.substr(0,4)=='edge') {
      edges[i].setAttribute('class','edge');
    }
  }
}
]]></script>
        <defs>
                <circle id="rim" cx="0" cy="0" r="7"/>
                <circle id="rim2" cx="0" cy="0" r="3.5"/>
                <g id="zoomPlus">
                        <use xlink:href="#rim" fill="#404040">
                                <set attributeName="fill" to="#808080" begin="zoomplus.mouseover" end="zoomplus.mouseout"/>
                        </use>
                        <path d="M-4,0h8M0,-4v8" fill="none" stroke="white" stroke-width="1.5" pointer-events="none"/>
                </g>
                <g id="zoomMin">
                        <use xlink:href="#rim" fill="#404040">
                                <set attributeName="fill" to="#808080" begin="zoomminus.mouseover" end="zoomminus.mouseout"/>
                        </use>
                        <path d="M-4,0h8" fill="none" stroke="white" stroke-width="1.5" pointer-events="none"/>
                </g>
                <g id="dirArrow">
                        <path fill="none" stroke="white" stroke-width="1.5" d="M0,-3.0v7 M-2.5,-0.5L0,-3.0L2.5,-0.5"/>
                </g>
               <g id="resetDef">
                       <use xlink:href="#rim2" fill="#404040">
                               <set attributeName="fill" to="#808080" begin="reset.mouseover" end="reset.mouseout"/>
                       </use>
               </g>
        </defs>

<script type="text/javascript">
var viewWidth = 2341;
var viewHeight = 397;
var sectionId = 'dynsection-0';
</script>
<script xlink:href="svgpan.js"/>
<svg id="graph" class="graph">
<g id="viewport">
<title>src/Game/Levels/Level2.cpp</title>
<!-- Node1 -->
<g id="node1" class="node">
<title>Node1</title>
<g id="a_node1"><a xlink:title=" ">
<polygon fill="#bfbfbf" stroke="black" points="319,-369.5 319,-388.5 461,-388.5 461,-369.5 319,-369.5"/>
<text text-anchor="middle" x="390" y="-376.5" font-family="Helvetica,sans-Serif" font-size="10.00">src/Game/Levels/Level2.cpp</text>
</a>
</g>
</g>
<!-- Node2 -->
<g id="node2" class="node">
<title>Node2</title>
<g id="a_node2"><a xlink:href="Level2_8hpp.html" target="_top" xlink:title=" ">
<polygon fill="none" stroke="black" points="358,-313.5 358,-332.5 422,-332.5 422,-313.5 358,-313.5"/>
<text text-anchor="middle" x="390" y="-320.5" font-family="Helvetica,sans-Serif" font-size="10.00">Level2.hpp</text>
</a>
</g>
</g>
<!-- Node1&#45;&gt;Node2 -->
<g id="edge1" class="edge">
<title>Node1&#45;&gt;Node2</title>
<path fill="none" stroke="midnightblue" d="M390,-369.08C390,-362.01 390,-351.86 390,-342.99"/>
<polygon fill="midnightblue" stroke="midnightblue" points="393.5,-342.75 390,-332.75 386.5,-342.75 393.5,-342.75"/>
</g>
<!-- Node7 -->
<g id="node7" class="node">
<title>Node7</title>
<g id="a_node7"><a xlink:title=" ">
<polygon fill="none" stroke="#bfbfbf" points="0,-201.5 0,-220.5 96,-220.5 96,-201.5 0,-201.5"/>
<text text-anchor="middle" x="48" y="-208.5" font-family="Helvetica,sans-Serif" font-size="10.00">Engine/Engine.hpp</text>
</a>
</g>
</g>
<!-- Node1&#45;&gt;Node7 -->
<g id="edge34" class="edge">
<title>Node1&#45;&gt;Node7</title>
<path fill="none" stroke="midnightblue" d="M372.09,-369.31C315.77,-341.97 141.95,-257.6 74.83,-225.02"/>
<polygon fill="midnightblue" stroke="midnightblue" points="76.25,-221.82 65.73,-220.61 73.2,-228.12 76.25,-221.82"/>
</g>
<!-- Node30 -->
<g id="node30" class="node">
<title>Node30</title>
<g id="a_node30"><a xlink:href="TileConfig_8hpp.html" target="_top" xlink:title=" ">
<polygon fill="none" stroke="black" points="1289.5,-201.5 1289.5,-220.5 1366.5,-220.5 1366.5,-201.5 1289.5,-201.5"/>
<text text-anchor="middle" x="1328" y="-208.5" font-family="Helvetica,sans-Serif" font-size="10.00">TileConfig.hpp</text>
</a>
</g>
</g>
<!-- Node1&#45;&gt;Node30 -->
<g id="edge35" class="edge">
<title>Node1&#45;&gt;Node30</title>
<path fill="none" stroke="midnightblue" d="M438.13,-369.48C599.08,-341 1117.47,-249.26 1279.28,-220.62"/>
<polygon fill="midnightblue" stroke="midnightblue" points="1280.18,-224.02 1289.42,-218.83 1278.96,-217.12 1280.18,-224.02"/>
</g>
<!-- Node3 -->
<g id="node3" class="node">
<title>Node3</title>
<g id="a_node3"><a xlink:title=" ">
<polygon fill="none" stroke="#bfbfbf" points="114,-201.5 114,-220.5 176,-220.5 176,-201.5 114,-201.5"/>
<text text-anchor="middle" x="145" y="-208.5" font-family="Helvetica,sans-Serif" font-size="10.00">Scene.hpp</text>
</a>
</g>
</g>
<!-- Node2&#45;&gt;Node3 -->
<g id="edge2" class="edge">
<title>Node2&#45;&gt;Node3</title>
<path fill="none" stroke="midnightblue" d="M368.14,-313.38C346.02,-304.57 310.93,-290.32 281,-277 242.46,-259.85 198.53,-238.52 171.28,-225.08"/>
<polygon fill="midnightblue" stroke="midnightblue" points="172.55,-221.81 162.04,-220.51 169.45,-228.08 172.55,-221.81"/>
</g>
<!-- Node4 -->
<g id="node4" class="node">
<title>Node4</title>
<g id="a_node4"><a xlink:href="Level_8hpp.html" target="_top" xlink:title=" ">
<polygon fill="none" stroke="black" points="409.5,-257.5 409.5,-276.5 468.5,-276.5 468.5,-257.5 409.5,-257.5"/>
<text text-anchor="middle" x="439" y="-264.5" font-family="Helvetica,sans-Serif" font-size="10.00">Level.hpp</text>
</a>
</g>
</g>
<!-- Node2&#45;&gt;Node4 -->
<g id="edge3" class="edge">
<title>Node2&#45;&gt;Node4</title>
<path fill="none" stroke="midnightblue" d="M398.09,-313.08C405.16,-305.3 415.59,-293.8 424.15,-284.37"/>
<polygon fill="midnightblue" stroke="midnightblue" points="426.93,-286.51 431.06,-276.75 421.75,-281.8 426.93,-286.51"/>
</g>
<!-- Node22 -->
<g id="node22" class="node">
<title>Node22</title>
<g id="a_node22"><a xlink:href="CoinCounter_8hpp.html" target="_top" xlink:title=" ">
<polygon fill="none" stroke="black" points="1883.5,-73 1883.5,-92 1984.5,-92 1984.5,-73 1883.5,-73"/>
<text text-anchor="middle" x="1934" y="-80" font-family="Helvetica,sans-Serif" font-size="10.00">UI/CoinCounter.hpp</text>
</a>
</g>
</g>
<!-- Node2&#45;&gt;Node22 -->
<g id="edge23" class="edge">
<title>Node2&#45;&gt;Node22</title>
<path fill="none" stroke="midnightblue" d="M422.22,-321.4C639.87,-316.99 1889.79,-286.48 2000,-165 2020.68,-142.2 1985.26,-113.97 1958.82,-97.43"/>
<polygon fill="midnightblue" stroke="midnightblue" points="1960.32,-94.24 1949.95,-92.09 1956.71,-100.24 1960.32,-94.24"/>
</g>
<!-- Node29 -->
<g id="node29" class="node">
<title>Node29</title>
<g id="a_node29"><a xlink:title=" ">
<polygon fill="none" stroke="#bfbfbf" points="290.5,-257.5 290.5,-276.5 391.5,-276.5 391.5,-257.5 290.5,-257.5"/>
<text text-anchor="middle" x="341" y="-264.5" font-family="Helvetica,sans-Serif" font-size="10.00">UI/FPSCounter.hpp</text>
</a>
</g>
</g>
<!-- Node2&#45;&gt;Node29 -->
<g id="edge33" class="edge">
<title>Node2&#45;&gt;Node29</title>
<path fill="none" stroke="midnightblue" d="M381.91,-313.08C374.84,-305.3 364.41,-293.8 355.85,-284.37"/>
<polygon fill="midnightblue" stroke="midnightblue" points="358.25,-281.8 348.94,-276.75 353.07,-286.51 358.25,-281.8"/>
</g>
<!-- Node4&#45;&gt;Node3 -->
<g id="edge4" class="edge">
<title>Node4&#45;&gt;Node3</title>
<path fill="none" stroke="midnightblue" d="M409.23,-258.93C406.12,-258.25 403,-257.6 400,-257 307.71,-238.68 281.2,-239.85 186.09,-221.33"/>
<polygon fill="midnightblue" stroke="midnightblue" points="186.53,-217.84 176.04,-219.35 185.18,-224.71 186.53,-217.84"/>
</g>
<!-- Node5 -->
<g id="node5" class="node">
<title>Node5</title>
<g id="a_node5"><a xlink:href="Sprites_8hpp.html" target="_top" xlink:title=" ">
<polygon fill="none" stroke="black" points="193.5,-201.5 193.5,-220.5 304.5,-220.5 304.5,-201.5 193.5,-201.5"/>
<text text-anchor="middle" x="249" y="-208.5" font-family="Helvetica,sans-Serif" font-size="10.00">constants/Sprites.hpp</text>
</a>
</g>
</g>
<!-- Node4&#45;&gt;Node5 -->
<g id="edge5" class="edge">
<title>Node4&#45;&gt;Node5</title>
<path fill="none" stroke="midnightblue" d="M409.31,-257.56C376.88,-248.34 324.75,-233.53 288.79,-223.31"/>
<polygon fill="midnightblue" stroke="midnightblue" points="289.68,-219.92 279.11,-220.56 287.77,-226.66 289.68,-219.92"/>
</g>
<!-- Node4&#45;&gt;Node7 -->
<g id="edge7" class="edge">
<title>Node4&#45;&gt;Node7</title>
<path fill="none" stroke="midnightblue" d="M409.26,-258.8C406.14,-258.14 403.01,-257.53 400,-257 273.09,-234.68 237.53,-239.07 106.22,-221.12"/>
<polygon fill="midnightblue" stroke="midnightblue" points="106.57,-217.63 96.18,-219.73 105.61,-224.57 106.57,-217.63"/>
</g>
<!-- Node8 -->
<g id="node8" class="node">
<title>Node8</title>
<g id="a_node8"><a xlink:title=" ">
<polygon fill="none" stroke="#bfbfbf" points="694.5,-201.5 694.5,-220.5 803.5,-220.5 803.5,-201.5 694.5,-201.5"/>
<text text-anchor="middle" x="749" y="-208.5" font-family="Helvetica,sans-Serif" font-size="10.00">Utility/InputEnum.hpp</text>
</a>
</g>
</g>
<!-- Node4&#45;&gt;Node8 -->
<g id="edge8" class="edge">
<title>Node4&#45;&gt;Node8</title>
<path fill="none" stroke="midnightblue" d="M468.72,-260.82C519.61,-251.96 624.29,-233.72 690.32,-222.22"/>
<polygon fill="midnightblue" stroke="midnightblue" points="690.93,-225.67 700.18,-220.5 689.72,-218.77 690.93,-225.67"/>
</g>
<!-- Node9 -->
<g id="node9" class="node">
<title>Node9</title>
<g id="a_node9"><a xlink:title=" ">
<polygon fill="none" stroke="#bfbfbf" points="822,-201.5 822,-220.5 912,-220.5 912,-201.5 822,-201.5"/>
<text text-anchor="middle" x="867" y="-208.5" font-family="Helvetica,sans-Serif" font-size="10.00">AudioSource.hpp</text>
</a>
</g>
</g>
<!-- Node4&#45;&gt;Node9 -->
<g id="edge9" class="edge">
<title>Node4&#45;&gt;Node9</title>
<path fill="none" stroke="midnightblue" d="M468.63,-262.9C530.42,-256.33 677.72,-240.15 811.9,-221.1"/>
<polygon fill="midnightblue" stroke="midnightblue" points="812.54,-224.55 821.94,-219.67 811.55,-217.62 812.54,-224.55"/>
</g>
<!-- Node10 -->
<g id="node10" class="node">
<title>Node10</title>
<g id="a_node10"><a xlink:href="MarioBehaviour_8hpp.html" target="_top" xlink:title=" ">
<polygon fill="none" stroke="black" points="323,-201.5 323,-220.5 459,-220.5 459,-201.5 323,-201.5"/>
<text text-anchor="middle" x="391" y="-208.5" font-family="Helvetica,sans-Serif" font-size="10.00">Scripts/MarioBehaviour.hpp</text>
</a>
</g>
</g>
<!-- Node4&#45;&gt;Node10 -->
<g id="edge10" class="edge">
<title>Node4&#45;&gt;Node10</title>
<path fill="none" stroke="midnightblue" d="M431.07,-257.08C424.15,-249.3 413.93,-237.8 405.55,-228.37"/>
<polygon fill="midnightblue" stroke="midnightblue" points="408.04,-225.9 398.78,-220.75 402.81,-230.55 408.04,-225.9"/>
</g>
<!-- Node20 -->
<g id="node20" class="node">
<title>Node20</title>
<g id="a_node20"><a xlink:title=" ">
<polygon fill="none" stroke="#bfbfbf" points="419,-140 419,-159 577,-159 577,-140 419,-140"/>
<text text-anchor="middle" x="498" y="-147" font-family="Helvetica,sans-Serif" font-size="10.00">Director/GameObjectFactory.hpp</text>
</a>
</g>
</g>
<!-- Node4&#45;&gt;Node20 -->
<g id="edge21" class="edge">
<title>Node4&#45;&gt;Node20</title>
<path fill="none" stroke="midnightblue" d="M445.24,-257.3C451.45,-248.43 461.04,-234.14 468,-221 477.03,-203.95 485.46,-183.6 491.07,-169.15"/>
<polygon fill="midnightblue" stroke="midnightblue" points="494.49,-170 494.77,-159.4 487.95,-167.51 494.49,-170"/>
</g>
<!-- Node21 -->
<g id="node21" class="node">
<title>Node21</title>
<g id="a_node21"><a xlink:title=" ">
<polygon fill="none" stroke="#bfbfbf" points="515.5,-201.5 515.5,-220.5 676.5,-220.5 676.5,-201.5 515.5,-201.5"/>
<text text-anchor="middle" x="596" y="-208.5" font-family="Helvetica,sans-Serif" font-size="10.00">Behaviour/CollisionBehaviour.hpp</text>
</a>
</g>
</g>
<!-- Node4&#45;&gt;Node21 -->
<g id="edge22" class="edge">
<title>Node4&#45;&gt;Node21</title>
<path fill="none" stroke="midnightblue" d="M463.88,-257.44C490.29,-248.36 532.22,-233.94 561.74,-223.78"/>
<polygon fill="midnightblue" stroke="midnightblue" points="562.92,-227.08 571.24,-220.52 560.64,-220.46 562.92,-227.08"/>
</g>
<!-- Node6 -->
<g id="node6" class="node">
<title>Node6</title>
<g id="a_node6"><a xlink:title=" ">
<polygon fill="none" stroke="#bfbfbf" points="155.5,-140 155.5,-159 196.5,-159 196.5,-140 155.5,-140"/>
<text text-anchor="middle" x="176" y="-147" font-family="Helvetica,sans-Serif" font-size="10.00">string</text>
</a>
</g>
</g>
<!-- Node5&#45;&gt;Node6 -->
<g id="edge6" class="edge">
<title>Node5&#45;&gt;Node6</title>
<path fill="none" stroke="midnightblue" d="M238.54,-201.48C227.05,-192.11 208.37,-176.88 194.41,-165.51"/>
<polygon fill="midnightblue" stroke="midnightblue" points="196.4,-162.61 186.44,-159.01 191.98,-168.04 196.4,-162.61"/>
</g>
<!-- Node11 -->
<g id="node11" class="node">
<title>Node11</title>
<g id="a_node11"><a xlink:title=" ">
<polygon fill="none" stroke="#bfbfbf" points="832,-73 832,-92 936,-92 936,-73 832,-73"/>
<text text-anchor="middle" x="884" y="-80" font-family="Helvetica,sans-Serif" font-size="10.00">BehaviourScript.hpp</text>
</a>
</g>
</g>
<!-- Node10&#45;&gt;Node11 -->
<g id="edge11" class="edge">
<title>Node10&#45;&gt;Node11</title>
<path fill="none" stroke="midnightblue" d="M390.27,-201.34C389.46,-185.32 390.3,-151.14 410,-134 425.33,-120.66 696.33,-98.05 821.53,-88.26"/>
<polygon fill="midnightblue" stroke="midnightblue" points="822.03,-91.73 831.73,-87.46 821.49,-84.75 822.03,-91.73"/>
</g>
<!-- Node12 -->
<g id="node12" class="node">
<title>Node12</title>
<g id="a_node12"><a xlink:href="MarioState_8hpp.html" target="_top" xlink:title=" ">
<polygon fill="none" stroke="black" points="547.5,-67.5 547.5,-97.5 650.5,-97.5 650.5,-67.5 547.5,-67.5"/>
<text text-anchor="start" x="555.5" y="-85.5" font-family="Helvetica,sans-Serif" font-size="10.00">Scripts/MarioStates</text>
<text text-anchor="middle" x="599" y="-74.5" font-family="Helvetica,sans-Serif" font-size="10.00">/MarioState.hpp</text>
</a>
</g>
</g>
<!-- Node10&#45;&gt;Node12 -->
<g id="edge12" class="edge">
<title>Node10&#45;&gt;Node12</title>
<path fill="none" stroke="midnightblue" d="M385.52,-201.42C376.51,-186.14 361.1,-153.92 377,-134 396.71,-109.3 478.41,-95.75 536.97,-89.06"/>
<polygon fill="midnightblue" stroke="midnightblue" points="537.69,-92.51 547.25,-87.93 536.92,-85.55 537.69,-92.51"/>
</g>
<!-- Node19 -->
<g id="node19" class="node">
<title>Node19</title>
<g id="a_node19"><a xlink:href="SmallMarioState_8hpp.html" target="_top" xlink:title=" ">
<polygon fill="none" stroke="black" points="215,-134.5 215,-164.5 325,-164.5 325,-134.5 215,-134.5"/>
<text text-anchor="start" x="223" y="-152.5" font-family="Helvetica,sans-Serif" font-size="10.00">Scripts/MarioStates</text>
<text text-anchor="middle" x="270" y="-141.5" font-family="Helvetica,sans-Serif" font-size="10.00">/SmallMarioState.hpp</text>
</a>
</g>
</g>
<!-- Node10&#45;&gt;Node19 -->
<g id="edge19" class="edge">
<title>Node10&#45;&gt;Node19</title>
<path fill="none" stroke="midnightblue" d="M373.66,-201.48C356.51,-193.04 329.7,-179.86 307.64,-169.01"/>
<polygon fill="midnightblue" stroke="midnightblue" points="309.04,-165.79 298.52,-164.52 305.95,-172.08 309.04,-165.79"/>
</g>
<!-- Node13 -->
<g id="node13" class="node">
<title>Node13</title>
<g id="a_node13"><a xlink:title=" ">
<polygon fill="none" stroke="#bfbfbf" points="1433.5,-0.5 1433.5,-30.5 1528.5,-30.5 1528.5,-0.5 1433.5,-0.5"/>
<text text-anchor="start" x="1441.5" y="-18.5" font-family="Helvetica,sans-Serif" font-size="10.00">boost/serialization</text>
<text text-anchor="middle" x="1481" y="-7.5" font-family="Helvetica,sans-Serif" font-size="10.00">/access.hpp</text>
</a>
</g>
</g>
<!-- Node12&#45;&gt;Node13 -->
<g id="edge13" class="edge">
<title>Node12&#45;&gt;Node13</title>
<path fill="none" stroke="midnightblue" d="M650.56,-77.7C804.69,-66.34 1261.3,-32.69 1423.24,-20.76"/>
<polygon fill="midnightblue" stroke="midnightblue" points="1423.76,-24.23 1433.48,-20 1423.25,-17.25 1423.76,-24.23"/>
</g>
<!-- Node14 -->
<g id="node14" class="node">
<title>Node14</title>
<g id="a_node14"><a xlink:title=" ">
<polygon fill="none" stroke="#bfbfbf" points="1546.5,-0.5 1546.5,-30.5 1641.5,-30.5 1641.5,-0.5 1546.5,-0.5"/>
<text text-anchor="start" x="1554.5" y="-18.5" font-family="Helvetica,sans-Serif" font-size="10.00">boost/serialization</text>
<text text-anchor="middle" x="1594" y="-7.5" font-family="Helvetica,sans-Serif" font-size="10.00">/export.hpp</text>
</a>
</g>
</g>
<!-- Node12&#45;&gt;Node14 -->
<g id="edge14" class="edge">
<title>Node12&#45;&gt;Node14</title>
<path fill="none" stroke="midnightblue" d="M650.59,-77.95C695.98,-74.88 763.86,-70.4 823,-67 1137.24,-48.92 1221.67,-78.48 1536.15,-31.08"/>
<polygon fill="midnightblue" stroke="midnightblue" points="1537.12,-34.47 1546.48,-29.51 1536.06,-27.55 1537.12,-34.47"/>
</g>
<!-- Node15 -->
<g id="node15" class="node">
<title>Node15</title>
<g id="a_node15"><a xlink:title=" ">
<polygon fill="none" stroke="#bfbfbf" points="1659.5,-0.5 1659.5,-30.5 1754.5,-30.5 1754.5,-0.5 1659.5,-0.5"/>
<text text-anchor="start" x="1667.5" y="-18.5" font-family="Helvetica,sans-Serif" font-size="10.00">boost/serialization</text>
<text text-anchor="middle" x="1707" y="-7.5" font-family="Helvetica,sans-Serif" font-size="10.00">/shared_ptr.hpp</text>
</a>
</g>
</g>
<!-- Node12&#45;&gt;Node15 -->
<g id="edge15" class="edge">
<title>Node12&#45;&gt;Node15</title>
<path fill="none" stroke="midnightblue" d="M650.58,-77.85C695.97,-74.71 763.85,-70.2 823,-67 1187.49,-47.28 1284.95,-84.78 1649.45,-31.02"/>
<polygon fill="midnightblue" stroke="midnightblue" points="1650.11,-34.46 1659.48,-29.53 1649.07,-27.54 1650.11,-34.46"/>
</g>
<!-- Node16 -->
<g id="node16" class="node">
<title>Node16</title>
<g id="a_node16"><a xlink:title=" ">
<polygon fill="none" stroke="#bfbfbf" points="641.5,-6 641.5,-25 778.5,-25 778.5,-6 641.5,-6"/>
<text text-anchor="middle" x="710" y="-13" font-family="Helvetica,sans-Serif" font-size="10.00">Texture/AnimatedSprite.hpp</text>
</a>
</g>
</g>
<!-- Node12&#45;&gt;Node16 -->
<g id="edge16" class="edge">
<title>Node12&#45;&gt;Node16</title>
<path fill="none" stroke="midnightblue" d="M623.09,-67.4C641.96,-56.34 668.06,-41.06 686.72,-30.13"/>
<polygon fill="midnightblue" stroke="midnightblue" points="688.61,-33.08 695.47,-25.01 685.07,-27.04 688.61,-33.08"/>
</g>
<!-- Node17 -->
<g id="node17" class="node">
<title>Node17</title>
<g id="a_node17"><a xlink:title=" ">
<polygon fill="none" stroke="#bfbfbf" points="439.5,-6 439.5,-25 496.5,-25 496.5,-6 439.5,-6"/>
<text text-anchor="middle" x="468" y="-13" font-family="Helvetica,sans-Serif" font-size="10.00">Point.hpp</text>
</a>
</g>
</g>
<!-- Node12&#45;&gt;Node17 -->
<g id="edge17" class="edge">
<title>Node12&#45;&gt;Node17</title>
<path fill="none" stroke="midnightblue" d="M570.57,-67.4C547.89,-56.14 516.37,-40.5 494.28,-29.54"/>
<polygon fill="midnightblue" stroke="midnightblue" points="495.66,-26.32 485.14,-25.01 492.55,-32.59 495.66,-26.32"/>
</g>
<!-- Node18 -->
<g id="node18" class="node">
<title>Node18</title>
<g id="a_node18"><a xlink:title=" ">
<polygon fill="none" stroke="#bfbfbf" points="514.5,-6 514.5,-25 623.5,-25 623.5,-6 514.5,-6"/>
<text text-anchor="middle" x="569" y="-13" font-family="Helvetica,sans-Serif" font-size="10.00">Physics/Collision.hpp</text>
</a>
</g>
</g>
<!-- Node12&#45;&gt;Node18 -->
<g id="edge18" class="edge">
<title>Node12&#45;&gt;Node18</title>
<path fill="none" stroke="midnightblue" d="M592.49,-67.4C588.04,-57.76 582.11,-44.91 577.32,-34.54"/>
<polygon fill="midnightblue" stroke="midnightblue" points="580.38,-32.81 573.01,-25.19 574.03,-35.74 580.38,-32.81"/>
</g>
<!-- Node19&#45;&gt;Node12 -->
<g id="edge20" class="edge">
<title>Node19&#45;&gt;Node12</title>
<path fill="none" stroke="midnightblue" d="M325.35,-136.79C329.96,-135.84 334.56,-134.9 339,-134 406.75,-120.3 484.57,-105.28 537.29,-95.21"/>
<polygon fill="midnightblue" stroke="midnightblue" points="537.99,-98.64 547.16,-93.33 536.68,-91.76 537.99,-98.64"/>
</g>
<!-- Node22&#45;&gt;Node13 -->
<g id="edge25" class="edge">
<title>Node22&#45;&gt;Node13</title>
<path fill="none" stroke="midnightblue" d="M1883.37,-77.04C1809.68,-70.12 1668.47,-55.19 1538.9,-31.02"/>
<polygon fill="midnightblue" stroke="midnightblue" points="1539.27,-27.53 1528.8,-29.11 1537.98,-34.41 1539.27,-27.53"/>
</g>
<!-- Node22&#45;&gt;Node14 -->
<g id="edge26" class="edge">
<title>Node22&#45;&gt;Node14</title>
<path fill="none" stroke="midnightblue" d="M1883.43,-73.61C1828.7,-64.82 1738.66,-49.62 1651.33,-30.98"/>
<polygon fill="midnightblue" stroke="midnightblue" points="1652.04,-27.55 1641.52,-28.86 1650.56,-34.39 1652.04,-27.55"/>
</g>
<!-- Node22&#45;&gt;Node15 -->
<g id="edge27" class="edge">
<title>Node22&#45;&gt;Node15</title>
<path fill="none" stroke="midnightblue" d="M1903.86,-72.87C1868.43,-62.72 1808.84,-45.66 1764.49,-32.96"/>
<polygon fill="midnightblue" stroke="midnightblue" points="1765.28,-29.55 1754.7,-30.16 1763.35,-36.28 1765.28,-29.55"/>
</g>
<!-- Node23 -->
<g id="node23" class="node">
<title>Node23</title>
<g id="a_node23"><a xlink:title=" ">
<polygon fill="none" stroke="#bfbfbf" points="2281.5,-6 2281.5,-25 2332.5,-25 2332.5,-6 2281.5,-6"/>
<text text-anchor="middle" x="2307" y="-13" font-family="Helvetica,sans-Serif" font-size="10.00">memory</text>
</a>
</g>
</g>
<!-- Node22&#45;&gt;Node23 -->
<g id="edge24" class="edge">
<title>Node22&#45;&gt;Node23</title>
<path fill="none" stroke="midnightblue" d="M1984.6,-73.42C1998.05,-71.3 2012.57,-69.04 2026,-67 2135.24,-50.4 2165.48,-60.37 2272,-31 2274.44,-30.33 2276.94,-29.53 2279.42,-28.66"/>
<polygon fill="midnightblue" stroke="midnightblue" points="2280.7,-31.91 2288.77,-25.05 2278.18,-25.38 2280.7,-31.91"/>
</g>
<!-- Node24 -->
<g id="node24" class="node">
<title>Node24</title>
<g id="a_node24"><a xlink:title=" ">
<polygon fill="none" stroke="#bfbfbf" points="2037,-0.5 2037,-30.5 2141,-30.5 2141,-0.5 2037,-0.5"/>
<text text-anchor="start" x="2045" y="-18.5" font-family="Helvetica,sans-Serif" font-size="10.00">boost/archive/binary</text>
<text text-anchor="middle" x="2089" y="-7.5" font-family="Helvetica,sans-Serif" font-size="10.00">_iarchive.hpp</text>
</a>
</g>
</g>
<!-- Node22&#45;&gt;Node24 -->
<g id="edge28" class="edge">
<title>Node22&#45;&gt;Node24</title>
<path fill="none" stroke="midnightblue" d="M1954.58,-72.87C1977.84,-63.12 2016.34,-46.97 2046.19,-34.45"/>
<polygon fill="midnightblue" stroke="midnightblue" points="2047.68,-37.62 2055.55,-30.53 2044.97,-31.17 2047.68,-37.62"/>
</g>
<!-- Node25 -->
<g id="node25" class="node">
<title>Node25</title>
<g id="a_node25"><a xlink:title=" ">
<polygon fill="none" stroke="#bfbfbf" points="2159,-0.5 2159,-30.5 2263,-30.5 2263,-0.5 2159,-0.5"/>
<text text-anchor="start" x="2167" y="-18.5" font-family="Helvetica,sans-Serif" font-size="10.00">boost/archive/binary</text>
<text text-anchor="middle" x="2211" y="-7.5" font-family="Helvetica,sans-Serif" font-size="10.00">_oarchive.hpp</text>
</a>
</g>
</g>
<!-- Node22&#45;&gt;Node25 -->
<g id="edge29" class="edge">
<title>Node22&#45;&gt;Node25</title>
<path fill="none" stroke="midnightblue" d="M1970.7,-72.96C2011.67,-63.42 2080.22,-47.43 2148.66,-31.31"/>
<polygon fill="midnightblue" stroke="midnightblue" points="2149.83,-34.63 2158.76,-28.93 2148.22,-27.82 2149.83,-34.63"/>
</g>
<!-- Node26 -->
<g id="node26" class="node">
<title>Node26</title>
<g id="a_node26"><a xlink:title=" ">
<polygon fill="none" stroke="#bfbfbf" points="1772.5,-6 1772.5,-25 1829.5,-25 1829.5,-6 1772.5,-6"/>
<text text-anchor="middle" x="1801" y="-13" font-family="Helvetica,sans-Serif" font-size="10.00">Color.hpp</text>
</a>
</g>
</g>
<!-- Node22&#45;&gt;Node26 -->
<g id="edge30" class="edge">
<title>Node22&#45;&gt;Node26</title>
<path fill="none" stroke="midnightblue" d="M1916.34,-72.87C1893.68,-61.8 1854.17,-42.49 1827.8,-29.6"/>
<polygon fill="midnightblue" stroke="midnightblue" points="1829.26,-26.41 1818.73,-25.17 1826.18,-32.7 1829.26,-26.41"/>
</g>
<!-- Node27 -->
<g id="node27" class="node">
<title>Node27</title>
<g id="a_node27"><a xlink:title=" ">
<polygon fill="none" stroke="#bfbfbf" points="1847.5,-6 1847.5,-25 1926.5,-25 1926.5,-6 1847.5,-6"/>
<text text-anchor="middle" x="1887" y="-13" font-family="Helvetica,sans-Serif" font-size="10.00">Transform.hpp</text>
</a>
</g>
</g>
<!-- Node22&#45;&gt;Node27 -->
<g id="edge31" class="edge">
<title>Node22&#45;&gt;Node27</title>
<path fill="none" stroke="midnightblue" d="M1927.66,-72.73C1920.4,-62.7 1908.34,-46.01 1899.24,-33.42"/>
<polygon fill="midnightblue" stroke="midnightblue" points="1901.93,-31.18 1893.24,-25.13 1896.26,-35.28 1901.93,-31.18"/>
</g>
<!-- Node28 -->
<g id="node28" class="node">
<title>Node28</title>
<g id="a_node28"><a xlink:title=" ">
<polygon fill="none" stroke="#bfbfbf" points="1945,-6 1945,-25 2019,-25 2019,-6 1945,-6"/>
<text text-anchor="middle" x="1982" y="-13" font-family="Helvetica,sans-Serif" font-size="10.00">UIObject.hpp</text>
</a>
</g>
</g>
<!-- Node22&#45;&gt;Node28 -->
<g id="edge32" class="edge">
<title>Node22&#45;&gt;Node28</title>
<path fill="none" stroke="midnightblue" d="M1940.47,-72.73C1947.89,-62.7 1960.2,-46.01 1969.5,-33.42"/>
<polygon fill="midnightblue" stroke="midnightblue" points="1972.5,-35.25 1975.63,-25.13 1966.87,-31.09 1972.5,-35.25"/>
</g>
<!-- Node30&#45;&gt;Node20 -->
<g id="edge41" class="edge">
<title>Node30&#45;&gt;Node20</title>
<path fill="none" stroke="midnightblue" d="M1289.31,-209.03C1179.19,-205.96 854.71,-194.86 587,-165 576.62,-163.84 565.61,-162.3 555.01,-160.66"/>
<polygon fill="midnightblue" stroke="midnightblue" points="555.42,-157.18 544.99,-159.06 554.31,-164.1 555.42,-157.18"/>
</g>
<!-- Node30&#45;&gt;Node22 -->
<g id="edge52" class="edge">
<title>Node30&#45;&gt;Node22</title>
<path fill="none" stroke="midnightblue" d="M1366.96,-210.34C1501.54,-211.1 1940.9,-210.09 1983,-165 2002,-144.65 1974.71,-115.75 1953.87,-98.39"/>
<polygon fill="midnightblue" stroke="midnightblue" points="1956.03,-95.64 1946.03,-92.14 1951.67,-101.11 1956.03,-95.64"/>
</g>
<!-- Node30&#45;&gt;Node23 -->
<g id="edge38" class="edge">
<title>Node30&#45;&gt;Node23</title>
<path fill="none" stroke="midnightblue" d="M1366.56,-209.35C1490.73,-206.95 1879.05,-197.01 2000,-165 2114.26,-134.76 2237.01,-61.38 2285.52,-30.53"/>
<polygon fill="midnightblue" stroke="midnightblue" points="2287.43,-33.46 2293.96,-25.12 2283.65,-27.57 2287.43,-33.46"/>
</g>
<!-- Node31 -->
<g id="node31" class="node">
<title>Node31</title>
<g id="a_node31"><a xlink:title=" ">
<polygon fill="none" stroke="#bfbfbf" points="1042.5,-140 1042.5,-159 1101.5,-159 1101.5,-140 1042.5,-140"/>
<text text-anchor="middle" x="1072" y="-147" font-family="Helvetica,sans-Serif" font-size="10.00">functional</text>
</a>
</g>
</g>
<!-- Node30&#45;&gt;Node31 -->
<g id="edge36" class="edge">
<title>Node30&#45;&gt;Node31</title>
<path fill="none" stroke="midnightblue" d="M1289.16,-203.77C1245.4,-196.34 1172.38,-182.66 1111,-165 1108.36,-164.24 1105.64,-163.38 1102.93,-162.48"/>
<polygon fill="midnightblue" stroke="midnightblue" points="1103.86,-159.1 1093.26,-159.07 1101.53,-165.7 1103.86,-159.1"/>
</g>
<!-- Node32 -->
<g id="node32" class="node">
<title>Node32</title>
<g id="a_node32"><a xlink:title=" ">
<polygon fill="none" stroke="#bfbfbf" points="1119.5,-140 1119.5,-159 1154.5,-159 1154.5,-140 1119.5,-140"/>
<text text-anchor="middle" x="1137" y="-147" font-family="Helvetica,sans-Serif" font-size="10.00">map</text>
</a>
</g>
</g>
<!-- Node30&#45;&gt;Node32 -->
<g id="edge37" class="edge">
<title>Node30&#45;&gt;Node32</title>
<path fill="none" stroke="midnightblue" d="M1289.42,-202C1255.67,-194.4 1205.67,-181.66 1164,-165 1162.96,-164.59 1161.91,-164.14 1160.86,-163.67"/>
<polygon fill="midnightblue" stroke="midnightblue" points="1162.08,-160.37 1151.57,-159.09 1158.99,-166.65 1162.08,-160.37"/>
</g>
<!-- Node33 -->
<g id="node33" class="node">
<title>Node33</title>
<g id="a_node33"><a xlink:title=" ">
<polygon fill="none" stroke="#bfbfbf" points="1173,-140 1173,-159 1325,-159 1325,-140 1173,-140"/>
<text text-anchor="middle" x="1249" y="-147" font-family="Helvetica,sans-Serif" font-size="10.00">Builder/GameObjectBuilder.hpp</text>
</a>
</g>
</g>
<!-- Node30&#45;&gt;Node33 -->
<g id="edge39" class="edge">
<title>Node30&#45;&gt;Node33</title>
<path fill="none" stroke="midnightblue" d="M1316.68,-201.48C1304.13,-192.02 1283.65,-176.6 1268.5,-165.19"/>
<polygon fill="midnightblue" stroke="midnightblue" points="1270.39,-162.23 1260.3,-159.01 1266.18,-167.82 1270.39,-162.23"/>
</g>
<!-- Node34 -->
<g id="node34" class="node">
<title>Node34</title>
<g id="a_node34"><a xlink:title=" ">
<polygon fill="none" stroke="#bfbfbf" points="1343.5,-140 1343.5,-159 1468.5,-159 1468.5,-140 1343.5,-140"/>
<text text-anchor="middle" x="1406" y="-147" font-family="Helvetica,sans-Serif" font-size="10.00">Builder/SceneBuilder.hpp</text>
</a>
</g>
</g>
<!-- Node30&#45;&gt;Node34 -->
<g id="edge40" class="edge">
<title>Node30&#45;&gt;Node34</title>
<path fill="none" stroke="midnightblue" d="M1339.18,-201.48C1351.57,-192.02 1371.79,-176.6 1386.75,-165.19"/>
<polygon fill="midnightblue" stroke="midnightblue" points="1389.02,-167.86 1394.85,-159.01 1384.77,-162.29 1389.02,-167.86"/>
</g>
<!-- Node35 -->
<g id="node35" class="node">
<title>Node35</title>
<g id="a_node35"><a xlink:href="CoinBehaviour_8hpp.html" target="_top" xlink:title=" ">
<polygon fill="none" stroke="black" points="1842.5,-140 1842.5,-159 1973.5,-159 1973.5,-140 1842.5,-140"/>
<text text-anchor="middle" x="1908" y="-147" font-family="Helvetica,sans-Serif" font-size="10.00">Scripts/CoinBehaviour.hpp</text>
</a>
</g>
</g>
<!-- Node30&#45;&gt;Node35 -->
<g id="edge42" class="edge">
<title>Node30&#45;&gt;Node35</title>
<path fill="none" stroke="midnightblue" d="M1366.8,-207.9C1451.66,-203 1659.99,-189.37 1833,-165 1841.12,-163.86 1849.7,-162.42 1858.03,-160.9"/>
<polygon fill="midnightblue" stroke="midnightblue" points="1858.86,-164.3 1868.04,-159.01 1857.56,-157.42 1858.86,-164.3"/>
</g>
<!-- Node36 -->
<g id="node36" class="node">
<title>Node36</title>
<g id="a_node36"><a xlink:href="FlagBehaviour_8hpp.html" target="_top" xlink:title=" ">
<polygon fill="none" stroke="black" points="744.5,-140 744.5,-159 875.5,-159 875.5,-140 744.5,-140"/>
<text text-anchor="middle" x="810" y="-147" font-family="Helvetica,sans-Serif" font-size="10.00">Scripts/FlagBehaviour.hpp</text>
</a>
</g>
</g>
<!-- Node30&#45;&gt;Node36 -->
<g id="edge48" class="edge">
<title>Node30&#45;&gt;Node36</title>
<path fill="none" stroke="midnightblue" d="M1289.34,-207.25C1212.19,-201.49 1033.76,-186.89 885,-165 877.16,-163.85 868.89,-162.44 860.82,-160.96"/>
<polygon fill="midnightblue" stroke="midnightblue" points="861.23,-157.48 850.76,-159.07 859.94,-164.36 861.23,-157.48"/>
</g>
<!-- Node37 -->
<g id="node37" class="node">
<title>Node37</title>
<g id="a_node37"><a xlink:href="StarBehaviour_8hpp.html" target="_top" xlink:title=" ">
<polygon fill="none" stroke="black" points="894,-140 894,-159 1024,-159 1024,-140 894,-140"/>
<text text-anchor="middle" x="959" y="-147" font-family="Helvetica,sans-Serif" font-size="10.00">Scripts/StarBehaviour.hpp</text>
</a>
</g>
</g>
<!-- Node30&#45;&gt;Node37 -->
<g id="edge50" class="edge">
<title>Node30&#45;&gt;Node37</title>
<path fill="none" stroke="midnightblue" d="M1289.4,-204.58C1233.13,-196.57 1125.33,-180.81 1034,-165 1026.81,-163.76 1019.25,-162.38 1011.81,-160.98"/>
<polygon fill="midnightblue" stroke="midnightblue" points="1012.26,-157.5 1001.78,-159.07 1010.95,-164.38 1012.26,-157.5"/>
</g>
<!-- Node38 -->
<g id="node38" class="node">
<title>Node38</title>
<g id="a_node38"><a xlink:href="EnemyAttackBehaviour_8hpp.html" target="_top" xlink:title=" ">
<polygon fill="none" stroke="black" points="1654,-140 1654,-159 1824,-159 1824,-140 1654,-140"/>
<text text-anchor="middle" x="1739" y="-147" font-family="Helvetica,sans-Serif" font-size="10.00">Scripts/EnemyAttackBehaviour.hpp</text>
</a>
</g>
</g>
<!-- Node30&#45;&gt;Node38 -->
<g id="edge53" class="edge">
<title>Node30&#45;&gt;Node38</title>
<path fill="none" stroke="midnightblue" d="M1366.57,-204.68C1426.27,-196.4 1544.65,-179.86 1645,-165 1654.46,-163.6 1664.44,-162.09 1674.24,-160.59"/>
<polygon fill="midnightblue" stroke="midnightblue" points="1674.99,-164.02 1684.34,-159.05 1673.93,-157.1 1674.99,-164.02"/>
</g>
<!-- Node39 -->
<g id="node39" class="node">
<title>Node39</title>
<g id="a_node39"><a xlink:href="DynamicAnimationBehaviour_8hpp.html" target="_top" xlink:title=" ">
<polygon fill="none" stroke="black" points="595.5,-134.5 595.5,-164.5 726.5,-164.5 726.5,-134.5 595.5,-134.5"/>
<text text-anchor="start" x="603.5" y="-152.5" font-family="Helvetica,sans-Serif" font-size="10.00">Scripts/DynamicAnimation</text>
<text text-anchor="middle" x="661" y="-141.5" font-family="Helvetica,sans-Serif" font-size="10.00">Behaviour.hpp</text>
</a>
</g>
</g>
<!-- Node30&#45;&gt;Node39 -->
<g id="edge55" class="edge">
<title>Node30&#45;&gt;Node39</title>
<path fill="none" stroke="midnightblue" d="M1289.4,-208.61C1196.21,-204.91 951.45,-193.24 736.97,-165.02"/>
<polygon fill="midnightblue" stroke="midnightblue" points="737.15,-161.51 726.78,-163.66 736.23,-168.45 737.15,-161.51"/>
</g>
<!-- Node40 -->
<g id="node40" class="node">
<title>Node40</title>
<g id="a_node40"><a xlink:title=" ">
<polygon fill="none" stroke="#bfbfbf" points="1486.5,-140 1486.5,-159 1635.5,-159 1635.5,-140 1486.5,-140"/>
<text text-anchor="middle" x="1561" y="-147" font-family="Helvetica,sans-Serif" font-size="10.00">Physics/ForceDrivenEntity.hpp</text>
</a>
</g>
</g>
<!-- Node30&#45;&gt;Node40 -->
<g id="edge58" class="edge">
<title>Node30&#45;&gt;Node40</title>
<path fill="none" stroke="midnightblue" d="M1361.38,-201.48C1402.56,-190.96 1472.65,-173.06 1517.87,-161.51"/>
<polygon fill="midnightblue" stroke="midnightblue" points="1518.86,-164.87 1527.68,-159.01 1517.12,-158.09 1518.86,-164.87"/>
</g>
<!-- Node35&#45;&gt;Node11 -->
<g id="edge43" class="edge">
<title>Node35&#45;&gt;Node11</title>
<path fill="none" stroke="midnightblue" d="M1869.24,-139.95C1857.63,-137.68 1844.85,-135.45 1833,-134 1500.43,-93.2 1098.29,-85.35 946.25,-83.85"/>
<polygon fill="midnightblue" stroke="midnightblue" points="946.2,-80.35 936.17,-83.76 946.14,-87.35 946.2,-80.35"/>
</g>
<!-- Node35&#45;&gt;Node13 -->
<g id="edge45" class="edge">
<title>Node35&#45;&gt;Node13</title>
<path fill="none" stroke="midnightblue" d="M1870.89,-139.96C1831.27,-130.6 1766.79,-114.69 1712,-98 1647.24,-78.28 1573.71,-51.57 1527.35,-34.19"/>
<polygon fill="midnightblue" stroke="midnightblue" points="1528.47,-30.87 1517.88,-30.63 1526.01,-37.43 1528.47,-30.87"/>
</g>
<!-- Node35&#45;&gt;Node14 -->
<g id="edge46" class="edge">
<title>Node35&#45;&gt;Node14</title>
<path fill="none" stroke="midnightblue" d="M1886.63,-139.83C1862.07,-129.84 1820.56,-112.89 1785,-98 1733.65,-76.5 1674.75,-51.29 1636.1,-34.66"/>
<polygon fill="midnightblue" stroke="midnightblue" points="1637.29,-31.36 1626.73,-30.63 1634.53,-37.79 1637.29,-31.36"/>
</g>
<!-- Node35&#45;&gt;Node15 -->
<g id="edge47" class="edge">
<title>Node35&#45;&gt;Node15</title>
<path fill="none" stroke="midnightblue" d="M1894.81,-139.84C1863.03,-118.97 1781.54,-65.45 1737.06,-36.24"/>
<polygon fill="midnightblue" stroke="midnightblue" points="1738.71,-33.14 1728.43,-30.57 1734.86,-38.99 1738.71,-33.14"/>
</g>
<!-- Node35&#45;&gt;Node22 -->
<g id="edge44" class="edge">
<title>Node35&#45;&gt;Node22</title>
<path fill="none" stroke="midnightblue" d="M1911.51,-139.73C1915.4,-129.99 1921.81,-113.98 1926.79,-101.53"/>
<polygon fill="midnightblue" stroke="midnightblue" points="1930.08,-102.71 1930.55,-92.13 1923.59,-100.11 1930.08,-102.71"/>
</g>
<!-- Node36&#45;&gt;Node11 -->
<g id="edge49" class="edge">
<title>Node36&#45;&gt;Node11</title>
<path fill="none" stroke="midnightblue" d="M819.98,-139.73C831.85,-129.31 851.89,-111.71 866.38,-98.97"/>
<polygon fill="midnightblue" stroke="midnightblue" points="868.97,-101.36 874.18,-92.13 864.36,-96.1 868.97,-101.36"/>
</g>
<!-- Node37&#45;&gt;Node11 -->
<g id="edge51" class="edge">
<title>Node37&#45;&gt;Node11</title>
<path fill="none" stroke="midnightblue" d="M948.89,-139.73C936.85,-129.31 916.55,-111.71 901.85,-98.97"/>
<polygon fill="midnightblue" stroke="midnightblue" points="903.8,-96.03 893.95,-92.13 899.22,-101.32 903.8,-96.03"/>
</g>
<!-- Node38&#45;&gt;Node11 -->
<g id="edge54" class="edge">
<title>Node38&#45;&gt;Node11</title>
<path fill="none" stroke="midnightblue" d="M1688.86,-139.94C1674.71,-137.75 1659.28,-135.57 1645,-134 1386.47,-105.54 1076.64,-91.02 946.44,-85.81"/>
<polygon fill="midnightblue" stroke="midnightblue" points="946.4,-82.3 936.27,-85.4 946.12,-89.3 946.4,-82.3"/>
</g>
<!-- Node39&#45;&gt;Node11 -->
<g id="edge56" class="edge">
<title>Node39&#45;&gt;Node11</title>
<path fill="none" stroke="midnightblue" d="M709.11,-134.48C749.78,-122.62 807.29,-105.86 845.1,-94.84"/>
<polygon fill="midnightblue" stroke="midnightblue" points="846.12,-98.19 854.74,-92.03 844.16,-91.47 846.12,-98.19"/>
</g>
<!-- Node39&#45;&gt;Node16 -->
<g id="edge57" class="edge">
<title>Node39&#45;&gt;Node16</title>
<path fill="none" stroke="midnightblue" d="M666.24,-134.37C675.18,-110.29 693.36,-61.31 703.24,-34.7"/>
<polygon fill="midnightblue" stroke="midnightblue" points="706.61,-35.69 706.81,-25.1 700.05,-33.25 706.61,-35.69"/>
</g>
</g>
</svg>
        <g id="navigator" transform="translate(0 0)" fill="#404254">
                <rect fill="#f2f5e9" fill-opacity="0.5" stroke="#606060" stroke-width=".5" x="0" y="0" width="60" height="60"/>
                <use id="zoomplus" xlink:href="#zoomPlus" x="17" y="9" onmousedown="handleZoom(evt,'in')"/>
                <use id="zoomminus" xlink:href="#zoomMin" x="42" y="9" onmousedown="handleZoom(evt,'out')"/>
                <use id="reset" xlink:href="#resetDef" x="30" y="36" onmousedown="handleReset()"/>
                <g id="arrowUp" xlink:href="#dirArrow" transform="translate(30 24)" onmousedown="handlePan(0,-1)">
                  <use xlink:href="#rim" fill="#404040">
                        <set attributeName="fill" to="#808080" begin="arrowUp.mouseover" end="arrowUp.mouseout"/>
                  </use>
                  <path fill="none" stroke="white" stroke-width="1.5" d="M0,-3.0v7 M-2.5,-0.5L0,-3.0L2.5,-0.5"/>
                </g>
                <g id="arrowRight" xlink:href="#dirArrow" transform="rotate(90) translate(36 -43)" onmousedown="handlePan(1,0)">
                  <use xlink:href="#rim" fill="#404040">
                        <set attributeName="fill" to="#808080" begin="arrowRight.mouseover" end="arrowRight.mouseout"/>
                  </use>
                  <path fill="none" stroke="white" stroke-width="1.5" d="M0,-3.0v7 M-2.5,-0.5L0,-3.0L2.5,-0.5"/>
                </g>
                <g id="arrowDown" xlink:href="#dirArrow" transform="rotate(180) translate(-30 -48)" onmousedown="handlePan(0,1)">
                  <use xlink:href="#rim" fill="#404040">
                        <set attributeName="fill" to="#808080" begin="arrowDown.mouseover" end="arrowDown.mouseout"/>
                  </use>
                  <path fill="none" stroke="white" stroke-width="1.5" d="M0,-3.0v7 M-2.5,-0.5L0,-3.0L2.5,-0.5"/>
                </g>
                <g id="arrowLeft" xlink:href="#dirArrow" transform="rotate(270) translate(-36 17)" onmousedown="handlePan(-1,0)">
                  <use xlink:href="#rim" fill="#404040">
                        <set attributeName="fill" to="#808080" begin="arrowLeft.mouseover" end="arrowLeft.mouseout"/>
                  </use>
                  <path fill="none" stroke="white" stroke-width="1.5" d="M0,-3.0v7 M-2.5,-0.5L0,-3.0L2.5,-0.5"/>
                </g>
        </g>
        <svg viewBox="0 0 15 15" width="100%" height="30px" preserveAspectRatio="xMaxYMin meet">
         <g id="arrow_out" transform="scale(0.3 0.3)">
          <a xlink:href="Level2_8cpp__incl_org.svg" target="_base">
           <rect id="button" ry="5" rx="5" y="6" x="6" height="38" width="38"
                fill="#f2f5e9" fill-opacity="0.5" stroke="#606060" stroke-width="1.0"/>
           <path id="arrow"
             d="M 11.500037,31.436501 C 11.940474,20.09759 22.043105,11.32322 32.158766,21.979434 L 37.068811,17.246167 C 37.068811,17.246167 37.088388,32 37.088388,32 L 22.160133,31.978069 C 22.160133,31.978069 26.997745,27.140456 26.997745,27.140456 C 18.528582,18.264221 13.291696,25.230495 11.500037,31.436501 z"
             style="fill:#404040;"/>
          </a>
         </g>
        </svg>
</svg>
