<svg xmlns="http://www.w3.org/2000/svg" xmlns:xlink="http://www.w3.org/1999/xlink" id="main" onload="init(evt)" version="1.1" xml:space="preserve"><style type="text/css">.edge:hover path{stroke:red}.edge:hover polygon{stroke:red;fill:red}</style><script type="text/javascript"><![CDATA[
var edges = document.getElementsByTagName('g');
if (edges && edges.length) {
  for (var i=0;i<edges.length;i++) {
    if (edges[i].id.substr(0,4)=='edge') {
      edges[i].setAttribute('class','edge');
    }
  }
}
]]></script><defs><circle id="rim" cx="0" cy="0" r="7"/><circle id="rim2" cx="0" cy="0" r="3.5"/><g id="zoomPlus"><use fill="#404040" xlink:href="#rim"><set attributeName="fill" begin="zoomplus.mouseover" end="zoomplus.mouseout" to="#808080"/></use><path fill="none" stroke="#fff" stroke-width="1.5" d="M-4,0h8M0,-4v8" pointer-events="none"/></g><g id="zoomMin"><use fill="#404040" xlink:href="#rim"><set attributeName="fill" begin="zoomminus.mouseover" end="zoomminus.mouseout" to="#808080"/></use><path fill="none" stroke="#fff" stroke-width="1.5" d="M-4,0h8" pointer-events="none"/></g><g id="dirArrow"><path fill="none" stroke="#fff" stroke-width="1.5" d="M0,-3.0v7 M-2.5,-0.5L0,-3.0L2.5,-0.5"/></g><g id="resetDef"><use fill="#404040" xlink:href="#rim2"><set attributeName="fill" begin="reset.mouseover" end="reset.mouseout" to="#808080"/></use></g></defs><script type="text/javascript">var viewWidth = 1059; var viewHeight = 285; var sectionId = &apos;dynsection-0&apos;;</script><script xlink:href="svgpan.js"/><svg id="graph" class="graph"><g id="viewport"><title>src/Game/Levels/Level.hpp</title><g id="node1" class="node"><title>Node1</title><g id="a_node1"><a><polygon fill="#bfbfbf" stroke="#000" points="368.5 -257.5 368.5 -276.5 505.5 -276.5 505.5 -257.5 368.5 -257.5"/><text x="437" y="-264.5" font-family="Helvetica,sans-Serif" font-size="10" text-anchor="middle">src/Game/Levels/Level.hpp</text></a></g></g><g id="node2" class="node"><title>Node2</title><g id="a_node2"><a><polygon fill="none" stroke="#bfbfbf" points="0 -201.5 0 -220.5 62 -220.5 62 -201.5 0 -201.5"/><text x="31" y="-208.5" font-family="Helvetica,sans-Serif" font-size="10" text-anchor="middle">Scene.hpp</text></a></g></g><g id="edge1" class="edge"><title>Node1-&gt;Node2</title><path fill="none" stroke="#191970" d="M368.37,-259.75C296.63,-252.74 180.65,-240.01 72.16,-221.24"/><polygon fill="#191970" stroke="#191970" points="72.47 -217.74 62.02 -219.47 71.27 -224.64 72.47 -217.74"/></g><g id="node3" class="node"><title>Node3</title><g id="a_node3"><a target="_top" xlink:href="Sprites_8hpp.html"><polygon fill="none" stroke="#000" points="79.5 -201.5 79.5 -220.5 190.5 -220.5 190.5 -201.5 79.5 -201.5"/><text x="135" y="-208.5" font-family="Helvetica,sans-Serif" font-size="10" text-anchor="middle">constants/Sprites.hpp</text></a></g></g><g id="edge2" class="edge"><title>Node1-&gt;Node3</title><path fill="none" stroke="#191970" d="M389.15,-257.44C335.8,-247.9 249.56,-232.48 192.56,-222.29"/><polygon fill="#191970" stroke="#191970" points="193.09 -218.83 182.63 -220.52 191.86 -225.72 193.09 -218.83"/></g><g id="node5" class="node"><title>Node5</title><g id="a_node5"><a><polygon fill="none" stroke="#bfbfbf" points="209 -201.5 209 -220.5 305 -220.5 305 -201.5 209 -201.5"/><text x="257" y="-208.5" font-family="Helvetica,sans-Serif" font-size="10" text-anchor="middle">Engine/Engine.hpp</text></a></g></g><g id="edge4" class="edge"><title>Node1-&gt;Node5</title><path fill="none" stroke="#191970" d="M408.48,-257.44C377.93,-248.28 329.29,-233.69 295.4,-223.52"/><polygon fill="#191970" stroke="#191970" points="295.97 -220.04 285.39 -220.52 293.96 -226.74 295.97 -220.04"/></g><g id="node6" class="node"><title>Node6</title><g id="a_node6"><a><polygon fill="none" stroke="#bfbfbf" points="323.5 -201.5 323.5 -220.5 432.5 -220.5 432.5 -201.5 323.5 -201.5"/><text x="378" y="-208.5" font-family="Helvetica,sans-Serif" font-size="10" text-anchor="middle">Utility/InputEnum.hpp</text></a></g></g><g id="edge5" class="edge"><title>Node1-&gt;Node6</title><path fill="none" stroke="#191970" d="M427.52,-257.32C418.8,-249.34 405.66,-237.31 395.1,-227.65"/><polygon fill="#191970" stroke="#191970" points="397.39 -225 387.65 -220.83 392.67 -230.17 397.39 -225"/></g><g id="node7" class="node"><title>Node7</title><g id="a_node7"><a><polygon fill="none" stroke="#bfbfbf" points="451 -201.5 451 -220.5 541 -220.5 541 -201.5 451 -201.5"/><text x="496" y="-208.5" font-family="Helvetica,sans-Serif" font-size="10" text-anchor="middle">AudioSource.hpp</text></a></g></g><g id="edge6" class="edge"><title>Node1-&gt;Node7</title><path fill="none" stroke="#191970" d="M446.48,-257.32C455.2,-249.34 468.34,-237.31 478.9,-227.65"/><polygon fill="#191970" stroke="#191970" points="481.33 -230.17 486.35 -220.83 476.61 -225 481.33 -230.17"/></g><g id="node8" class="node"><title>Node8</title><g id="a_node8"><a target="_top" xlink:href="MarioBehaviour_8hpp.html"><polygon fill="none" stroke="#000" points="559 -201.5 559 -220.5 695 -220.5 695 -201.5 559 -201.5"/><text x="627" y="-208.5" font-family="Helvetica,sans-Serif" font-size="10" text-anchor="middle">Scripts/MarioBehaviour.hpp</text></a></g></g><g id="edge7" class="edge"><title>Node1-&gt;Node8</title><path fill="none" stroke="#191970" d="M467.11,-257.44C499.63,-248.2 551.58,-233.44 587.39,-223.26"/><polygon fill="#191970" stroke="#191970" points="588.37 -226.62 597.03 -220.52 586.46 -219.88 588.37 -226.62"/></g><g id="node18" class="node"><title>Node18</title><g id="a_node18"><a><polygon fill="none" stroke="#bfbfbf" points="713 -201.5 713 -220.5 871 -220.5 871 -201.5 713 -201.5"/><text x="792" y="-208.5" font-family="Helvetica,sans-Serif" font-size="10" text-anchor="middle">Director/GameObjectFactory.hpp</text></a></g></g><g id="edge18" class="edge"><title>Node1-&gt;Node18</title><path fill="none" stroke="#191970" d="M493.25,-257.44C556.48,-247.83 659.02,-232.23 725.99,-222.04"/><polygon fill="#191970" stroke="#191970" points="726.65 -225.48 736.01 -220.52 725.6 -218.56 726.65 -225.48"/></g><g id="node19" class="node"><title>Node19</title><g id="a_node19"><a><polygon fill="none" stroke="#bfbfbf" points="889.5 -201.5 889.5 -220.5 1050.5 -220.5 1050.5 -201.5 889.5 -201.5"/><text x="970" y="-208.5" font-family="Helvetica,sans-Serif" font-size="10" text-anchor="middle">Behaviour/CollisionBehaviour.hpp</text></a></g></g><g id="edge19" class="edge"><title>Node1-&gt;Node19</title><path fill="none" stroke="#191970" d="M505.59,-259.05C600.92,-249.39 773.66,-231.89 879.47,-221.17"/><polygon fill="#191970" stroke="#191970" points="879.9 -224.65 889.5 -220.16 879.19 -217.68 879.9 -224.65"/></g><g id="node4" class="node"><title>Node4</title><g id="a_node4"><a><polygon fill="none" stroke="#bfbfbf" points="114.5 -140 114.5 -159 155.5 -159 155.5 -140 114.5 -140"/><text x="135" y="-147" font-family="Helvetica,sans-Serif" font-size="10" text-anchor="middle">string</text></a></g></g><g id="edge3" class="edge"><title>Node3-&gt;Node4</title><path fill="none" stroke="#191970" d="M135,-201.48C135,-193.08 135,-179.98 135,-169.16"/><polygon fill="#191970" stroke="#191970" points="138.5 -169.01 135 -159.01 131.5 -169.01 138.5 -169.01"/></g><g id="node9" class="node"><title>Node9</title><g id="a_node9"><a><polygon fill="none" stroke="#bfbfbf" points="495 -140 495 -159 599 -159 599 -140 495 -140"/><text x="547" y="-147" font-family="Helvetica,sans-Serif" font-size="10" text-anchor="middle">BehaviourScript.hpp</text></a></g></g><g id="edge8" class="edge"><title>Node8-&gt;Node9</title><path fill="none" stroke="#191970" d="M615.54,-201.48C602.83,-192.02 582.09,-176.6 566.75,-165.19"/><polygon fill="#191970" stroke="#191970" points="568.55 -162.17 558.44 -159.01 564.38 -167.79 568.55 -162.17"/></g><g id="node10" class="node"><title>Node10</title><g id="a_node10"><a target="_top" xlink:href="MarioState_8hpp.html"><polygon fill="none" stroke="#000" points="616.5 -67.5 616.5 -97.5 719.5 -97.5 719.5 -67.5 616.5 -67.5"/><text x="624.5" y="-85.5" font-family="Helvetica,sans-Serif" font-size="10" text-anchor="start">Scripts/MarioStates</text><text x="668" y="-74.5" font-family="Helvetica,sans-Serif" font-size="10" text-anchor="middle">/MarioState.hpp</text></a></g></g><g id="edge9" class="edge"><title>Node8-&gt;Node10</title><path fill="none" stroke="#191970" d="M628.66,-201.43C631.51,-187.22 637.85,-157.95 646,-134 649.05,-125.02 653.05,-115.42 656.79,-107.02"/><polygon fill="#191970" stroke="#191970" points="660.01 -108.38 661 -97.83 653.65 -105.47 660.01 -108.38"/></g><g id="node17" class="node"><title>Node17</title><g id="a_node17"><a target="_top" xlink:href="SmallMarioState_8hpp.html"><polygon fill="none" stroke="#000" points="655 -134.5 655 -164.5 765 -164.5 765 -134.5 655 -134.5"/><text x="663" y="-152.5" font-family="Helvetica,sans-Serif" font-size="10" text-anchor="start">Scripts/MarioStates</text><text x="710" y="-141.5" font-family="Helvetica,sans-Serif" font-size="10" text-anchor="middle">/SmallMarioState.hpp</text></a></g></g><g id="edge16" class="edge"><title>Node8-&gt;Node17</title><path fill="none" stroke="#191970" d="M638.89,-201.48C650.13,-193.42 667.42,-181.02 682.14,-170.47"/><polygon fill="#191970" stroke="#191970" points="684.35 -173.19 690.44 -164.52 680.27 -167.5 684.35 -173.19"/></g><g id="node11" class="node"><title>Node11</title><g id="a_node11"><a><polygon fill="none" stroke="#bfbfbf" points="327.5 -.5 327.5 -30.5 422.5 -30.5 422.5 -.5 327.5 -.5"/><text x="335.5" y="-18.5" font-family="Helvetica,sans-Serif" font-size="10" text-anchor="start">boost/serialization</text><text x="375" y="-7.5" font-family="Helvetica,sans-Serif" font-size="10" text-anchor="middle">/access.hpp</text></a></g></g><g id="edge10" class="edge"><title>Node10-&gt;Node11</title><path fill="none" stroke="#191970" d="M616.07,-71.11C570.22,-61.78 501.3,-47.4 432.73,-31.36"/><polygon fill="#191970" stroke="#191970" points="433.16 -27.86 422.62 -28.98 431.56 -34.68 433.16 -27.86"/></g><g id="node12" class="node"><title>Node12</title><g id="a_node12"><a><polygon fill="none" stroke="#bfbfbf" points="440.5 -.5 440.5 -30.5 535.5 -30.5 535.5 -.5 440.5 -.5"/><text x="448.5" y="-18.5" font-family="Helvetica,sans-Serif" font-size="10" text-anchor="start">boost/serialization</text><text x="488" y="-7.5" font-family="Helvetica,sans-Serif" font-size="10" text-anchor="middle">/export.hpp</text></a></g></g><g id="edge11" class="edge"><title>Node10-&gt;Node12</title><path fill="none" stroke="#191970" d="M628.94,-67.4C601.82,-57.6 565.49,-44.48 536.5,-34.02"/><polygon fill="#191970" stroke="#191970" points="537.58 -30.68 526.98 -30.58 535.2 -37.26 537.58 -30.68"/></g><g id="node13" class="node"><title>Node13</title><g id="a_node13"><a><polygon fill="none" stroke="#bfbfbf" points="553.5 -.5 553.5 -30.5 648.5 -30.5 648.5 -.5 553.5 -.5"/><text x="561.5" y="-18.5" font-family="Helvetica,sans-Serif" font-size="10" text-anchor="start">boost/serialization</text><text x="601" y="-7.5" font-family="Helvetica,sans-Serif" font-size="10" text-anchor="middle">/shared_ptr.hpp</text></a></g></g><g id="edge12" class="edge"><title>Node10-&gt;Node13</title><path fill="none" stroke="#191970" d="M653.46,-67.4C644.51,-58.71 632.86,-47.4 622.81,-37.66"/><polygon fill="#191970" stroke="#191970" points="625.12 -35.03 615.51 -30.58 620.25 -40.05 625.12 -35.03"/></g><g id="node14" class="node"><title>Node14</title><g id="a_node14"><a><polygon fill="none" stroke="#bfbfbf" points="666.5 -6 666.5 -25 803.5 -25 803.5 -6 666.5 -6"/><text x="735" y="-13" font-family="Helvetica,sans-Serif" font-size="10" text-anchor="middle">Texture/AnimatedSprite.hpp</text></a></g></g><g id="edge13" class="edge"><title>Node10-&gt;Node14</title><path fill="none" stroke="#191970" d="M682.54,-67.4C693.19,-57.06 707.66,-43.02 718.7,-32.31"/><polygon fill="#191970" stroke="#191970" points="721.3 -34.67 726.04 -25.19 716.42 -29.65 721.3 -34.67"/></g><g id="node15" class="node"><title>Node15</title><g id="a_node15"><a><polygon fill="none" stroke="#bfbfbf" points="821.5 -6 821.5 -25 878.5 -25 878.5 -6 821.5 -6"/><text x="850" y="-13" font-family="Helvetica,sans-Serif" font-size="10" text-anchor="middle">Point.hpp</text></a></g></g><g id="edge14" class="edge"><title>Node10-&gt;Node15</title><path fill="none" stroke="#191970" d="M709.72,-67.45C738.77,-57.54 778.37,-43.81 813,-31 814.89,-30.3 816.84,-29.57 818.79,-28.83"/><polygon fill="#191970" stroke="#191970" points="820.46 -31.94 828.53 -25.07 817.94 -25.4 820.46 -31.94"/></g><g id="node16" class="node"><title>Node16</title><g id="a_node16"><a><polygon fill="none" stroke="#bfbfbf" points="896.5 -6 896.5 -25 1005.5 -25 1005.5 -6 896.5 -6"/><text x="951" y="-13" font-family="Helvetica,sans-Serif" font-size="10" text-anchor="middle">Physics/Collision.hpp</text></a></g></g><g id="edge15" class="edge"><title>Node10-&gt;Node16</title><path fill="none" stroke="#191970" d="M719.57,-69.67C764.15,-59.44 830.33,-44.26 888,-31 893.26,-29.79 898.78,-28.52 904.25,-27.26"/><polygon fill="#191970" stroke="#191970" points="905.06 -30.67 914.02 -25.01 903.49 -23.85 905.06 -30.67"/></g><g id="edge17" class="edge"><title>Node17-&gt;Node10</title><path fill="none" stroke="#191970" d="M700.89,-134.4C695.55,-126.13 688.68,-115.51 682.6,-106.1"/><polygon fill="#191970" stroke="#191970" points="685.46 -104.08 677.1 -97.58 679.58 -107.88 685.46 -104.08"/></g></g></svg><g id="navigator" fill="#404254" transform="translate(0 0)"><rect width="60" height="60" x="0" y="0" fill="#f2f5e9" fill-opacity=".5" stroke="#606060" stroke-width=".5"/><use id="zoomplus" x="17" y="9" onmousedown="handleZoom(evt,'in')" xlink:href="#zoomPlus"/><use id="zoomminus" x="42" y="9" onmousedown="handleZoom(evt,'out')" xlink:href="#zoomMin"/><use id="reset" x="30" y="36" onmousedown="handleReset()" xlink:href="#resetDef"/><g id="arrowUp" onmousedown="handlePan(0,-1)" transform="translate(30 24)" xlink:href="#dirArrow"><use fill="#404040" xlink:href="#rim"><set attributeName="fill" begin="arrowUp.mouseover" end="arrowUp.mouseout" to="#808080"/></use><path fill="none" stroke="#fff" stroke-width="1.5" d="M0,-3.0v7 M-2.5,-0.5L0,-3.0L2.5,-0.5"/></g><g id="arrowRight" onmousedown="handlePan(1,0)" transform="rotate(90) translate(36 -43)" xlink:href="#dirArrow"><use fill="#404040" xlink:href="#rim"><set attributeName="fill" begin="arrowRight.mouseover" end="arrowRight.mouseout" to="#808080"/></use><path fill="none" stroke="#fff" stroke-width="1.5" d="M0,-3.0v7 M-2.5,-0.5L0,-3.0L2.5,-0.5"/></g><g id="arrowDown" onmousedown="handlePan(0,1)" transform="rotate(180) translate(-30 -48)" xlink:href="#dirArrow"><use fill="#404040" xlink:href="#rim"><set attributeName="fill" begin="arrowDown.mouseover" end="arrowDown.mouseout" to="#808080"/></use><path fill="none" stroke="#fff" stroke-width="1.5" d="M0,-3.0v7 M-2.5,-0.5L0,-3.0L2.5,-0.5"/></g><g id="arrowLeft" onmousedown="handlePan(-1,0)" transform="rotate(270) translate(-36 17)" xlink:href="#dirArrow"><use fill="#404040" xlink:href="#rim"><set attributeName="fill" begin="arrowLeft.mouseover" end="arrowLeft.mouseout" to="#808080"/></use><path fill="none" stroke="#fff" stroke-width="1.5" d="M0,-3.0v7 M-2.5,-0.5L0,-3.0L2.5,-0.5"/></g></g><svg width="100%" height="30" preserveAspectRatio="xMaxYMin meet" viewBox="0 0 15 15"><g id="arrow_out" transform="scale(0.3 0.3)"><a target="_base" xlink:href="Level_8hpp__incl_org.svg"><rect id="button" width="38" height="38" x="6" y="6" fill="#f2f5e9" fill-opacity=".5" stroke="#606060" stroke-width="1" rx="5" ry="5"/><path id="arrow" d="M 11.500037,31.436501 C 11.940474,20.09759 22.043105,11.32322 32.158766,21.979434 L 37.068811,17.246167 C 37.068811,17.246167 37.088388,32 37.088388,32 L 22.160133,31.978069 C 22.160133,31.978069 26.997745,27.140456 26.997745,27.140456 C 18.528582,18.264221 13.291696,25.230495 11.500037,31.436501 z" style="fill:#404040"/></a></g></svg></svg>