<svg xmlns="http://www.w3.org/2000/svg" xmlns:xlink="http://www.w3.org/1999/xlink" width="368" height="112" viewBox="0 0 275.5 84"><g id="graph0" class="graph" transform="scale(1 1) rotate(0) translate(4 80)"><title>src/Game/Levels/Level2.hpp</title><g id="node1" class="node"><title>Node1</title><g id="a_node1"><a><polygon fill="#bfbfbf" stroke="#000" points="53.5 -56.5 53.5 -75.5 195.5 -75.5 195.5 -56.5 53.5 -56.5"/><text x="124.5" y="-63.5" font-family="Helvetica,sans-Serif" font-size="10" text-anchor="middle">src/Game/Levels/Level2.hpp</text></a></g></g><g id="node2" class="node"><title>Node2</title><g id="a_node2"><a target="_top" xlink:href="Game_8cpp.html"><polygon fill="none" stroke="#000" points="0 -.5 0 -19.5 107 -19.5 107 -.5 0 -.5"/><text x="53.5" y="-7.5" font-family="Helvetica,sans-Serif" font-size="10" text-anchor="middle">src/Game/Game.cpp</text></a></g></g><g id="edge1" class="edge"><title>Node1-&gt;Node2</title><path fill="none" stroke="#191970" d="M104.91,-50.1C92.13,-40.38 75.89,-28.03 65.11,-19.83"/><polygon fill="#191970" stroke="#191970" points="103.01 -53.06 113.09 -56.32 107.25 -47.48 103.01 -53.06"/></g><g id="node3" class="node"><title>Node3</title><g id="a_node3"><a target="_top" xlink:href="Level2_8cpp.html"><polygon fill="none" stroke="#000" points="125.5 -.5 125.5 -19.5 267.5 -19.5 267.5 -.5 125.5 -.5"/><text x="196.5" y="-7.5" font-family="Helvetica,sans-Serif" font-size="10" text-anchor="middle">src/Game/Levels/Level2.cpp</text></a></g></g><g id="edge2" class="edge"><title>Node1-&gt;Node3</title><path fill="none" stroke="#191970" d="M144.37,-50.1C157.32,-40.38 173.8,-28.03 184.72,-19.83"/><polygon fill="#191970" stroke="#191970" points="141.97 -47.52 136.07 -56.32 146.17 -53.12 141.97 -47.52"/></g></g></svg>