<?xml version="1.0" encoding="UTF-8" standalone="no"?>
<!DOCTYPE svg PUBLIC "-//W3C//DTD SVG 1.1//EN"
 "http://www.w3.org/Graphics/SVG/1.1/DTD/svg11.dtd">
<!-- Generated by graphviz version 2.44.0 ()
 -->
<!-- Title: src/Game/Levels/Level1.cpp Pages: 1 -->
<!--zoomable 408 -->
<svg id="main" version="1.1" xmlns="http://www.w3.org/2000/svg" xmlns:xlink="http://www.w3.org/1999/xlink" xml:space="preserve" onload="init(evt)">
<style type="text/css"><![CDATA[
.edge:hover path { stroke: red; }
.edge:hover polygon { stroke: red; fill: red; }
]]></style>
<script type="text/javascript"><![CDATA[
var edges = document.getElementsByTagName('g');
if (edges && edges.length) {
  for (var i=0;i<edges.length;i++) {
    if (edges[i].id.substr(0,4)=='edge') {
      edges[i].setAttribute('class','edge');
    }
  }
}
]]></script>
        <defs>
                <circle id="rim" cx="0" cy="0" r="7"/>
                <circle id="rim2" cx="0" cy="0" r="3.5"/>
                <g id="zoomPlus">
                        <use xlink:href="#rim" fill="#404040">
                                <set attributeName="fill" to="#808080" begin="zoomplus.mouseover" end="zoomplus.mouseout"/>
                        </use>
                        <path d="M-4,0h8M0,-4v8" fill="none" stroke="white" stroke-width="1.5" pointer-events="none"/>
                </g>
                <g id="zoomMin">
                        <use xlink:href="#rim" fill="#404040">
                                <set attributeName="fill" to="#808080" begin="zoomminus.mouseover" end="zoomminus.mouseout"/>
                        </use>
                        <path d="M-4,0h8" fill="none" stroke="white" stroke-width="1.5" pointer-events="none"/>
                </g>
                <g id="dirArrow">
                        <path fill="none" stroke="white" stroke-width="1.5" d="M0,-3.0v7 M-2.5,-0.5L0,-3.0L2.5,-0.5"/>
                </g>
               <g id="resetDef">
                       <use xlink:href="#rim2" fill="#404040">
                               <set attributeName="fill" to="#808080" begin="reset.mouseover" end="reset.mouseout"/>
                       </use>
               </g>
        </defs>

<script type="text/javascript">
var viewWidth = 2570;
var viewHeight = 408;
var sectionId = 'dynsection-0';
</script>
<script xlink:href="svgpan.js"/>
<svg id="graph" class="graph">
<g id="viewport">
<title>src/Game/Levels/Level1.cpp</title>
<!-- Node1 -->
<g id="node1" class="node">
<title>Node1</title>
<g id="a_node1"><a xlink:title=" ">
<polygon fill="#bfbfbf" stroke="black" points="1228,-380.5 1228,-399.5 1370,-399.5 1370,-380.5 1228,-380.5"/>
<text text-anchor="middle" x="1299" y="-387.5" font-family="Helvetica,sans-Serif" font-size="10.00">src/Game/Levels/Level1.cpp</text>
</a>
</g>
</g>
<!-- Node2 -->
<g id="node2" class="node">
<title>Node2</title>
<g id="a_node2"><a xlink:href="Level1_8hpp.html" target="_top" xlink:title=" ">
<polygon fill="none" stroke="black" points="574,-324.5 574,-343.5 638,-343.5 638,-324.5 574,-324.5"/>
<text text-anchor="middle" x="606" y="-331.5" font-family="Helvetica,sans-Serif" font-size="10.00">Level1.hpp</text>
</a>
</g>
</g>
<!-- Node1&#45;&gt;Node2 -->
<g id="edge1" class="edge">
<title>Node1&#45;&gt;Node2</title>
<path fill="none" stroke="midnightblue" d="M1227.76,-385.43C1111.16,-379.25 872.39,-365.13 671,-344 663.6,-343.22 655.75,-342.26 648.15,-341.25"/>
<polygon fill="midnightblue" stroke="midnightblue" points="648.4,-337.75 638.02,-339.86 647.45,-344.69 648.4,-337.75"/>
</g>
<!-- Node7 -->
<g id="node7" class="node">
<title>Node7</title>
<g id="a_node7"><a xlink:title=" ">
<polygon fill="none" stroke="#bfbfbf" points="599,-207 599,-226 695,-226 695,-207 599,-207"/>
<text text-anchor="middle" x="647" y="-214" font-family="Helvetica,sans-Serif" font-size="10.00">Engine/Engine.hpp</text>
</a>
</g>
</g>
<!-- Node1&#45;&gt;Node7 -->
<g id="edge36" class="edge">
<title>Node1&#45;&gt;Node7</title>
<path fill="none" stroke="midnightblue" d="M1264.51,-380.42C1228.63,-371.47 1170.82,-356.95 1121,-344 960.56,-302.31 770.09,-250.89 688,-228.64"/>
<polygon fill="midnightblue" stroke="midnightblue" points="688.87,-225.25 678.3,-226.01 687.03,-232 688.87,-225.25"/>
</g>
<!-- Node20 -->
<g id="node20" class="node">
<title>Node20</title>
<g id="a_node20"><a xlink:title=" ">
<polygon fill="none" stroke="#bfbfbf" points="931,-207 931,-226 1089,-226 1089,-207 931,-207"/>
<text text-anchor="middle" x="1010" y="-214" font-family="Helvetica,sans-Serif" font-size="10.00">Director/GameObjectFactory.hpp</text>
</a>
</g>
</g>
<!-- Node1&#45;&gt;Node20 -->
<g id="edge35" class="edge">
<title>Node1&#45;&gt;Node20</title>
<path fill="none" stroke="midnightblue" d="M1284.67,-380.5C1238.06,-352.84 1090.5,-265.27 1033.13,-231.22"/>
<polygon fill="midnightblue" stroke="midnightblue" points="1034.8,-228.15 1024.42,-226.06 1031.23,-234.17 1034.8,-228.15"/>
</g>
<!-- Node21 -->
<g id="node21" class="node">
<title>Node21</title>
<g id="a_node21"><a xlink:title=" ">
<polygon fill="none" stroke="#bfbfbf" points="751.5,-207 751.5,-226 912.5,-226 912.5,-207 751.5,-207"/>
<text text-anchor="middle" x="832" y="-214" font-family="Helvetica,sans-Serif" font-size="10.00">Behaviour/CollisionBehaviour.hpp</text>
</a>
</g>
</g>
<!-- Node1&#45;&gt;Node21 -->
<g id="edge34" class="edge">
<title>Node1&#45;&gt;Node21</title>
<path fill="none" stroke="midnightblue" d="M1275.84,-380.5C1199.28,-352.38 954.16,-262.36 864.91,-229.58"/>
<polygon fill="midnightblue" stroke="midnightblue" points="865.89,-226.22 855.3,-226.06 863.48,-232.79 865.89,-226.22"/>
</g>
<!-- Node30 -->
<g id="node30" class="node">
<title>Node30</title>
<g id="a_node30"><a xlink:href="TileConfig_8hpp.html" target="_top" xlink:title=" ">
<polygon fill="none" stroke="black" points="1445.5,-268.5 1445.5,-287.5 1522.5,-287.5 1522.5,-268.5 1445.5,-268.5"/>
<text text-anchor="middle" x="1484" y="-275.5" font-family="Helvetica,sans-Serif" font-size="10.00">TileConfig.hpp</text>
</a>
</g>
</g>
<!-- Node1&#45;&gt;Node30 -->
<g id="edge37" class="edge">
<title>Node1&#45;&gt;Node30</title>
<path fill="none" stroke="midnightblue" d="M1313.52,-380.37C1345.4,-361.41 1421.77,-316 1460.55,-292.94"/>
<polygon fill="midnightblue" stroke="midnightblue" points="1462.74,-295.71 1469.55,-287.59 1459.17,-289.69 1462.74,-295.71"/>
</g>
<!-- Node38 -->
<g id="node38" class="node">
<title>Node38</title>
<g id="a_node38"><a xlink:href="EnemyAttackBehaviour_8hpp.html" target="_top" xlink:title=" ">
<polygon fill="none" stroke="black" points="2075,-207 2075,-226 2245,-226 2245,-207 2075,-207"/>
<text text-anchor="middle" x="2160" y="-214" font-family="Helvetica,sans-Serif" font-size="10.00">Scripts/EnemyAttackBehaviour.hpp</text>
</a>
</g>
</g>
<!-- Node1&#45;&gt;Node38 -->
<g id="edge61" class="edge">
<title>Node1&#45;&gt;Node38</title>
<path fill="none" stroke="midnightblue" d="M1341.7,-380.5C1485.22,-351.91 1950.06,-259.32 2107.39,-227.98"/>
<polygon fill="midnightblue" stroke="midnightblue" points="2108.18,-231.39 2117.3,-226.01 2106.81,-224.53 2108.18,-231.39"/>
</g>
<!-- Node39 -->
<g id="node39" class="node">
<title>Node39</title>
<g id="a_node39"><a xlink:href="DynamicAnimationBehaviour_8hpp.html" target="_top" xlink:title=" ">
<polygon fill="none" stroke="black" points="2263.5,-201.5 2263.5,-231.5 2394.5,-231.5 2394.5,-201.5 2263.5,-201.5"/>
<text text-anchor="start" x="2271.5" y="-219.5" font-family="Helvetica,sans-Serif" font-size="10.00">Scripts/DynamicAnimation</text>
<text text-anchor="middle" x="2329" y="-208.5" font-family="Helvetica,sans-Serif" font-size="10.00">Behaviour.hpp</text>
</a>
</g>
</g>
<!-- Node1&#45;&gt;Node39 -->
<g id="edge62" class="edge">
<title>Node1&#45;&gt;Node39</title>
<path fill="none" stroke="midnightblue" d="M1355.64,-380.48C1414.31,-371.59 1508.62,-357.15 1590,-344 1882.13,-296.78 1957.81,-285.55 2253.02,-232.16"/>
<polygon fill="midnightblue" stroke="midnightblue" points="2253.95,-235.54 2263.17,-230.32 2252.7,-228.66 2253.95,-235.54"/>
</g>
<!-- Node40 -->
<g id="node40" class="node">
<title>Node40</title>
<g id="a_node40"><a xlink:title=" ">
<polygon fill="none" stroke="#bfbfbf" points="2412.5,-207 2412.5,-226 2561.5,-226 2561.5,-207 2412.5,-207"/>
<text text-anchor="middle" x="2487" y="-214" font-family="Helvetica,sans-Serif" font-size="10.00">Physics/ForceDrivenEntity.hpp</text>
</a>
</g>
</g>
<!-- Node1&#45;&gt;Node40 -->
<g id="edge63" class="edge">
<title>Node1&#45;&gt;Node40</title>
<path fill="none" stroke="midnightblue" d="M1370.16,-380.71C1443.21,-372.06 1560.14,-357.87 1661,-344 1991.84,-298.51 2074.38,-285.63 2404,-232 2412.2,-230.67 2420.84,-229.21 2429.33,-227.75"/>
<polygon fill="midnightblue" stroke="midnightblue" points="2429.93,-231.2 2439.19,-226.05 2428.74,-224.3 2429.93,-231.2"/>
</g>
<!-- Node3 -->
<g id="node3" class="node">
<title>Node3</title>
<g id="a_node3"><a xlink:title=" ">
<polygon fill="none" stroke="#bfbfbf" points="0,-207 0,-226 62,-226 62,-207 0,-207"/>
<text text-anchor="middle" x="31" y="-214" font-family="Helvetica,sans-Serif" font-size="10.00">Scene.hpp</text>
</a>
</g>
</g>
<!-- Node2&#45;&gt;Node3 -->
<g id="edge2" class="edge">
<title>Node2&#45;&gt;Node3</title>
<path fill="none" stroke="midnightblue" d="M573.93,-328.79C490.22,-317.4 258.58,-283.34 71,-232 68.19,-231.23 65.31,-230.36 62.43,-229.43"/>
<polygon fill="midnightblue" stroke="midnightblue" points="63.4,-226.06 52.8,-226.12 61.12,-232.68 63.4,-226.06"/>
</g>
<!-- Node4 -->
<g id="node4" class="node">
<title>Node4</title>
<g id="a_node4"><a xlink:href="Level_8hpp.html" target="_top" xlink:title=" ">
<polygon fill="none" stroke="black" points="478.5,-268.5 478.5,-287.5 537.5,-287.5 537.5,-268.5 478.5,-268.5"/>
<text text-anchor="middle" x="508" y="-275.5" font-family="Helvetica,sans-Serif" font-size="10.00">Level.hpp</text>
</a>
</g>
</g>
<!-- Node2&#45;&gt;Node4 -->
<g id="edge3" class="edge">
<title>Node2&#45;&gt;Node4</title>
<path fill="none" stroke="midnightblue" d="M590.25,-324.32C574.68,-315.74 550.62,-302.49 532.54,-292.52"/>
<polygon fill="midnightblue" stroke="midnightblue" points="534.15,-289.42 523.71,-287.65 530.78,-295.55 534.15,-289.42"/>
</g>
<!-- Node22 -->
<g id="node22" class="node">
<title>Node22</title>
<g id="a_node22"><a xlink:href="CoinCounter_8hpp.html" target="_top" xlink:title=" ">
<polygon fill="none" stroke="black" points="1009.5,-140 1009.5,-159 1110.5,-159 1110.5,-140 1009.5,-140"/>
<text text-anchor="middle" x="1060" y="-147" font-family="Helvetica,sans-Serif" font-size="10.00">UI/CoinCounter.hpp</text>
</a>
</g>
</g>
<!-- Node2&#45;&gt;Node22 -->
<g id="edge23" class="edge">
<title>Node2&#45;&gt;Node22</title>
<path fill="none" stroke="midnightblue" d="M618.76,-324.36C631.11,-315.75 650.09,-301.86 665,-288 702.82,-252.84 696.73,-225.84 742,-201 785.15,-177.32 919.4,-162.32 999.01,-155.27"/>
<polygon fill="midnightblue" stroke="midnightblue" points="999.73,-158.72 1009.39,-154.37 999.12,-151.75 999.73,-158.72"/>
</g>
<!-- Node29 -->
<g id="node29" class="node">
<title>Node29</title>
<g id="a_node29"><a xlink:title=" ">
<polygon fill="none" stroke="#bfbfbf" points="555.5,-268.5 555.5,-287.5 656.5,-287.5 656.5,-268.5 555.5,-268.5"/>
<text text-anchor="middle" x="606" y="-275.5" font-family="Helvetica,sans-Serif" font-size="10.00">UI/FPSCounter.hpp</text>
</a>
</g>
</g>
<!-- Node2&#45;&gt;Node29 -->
<g id="edge33" class="edge">
<title>Node2&#45;&gt;Node29</title>
<path fill="none" stroke="midnightblue" d="M606,-324.08C606,-317.01 606,-306.86 606,-297.99"/>
<polygon fill="midnightblue" stroke="midnightblue" points="609.5,-297.75 606,-287.75 602.5,-297.75 609.5,-297.75"/>
</g>
<!-- Node4&#45;&gt;Node3 -->
<g id="edge4" class="edge">
<title>Node4&#45;&gt;Node3</title>
<path fill="none" stroke="midnightblue" d="M478.45,-276.44C407.36,-274.57 221.55,-266.49 71,-232 67.76,-231.26 64.42,-230.33 61.12,-229.3"/>
<polygon fill="midnightblue" stroke="midnightblue" points="62.06,-225.92 51.47,-226.01 59.81,-232.55 62.06,-225.92"/>
</g>
<!-- Node5 -->
<g id="node5" class="node">
<title>Node5</title>
<g id="a_node5"><a xlink:href="Sprites_8hpp.html" target="_top" xlink:title=" ">
<polygon fill="none" stroke="black" points="188.5,-207 188.5,-226 299.5,-226 299.5,-207 188.5,-207"/>
<text text-anchor="middle" x="244" y="-214" font-family="Helvetica,sans-Serif" font-size="10.00">constants/Sprites.hpp</text>
</a>
</g>
</g>
<!-- Node4&#45;&gt;Node5 -->
<g id="edge5" class="edge">
<title>Node4&#45;&gt;Node5</title>
<path fill="none" stroke="midnightblue" d="M478.18,-270.3C439.09,-261.53 368.41,-245.64 308,-232 302.65,-230.79 297.05,-229.53 291.49,-228.27"/>
<polygon fill="midnightblue" stroke="midnightblue" points="292.09,-224.81 281.56,-226.02 290.54,-231.64 292.09,-224.81"/>
</g>
<!-- Node4&#45;&gt;Node7 -->
<g id="edge7" class="edge">
<title>Node4&#45;&gt;Node7</title>
<path fill="none" stroke="midnightblue" d="M527.92,-268.48C551.45,-258.4 590.81,-241.55 617.79,-230"/>
<polygon fill="midnightblue" stroke="midnightblue" points="619.31,-233.16 627.12,-226.01 616.55,-226.73 619.31,-233.16"/>
</g>
<!-- Node8 -->
<g id="node8" class="node">
<title>Node8</title>
<g id="a_node8"><a xlink:title=" ">
<polygon fill="none" stroke="#bfbfbf" points="317.5,-207 317.5,-226 426.5,-226 426.5,-207 317.5,-207"/>
<text text-anchor="middle" x="372" y="-214" font-family="Helvetica,sans-Serif" font-size="10.00">Utility/InputEnum.hpp</text>
</a>
</g>
</g>
<!-- Node4&#45;&gt;Node8 -->
<g id="edge8" class="edge">
<title>Node4&#45;&gt;Node8</title>
<path fill="none" stroke="midnightblue" d="M488.51,-268.48C465.59,-258.45 427.31,-241.7 400.92,-230.15"/>
<polygon fill="midnightblue" stroke="midnightblue" points="402.01,-226.81 391.45,-226.01 399.21,-233.22 402.01,-226.81"/>
</g>
<!-- Node9 -->
<g id="node9" class="node">
<title>Node9</title>
<g id="a_node9"><a xlink:title=" ">
<polygon fill="none" stroke="#bfbfbf" points="80,-207 80,-226 170,-226 170,-207 80,-207"/>
<text text-anchor="middle" x="125" y="-214" font-family="Helvetica,sans-Serif" font-size="10.00">AudioSource.hpp</text>
</a>
</g>
</g>
<!-- Node4&#45;&gt;Node9 -->
<g id="edge9" class="edge">
<title>Node4&#45;&gt;Node9</title>
<path fill="none" stroke="midnightblue" d="M478.3,-274.21C420.36,-268.48 288.35,-254.07 179,-232 174.01,-230.99 168.81,-229.79 163.68,-228.52"/>
<polygon fill="midnightblue" stroke="midnightblue" points="164.54,-225.13 153.99,-226.01 162.79,-231.9 164.54,-225.13"/>
</g>
<!-- Node10 -->
<g id="node10" class="node">
<title>Node10</title>
<g id="a_node10"><a xlink:href="MarioBehaviour_8hpp.html" target="_top" xlink:title=" ">
<polygon fill="none" stroke="black" points="445,-207 445,-226 581,-226 581,-207 445,-207"/>
<text text-anchor="middle" x="513" y="-214" font-family="Helvetica,sans-Serif" font-size="10.00">Scripts/MarioBehaviour.hpp</text>
</a>
</g>
</g>
<!-- Node4&#45;&gt;Node10 -->
<g id="edge10" class="edge">
<title>Node4&#45;&gt;Node10</title>
<path fill="none" stroke="midnightblue" d="M508.72,-268.48C509.42,-260.08 510.52,-246.98 511.43,-236.16"/>
<polygon fill="midnightblue" stroke="midnightblue" points="514.94,-236.27 512.28,-226.01 507.96,-235.68 514.94,-236.27"/>
</g>
<!-- Node4&#45;&gt;Node20 -->
<g id="edge21" class="edge">
<title>Node4&#45;&gt;Node20</title>
<path fill="none" stroke="midnightblue" d="M537.79,-269.54C540.56,-268.97 543.32,-268.44 546,-268 711.18,-240.64 754.95,-253.47 921,-232 930.78,-230.74 941.14,-229.21 951.2,-227.64"/>
<polygon fill="midnightblue" stroke="midnightblue" points="951.8,-231.09 961.12,-226.06 950.69,-224.18 951.8,-231.09"/>
</g>
<!-- Node4&#45;&gt;Node21 -->
<g id="edge22" class="edge">
<title>Node4&#45;&gt;Node21</title>
<path fill="none" stroke="midnightblue" d="M537.83,-269.76C540.59,-269.15 543.34,-268.55 546,-268 622.05,-252.29 710.1,-237.21 768.19,-227.68"/>
<polygon fill="midnightblue" stroke="midnightblue" points="769.02,-231.09 778.32,-226.03 767.89,-224.19 769.02,-231.09"/>
</g>
<!-- Node6 -->
<g id="node6" class="node">
<title>Node6</title>
<g id="a_node6"><a xlink:title=" ">
<polygon fill="none" stroke="#bfbfbf" points="223.5,-140 223.5,-159 264.5,-159 264.5,-140 223.5,-140"/>
<text text-anchor="middle" x="244" y="-147" font-family="Helvetica,sans-Serif" font-size="10.00">string</text>
</a>
</g>
</g>
<!-- Node5&#45;&gt;Node6 -->
<g id="edge6" class="edge">
<title>Node5&#45;&gt;Node6</title>
<path fill="none" stroke="midnightblue" d="M244,-206.73C244,-197.18 244,-181.62 244,-169.28"/>
<polygon fill="midnightblue" stroke="midnightblue" points="247.5,-169.13 244,-159.13 240.5,-169.13 247.5,-169.13"/>
</g>
<!-- Node11 -->
<g id="node11" class="node">
<title>Node11</title>
<g id="a_node11"><a xlink:title=" ">
<polygon fill="none" stroke="#bfbfbf" points="1784,-140 1784,-159 1888,-159 1888,-140 1784,-140"/>
<text text-anchor="middle" x="1836" y="-147" font-family="Helvetica,sans-Serif" font-size="10.00">BehaviourScript.hpp</text>
</a>
</g>
</g>
<!-- Node10&#45;&gt;Node11 -->
<g id="edge11" class="edge">
<title>Node10&#45;&gt;Node11</title>
<path fill="none" stroke="midnightblue" d="M552.4,-206.94C564.42,-204.64 577.7,-202.4 590,-201 823.19,-174.46 1555.1,-156.65 1773.73,-151.82"/>
<polygon fill="midnightblue" stroke="midnightblue" points="1773.83,-155.32 1783.75,-151.6 1773.67,-148.32 1773.83,-155.32"/>
</g>
<!-- Node12 -->
<g id="node12" class="node">
<title>Node12</title>
<g id="a_node12"><a xlink:href="MarioState_8hpp.html" target="_top" xlink:title=" ">
<polygon fill="none" stroke="black" points="532.5,-67.5 532.5,-97.5 635.5,-97.5 635.5,-67.5 532.5,-67.5"/>
<text text-anchor="start" x="540.5" y="-85.5" font-family="Helvetica,sans-Serif" font-size="10.00">Scripts/MarioStates</text>
<text text-anchor="middle" x="584" y="-74.5" font-family="Helvetica,sans-Serif" font-size="10.00">/MarioState.hpp</text>
</a>
</g>
</g>
<!-- Node10&#45;&gt;Node12 -->
<g id="edge12" class="edge">
<title>Node10&#45;&gt;Node12</title>
<path fill="none" stroke="midnightblue" d="M508.73,-206.76C501.73,-191.11 489.86,-157.68 503,-134 510.45,-120.58 523.11,-110.26 536.24,-102.55"/>
<polygon fill="midnightblue" stroke="midnightblue" points="538.21,-105.46 545.34,-97.63 534.88,-99.31 538.21,-105.46"/>
</g>
<!-- Node19 -->
<g id="node19" class="node">
<title>Node19</title>
<g id="a_node19"><a xlink:href="SmallMarioState_8hpp.html" target="_top" xlink:title=" ">
<polygon fill="none" stroke="black" points="512,-134.5 512,-164.5 622,-164.5 622,-134.5 512,-134.5"/>
<text text-anchor="start" x="520" y="-152.5" font-family="Helvetica,sans-Serif" font-size="10.00">Scripts/MarioStates</text>
<text text-anchor="middle" x="567" y="-141.5" font-family="Helvetica,sans-Serif" font-size="10.00">/SmallMarioState.hpp</text>
</a>
</g>
</g>
<!-- Node10&#45;&gt;Node19 -->
<g id="edge19" class="edge">
<title>Node10&#45;&gt;Node19</title>
<path fill="none" stroke="midnightblue" d="M520.28,-206.73C527.58,-197.95 539.1,-184.08 548.88,-172.31"/>
<polygon fill="midnightblue" stroke="midnightblue" points="551.6,-174.52 555.3,-164.59 546.21,-170.04 551.6,-174.52"/>
</g>
<!-- Node13 -->
<g id="node13" class="node">
<title>Node13</title>
<g id="a_node13"><a xlink:title=" ">
<polygon fill="none" stroke="#bfbfbf" points="1106.5,-0.5 1106.5,-30.5 1201.5,-30.5 1201.5,-0.5 1106.5,-0.5"/>
<text text-anchor="start" x="1114.5" y="-18.5" font-family="Helvetica,sans-Serif" font-size="10.00">boost/serialization</text>
<text text-anchor="middle" x="1154" y="-7.5" font-family="Helvetica,sans-Serif" font-size="10.00">/access.hpp</text>
</a>
</g>
</g>
<!-- Node12&#45;&gt;Node13 -->
<g id="edge13" class="edge">
<title>Node12&#45;&gt;Node13</title>
<path fill="none" stroke="midnightblue" d="M635.82,-68.68C638.92,-68.07 641.99,-67.5 645,-67 807.29,-39.79 1001.32,-25.51 1096.12,-19.7"/>
<polygon fill="midnightblue" stroke="midnightblue" points="1096.58,-23.18 1106.35,-19.08 1096.16,-16.19 1096.58,-23.18"/>
</g>
<!-- Node14 -->
<g id="node14" class="node">
<title>Node14</title>
<g id="a_node14"><a xlink:title=" ">
<polygon fill="none" stroke="#bfbfbf" points="1219.5,-0.5 1219.5,-30.5 1314.5,-30.5 1314.5,-0.5 1219.5,-0.5"/>
<text text-anchor="start" x="1227.5" y="-18.5" font-family="Helvetica,sans-Serif" font-size="10.00">boost/serialization</text>
<text text-anchor="middle" x="1267" y="-7.5" font-family="Helvetica,sans-Serif" font-size="10.00">/export.hpp</text>
</a>
</g>
</g>
<!-- Node12&#45;&gt;Node14 -->
<g id="edge14" class="edge">
<title>Node12&#45;&gt;Node14</title>
<path fill="none" stroke="midnightblue" d="M635.8,-68.56C638.9,-67.98 641.99,-67.45 645,-67 891.01,-30.21 960.27,-69.7 1209.39,-31.05"/>
<polygon fill="midnightblue" stroke="midnightblue" points="1210.14,-34.48 1219.47,-29.46 1209.05,-27.56 1210.14,-34.48"/>
</g>
<!-- Node15 -->
<g id="node15" class="node">
<title>Node15</title>
<g id="a_node15"><a xlink:title=" ">
<polygon fill="none" stroke="#bfbfbf" points="442.5,-0.5 442.5,-30.5 537.5,-30.5 537.5,-0.5 442.5,-0.5"/>
<text text-anchor="start" x="450.5" y="-18.5" font-family="Helvetica,sans-Serif" font-size="10.00">boost/serialization</text>
<text text-anchor="middle" x="490" y="-7.5" font-family="Helvetica,sans-Serif" font-size="10.00">/shared_ptr.hpp</text>
</a>
</g>
</g>
<!-- Node12&#45;&gt;Node15 -->
<g id="edge15" class="edge">
<title>Node12&#45;&gt;Node15</title>
<path fill="none" stroke="midnightblue" d="M563.6,-67.4C550.55,-58.37 533.4,-46.51 518.95,-36.52"/>
<polygon fill="midnightblue" stroke="midnightblue" points="520.57,-33.39 510.36,-30.58 516.59,-39.14 520.57,-33.39"/>
</g>
<!-- Node16 -->
<g id="node16" class="node">
<title>Node16</title>
<g id="a_node16"><a xlink:title=" ">
<polygon fill="none" stroke="#bfbfbf" points="1530.5,-6 1530.5,-25 1667.5,-25 1667.5,-6 1530.5,-6"/>
<text text-anchor="middle" x="1599" y="-13" font-family="Helvetica,sans-Serif" font-size="10.00">Texture/AnimatedSprite.hpp</text>
</a>
</g>
</g>
<!-- Node12&#45;&gt;Node16 -->
<g id="edge16" class="edge">
<title>Node12&#45;&gt;Node16</title>
<path fill="none" stroke="midnightblue" d="M635.79,-68.52C638.9,-67.95 641.98,-67.43 645,-67 646.35,-66.81 1291.34,-32.74 1519.88,-20.68"/>
<polygon fill="midnightblue" stroke="midnightblue" points="1520.32,-24.16 1530.12,-20.14 1519.95,-17.17 1520.32,-24.16"/>
</g>
<!-- Node17 -->
<g id="node17" class="node">
<title>Node17</title>
<g id="a_node17"><a xlink:title=" ">
<polygon fill="none" stroke="#bfbfbf" points="555.5,-6 555.5,-25 612.5,-25 612.5,-6 555.5,-6"/>
<text text-anchor="middle" x="584" y="-13" font-family="Helvetica,sans-Serif" font-size="10.00">Point.hpp</text>
</a>
</g>
</g>
<!-- Node12&#45;&gt;Node17 -->
<g id="edge17" class="edge">
<title>Node12&#45;&gt;Node17</title>
<path fill="none" stroke="midnightblue" d="M584,-67.4C584,-58.06 584,-45.71 584,-35.52"/>
<polygon fill="midnightblue" stroke="midnightblue" points="587.5,-35.19 584,-25.19 580.5,-35.19 587.5,-35.19"/>
</g>
<!-- Node18 -->
<g id="node18" class="node">
<title>Node18</title>
<g id="a_node18"><a xlink:title=" ">
<polygon fill="none" stroke="#bfbfbf" points="630.5,-6 630.5,-25 739.5,-25 739.5,-6 630.5,-6"/>
<text text-anchor="middle" x="685" y="-13" font-family="Helvetica,sans-Serif" font-size="10.00">Physics/Collision.hpp</text>
</a>
</g>
</g>
<!-- Node12&#45;&gt;Node18 -->
<g id="edge18" class="edge">
<title>Node12&#45;&gt;Node18</title>
<path fill="none" stroke="midnightblue" d="M605.92,-67.4C622.85,-56.5 646.19,-41.48 663.12,-30.58"/>
<polygon fill="midnightblue" stroke="midnightblue" points="665.27,-33.36 671.78,-25.01 661.48,-27.48 665.27,-33.36"/>
</g>
<!-- Node19&#45;&gt;Node12 -->
<g id="edge20" class="edge">
<title>Node19&#45;&gt;Node12</title>
<path fill="none" stroke="midnightblue" d="M570.69,-134.4C572.76,-126.47 575.4,-116.38 577.78,-107.27"/>
<polygon fill="midnightblue" stroke="midnightblue" points="581.17,-108.14 580.32,-97.58 574.4,-106.37 581.17,-108.14"/>
</g>
<!-- Node22&#45;&gt;Node13 -->
<g id="edge25" class="edge">
<title>Node22&#45;&gt;Node13</title>
<path fill="none" stroke="midnightblue" d="M1094.08,-139.87C1115.35,-132.52 1141.07,-119.62 1154,-98 1164.28,-80.8 1163.19,-57.69 1160.16,-40.47"/>
<polygon fill="midnightblue" stroke="midnightblue" points="1163.57,-39.7 1158.11,-30.62 1156.72,-41.12 1163.57,-39.7"/>
</g>
<!-- Node22&#45;&gt;Node14 -->
<g id="edge26" class="edge">
<title>Node22&#45;&gt;Node14</title>
<path fill="none" stroke="midnightblue" d="M1084.17,-139.91C1107.56,-131.08 1143.56,-116.08 1172,-98 1199.6,-80.45 1227.58,-55.37 1245.96,-37.68"/>
<polygon fill="midnightblue" stroke="midnightblue" points="1248.51,-40.08 1253.22,-30.59 1243.62,-35.07 1248.51,-40.08"/>
</g>
<!-- Node22&#45;&gt;Node15 -->
<g id="edge27" class="edge">
<title>Node22&#45;&gt;Node15</title>
<path fill="none" stroke="midnightblue" d="M1009.14,-146.7C882.69,-141.8 561.5,-126.66 523,-98 504.9,-84.53 496.7,-59.44 493,-40.65"/>
<polygon fill="midnightblue" stroke="midnightblue" points="496.44,-39.99 491.34,-30.7 489.54,-41.14 496.44,-39.99"/>
</g>
<!-- Node23 -->
<g id="node23" class="node">
<title>Node23</title>
<g id="a_node23"><a xlink:title=" ">
<polygon fill="none" stroke="#bfbfbf" points="1277.5,-73 1277.5,-92 1328.5,-92 1328.5,-73 1277.5,-73"/>
<text text-anchor="middle" x="1303" y="-80" font-family="Helvetica,sans-Serif" font-size="10.00">memory</text>
</a>
</g>
</g>
<!-- Node22&#45;&gt;Node23 -->
<g id="edge24" class="edge">
<title>Node22&#45;&gt;Node23</title>
<path fill="none" stroke="midnightblue" d="M1099.63,-139.93C1140.79,-130.72 1206.89,-115.1 1263,-98 1265.63,-97.2 1268.33,-96.33 1271.04,-95.42"/>
<polygon fill="midnightblue" stroke="midnightblue" points="1272.42,-98.64 1280.71,-92.04 1270.12,-92.03 1272.42,-98.64"/>
</g>
<!-- Node24 -->
<g id="node24" class="node">
<title>Node24</title>
<g id="a_node24"><a xlink:title=" ">
<polygon fill="none" stroke="#bfbfbf" points="654,-67.5 654,-97.5 758,-97.5 758,-67.5 654,-67.5"/>
<text text-anchor="start" x="662" y="-85.5" font-family="Helvetica,sans-Serif" font-size="10.00">boost/archive/binary</text>
<text text-anchor="middle" x="706" y="-74.5" font-family="Helvetica,sans-Serif" font-size="10.00">_iarchive.hpp</text>
</a>
</g>
</g>
<!-- Node22&#45;&gt;Node24 -->
<g id="edge28" class="edge">
<title>Node22&#45;&gt;Node24</title>
<path fill="none" stroke="midnightblue" d="M1009.27,-140.75C952.76,-131.89 858.5,-116.46 768.06,-98.15"/>
<polygon fill="midnightblue" stroke="midnightblue" points="768.69,-94.7 758.2,-96.13 767.29,-101.56 768.69,-94.7"/>
</g>
<!-- Node25 -->
<g id="node25" class="node">
<title>Node25</title>
<g id="a_node25"><a xlink:title=" ">
<polygon fill="none" stroke="#bfbfbf" points="776,-67.5 776,-97.5 880,-97.5 880,-67.5 776,-67.5"/>
<text text-anchor="start" x="784" y="-85.5" font-family="Helvetica,sans-Serif" font-size="10.00">boost/archive/binary</text>
<text text-anchor="middle" x="828" y="-74.5" font-family="Helvetica,sans-Serif" font-size="10.00">_oarchive.hpp</text>
</a>
</g>
</g>
<!-- Node22&#45;&gt;Node25 -->
<g id="edge29" class="edge">
<title>Node22&#45;&gt;Node25</title>
<path fill="none" stroke="midnightblue" d="M1029.19,-139.87C993.25,-129.8 932.99,-112.91 887.77,-100.24"/>
<polygon fill="midnightblue" stroke="midnightblue" points="888.64,-96.86 878.07,-97.53 886.75,-103.6 888.64,-96.86"/>
</g>
<!-- Node26 -->
<g id="node26" class="node">
<title>Node26</title>
<g id="a_node26"><a xlink:title=" ">
<polygon fill="none" stroke="#bfbfbf" points="898.5,-73 898.5,-92 955.5,-92 955.5,-73 898.5,-73"/>
<text text-anchor="middle" x="927" y="-80" font-family="Helvetica,sans-Serif" font-size="10.00">Color.hpp</text>
</a>
</g>
</g>
<!-- Node22&#45;&gt;Node26 -->
<g id="edge30" class="edge">
<title>Node22&#45;&gt;Node26</title>
<path fill="none" stroke="midnightblue" d="M1042.34,-139.87C1019.68,-128.8 980.17,-109.49 953.8,-96.6"/>
<polygon fill="midnightblue" stroke="midnightblue" points="955.26,-93.41 944.73,-92.17 952.18,-99.7 955.26,-93.41"/>
</g>
<!-- Node27 -->
<g id="node27" class="node">
<title>Node27</title>
<g id="a_node27"><a xlink:title=" ">
<polygon fill="none" stroke="#bfbfbf" points="973.5,-73 973.5,-92 1052.5,-92 1052.5,-73 973.5,-73"/>
<text text-anchor="middle" x="1013" y="-80" font-family="Helvetica,sans-Serif" font-size="10.00">Transform.hpp</text>
</a>
</g>
</g>
<!-- Node22&#45;&gt;Node27 -->
<g id="edge31" class="edge">
<title>Node22&#45;&gt;Node27</title>
<path fill="none" stroke="midnightblue" d="M1053.66,-139.73C1046.4,-129.7 1034.34,-113.01 1025.24,-100.42"/>
<polygon fill="midnightblue" stroke="midnightblue" points="1027.93,-98.18 1019.24,-92.13 1022.26,-102.28 1027.93,-98.18"/>
</g>
<!-- Node28 -->
<g id="node28" class="node">
<title>Node28</title>
<g id="a_node28"><a xlink:title=" ">
<polygon fill="none" stroke="#bfbfbf" points="1071,-73 1071,-92 1145,-92 1145,-73 1071,-73"/>
<text text-anchor="middle" x="1108" y="-80" font-family="Helvetica,sans-Serif" font-size="10.00">UIObject.hpp</text>
</a>
</g>
</g>
<!-- Node22&#45;&gt;Node28 -->
<g id="edge32" class="edge">
<title>Node22&#45;&gt;Node28</title>
<path fill="none" stroke="midnightblue" d="M1066.47,-139.73C1073.89,-129.7 1086.2,-113.01 1095.5,-100.42"/>
<polygon fill="midnightblue" stroke="midnightblue" points="1098.5,-102.25 1101.63,-92.13 1092.87,-98.09 1098.5,-102.25"/>
</g>
<!-- Node30&#45;&gt;Node20 -->
<g id="edge43" class="edge">
<title>Node30&#45;&gt;Node20</title>
<path fill="none" stroke="midnightblue" d="M1445.27,-272.91C1376.34,-265.51 1227.89,-249.1 1103,-232 1093.16,-230.65 1082.76,-229.13 1072.61,-227.59"/>
<polygon fill="midnightblue" stroke="midnightblue" points="1072.99,-224.1 1062.58,-226.05 1071.93,-231.02 1072.99,-224.1"/>
</g>
<!-- Node30&#45;&gt;Node22 -->
<g id="edge54" class="edge">
<title>Node30&#45;&gt;Node22</title>
<path fill="none" stroke="midnightblue" d="M1445.27,-275.28C1366.23,-271.25 1189.31,-259.38 1136,-232 1120.87,-224.23 1090.69,-188.71 1073.26,-167.2"/>
<polygon fill="midnightblue" stroke="midnightblue" points="1075.84,-164.83 1066.85,-159.22 1070.38,-169.21 1075.84,-164.83"/>
</g>
<!-- Node30&#45;&gt;Node23 -->
<g id="edge40" class="edge">
<title>Node30&#45;&gt;Node23</title>
<path fill="none" stroke="midnightblue" d="M1461.99,-268.41C1444.35,-260.75 1419.71,-248.25 1402,-232 1359.31,-192.84 1326.17,-131.68 1311.4,-101.53"/>
<polygon fill="midnightblue" stroke="midnightblue" points="1314.44,-99.76 1306.96,-92.25 1308.12,-102.78 1314.44,-99.76"/>
</g>
<!-- Node31 -->
<g id="node31" class="node">
<title>Node31</title>
<g id="a_node31"><a xlink:title=" ">
<polygon fill="none" stroke="#bfbfbf" points="1294.5,-207 1294.5,-226 1353.5,-226 1353.5,-207 1294.5,-207"/>
<text text-anchor="middle" x="1324" y="-214" font-family="Helvetica,sans-Serif" font-size="10.00">functional</text>
</a>
</g>
</g>
<!-- Node30&#45;&gt;Node31 -->
<g id="edge38" class="edge">
<title>Node30&#45;&gt;Node31</title>
<path fill="none" stroke="midnightblue" d="M1461.08,-268.48C1433.63,-258.27 1387.48,-241.11 1356.4,-229.55"/>
<polygon fill="midnightblue" stroke="midnightblue" points="1357.47,-226.21 1346.88,-226.01 1355.03,-232.78 1357.47,-226.21"/>
</g>
<!-- Node32 -->
<g id="node32" class="node">
<title>Node32</title>
<g id="a_node32"><a xlink:title=" ">
<polygon fill="none" stroke="#bfbfbf" points="1410.5,-207 1410.5,-226 1445.5,-226 1445.5,-207 1410.5,-207"/>
<text text-anchor="middle" x="1428" y="-214" font-family="Helvetica,sans-Serif" font-size="10.00">map</text>
</a>
</g>
</g>
<!-- Node30&#45;&gt;Node32 -->
<g id="edge39" class="edge">
<title>Node30&#45;&gt;Node32</title>
<path fill="none" stroke="midnightblue" d="M1475.98,-268.48C1467.41,-259.37 1453.64,-244.74 1443.04,-233.48"/>
<polygon fill="midnightblue" stroke="midnightblue" points="1445.41,-230.89 1436.01,-226.01 1440.31,-235.69 1445.41,-230.89"/>
</g>
<!-- Node33 -->
<g id="node33" class="node">
<title>Node33</title>
<g id="a_node33"><a xlink:title=" ">
<polygon fill="none" stroke="#bfbfbf" points="1464,-207 1464,-226 1616,-226 1616,-207 1464,-207"/>
<text text-anchor="middle" x="1540" y="-214" font-family="Helvetica,sans-Serif" font-size="10.00">Builder/GameObjectBuilder.hpp</text>
</a>
</g>
</g>
<!-- Node30&#45;&gt;Node33 -->
<g id="edge41" class="edge">
<title>Node30&#45;&gt;Node33</title>
<path fill="none" stroke="midnightblue" d="M1492.02,-268.48C1500.59,-259.37 1514.36,-244.74 1524.96,-233.48"/>
<polygon fill="midnightblue" stroke="midnightblue" points="1527.69,-235.69 1531.99,-226.01 1522.59,-230.89 1527.69,-235.69"/>
</g>
<!-- Node34 -->
<g id="node34" class="node">
<title>Node34</title>
<g id="a_node34"><a xlink:title=" ">
<polygon fill="none" stroke="#bfbfbf" points="1782.5,-207 1782.5,-226 1907.5,-226 1907.5,-207 1782.5,-207"/>
<text text-anchor="middle" x="1845" y="-214" font-family="Helvetica,sans-Serif" font-size="10.00">Builder/SceneBuilder.hpp</text>
</a>
</g>
</g>
<!-- Node30&#45;&gt;Node34 -->
<g id="edge42" class="edge">
<title>Node30&#45;&gt;Node34</title>
<path fill="none" stroke="midnightblue" d="M1522.89,-271.5C1578.47,-263.52 1683.77,-247.92 1773,-232 1779.83,-230.78 1787.01,-229.42 1794.08,-228.05"/>
<polygon fill="midnightblue" stroke="midnightblue" points="1795.19,-231.39 1804.32,-226.02 1793.83,-224.53 1795.19,-231.39"/>
</g>
<!-- Node35 -->
<g id="node35" class="node">
<title>Node35</title>
<g id="a_node35"><a xlink:href="CoinBehaviour_8hpp.html" target="_top" xlink:title=" ">
<polygon fill="none" stroke="black" points="1145.5,-207 1145.5,-226 1276.5,-226 1276.5,-207 1145.5,-207"/>
<text text-anchor="middle" x="1211" y="-214" font-family="Helvetica,sans-Serif" font-size="10.00">Scripts/CoinBehaviour.hpp</text>
</a>
</g>
</g>
<!-- Node30&#45;&gt;Node35 -->
<g id="edge44" class="edge">
<title>Node30&#45;&gt;Node35</title>
<path fill="none" stroke="midnightblue" d="M1445.46,-268.6C1396.86,-258.01 1313.23,-239.78 1260.1,-228.2"/>
<polygon fill="midnightblue" stroke="midnightblue" points="1260.74,-224.76 1250.22,-226.05 1259.25,-231.6 1260.74,-224.76"/>
</g>
<!-- Node36 -->
<g id="node36" class="node">
<title>Node36</title>
<g id="a_node36"><a xlink:href="FlagBehaviour_8hpp.html" target="_top" xlink:title=" ">
<polygon fill="none" stroke="black" points="1925.5,-207 1925.5,-226 2056.5,-226 2056.5,-207 1925.5,-207"/>
<text text-anchor="middle" x="1991" y="-214" font-family="Helvetica,sans-Serif" font-size="10.00">Scripts/FlagBehaviour.hpp</text>
</a>
</g>
</g>
<!-- Node30&#45;&gt;Node36 -->
<g id="edge50" class="edge">
<title>Node30&#45;&gt;Node36</title>
<path fill="none" stroke="midnightblue" d="M1522.67,-274.16C1598.55,-268.31 1772.18,-253.67 1917,-232 1924.74,-230.84 1932.9,-229.43 1940.86,-227.96"/>
<polygon fill="midnightblue" stroke="midnightblue" points="1941.62,-231.37 1950.79,-226.06 1940.31,-224.5 1941.62,-231.37"/>
</g>
<!-- Node37 -->
<g id="node37" class="node">
<title>Node37</title>
<g id="a_node37"><a xlink:href="StarBehaviour_8hpp.html" target="_top" xlink:title=" ">
<polygon fill="none" stroke="black" points="1634,-207 1634,-226 1764,-226 1764,-207 1634,-207"/>
<text text-anchor="middle" x="1699" y="-214" font-family="Helvetica,sans-Serif" font-size="10.00">Scripts/StarBehaviour.hpp</text>
</a>
</g>
</g>
<!-- Node30&#45;&gt;Node37 -->
<g id="edge52" class="edge">
<title>Node30&#45;&gt;Node37</title>
<path fill="none" stroke="midnightblue" d="M1514.8,-268.48C1552.56,-258.03 1616.66,-240.29 1658.41,-228.73"/>
<polygon fill="midnightblue" stroke="midnightblue" points="1659.55,-232.05 1668.25,-226.01 1657.68,-225.3 1659.55,-232.05"/>
</g>
<!-- Node30&#45;&gt;Node38 -->
<g id="edge55" class="edge">
<title>Node30&#45;&gt;Node38</title>
<path fill="none" stroke="midnightblue" d="M1522.57,-275.03C1616.03,-270.04 1861.89,-255.6 2066,-232 2076.8,-230.75 2088.26,-229.19 2099.33,-227.55"/>
<polygon fill="midnightblue" stroke="midnightblue" points="2100,-230.99 2109.36,-226.03 2098.95,-224.07 2100,-230.99"/>
</g>
<!-- Node30&#45;&gt;Node39 -->
<g id="edge57" class="edge">
<title>Node30&#45;&gt;Node39</title>
<path fill="none" stroke="midnightblue" d="M1522.62,-276.55C1634.26,-274.87 1967.05,-267.15 2253.07,-231.99"/>
<polygon fill="midnightblue" stroke="midnightblue" points="2253.74,-235.43 2263.23,-230.73 2252.87,-228.49 2253.74,-235.43"/>
</g>
<!-- Node30&#45;&gt;Node40 -->
<g id="edge60" class="edge">
<title>Node30&#45;&gt;Node40</title>
<path fill="none" stroke="midnightblue" d="M1522.7,-276.82C1649.51,-275.87 2063.89,-269.88 2404,-232 2413.71,-230.92 2424.01,-229.41 2433.92,-227.78"/>
<polygon fill="midnightblue" stroke="midnightblue" points="2434.8,-231.18 2444.07,-226.05 2433.62,-224.28 2434.8,-231.18"/>
</g>
<!-- Node35&#45;&gt;Node11 -->
<g id="edge45" class="edge">
<title>Node35&#45;&gt;Node11</title>
<path fill="none" stroke="midnightblue" d="M1251.36,-206.93C1262.54,-204.77 1274.71,-202.61 1286,-201 1461.99,-175.97 1671.51,-160.71 1773.71,-154.19"/>
<polygon fill="midnightblue" stroke="midnightblue" points="1774.1,-157.68 1783.86,-153.55 1773.66,-150.69 1774.1,-157.68"/>
</g>
<!-- Node35&#45;&gt;Node13 -->
<g id="edge47" class="edge">
<title>Node35&#45;&gt;Node13</title>
<path fill="none" stroke="midnightblue" d="M1208.97,-206.72C1203.58,-183.65 1188.21,-119.46 1172,-67 1169.27,-58.15 1165.94,-48.55 1162.89,-40.12"/>
<polygon fill="midnightblue" stroke="midnightblue" points="1166.1,-38.72 1159.37,-30.54 1159.53,-41.13 1166.1,-38.72"/>
</g>
<!-- Node35&#45;&gt;Node14 -->
<g id="edge48" class="edge">
<title>Node35&#45;&gt;Node14</title>
<path fill="none" stroke="midnightblue" d="M1226.96,-206.79C1255.63,-190.1 1315.02,-150.57 1338,-98 1343.52,-85.38 1344.32,-79.24 1338,-67 1331.36,-54.13 1319.75,-43.82 1307.82,-35.96"/>
<polygon fill="midnightblue" stroke="midnightblue" points="1309.51,-32.88 1299.15,-30.66 1305.86,-38.86 1309.51,-32.88"/>
</g>
<!-- Node35&#45;&gt;Node15 -->
<g id="edge49" class="edge">
<title>Node35&#45;&gt;Node15</title>
<path fill="none" stroke="midnightblue" d="M1150.68,-207C1133.67,-204.81 1115.13,-202.62 1098,-201 1032.06,-194.78 550.46,-211.2 503,-165 470.04,-132.91 476.58,-73.78 483.66,-40.64"/>
<polygon fill="midnightblue" stroke="midnightblue" points="487.08,-41.39 485.93,-30.86 480.26,-39.81 487.08,-41.39"/>
</g>
<!-- Node35&#45;&gt;Node22 -->
<g id="edge46" class="edge">
<title>Node35&#45;&gt;Node22</title>
<path fill="none" stroke="midnightblue" d="M1190.95,-206.87C1165,-195.7 1119.58,-176.15 1089.64,-163.26"/>
<polygon fill="midnightblue" stroke="midnightblue" points="1090.7,-159.91 1080.13,-159.17 1087.94,-166.34 1090.7,-159.91"/>
</g>
<!-- Node36&#45;&gt;Node11 -->
<g id="edge51" class="edge">
<title>Node36&#45;&gt;Node11</title>
<path fill="none" stroke="midnightblue" d="M1970.42,-206.87C1943.67,-195.65 1896.75,-175.98 1866.03,-163.09"/>
<polygon fill="midnightblue" stroke="midnightblue" points="1867.24,-159.81 1856.67,-159.17 1864.54,-166.26 1867.24,-159.81"/>
</g>
<!-- Node37&#45;&gt;Node11 -->
<g id="edge53" class="edge">
<title>Node37&#45;&gt;Node11</title>
<path fill="none" stroke="midnightblue" d="M1717.19,-206.87C1740.53,-195.8 1781.23,-176.49 1808.39,-163.6"/>
<polygon fill="midnightblue" stroke="midnightblue" points="1810.2,-166.62 1817.73,-159.17 1807.2,-160.29 1810.2,-166.62"/>
</g>
<!-- Node38&#45;&gt;Node11 -->
<g id="edge56" class="edge">
<title>Node38&#45;&gt;Node11</title>
<path fill="none" stroke="midnightblue" d="M2117.31,-206.94C2058.35,-195.11 1952.06,-173.78 1888.37,-161.01"/>
<polygon fill="midnightblue" stroke="midnightblue" points="1889.02,-157.57 1878.53,-159.03 1887.64,-164.43 1889.02,-157.57"/>
</g>
<!-- Node39&#45;&gt;Node11 -->
<g id="edge58" class="edge">
<title>Node39&#45;&gt;Node11</title>
<path fill="none" stroke="midnightblue" d="M2263.2,-202.5C2260.09,-201.98 2257.01,-201.47 2254,-201 2128.31,-181.28 1980.3,-165.03 1898.43,-156.65"/>
<polygon fill="midnightblue" stroke="midnightblue" points="1898.6,-153.15 1888.3,-155.62 1897.89,-160.11 1898.6,-153.15"/>
</g>
<!-- Node39&#45;&gt;Node16 -->
<g id="edge59" class="edge">
<title>Node39&#45;&gt;Node16</title>
<path fill="none" stroke="midnightblue" d="M2277.38,-201.43C2139.65,-163.88 1765.48,-61.88 1640.37,-27.78"/>
<polygon fill="midnightblue" stroke="midnightblue" points="1640.99,-24.32 1630.42,-25.07 1639.15,-31.07 1640.99,-24.32"/>
</g>
</g>
</svg>
        <g id="navigator" transform="translate(0 0)" fill="#404254">
                <rect fill="#f2f5e9" fill-opacity="0.5" stroke="#606060" stroke-width=".5" x="0" y="0" width="60" height="60"/>
                <use id="zoomplus" xlink:href="#zoomPlus" x="17" y="9" onmousedown="handleZoom(evt,'in')"/>
                <use id="zoomminus" xlink:href="#zoomMin" x="42" y="9" onmousedown="handleZoom(evt,'out')"/>
                <use id="reset" xlink:href="#resetDef" x="30" y="36" onmousedown="handleReset()"/>
                <g id="arrowUp" xlink:href="#dirArrow" transform="translate(30 24)" onmousedown="handlePan(0,-1)">
                  <use xlink:href="#rim" fill="#404040">
                        <set attributeName="fill" to="#808080" begin="arrowUp.mouseover" end="arrowUp.mouseout"/>
                  </use>
                  <path fill="none" stroke="white" stroke-width="1.5" d="M0,-3.0v7 M-2.5,-0.5L0,-3.0L2.5,-0.5"/>
                </g>
                <g id="arrowRight" xlink:href="#dirArrow" transform="rotate(90) translate(36 -43)" onmousedown="handlePan(1,0)">
                  <use xlink:href="#rim" fill="#404040">
                        <set attributeName="fill" to="#808080" begin="arrowRight.mouseover" end="arrowRight.mouseout"/>
                  </use>
                  <path fill="none" stroke="white" stroke-width="1.5" d="M0,-3.0v7 M-2.5,-0.5L0,-3.0L2.5,-0.5"/>
                </g>
                <g id="arrowDown" xlink:href="#dirArrow" transform="rotate(180) translate(-30 -48)" onmousedown="handlePan(0,1)">
                  <use xlink:href="#rim" fill="#404040">
                        <set attributeName="fill" to="#808080" begin="arrowDown.mouseover" end="arrowDown.mouseout"/>
                  </use>
                  <path fill="none" stroke="white" stroke-width="1.5" d="M0,-3.0v7 M-2.5,-0.5L0,-3.0L2.5,-0.5"/>
                </g>
                <g id="arrowLeft" xlink:href="#dirArrow" transform="rotate(270) translate(-36 17)" onmousedown="handlePan(-1,0)">
                  <use xlink:href="#rim" fill="#404040">
                        <set attributeName="fill" to="#808080" begin="arrowLeft.mouseover" end="arrowLeft.mouseout"/>
                  </use>
                  <path fill="none" stroke="white" stroke-width="1.5" d="M0,-3.0v7 M-2.5,-0.5L0,-3.0L2.5,-0.5"/>
                </g>
        </g>
        <svg viewBox="0 0 15 15" width="100%" height="30px" preserveAspectRatio="xMaxYMin meet">
         <g id="arrow_out" transform="scale(0.3 0.3)">
          <a xlink:href="Level1_8cpp__incl_org.svg" target="_base">
           <rect id="button" ry="5" rx="5" y="6" x="6" height="38" width="38"
                fill="#f2f5e9" fill-opacity="0.5" stroke="#606060" stroke-width="1.0"/>
           <path id="arrow"
             d="M 11.500037,31.436501 C 11.940474,20.09759 22.043105,11.32322 32.158766,21.979434 L 37.068811,17.246167 C 37.068811,17.246167 37.088388,32 37.088388,32 L 22.160133,31.978069 C 22.160133,31.978069 26.997745,27.140456 26.997745,27.140456 C 18.528582,18.264221 13.291696,25.230495 11.500037,31.436501 z"
             style="fill:#404040;"/>
          </a>
         </g>
        </svg>
</svg>
