<?xml version="1.0" encoding="UTF-8" standalone="no"?>
<!DOCTYPE svg PUBLIC "-//W3C//DTD SVG 1.1//EN"
 "http://www.w3.org/Graphics/SVG/1.1/DTD/svg11.dtd">
<!-- Generated by graphviz version 2.44.0 ()
 -->
<!-- Title: src/Game/Levels/Level2.hpp Pages: 1 -->
<!--zoomable 341 -->
<svg id="main" version="1.1" xmlns="http://www.w3.org/2000/svg" xmlns:xlink="http://www.w3.org/1999/xlink" xml:space="preserve" onload="init(evt)">
<style type="text/css"><![CDATA[
.edge:hover path { stroke: red; }
.edge:hover polygon { stroke: red; fill: red; }
]]></style>
<script type="text/javascript"><![CDATA[
var edges = document.getElementsByTagName('g');
if (edges && edges.length) {
  for (var i=0;i<edges.length;i++) {
    if (edges[i].id.substr(0,4)=='edge') {
      edges[i].setAttribute('class','edge');
    }
  }
}
]]></script>
        <defs>
                <circle id="rim" cx="0" cy="0" r="7"/>
                <circle id="rim2" cx="0" cy="0" r="3.5"/>
                <g id="zoomPlus">
                        <use xlink:href="#rim" fill="#404040">
                                <set attributeName="fill" to="#808080" begin="zoomplus.mouseover" end="zoomplus.mouseout"/>
                        </use>
                        <path d="M-4,0h8M0,-4v8" fill="none" stroke="white" stroke-width="1.5" pointer-events="none"/>
                </g>
                <g id="zoomMin">
                        <use xlink:href="#rim" fill="#404040">
                                <set attributeName="fill" to="#808080" begin="zoomminus.mouseover" end="zoomminus.mouseout"/>
                        </use>
                        <path d="M-4,0h8" fill="none" stroke="white" stroke-width="1.5" pointer-events="none"/>
                </g>
                <g id="dirArrow">
                        <path fill="none" stroke="white" stroke-width="1.5" d="M0,-3.0v7 M-2.5,-0.5L0,-3.0L2.5,-0.5"/>
                </g>
               <g id="resetDef">
                       <use xlink:href="#rim2" fill="#404040">
                               <set attributeName="fill" to="#808080" begin="reset.mouseover" end="reset.mouseout"/>
                       </use>
               </g>
        </defs>

<script type="text/javascript">
var viewWidth = 1557;
var viewHeight = 341;
var sectionId = 'dynsection-0';
</script>
<script xlink:href="svgpan.js"/>
<svg id="graph" class="graph">
<g id="viewport">
<title>src/Game/Levels/Level2.hpp</title>
<!-- Node1 -->
<g id="node1" class="node">
<title>Node1</title>
<g id="a_node1"><a xlink:title=" ">
<polygon fill="#bfbfbf" stroke="black" points="747,-313.5 747,-332.5 889,-332.5 889,-313.5 747,-313.5"/>
<text text-anchor="middle" x="818" y="-320.5" font-family="Helvetica,sans-Serif" font-size="10.00">src/Game/Levels/Level2.hpp</text>
</a>
</g>
</g>
<!-- Node2 -->
<g id="node2" class="node">
<title>Node2</title>
<g id="a_node2"><a xlink:title=" ">
<polygon fill="none" stroke="#bfbfbf" points="0,-201.5 0,-220.5 62,-220.5 62,-201.5 0,-201.5"/>
<text text-anchor="middle" x="31" y="-208.5" font-family="Helvetica,sans-Serif" font-size="10.00">Scene.hpp</text>
</a>
</g>
</g>
<!-- Node1&#45;&gt;Node2 -->
<g id="edge1" class="edge">
<title>Node1&#45;&gt;Node2</title>
<path fill="none" stroke="midnightblue" d="M746.87,-314.47C615.44,-300.1 325.59,-266.27 72.51,-221.15"/>
<polygon fill="midnightblue" stroke="midnightblue" points="72.85,-217.65 62.39,-219.33 71.62,-224.54 72.85,-217.65"/>
</g>
<!-- Node3 -->
<g id="node3" class="node">
<title>Node3</title>
<g id="a_node3"><a xlink:href="Level_8hpp.html" target="_top" xlink:title=" ">
<polygon fill="none" stroke="black" points="528.5,-257.5 528.5,-276.5 587.5,-276.5 587.5,-257.5 528.5,-257.5"/>
<text text-anchor="middle" x="558" y="-264.5" font-family="Helvetica,sans-Serif" font-size="10.00">Level.hpp</text>
</a>
</g>
</g>
<!-- Node1&#45;&gt;Node3 -->
<g id="edge2" class="edge">
<title>Node1&#45;&gt;Node3</title>
<path fill="none" stroke="midnightblue" d="M776.8,-313.44C727.61,-303.23 645.91,-286.26 597.49,-276.2"/>
<polygon fill="midnightblue" stroke="midnightblue" points="598.19,-272.77 587.68,-274.16 596.76,-279.63 598.19,-272.77"/>
</g>
<!-- Node21 -->
<g id="node21" class="node">
<title>Node21</title>
<g id="a_node21"><a xlink:href="CoinCounter_8hpp.html" target="_top" xlink:title=" ">
<polygon fill="none" stroke="black" points="1043.5,-73 1043.5,-92 1144.5,-92 1144.5,-73 1043.5,-73"/>
<text text-anchor="middle" x="1094" y="-80" font-family="Helvetica,sans-Serif" font-size="10.00">UI/CoinCounter.hpp</text>
</a>
</g>
</g>
<!-- Node1&#45;&gt;Node21 -->
<g id="edge22" class="edge">
<title>Node1&#45;&gt;Node21</title>
<path fill="none" stroke="midnightblue" d="M874.05,-313.48C929.39,-302.08 1012.43,-276.46 1060,-221 1089.27,-186.88 1094.07,-131.37 1094.43,-102.42"/>
<polygon fill="midnightblue" stroke="midnightblue" points="1097.93,-102.08 1094.37,-92.09 1090.93,-102.11 1097.93,-102.08"/>
</g>
<!-- Node28 -->
<g id="node28" class="node">
<title>Node28</title>
<g id="a_node28"><a xlink:title=" ">
<polygon fill="none" stroke="#bfbfbf" points="1107.5,-257.5 1107.5,-276.5 1208.5,-276.5 1208.5,-257.5 1107.5,-257.5"/>
<text text-anchor="middle" x="1158" y="-264.5" font-family="Helvetica,sans-Serif" font-size="10.00">UI/FPSCounter.hpp</text>
</a>
</g>
</g>
<!-- Node1&#45;&gt;Node28 -->
<g id="edge32" class="edge">
<title>Node1&#45;&gt;Node28</title>
<path fill="none" stroke="midnightblue" d="M871.87,-313.44C933.28,-303.69 1033.42,-287.79 1097.47,-277.61"/>
<polygon fill="midnightblue" stroke="midnightblue" points="1098.1,-281.06 1107.43,-276.03 1097,-274.14 1098.1,-281.06"/>
</g>
<!-- Node3&#45;&gt;Node2 -->
<g id="edge3" class="edge">
<title>Node3&#45;&gt;Node2</title>
<path fill="none" stroke="midnightblue" d="M528.47,-264.6C453.71,-260.78 250.86,-248.66 72.46,-221.04"/>
<polygon fill="midnightblue" stroke="midnightblue" points="72.79,-217.55 62.37,-219.46 71.71,-224.47 72.79,-217.55"/>
</g>
<!-- Node4 -->
<g id="node4" class="node">
<title>Node4</title>
<g id="a_node4"><a xlink:href="Sprites_8hpp.html" target="_top" xlink:title=" ">
<polygon fill="none" stroke="black" points="259.5,-201.5 259.5,-220.5 370.5,-220.5 370.5,-201.5 259.5,-201.5"/>
<text text-anchor="middle" x="315" y="-208.5" font-family="Helvetica,sans-Serif" font-size="10.00">constants/Sprites.hpp</text>
</a>
</g>
</g>
<!-- Node3&#45;&gt;Node4 -->
<g id="edge4" class="edge">
<title>Node3&#45;&gt;Node4</title>
<path fill="none" stroke="midnightblue" d="M528.2,-259.38C487.06,-250.24 412.38,-233.64 363.23,-222.72"/>
<polygon fill="midnightblue" stroke="midnightblue" points="363.97,-219.3 353.45,-220.55 362.46,-226.13 363.97,-219.3"/>
</g>
<!-- Node6 -->
<g id="node6" class="node">
<title>Node6</title>
<g id="a_node6"><a xlink:title=" ">
<polygon fill="none" stroke="#bfbfbf" points="389,-201.5 389,-220.5 485,-220.5 485,-201.5 389,-201.5"/>
<text text-anchor="middle" x="437" y="-208.5" font-family="Helvetica,sans-Serif" font-size="10.00">Engine/Engine.hpp</text>
</a>
</g>
</g>
<!-- Node3&#45;&gt;Node6 -->
<g id="edge6" class="edge">
<title>Node3&#45;&gt;Node6</title>
<path fill="none" stroke="midnightblue" d="M538.83,-257.44C519.09,-248.64 488.11,-234.81 465.51,-224.72"/>
<polygon fill="midnightblue" stroke="midnightblue" points="466.64,-221.4 456.08,-220.52 463.79,-227.79 466.64,-221.4"/>
</g>
<!-- Node7 -->
<g id="node7" class="node">
<title>Node7</title>
<g id="a_node7"><a xlink:title=" ">
<polygon fill="none" stroke="#bfbfbf" points="503.5,-201.5 503.5,-220.5 612.5,-220.5 612.5,-201.5 503.5,-201.5"/>
<text text-anchor="middle" x="558" y="-208.5" font-family="Helvetica,sans-Serif" font-size="10.00">Utility/InputEnum.hpp</text>
</a>
</g>
</g>
<!-- Node3&#45;&gt;Node7 -->
<g id="edge7" class="edge">
<title>Node3&#45;&gt;Node7</title>
<path fill="none" stroke="midnightblue" d="M558,-257.08C558,-250.01 558,-239.86 558,-230.99"/>
<polygon fill="midnightblue" stroke="midnightblue" points="561.5,-230.75 558,-220.75 554.5,-230.75 561.5,-230.75"/>
</g>
<!-- Node8 -->
<g id="node8" class="node">
<title>Node8</title>
<g id="a_node8"><a xlink:title=" ">
<polygon fill="none" stroke="#bfbfbf" points="631,-201.5 631,-220.5 721,-220.5 721,-201.5 631,-201.5"/>
<text text-anchor="middle" x="676" y="-208.5" font-family="Helvetica,sans-Serif" font-size="10.00">AudioSource.hpp</text>
</a>
</g>
</g>
<!-- Node3&#45;&gt;Node8 -->
<g id="edge8" class="edge">
<title>Node3&#45;&gt;Node8</title>
<path fill="none" stroke="midnightblue" d="M576.7,-257.44C595.94,-248.64 626.15,-234.81 648.2,-224.72"/>
<polygon fill="midnightblue" stroke="midnightblue" points="649.75,-227.86 657.39,-220.52 646.84,-221.5 649.75,-227.86"/>
</g>
<!-- Node9 -->
<g id="node9" class="node">
<title>Node9</title>
<g id="a_node9"><a xlink:href="MarioBehaviour_8hpp.html" target="_top" xlink:title=" ">
<polygon fill="none" stroke="black" points="739,-201.5 739,-220.5 875,-220.5 875,-201.5 739,-201.5"/>
<text text-anchor="middle" x="807" y="-208.5" font-family="Helvetica,sans-Serif" font-size="10.00">Scripts/MarioBehaviour.hpp</text>
</a>
</g>
</g>
<!-- Node3&#45;&gt;Node9 -->
<g id="edge9" class="edge">
<title>Node3&#45;&gt;Node9</title>
<path fill="none" stroke="midnightblue" d="M587.54,-259.59C629.57,-250.48 707.14,-233.66 757.9,-222.65"/>
<polygon fill="midnightblue" stroke="midnightblue" points="758.64,-226.07 767.67,-220.53 757.16,-219.23 758.64,-226.07"/>
</g>
<!-- Node19 -->
<g id="node19" class="node">
<title>Node19</title>
<g id="a_node19"><a xlink:title=" ">
<polygon fill="none" stroke="#bfbfbf" points="893,-201.5 893,-220.5 1051,-220.5 1051,-201.5 893,-201.5"/>
<text text-anchor="middle" x="972" y="-208.5" font-family="Helvetica,sans-Serif" font-size="10.00">Director/GameObjectFactory.hpp</text>
</a>
</g>
</g>
<!-- Node3&#45;&gt;Node19 -->
<g id="edge20" class="edge">
<title>Node3&#45;&gt;Node19</title>
<path fill="none" stroke="midnightblue" d="M587.77,-262.12C651.75,-253.77 804.01,-233.91 896.5,-221.85"/>
<polygon fill="midnightblue" stroke="midnightblue" points="897.18,-225.29 906.64,-220.52 896.27,-218.35 897.18,-225.29"/>
</g>
<!-- Node20 -->
<g id="node20" class="node">
<title>Node20</title>
<g id="a_node20"><a xlink:title=" ">
<polygon fill="none" stroke="#bfbfbf" points="80.5,-201.5 80.5,-220.5 241.5,-220.5 241.5,-201.5 80.5,-201.5"/>
<text text-anchor="middle" x="161" y="-208.5" font-family="Helvetica,sans-Serif" font-size="10.00">Behaviour/CollisionBehaviour.hpp</text>
</a>
</g>
</g>
<!-- Node3&#45;&gt;Node20 -->
<g id="edge21" class="edge">
<title>Node3&#45;&gt;Node20</title>
<path fill="none" stroke="midnightblue" d="M528.48,-261.99C466.63,-253.57 321.83,-233.88 233.59,-221.87"/>
<polygon fill="midnightblue" stroke="midnightblue" points="234.02,-218.4 223.64,-220.52 233.08,-225.34 234.02,-218.4"/>
</g>
<!-- Node5 -->
<g id="node5" class="node">
<title>Node5</title>
<g id="a_node5"><a xlink:title=" ">
<polygon fill="none" stroke="#bfbfbf" points="294.5,-140 294.5,-159 335.5,-159 335.5,-140 294.5,-140"/>
<text text-anchor="middle" x="315" y="-147" font-family="Helvetica,sans-Serif" font-size="10.00">string</text>
</a>
</g>
</g>
<!-- Node4&#45;&gt;Node5 -->
<g id="edge5" class="edge">
<title>Node4&#45;&gt;Node5</title>
<path fill="none" stroke="midnightblue" d="M315,-201.48C315,-193.08 315,-179.98 315,-169.16"/>
<polygon fill="midnightblue" stroke="midnightblue" points="318.5,-169.01 315,-159.01 311.5,-169.01 318.5,-169.01"/>
</g>
<!-- Node10 -->
<g id="node10" class="node">
<title>Node10</title>
<g id="a_node10"><a xlink:title=" ">
<polygon fill="none" stroke="#bfbfbf" points="725,-140 725,-159 829,-159 829,-140 725,-140"/>
<text text-anchor="middle" x="777" y="-147" font-family="Helvetica,sans-Serif" font-size="10.00">BehaviourScript.hpp</text>
</a>
</g>
</g>
<!-- Node9&#45;&gt;Node10 -->
<g id="edge10" class="edge">
<title>Node9&#45;&gt;Node10</title>
<path fill="none" stroke="midnightblue" d="M802.7,-201.48C798.34,-192.82 791.44,-179.15 785.9,-168.15"/>
<polygon fill="midnightblue" stroke="midnightblue" points="788.92,-166.36 781.29,-159.01 782.67,-169.51 788.92,-166.36"/>
</g>
<!-- Node11 -->
<g id="node11" class="node">
<title>Node11</title>
<g id="a_node11"><a xlink:href="MarioState_8hpp.html" target="_top" xlink:title=" ">
<polygon fill="none" stroke="black" points="645.5,-67.5 645.5,-97.5 748.5,-97.5 748.5,-67.5 645.5,-67.5"/>
<text text-anchor="start" x="653.5" y="-85.5" font-family="Helvetica,sans-Serif" font-size="10.00">Scripts/MarioStates</text>
<text text-anchor="middle" x="697" y="-74.5" font-family="Helvetica,sans-Serif" font-size="10.00">/MarioState.hpp</text>
</a>
</g>
</g>
<!-- Node9&#45;&gt;Node11 -->
<g id="edge11" class="edge">
<title>Node9&#45;&gt;Node11</title>
<path fill="none" stroke="midnightblue" d="M773.8,-201.39C754.19,-194.63 730.45,-183.23 716,-165 703.14,-148.78 698.71,-125.38 697.31,-107.81"/>
<polygon fill="midnightblue" stroke="midnightblue" points="700.8,-107.54 696.78,-97.74 693.81,-107.91 700.8,-107.54"/>
</g>
<!-- Node18 -->
<g id="node18" class="node">
<title>Node18</title>
<g id="a_node18"><a xlink:href="SmallMarioState_8hpp.html" target="_top" xlink:title=" ">
<polygon fill="none" stroke="black" points="847,-134.5 847,-164.5 957,-164.5 957,-134.5 847,-134.5"/>
<text text-anchor="start" x="855" y="-152.5" font-family="Helvetica,sans-Serif" font-size="10.00">Scripts/MarioStates</text>
<text text-anchor="middle" x="902" y="-141.5" font-family="Helvetica,sans-Serif" font-size="10.00">/SmallMarioState.hpp</text>
</a>
</g>
</g>
<!-- Node9&#45;&gt;Node18 -->
<g id="edge18" class="edge">
<title>Node9&#45;&gt;Node18</title>
<path fill="none" stroke="midnightblue" d="M820.61,-201.48C833.72,-193.27 854.01,-180.56 871.05,-169.88"/>
<polygon fill="midnightblue" stroke="midnightblue" points="872.99,-172.8 879.61,-164.52 869.28,-166.86 872.99,-172.8"/>
</g>
<!-- Node12 -->
<g id="node12" class="node">
<title>Node12</title>
<g id="a_node12"><a xlink:title=" ">
<polygon fill="none" stroke="#bfbfbf" points="649.5,-0.5 649.5,-30.5 744.5,-30.5 744.5,-0.5 649.5,-0.5"/>
<text text-anchor="start" x="657.5" y="-18.5" font-family="Helvetica,sans-Serif" font-size="10.00">boost/serialization</text>
<text text-anchor="middle" x="697" y="-7.5" font-family="Helvetica,sans-Serif" font-size="10.00">/access.hpp</text>
</a>
</g>
</g>
<!-- Node11&#45;&gt;Node12 -->
<g id="edge12" class="edge">
<title>Node11&#45;&gt;Node12</title>
<path fill="none" stroke="midnightblue" d="M697,-67.4C697,-59.64 697,-49.81 697,-40.86"/>
<polygon fill="midnightblue" stroke="midnightblue" points="700.5,-40.58 697,-30.58 693.5,-40.58 700.5,-40.58"/>
</g>
<!-- Node13 -->
<g id="node13" class="node">
<title>Node13</title>
<g id="a_node13"><a xlink:title=" ">
<polygon fill="none" stroke="#bfbfbf" points="762.5,-0.5 762.5,-30.5 857.5,-30.5 857.5,-0.5 762.5,-0.5"/>
<text text-anchor="start" x="770.5" y="-18.5" font-family="Helvetica,sans-Serif" font-size="10.00">boost/serialization</text>
<text text-anchor="middle" x="810" y="-7.5" font-family="Helvetica,sans-Serif" font-size="10.00">/export.hpp</text>
</a>
</g>
</g>
<!-- Node11&#45;&gt;Node13 -->
<g id="edge13" class="edge">
<title>Node11&#45;&gt;Node13</title>
<path fill="none" stroke="midnightblue" d="M721.52,-67.4C737.66,-58.11 758.99,-45.84 776.67,-35.67"/>
<polygon fill="midnightblue" stroke="midnightblue" points="778.61,-38.6 785.53,-30.58 775.12,-32.53 778.61,-38.6"/>
</g>
<!-- Node14 -->
<g id="node14" class="node">
<title>Node14</title>
<g id="a_node14"><a xlink:title=" ">
<polygon fill="none" stroke="#bfbfbf" points="875.5,-0.5 875.5,-30.5 970.5,-30.5 970.5,-0.5 875.5,-0.5"/>
<text text-anchor="start" x="883.5" y="-18.5" font-family="Helvetica,sans-Serif" font-size="10.00">boost/serialization</text>
<text text-anchor="middle" x="923" y="-7.5" font-family="Helvetica,sans-Serif" font-size="10.00">/shared_ptr.hpp</text>
</a>
</g>
</g>
<!-- Node11&#45;&gt;Node14 -->
<g id="edge14" class="edge">
<title>Node11&#45;&gt;Node14</title>
<path fill="none" stroke="midnightblue" d="M745.76,-67.48C781.02,-57.34 828.77,-43.6 865.83,-32.94"/>
<polygon fill="midnightblue" stroke="midnightblue" points="866.85,-36.29 875.49,-30.16 864.91,-29.56 866.85,-36.29"/>
</g>
<!-- Node15 -->
<g id="node15" class="node">
<title>Node15</title>
<g id="a_node15"><a xlink:title=" ">
<polygon fill="none" stroke="#bfbfbf" points="292.5,-6 292.5,-25 429.5,-25 429.5,-6 292.5,-6"/>
<text text-anchor="middle" x="361" y="-13" font-family="Helvetica,sans-Serif" font-size="10.00">Texture/AnimatedSprite.hpp</text>
</a>
</g>
</g>
<!-- Node11&#45;&gt;Node15 -->
<g id="edge15" class="edge">
<title>Node11&#45;&gt;Node15</title>
<path fill="none" stroke="midnightblue" d="M645.24,-71.49C582.9,-59.43 478.68,-39.26 415.25,-26.99"/>
<polygon fill="midnightblue" stroke="midnightblue" points="415.53,-23.48 405.05,-25.02 414.2,-30.36 415.53,-23.48"/>
</g>
<!-- Node16 -->
<g id="node16" class="node">
<title>Node16</title>
<g id="a_node16"><a xlink:title=" ">
<polygon fill="none" stroke="#bfbfbf" points="447.5,-6 447.5,-25 504.5,-25 504.5,-6 447.5,-6"/>
<text text-anchor="middle" x="476" y="-13" font-family="Helvetica,sans-Serif" font-size="10.00">Point.hpp</text>
</a>
</g>
</g>
<!-- Node11&#45;&gt;Node16 -->
<g id="edge16" class="edge">
<title>Node11&#45;&gt;Node16</title>
<path fill="none" stroke="midnightblue" d="M645.34,-68.65C608.46,-59.13 557.84,-45.38 514,-31 511.74,-30.26 509.41,-29.46 507.07,-28.63"/>
<polygon fill="midnightblue" stroke="midnightblue" points="508.17,-25.31 497.58,-25.14 505.75,-31.88 508.17,-25.31"/>
</g>
<!-- Node17 -->
<g id="node17" class="node">
<title>Node17</title>
<g id="a_node17"><a xlink:title=" ">
<polygon fill="none" stroke="#bfbfbf" points="522.5,-6 522.5,-25 631.5,-25 631.5,-6 522.5,-6"/>
<text text-anchor="middle" x="577" y="-13" font-family="Helvetica,sans-Serif" font-size="10.00">Physics/Collision.hpp</text>
</a>
</g>
</g>
<!-- Node11&#45;&gt;Node17 -->
<g id="edge17" class="edge">
<title>Node11&#45;&gt;Node17</title>
<path fill="none" stroke="midnightblue" d="M670.96,-67.4C650.37,-56.24 621.83,-40.78 601.62,-29.83"/>
<polygon fill="midnightblue" stroke="midnightblue" points="603.17,-26.69 592.71,-25.01 599.83,-32.85 603.17,-26.69"/>
</g>
<!-- Node18&#45;&gt;Node11 -->
<g id="edge19" class="edge">
<title>Node18&#45;&gt;Node11</title>
<path fill="none" stroke="midnightblue" d="M857.77,-134.48C826.49,-124.56 784.36,-111.2 751.08,-100.65"/>
<polygon fill="midnightblue" stroke="midnightblue" points="752.09,-97.3 741.5,-97.61 749.98,-103.97 752.09,-97.3"/>
</g>
<!-- Node21&#45;&gt;Node12 -->
<g id="edge24" class="edge">
<title>Node21&#45;&gt;Node12</title>
<path fill="none" stroke="midnightblue" d="M1043.32,-75.61C978.59,-67.72 862.97,-52.41 754.32,-30.93"/>
<polygon fill="midnightblue" stroke="midnightblue" points="755,-27.5 744.5,-28.97 753.62,-34.36 755,-27.5"/>
</g>
<!-- Node21&#45;&gt;Node13 -->
<g id="edge25" class="edge">
<title>Node21&#45;&gt;Node13</title>
<path fill="none" stroke="midnightblue" d="M1053.73,-72.93C1010.33,-63.6 938.97,-48.02 867.62,-31.11"/>
<polygon fill="midnightblue" stroke="midnightblue" points="868.1,-27.62 857.56,-28.71 866.48,-34.43 868.1,-27.62"/>
</g>
<!-- Node21&#45;&gt;Node14 -->
<g id="edge26" class="edge">
<title>Node21&#45;&gt;Node14</title>
<path fill="none" stroke="midnightblue" d="M1071.29,-72.87C1045.41,-63.03 1002.42,-46.69 969.37,-34.13"/>
<polygon fill="midnightblue" stroke="midnightblue" points="970.5,-30.81 959.9,-30.53 968.01,-37.35 970.5,-30.81"/>
</g>
<!-- Node22 -->
<g id="node22" class="node">
<title>Node22</title>
<g id="a_node22"><a xlink:title=" ">
<polygon fill="none" stroke="#bfbfbf" points="988.5,-6 988.5,-25 1039.5,-25 1039.5,-6 988.5,-6"/>
<text text-anchor="middle" x="1014" y="-13" font-family="Helvetica,sans-Serif" font-size="10.00">memory</text>
</a>
</g>
</g>
<!-- Node21&#45;&gt;Node22 -->
<g id="edge23" class="edge">
<title>Node21&#45;&gt;Node22</title>
<path fill="none" stroke="midnightblue" d="M1083.21,-72.73C1070.26,-62.21 1048.31,-44.38 1032.61,-31.62"/>
<polygon fill="midnightblue" stroke="midnightblue" points="1034.59,-28.72 1024.62,-25.13 1030.17,-34.15 1034.59,-28.72"/>
</g>
<!-- Node23 -->
<g id="node23" class="node">
<title>Node23</title>
<g id="a_node23"><a xlink:title=" ">
<polygon fill="none" stroke="#bfbfbf" points="1058,-0.5 1058,-30.5 1162,-30.5 1162,-0.5 1058,-0.5"/>
<text text-anchor="start" x="1066" y="-18.5" font-family="Helvetica,sans-Serif" font-size="10.00">boost/archive/binary</text>
<text text-anchor="middle" x="1110" y="-7.5" font-family="Helvetica,sans-Serif" font-size="10.00">_iarchive.hpp</text>
</a>
</g>
</g>
<!-- Node21&#45;&gt;Node23 -->
<g id="edge27" class="edge">
<title>Node21&#45;&gt;Node23</title>
<path fill="none" stroke="midnightblue" d="M1096.16,-72.73C1098.2,-64.46 1101.34,-51.66 1104.12,-40.37"/>
<polygon fill="midnightblue" stroke="midnightblue" points="1107.54,-41.14 1106.53,-30.59 1100.74,-39.46 1107.54,-41.14"/>
</g>
<!-- Node24 -->
<g id="node24" class="node">
<title>Node24</title>
<g id="a_node24"><a xlink:title=" ">
<polygon fill="none" stroke="#bfbfbf" points="1180,-0.5 1180,-30.5 1284,-30.5 1284,-0.5 1180,-0.5"/>
<text text-anchor="start" x="1188" y="-18.5" font-family="Helvetica,sans-Serif" font-size="10.00">boost/archive/binary</text>
<text text-anchor="middle" x="1232" y="-7.5" font-family="Helvetica,sans-Serif" font-size="10.00">_oarchive.hpp</text>
</a>
</g>
</g>
<!-- Node21&#45;&gt;Node24 -->
<g id="edge28" class="edge">
<title>Node21&#45;&gt;Node24</title>
<path fill="none" stroke="midnightblue" d="M1112.33,-72.87C1132.76,-63.24 1166.42,-47.39 1192.85,-34.94"/>
<polygon fill="midnightblue" stroke="midnightblue" points="1194.66,-37.96 1202.22,-30.53 1191.68,-31.62 1194.66,-37.96"/>
</g>
<!-- Node25 -->
<g id="node25" class="node">
<title>Node25</title>
<g id="a_node25"><a xlink:title=" ">
<polygon fill="none" stroke="#bfbfbf" points="1302.5,-6 1302.5,-25 1359.5,-25 1359.5,-6 1302.5,-6"/>
<text text-anchor="middle" x="1331" y="-13" font-family="Helvetica,sans-Serif" font-size="10.00">Color.hpp</text>
</a>
</g>
</g>
<!-- Node21&#45;&gt;Node25 -->
<g id="edge29" class="edge">
<title>Node21&#45;&gt;Node25</title>
<path fill="none" stroke="midnightblue" d="M1133.27,-72.95C1173.68,-63.83 1238.29,-48.32 1293,-31 1295.42,-30.24 1297.9,-29.4 1300.39,-28.53"/>
<polygon fill="midnightblue" stroke="midnightblue" points="1301.66,-31.79 1309.85,-25.07 1299.26,-25.22 1301.66,-31.79"/>
</g>
<!-- Node26 -->
<g id="node26" class="node">
<title>Node26</title>
<g id="a_node26"><a xlink:title=" ">
<polygon fill="none" stroke="#bfbfbf" points="1377.5,-6 1377.5,-25 1456.5,-25 1456.5,-6 1377.5,-6"/>
<text text-anchor="middle" x="1417" y="-13" font-family="Helvetica,sans-Serif" font-size="10.00">Transform.hpp</text>
</a>
</g>
</g>
<!-- Node21&#45;&gt;Node26 -->
<g id="edge30" class="edge">
<title>Node21&#45;&gt;Node26</title>
<path fill="none" stroke="midnightblue" d="M1144.54,-73.96C1199.97,-65.28 1291.39,-49.79 1369,-31 1372.89,-30.06 1376.92,-28.99 1380.93,-27.87"/>
<polygon fill="midnightblue" stroke="midnightblue" points="1382.11,-31.17 1390.74,-25.01 1380.16,-24.45 1382.11,-31.17"/>
</g>
<!-- Node27 -->
<g id="node27" class="node">
<title>Node27</title>
<g id="a_node27"><a xlink:title=" ">
<polygon fill="none" stroke="#bfbfbf" points="1475,-6 1475,-25 1549,-25 1549,-6 1475,-6"/>
<text text-anchor="middle" x="1512" y="-13" font-family="Helvetica,sans-Serif" font-size="10.00">UIObject.hpp</text>
</a>
</g>
</g>
<!-- Node21&#45;&gt;Node27 -->
<g id="edge31" class="edge">
<title>Node21&#45;&gt;Node27</title>
<path fill="none" stroke="midnightblue" d="M1144.73,-77.38C1216.78,-70.89 1352.63,-56.37 1466,-31 1469.84,-30.14 1473.83,-29.11 1477.77,-27.99"/>
<polygon fill="midnightblue" stroke="midnightblue" points="1478.81,-31.33 1487.38,-25.11 1476.8,-24.63 1478.81,-31.33"/>
</g>
</g>
</svg>
        <g id="navigator" transform="translate(0 0)" fill="#404254">
                <rect fill="#f2f5e9" fill-opacity="0.5" stroke="#606060" stroke-width=".5" x="0" y="0" width="60" height="60"/>
                <use id="zoomplus" xlink:href="#zoomPlus" x="17" y="9" onmousedown="handleZoom(evt,'in')"/>
                <use id="zoomminus" xlink:href="#zoomMin" x="42" y="9" onmousedown="handleZoom(evt,'out')"/>
                <use id="reset" xlink:href="#resetDef" x="30" y="36" onmousedown="handleReset()"/>
                <g id="arrowUp" xlink:href="#dirArrow" transform="translate(30 24)" onmousedown="handlePan(0,-1)">
                  <use xlink:href="#rim" fill="#404040">
                        <set attributeName="fill" to="#808080" begin="arrowUp.mouseover" end="arrowUp.mouseout"/>
                  </use>
                  <path fill="none" stroke="white" stroke-width="1.5" d="M0,-3.0v7 M-2.5,-0.5L0,-3.0L2.5,-0.5"/>
                </g>
                <g id="arrowRight" xlink:href="#dirArrow" transform="rotate(90) translate(36 -43)" onmousedown="handlePan(1,0)">
                  <use xlink:href="#rim" fill="#404040">
                        <set attributeName="fill" to="#808080" begin="arrowRight.mouseover" end="arrowRight.mouseout"/>
                  </use>
                  <path fill="none" stroke="white" stroke-width="1.5" d="M0,-3.0v7 M-2.5,-0.5L0,-3.0L2.5,-0.5"/>
                </g>
                <g id="arrowDown" xlink:href="#dirArrow" transform="rotate(180) translate(-30 -48)" onmousedown="handlePan(0,1)">
                  <use xlink:href="#rim" fill="#404040">
                        <set attributeName="fill" to="#808080" begin="arrowDown.mouseover" end="arrowDown.mouseout"/>
                  </use>
                  <path fill="none" stroke="white" stroke-width="1.5" d="M0,-3.0v7 M-2.5,-0.5L0,-3.0L2.5,-0.5"/>
                </g>
                <g id="arrowLeft" xlink:href="#dirArrow" transform="rotate(270) translate(-36 17)" onmousedown="handlePan(-1,0)">
                  <use xlink:href="#rim" fill="#404040">
                        <set attributeName="fill" to="#808080" begin="arrowLeft.mouseover" end="arrowLeft.mouseout"/>
                  </use>
                  <path fill="none" stroke="white" stroke-width="1.5" d="M0,-3.0v7 M-2.5,-0.5L0,-3.0L2.5,-0.5"/>
                </g>
        </g>
        <svg viewBox="0 0 15 15" width="100%" height="30px" preserveAspectRatio="xMaxYMin meet">
         <g id="arrow_out" transform="scale(0.3 0.3)">
          <a xlink:href="Level2_8hpp__incl_org.svg" target="_base">
           <rect id="button" ry="5" rx="5" y="6" x="6" height="38" width="38"
                fill="#f2f5e9" fill-opacity="0.5" stroke="#606060" stroke-width="1.0"/>
           <path id="arrow"
             d="M 11.500037,31.436501 C 11.940474,20.09759 22.043105,11.32322 32.158766,21.979434 L 37.068811,17.246167 C 37.068811,17.246167 37.088388,32 37.088388,32 L 22.160133,31.978069 C 22.160133,31.978069 26.997745,27.140456 26.997745,27.140456 C 18.528582,18.264221 13.291696,25.230495 11.500037,31.436501 z"
             style="fill:#404040;"/>
          </a>
         </g>
        </svg>
</svg>
