<?xml version="1.0" encoding="UTF-8" standalone="no"?>
<!DOCTYPE svg PUBLIC "-//W3C//DTD SVG 1.1//EN"
 "http://www.w3.org/Graphics/SVG/1.1/DTD/svg11.dtd">
<!-- Generated by graphviz version 2.44.0 ()
 -->
<!-- Title: src/Game/Levels/Level.hpp Pages: 1 -->
<svg width="527pt" height="151pt"
 viewBox="0.00 0.00 526.50 151.00" xmlns="http://www.w3.org/2000/svg" xmlns:xlink="http://www.w3.org/1999/xlink">
<g id="graph0" class="graph" transform="scale(1 1) rotate(0) translate(4 147)">
<title>src/Game/Levels/Level.hpp</title>
<!-- Node1 -->
<g id="node1" class="node">
<title>Node1</title>
<g id="a_node1"><a xlink:title=" ">
<polygon fill="#bfbfbf" stroke="black" points="225.5,-123.5 225.5,-142.5 362.5,-142.5 362.5,-123.5 225.5,-123.5"/>
<text text-anchor="middle" x="294" y="-130.5" font-family="Helvetica,sans-Serif" font-size="10.00">src/Game/Levels/Level.hpp</text>
</a>
</g>
</g>
<!-- Node2 -->
<g id="node2" class="node">
<title>Node2</title>
<g id="a_node2"><a xlink:href="Level1_8hpp.html" target="_top" xlink:title=" ">
<polygon fill="none" stroke="black" points="63,-62 63,-81 205,-81 205,-62 63,-62"/>
<text text-anchor="middle" x="134" y="-69" font-family="Helvetica,sans-Serif" font-size="10.00">src/Game/Levels/Level1.hpp</text>
</a>
</g>
</g>
<!-- Node1&#45;&gt;Node2 -->
<g id="edge1" class="edge">
<title>Node1&#45;&gt;Node2</title>
<path fill="none" stroke="midnightblue" d="M261.55,-119.93C230.45,-108.37 184.31,-91.21 156.88,-81.01"/>
<polygon fill="midnightblue" stroke="midnightblue" points="260.48,-123.27 271.08,-123.48 262.92,-116.71 260.48,-123.27"/>
</g>
<!-- Node5 -->
<g id="node5" class="node">
<title>Node5</title>
<g id="a_node5"><a xlink:href="Level2_8hpp.html" target="_top" xlink:title=" ">
<polygon fill="none" stroke="black" points="223,-62 223,-81 365,-81 365,-62 223,-62"/>
<text text-anchor="middle" x="294" y="-69" font-family="Helvetica,sans-Serif" font-size="10.00">src/Game/Levels/Level2.hpp</text>
</a>
</g>
</g>
<!-- Node1&#45;&gt;Node5 -->
<g id="edge4" class="edge">
<title>Node1&#45;&gt;Node5</title>
<path fill="none" stroke="midnightblue" d="M294,-113.32C294,-102.5 294,-89.4 294,-81.01"/>
<polygon fill="midnightblue" stroke="midnightblue" points="290.5,-113.48 294,-123.48 297.5,-113.48 290.5,-113.48"/>
</g>
<!-- Node7 -->
<g id="node7" class="node">
<title>Node7</title>
<g id="a_node7"><a xlink:href="NetworkingClient_8cpp.html" target="_top" xlink:title=" ">
<polygon fill="none" stroke="black" points="383.5,-56.5 383.5,-86.5 518.5,-86.5 518.5,-56.5 383.5,-56.5"/>
<text text-anchor="start" x="391.5" y="-74.5" font-family="Helvetica,sans-Serif" font-size="10.00">src/Networking/Networking</text>
<text text-anchor="middle" x="451" y="-63.5" font-family="Helvetica,sans-Serif" font-size="10.00">Client.cpp</text>
</a>
</g>
</g>
<!-- Node1&#45;&gt;Node7 -->
<g id="edge7" class="edge">
<title>Node1&#45;&gt;Node7</title>
<path fill="none" stroke="midnightblue" d="M326.07,-119.85C351.57,-110.18 387.28,-96.65 414,-86.52"/>
<polygon fill="midnightblue" stroke="midnightblue" points="324.6,-116.66 316.49,-123.48 327.09,-123.2 324.6,-116.66"/>
</g>
<!-- Node3 -->
<g id="node3" class="node">
<title>Node3</title>
<g id="a_node3"><a xlink:href="Game_8cpp.html" target="_top" xlink:title=" ">
<polygon fill="none" stroke="black" points="160.5,-0.5 160.5,-19.5 267.5,-19.5 267.5,-0.5 160.5,-0.5"/>
<text text-anchor="middle" x="214" y="-7.5" font-family="Helvetica,sans-Serif" font-size="10.00">src/Game/Game.cpp</text>
</a>
</g>
</g>
<!-- Node2&#45;&gt;Node3 -->
<g id="edge2" class="edge">
<title>Node2&#45;&gt;Node3</title>
<path fill="none" stroke="midnightblue" d="M153.77,-55.79C169.12,-44.38 189.86,-28.96 202.56,-19.51"/>
<polygon fill="midnightblue" stroke="midnightblue" points="151.4,-53.2 145.46,-61.98 155.57,-58.82 151.4,-53.2"/>
</g>
<!-- Node4 -->
<g id="node4" class="node">
<title>Node4</title>
<g id="a_node4"><a xlink:href="Level1_8cpp.html" target="_top" xlink:title=" ">
<polygon fill="none" stroke="black" points="0,-0.5 0,-19.5 142,-19.5 142,-0.5 0,-0.5"/>
<text text-anchor="middle" x="71" y="-7.5" font-family="Helvetica,sans-Serif" font-size="10.00">src/Game/Levels/Level1.cpp</text>
</a>
</g>
</g>
<!-- Node2&#45;&gt;Node4 -->
<g id="edge3" class="edge">
<title>Node2&#45;&gt;Node4</title>
<path fill="none" stroke="midnightblue" d="M117.4,-54.82C105.43,-43.52 89.73,-28.69 80.01,-19.51"/>
<polygon fill="midnightblue" stroke="midnightblue" points="115.3,-57.65 124.97,-61.98 120.11,-52.56 115.3,-57.65"/>
</g>
<!-- Node5&#45;&gt;Node3 -->
<g id="edge5" class="edge">
<title>Node5&#45;&gt;Node3</title>
<path fill="none" stroke="midnightblue" d="M274.23,-55.79C258.88,-44.38 238.14,-28.96 225.44,-19.51"/>
<polygon fill="midnightblue" stroke="midnightblue" points="272.43,-58.82 282.54,-61.98 276.6,-53.2 272.43,-58.82"/>
</g>
<!-- Node6 -->
<g id="node6" class="node">
<title>Node6</title>
<g id="a_node6"><a xlink:href="Level2_8cpp.html" target="_top" xlink:title=" ">
<polygon fill="none" stroke="black" points="286,-0.5 286,-19.5 428,-19.5 428,-0.5 286,-0.5"/>
<text text-anchor="middle" x="357" y="-7.5" font-family="Helvetica,sans-Serif" font-size="10.00">src/Game/Levels/Level2.cpp</text>
</a>
</g>
</g>
<!-- Node5&#45;&gt;Node6 -->
<g id="edge6" class="edge">
<title>Node5&#45;&gt;Node6</title>
<path fill="none" stroke="midnightblue" d="M310.6,-54.82C322.57,-43.52 338.27,-28.69 347.99,-19.51"/>
<polygon fill="midnightblue" stroke="midnightblue" points="307.89,-52.56 303.03,-61.98 312.7,-57.65 307.89,-52.56"/>
</g>
</g>
</svg>
