<?xml version="1.0" encoding="UTF-8" standalone="no"?>
<!DOCTYPE svg PUBLIC "-//W3C//DTD SVG 1.1//EN"
 "http://www.w3.org/Graphics/SVG/1.1/DTD/svg11.dtd">
<!-- Generated by graphviz version 2.44.0 ()
 -->
<!-- Title: src/Game/Levels/Level.hpp Pages: 1 -->
<svg width="1059pt" height="285pt"
 viewBox="0.00 0.00 1058.50 285.00" xmlns="http://www.w3.org/2000/svg" xmlns:xlink="http://www.w3.org/1999/xlink">
<g id="graph0" class="graph" transform="scale(1 1) rotate(0) translate(4 281)">
<title>src/Game/Levels/Level.hpp</title>
<!-- Node1 -->
<g id="node1" class="node">
<title>Node1</title>
<g id="a_node1"><a xlink:title=" ">
<polygon fill="#bfbfbf" stroke="black" points="368.5,-257.5 368.5,-276.5 505.5,-276.5 505.5,-257.5 368.5,-257.5"/>
<text text-anchor="middle" x="437" y="-264.5" font-family="Helvetica,sans-Serif" font-size="10.00">src/Game/Levels/Level.hpp</text>
</a>
</g>
</g>
<!-- Node2 -->
<g id="node2" class="node">
<title>Node2</title>
<g id="a_node2"><a xlink:title=" ">
<polygon fill="none" stroke="#bfbfbf" points="0,-201.5 0,-220.5 62,-220.5 62,-201.5 0,-201.5"/>
<text text-anchor="middle" x="31" y="-208.5" font-family="Helvetica,sans-Serif" font-size="10.00">Scene.hpp</text>
</a>
</g>
</g>
<!-- Node1&#45;&gt;Node2 -->
<g id="edge1" class="edge">
<title>Node1&#45;&gt;Node2</title>
<path fill="none" stroke="midnightblue" d="M368.37,-259.75C296.63,-252.74 180.65,-240.01 72.16,-221.24"/>
<polygon fill="midnightblue" stroke="midnightblue" points="72.47,-217.74 62.02,-219.47 71.27,-224.64 72.47,-217.74"/>
</g>
<!-- Node3 -->
<g id="node3" class="node">
<title>Node3</title>
<g id="a_node3"><a xlink:href="Sprites_8hpp.html" target="_top" xlink:title=" ">
<polygon fill="none" stroke="black" points="79.5,-201.5 79.5,-220.5 190.5,-220.5 190.5,-201.5 79.5,-201.5"/>
<text text-anchor="middle" x="135" y="-208.5" font-family="Helvetica,sans-Serif" font-size="10.00">constants/Sprites.hpp</text>
</a>
</g>
</g>
<!-- Node1&#45;&gt;Node3 -->
<g id="edge2" class="edge">
<title>Node1&#45;&gt;Node3</title>
<path fill="none" stroke="midnightblue" d="M389.15,-257.44C335.8,-247.9 249.56,-232.48 192.56,-222.29"/>
<polygon fill="midnightblue" stroke="midnightblue" points="193.09,-218.83 182.63,-220.52 191.86,-225.72 193.09,-218.83"/>
</g>
<!-- Node5 -->
<g id="node5" class="node">
<title>Node5</title>
<g id="a_node5"><a xlink:title=" ">
<polygon fill="none" stroke="#bfbfbf" points="209,-201.5 209,-220.5 305,-220.5 305,-201.5 209,-201.5"/>
<text text-anchor="middle" x="257" y="-208.5" font-family="Helvetica,sans-Serif" font-size="10.00">Engine/Engine.hpp</text>
</a>
</g>
</g>
<!-- Node1&#45;&gt;Node5 -->
<g id="edge4" class="edge">
<title>Node1&#45;&gt;Node5</title>
<path fill="none" stroke="midnightblue" d="M408.48,-257.44C377.93,-248.28 329.29,-233.69 295.4,-223.52"/>
<polygon fill="midnightblue" stroke="midnightblue" points="295.97,-220.04 285.39,-220.52 293.96,-226.74 295.97,-220.04"/>
</g>
<!-- Node6 -->
<g id="node6" class="node">
<title>Node6</title>
<g id="a_node6"><a xlink:title=" ">
<polygon fill="none" stroke="#bfbfbf" points="323.5,-201.5 323.5,-220.5 432.5,-220.5 432.5,-201.5 323.5,-201.5"/>
<text text-anchor="middle" x="378" y="-208.5" font-family="Helvetica,sans-Serif" font-size="10.00">Utility/InputEnum.hpp</text>
</a>
</g>
</g>
<!-- Node1&#45;&gt;Node6 -->
<g id="edge5" class="edge">
<title>Node1&#45;&gt;Node6</title>
<path fill="none" stroke="midnightblue" d="M427.52,-257.32C418.8,-249.34 405.66,-237.31 395.1,-227.65"/>
<polygon fill="midnightblue" stroke="midnightblue" points="397.39,-225 387.65,-220.83 392.67,-230.17 397.39,-225"/>
</g>
<!-- Node7 -->
<g id="node7" class="node">
<title>Node7</title>
<g id="a_node7"><a xlink:title=" ">
<polygon fill="none" stroke="#bfbfbf" points="451,-201.5 451,-220.5 541,-220.5 541,-201.5 451,-201.5"/>
<text text-anchor="middle" x="496" y="-208.5" font-family="Helvetica,sans-Serif" font-size="10.00">AudioSource.hpp</text>
</a>
</g>
</g>
<!-- Node1&#45;&gt;Node7 -->
<g id="edge6" class="edge">
<title>Node1&#45;&gt;Node7</title>
<path fill="none" stroke="midnightblue" d="M446.48,-257.32C455.2,-249.34 468.34,-237.31 478.9,-227.65"/>
<polygon fill="midnightblue" stroke="midnightblue" points="481.33,-230.17 486.35,-220.83 476.61,-225 481.33,-230.17"/>
</g>
<!-- Node8 -->
<g id="node8" class="node">
<title>Node8</title>
<g id="a_node8"><a xlink:href="MarioBehaviour_8hpp.html" target="_top" xlink:title=" ">
<polygon fill="none" stroke="black" points="559,-201.5 559,-220.5 695,-220.5 695,-201.5 559,-201.5"/>
<text text-anchor="middle" x="627" y="-208.5" font-family="Helvetica,sans-Serif" font-size="10.00">Scripts/MarioBehaviour.hpp</text>
</a>
</g>
</g>
<!-- Node1&#45;&gt;Node8 -->
<g id="edge7" class="edge">
<title>Node1&#45;&gt;Node8</title>
<path fill="none" stroke="midnightblue" d="M467.11,-257.44C499.63,-248.2 551.58,-233.44 587.39,-223.26"/>
<polygon fill="midnightblue" stroke="midnightblue" points="588.37,-226.62 597.03,-220.52 586.46,-219.88 588.37,-226.62"/>
</g>
<!-- Node18 -->
<g id="node18" class="node">
<title>Node18</title>
<g id="a_node18"><a xlink:title=" ">
<polygon fill="none" stroke="#bfbfbf" points="713,-201.5 713,-220.5 871,-220.5 871,-201.5 713,-201.5"/>
<text text-anchor="middle" x="792" y="-208.5" font-family="Helvetica,sans-Serif" font-size="10.00">Director/GameObjectFactory.hpp</text>
</a>
</g>
</g>
<!-- Node1&#45;&gt;Node18 -->
<g id="edge18" class="edge">
<title>Node1&#45;&gt;Node18</title>
<path fill="none" stroke="midnightblue" d="M493.25,-257.44C556.48,-247.83 659.02,-232.23 725.99,-222.04"/>
<polygon fill="midnightblue" stroke="midnightblue" points="726.65,-225.48 736.01,-220.52 725.6,-218.56 726.65,-225.48"/>
</g>
<!-- Node19 -->
<g id="node19" class="node">
<title>Node19</title>
<g id="a_node19"><a xlink:title=" ">
<polygon fill="none" stroke="#bfbfbf" points="889.5,-201.5 889.5,-220.5 1050.5,-220.5 1050.5,-201.5 889.5,-201.5"/>
<text text-anchor="middle" x="970" y="-208.5" font-family="Helvetica,sans-Serif" font-size="10.00">Behaviour/CollisionBehaviour.hpp</text>
</a>
</g>
</g>
<!-- Node1&#45;&gt;Node19 -->
<g id="edge19" class="edge">
<title>Node1&#45;&gt;Node19</title>
<path fill="none" stroke="midnightblue" d="M505.59,-259.05C600.92,-249.39 773.66,-231.89 879.47,-221.17"/>
<polygon fill="midnightblue" stroke="midnightblue" points="879.9,-224.65 889.5,-220.16 879.19,-217.68 879.9,-224.65"/>
</g>
<!-- Node4 -->
<g id="node4" class="node">
<title>Node4</title>
<g id="a_node4"><a xlink:title=" ">
<polygon fill="none" stroke="#bfbfbf" points="114.5,-140 114.5,-159 155.5,-159 155.5,-140 114.5,-140"/>
<text text-anchor="middle" x="135" y="-147" font-family="Helvetica,sans-Serif" font-size="10.00">string</text>
</a>
</g>
</g>
<!-- Node3&#45;&gt;Node4 -->
<g id="edge3" class="edge">
<title>Node3&#45;&gt;Node4</title>
<path fill="none" stroke="midnightblue" d="M135,-201.48C135,-193.08 135,-179.98 135,-169.16"/>
<polygon fill="midnightblue" stroke="midnightblue" points="138.5,-169.01 135,-159.01 131.5,-169.01 138.5,-169.01"/>
</g>
<!-- Node9 -->
<g id="node9" class="node">
<title>Node9</title>
<g id="a_node9"><a xlink:title=" ">
<polygon fill="none" stroke="#bfbfbf" points="495,-140 495,-159 599,-159 599,-140 495,-140"/>
<text text-anchor="middle" x="547" y="-147" font-family="Helvetica,sans-Serif" font-size="10.00">BehaviourScript.hpp</text>
</a>
</g>
</g>
<!-- Node8&#45;&gt;Node9 -->
<g id="edge8" class="edge">
<title>Node8&#45;&gt;Node9</title>
<path fill="none" stroke="midnightblue" d="M615.54,-201.48C602.83,-192.02 582.09,-176.6 566.75,-165.19"/>
<polygon fill="midnightblue" stroke="midnightblue" points="568.55,-162.17 558.44,-159.01 564.38,-167.79 568.55,-162.17"/>
</g>
<!-- Node10 -->
<g id="node10" class="node">
<title>Node10</title>
<g id="a_node10"><a xlink:href="MarioState_8hpp.html" target="_top" xlink:title=" ">
<polygon fill="none" stroke="black" points="616.5,-67.5 616.5,-97.5 719.5,-97.5 719.5,-67.5 616.5,-67.5"/>
<text text-anchor="start" x="624.5" y="-85.5" font-family="Helvetica,sans-Serif" font-size="10.00">Scripts/MarioStates</text>
<text text-anchor="middle" x="668" y="-74.5" font-family="Helvetica,sans-Serif" font-size="10.00">/MarioState.hpp</text>
</a>
</g>
</g>
<!-- Node8&#45;&gt;Node10 -->
<g id="edge9" class="edge">
<title>Node8&#45;&gt;Node10</title>
<path fill="none" stroke="midnightblue" d="M628.66,-201.43C631.51,-187.22 637.85,-157.95 646,-134 649.05,-125.02 653.05,-115.42 656.79,-107.02"/>
<polygon fill="midnightblue" stroke="midnightblue" points="660.01,-108.38 661,-97.83 653.65,-105.47 660.01,-108.38"/>
</g>
<!-- Node17 -->
<g id="node17" class="node">
<title>Node17</title>
<g id="a_node17"><a xlink:href="SmallMarioState_8hpp.html" target="_top" xlink:title=" ">
<polygon fill="none" stroke="black" points="655,-134.5 655,-164.5 765,-164.5 765,-134.5 655,-134.5"/>
<text text-anchor="start" x="663" y="-152.5" font-family="Helvetica,sans-Serif" font-size="10.00">Scripts/MarioStates</text>
<text text-anchor="middle" x="710" y="-141.5" font-family="Helvetica,sans-Serif" font-size="10.00">/SmallMarioState.hpp</text>
</a>
</g>
</g>
<!-- Node8&#45;&gt;Node17 -->
<g id="edge16" class="edge">
<title>Node8&#45;&gt;Node17</title>
<path fill="none" stroke="midnightblue" d="M638.89,-201.48C650.13,-193.42 667.42,-181.02 682.14,-170.47"/>
<polygon fill="midnightblue" stroke="midnightblue" points="684.35,-173.19 690.44,-164.52 680.27,-167.5 684.35,-173.19"/>
</g>
<!-- Node11 -->
<g id="node11" class="node">
<title>Node11</title>
<g id="a_node11"><a xlink:title=" ">
<polygon fill="none" stroke="#bfbfbf" points="327.5,-0.5 327.5,-30.5 422.5,-30.5 422.5,-0.5 327.5,-0.5"/>
<text text-anchor="start" x="335.5" y="-18.5" font-family="Helvetica,sans-Serif" font-size="10.00">boost/serialization</text>
<text text-anchor="middle" x="375" y="-7.5" font-family="Helvetica,sans-Serif" font-size="10.00">/access.hpp</text>
</a>
</g>
</g>
<!-- Node10&#45;&gt;Node11 -->
<g id="edge10" class="edge">
<title>Node10&#45;&gt;Node11</title>
<path fill="none" stroke="midnightblue" d="M616.07,-71.11C570.22,-61.78 501.3,-47.4 432.73,-31.36"/>
<polygon fill="midnightblue" stroke="midnightblue" points="433.16,-27.86 422.62,-28.98 431.56,-34.68 433.16,-27.86"/>
</g>
<!-- Node12 -->
<g id="node12" class="node">
<title>Node12</title>
<g id="a_node12"><a xlink:title=" ">
<polygon fill="none" stroke="#bfbfbf" points="440.5,-0.5 440.5,-30.5 535.5,-30.5 535.5,-0.5 440.5,-0.5"/>
<text text-anchor="start" x="448.5" y="-18.5" font-family="Helvetica,sans-Serif" font-size="10.00">boost/serialization</text>
<text text-anchor="middle" x="488" y="-7.5" font-family="Helvetica,sans-Serif" font-size="10.00">/export.hpp</text>
</a>
</g>
</g>
<!-- Node10&#45;&gt;Node12 -->
<g id="edge11" class="edge">
<title>Node10&#45;&gt;Node12</title>
<path fill="none" stroke="midnightblue" d="M628.94,-67.4C601.82,-57.6 565.49,-44.48 536.5,-34.02"/>
<polygon fill="midnightblue" stroke="midnightblue" points="537.58,-30.68 526.98,-30.58 535.2,-37.26 537.58,-30.68"/>
</g>
<!-- Node13 -->
<g id="node13" class="node">
<title>Node13</title>
<g id="a_node13"><a xlink:title=" ">
<polygon fill="none" stroke="#bfbfbf" points="553.5,-0.5 553.5,-30.5 648.5,-30.5 648.5,-0.5 553.5,-0.5"/>
<text text-anchor="start" x="561.5" y="-18.5" font-family="Helvetica,sans-Serif" font-size="10.00">boost/serialization</text>
<text text-anchor="middle" x="601" y="-7.5" font-family="Helvetica,sans-Serif" font-size="10.00">/shared_ptr.hpp</text>
</a>
</g>
</g>
<!-- Node10&#45;&gt;Node13 -->
<g id="edge12" class="edge">
<title>Node10&#45;&gt;Node13</title>
<path fill="none" stroke="midnightblue" d="M653.46,-67.4C644.51,-58.71 632.86,-47.4 622.81,-37.66"/>
<polygon fill="midnightblue" stroke="midnightblue" points="625.12,-35.03 615.51,-30.58 620.25,-40.05 625.12,-35.03"/>
</g>
<!-- Node14 -->
<g id="node14" class="node">
<title>Node14</title>
<g id="a_node14"><a xlink:title=" ">
<polygon fill="none" stroke="#bfbfbf" points="666.5,-6 666.5,-25 803.5,-25 803.5,-6 666.5,-6"/>
<text text-anchor="middle" x="735" y="-13" font-family="Helvetica,sans-Serif" font-size="10.00">Texture/AnimatedSprite.hpp</text>
</a>
</g>
</g>
<!-- Node10&#45;&gt;Node14 -->
<g id="edge13" class="edge">
<title>Node10&#45;&gt;Node14</title>
<path fill="none" stroke="midnightblue" d="M682.54,-67.4C693.19,-57.06 707.66,-43.02 718.7,-32.31"/>
<polygon fill="midnightblue" stroke="midnightblue" points="721.3,-34.67 726.04,-25.19 716.42,-29.65 721.3,-34.67"/>
</g>
<!-- Node15 -->
<g id="node15" class="node">
<title>Node15</title>
<g id="a_node15"><a xlink:title=" ">
<polygon fill="none" stroke="#bfbfbf" points="821.5,-6 821.5,-25 878.5,-25 878.5,-6 821.5,-6"/>
<text text-anchor="middle" x="850" y="-13" font-family="Helvetica,sans-Serif" font-size="10.00">Point.hpp</text>
</a>
</g>
</g>
<!-- Node10&#45;&gt;Node15 -->
<g id="edge14" class="edge">
<title>Node10&#45;&gt;Node15</title>
<path fill="none" stroke="midnightblue" d="M709.72,-67.45C738.77,-57.54 778.37,-43.81 813,-31 814.89,-30.3 816.84,-29.57 818.79,-28.83"/>
<polygon fill="midnightblue" stroke="midnightblue" points="820.46,-31.94 828.53,-25.07 817.94,-25.4 820.46,-31.94"/>
</g>
<!-- Node16 -->
<g id="node16" class="node">
<title>Node16</title>
<g id="a_node16"><a xlink:title=" ">
<polygon fill="none" stroke="#bfbfbf" points="896.5,-6 896.5,-25 1005.5,-25 1005.5,-6 896.5,-6"/>
<text text-anchor="middle" x="951" y="-13" font-family="Helvetica,sans-Serif" font-size="10.00">Physics/Collision.hpp</text>
</a>
</g>
</g>
<!-- Node10&#45;&gt;Node16 -->
<g id="edge15" class="edge">
<title>Node10&#45;&gt;Node16</title>
<path fill="none" stroke="midnightblue" d="M719.57,-69.67C764.15,-59.44 830.33,-44.26 888,-31 893.26,-29.79 898.78,-28.52 904.25,-27.26"/>
<polygon fill="midnightblue" stroke="midnightblue" points="905.06,-30.67 914.02,-25.01 903.49,-23.85 905.06,-30.67"/>
</g>
<!-- Node17&#45;&gt;Node10 -->
<g id="edge17" class="edge">
<title>Node17&#45;&gt;Node10</title>
<path fill="none" stroke="midnightblue" d="M700.89,-134.4C695.55,-126.13 688.68,-115.51 682.6,-106.1"/>
<polygon fill="midnightblue" stroke="midnightblue" points="685.46,-104.08 677.1,-97.58 679.58,-107.88 685.46,-104.08"/>
</g>
</g>
</svg>
