<?xml version="1.0" encoding="UTF-8" standalone="no"?>
<!DOCTYPE svg PUBLIC "-//W3C//DTD SVG 1.1//EN"
 "http://www.w3.org/Graphics/SVG/1.1/DTD/svg11.dtd">
<!-- Generated by graphviz version 2.44.0 ()
 -->
<!-- Title: src/Game/Levels/MainMenu.cpp Pages: 1 -->
<svg width="1838pt" height="274pt"
 viewBox="0.00 0.00 1837.50 274.00" xmlns="http://www.w3.org/2000/svg" xmlns:xlink="http://www.w3.org/1999/xlink">
<g id="graph0" class="graph" transform="scale(1 1) rotate(0) translate(4 270)">
<title>src/Game/Levels/MainMenu.cpp</title>
<!-- Node1 -->
<g id="node1" class="node">
<title>Node1</title>
<g id="a_node1"><a xlink:title=" ">
<polygon fill="#bfbfbf" stroke="black" points="438,-246.5 438,-265.5 596,-265.5 596,-246.5 438,-246.5"/>
<text text-anchor="middle" x="517" y="-253.5" font-family="Helvetica,sans-Serif" font-size="10.00">src/Game/Levels/MainMenu.cpp</text>
</a>
</g>
</g>
<!-- Node2 -->
<g id="node2" class="node">
<title>Node2</title>
<g id="a_node2"><a xlink:href="MainMenu_8hpp.html" target="_top" xlink:title=" ">
<polygon fill="none" stroke="black" points="91,-190.5 91,-209.5 171,-209.5 171,-190.5 91,-190.5"/>
<text text-anchor="middle" x="131" y="-197.5" font-family="Helvetica,sans-Serif" font-size="10.00">MainMenu.hpp</text>
</a>
</g>
</g>
<!-- Node1&#45;&gt;Node2 -->
<g id="edge1" class="edge">
<title>Node1&#45;&gt;Node2</title>
<path fill="none" stroke="midnightblue" d="M455.84,-246.44C379.86,-235.81 251.66,-217.88 181.17,-208.02"/>
<polygon fill="midnightblue" stroke="midnightblue" points="181.59,-204.54 171.2,-206.62 180.62,-211.48 181.59,-204.54"/>
</g>
<!-- Node4 -->
<g id="node4" class="node">
<title>Node4</title>
<g id="a_node4"><a xlink:title=" ">
<polygon fill="none" stroke="#bfbfbf" points="80.5,-129 80.5,-148 181.5,-148 181.5,-129 80.5,-129"/>
<text text-anchor="middle" x="131" y="-136" font-family="Helvetica,sans-Serif" font-size="10.00">UI/FPSCounter.hpp</text>
</a>
</g>
</g>
<!-- Node1&#45;&gt;Node4 -->
<g id="edge40" class="edge">
<title>Node1&#45;&gt;Node4</title>
<path fill="none" stroke="midnightblue" d="M471.09,-246.49C430.45,-238.52 369.74,-225.52 318,-210 261.2,-192.96 196.88,-167.24 160.41,-152.04"/>
<polygon fill="midnightblue" stroke="midnightblue" points="161.46,-148.68 150.89,-148.04 158.75,-155.14 161.46,-148.68"/>
</g>
<!-- Node5 -->
<g id="node5" class="node">
<title>Node5</title>
<g id="a_node5"><a xlink:title=" ">
<polygon fill="none" stroke="#bfbfbf" points="327.5,-190.5 327.5,-209.5 488.5,-209.5 488.5,-190.5 327.5,-190.5"/>
<text text-anchor="middle" x="408" y="-197.5" font-family="Helvetica,sans-Serif" font-size="10.00">Behaviour/CollisionBehaviour.hpp</text>
</a>
</g>
</g>
<!-- Node1&#45;&gt;Node5 -->
<g id="edge4" class="edge">
<title>Node1&#45;&gt;Node5</title>
<path fill="none" stroke="midnightblue" d="M499.49,-246.32C481.93,-237.62 454.67,-224.12 434.47,-214.11"/>
<polygon fill="midnightblue" stroke="midnightblue" points="435.98,-210.96 425.47,-209.65 432.88,-217.23 435.98,-210.96"/>
</g>
<!-- Node6 -->
<g id="node6" class="node">
<title>Node6</title>
<g id="a_node6"><a xlink:title=" ">
<polygon fill="none" stroke="#bfbfbf" points="200,-129 200,-148 358,-148 358,-129 200,-129"/>
<text text-anchor="middle" x="279" y="-136" font-family="Helvetica,sans-Serif" font-size="10.00">Director/GameObjectFactory.hpp</text>
</a>
</g>
</g>
<!-- Node1&#45;&gt;Node6 -->
<g id="edge5" class="edge">
<title>Node1&#45;&gt;Node6</title>
<path fill="none" stroke="midnightblue" d="M516.94,-246.44C516.35,-232.5 513.07,-204.97 497,-190 485.24,-179.04 397.54,-161.14 337.02,-149.86"/>
<polygon fill="midnightblue" stroke="midnightblue" points="337.66,-146.41 327.19,-148.04 336.38,-153.3 337.66,-146.41"/>
</g>
<!-- Node7 -->
<g id="node7" class="node">
<title>Node7</title>
<g id="a_node7"><a xlink:title=" ">
<polygon fill="none" stroke="#bfbfbf" points="658,-190.5 658,-209.5 754,-209.5 754,-190.5 658,-190.5"/>
<text text-anchor="middle" x="706" y="-197.5" font-family="Helvetica,sans-Serif" font-size="10.00">Engine/Engine.hpp</text>
</a>
</g>
</g>
<!-- Node1&#45;&gt;Node7 -->
<g id="edge6" class="edge">
<title>Node1&#45;&gt;Node7</title>
<path fill="none" stroke="midnightblue" d="M546.95,-246.44C579.16,-237.24 630.53,-222.56 666.14,-212.39"/>
<polygon fill="midnightblue" stroke="midnightblue" points="667.54,-215.63 676.19,-209.52 665.62,-208.9 667.54,-215.63"/>
</g>
<!-- Node8 -->
<g id="node8" class="node">
<title>Node8</title>
<g id="a_node8"><a xlink:href="TileConfig_8hpp.html" target="_top" xlink:title=" ">
<polygon fill="none" stroke="black" points="562.5,-190.5 562.5,-209.5 639.5,-209.5 639.5,-190.5 562.5,-190.5"/>
<text text-anchor="middle" x="601" y="-197.5" font-family="Helvetica,sans-Serif" font-size="10.00">TileConfig.hpp</text>
</a>
</g>
</g>
<!-- Node1&#45;&gt;Node8 -->
<g id="edge7" class="edge">
<title>Node1&#45;&gt;Node8</title>
<path fill="none" stroke="midnightblue" d="M530.5,-246.32C543.6,-237.9 563.71,-224.97 579.11,-215.07"/>
<polygon fill="midnightblue" stroke="midnightblue" points="581.02,-218.01 587.54,-209.65 577.23,-212.12 581.02,-218.01"/>
</g>
<!-- Node31 -->
<g id="node31" class="node">
<title>Node31</title>
<g id="a_node31"><a xlink:title=" ">
<polygon fill="none" stroke="#bfbfbf" points="772,-190.5 772,-209.5 862,-209.5 862,-190.5 772,-190.5"/>
<text text-anchor="middle" x="817" y="-197.5" font-family="Helvetica,sans-Serif" font-size="10.00">AudioSource.hpp</text>
</a>
</g>
</g>
<!-- Node1&#45;&gt;Node31 -->
<g id="edge41" class="edge">
<title>Node1&#45;&gt;Node31</title>
<path fill="none" stroke="midnightblue" d="M564.54,-246.44C618.15,-236.79 705.22,-221.12 761.8,-210.94"/>
<polygon fill="midnightblue" stroke="midnightblue" points="762.43,-214.38 771.65,-209.16 761.19,-207.49 762.43,-214.38"/>
</g>
<!-- Node3 -->
<g id="node3" class="node">
<title>Node3</title>
<g id="a_node3"><a xlink:title=" ">
<polygon fill="none" stroke="#bfbfbf" points="0,-129 0,-148 62,-148 62,-129 0,-129"/>
<text text-anchor="middle" x="31" y="-136" font-family="Helvetica,sans-Serif" font-size="10.00">Scene.hpp</text>
</a>
</g>
</g>
<!-- Node2&#45;&gt;Node3 -->
<g id="edge2" class="edge">
<title>Node2&#45;&gt;Node3</title>
<path fill="none" stroke="midnightblue" d="M116.67,-190.48C100.34,-180.75 73.4,-164.73 54.09,-153.24"/>
<polygon fill="midnightblue" stroke="midnightblue" points="55.68,-150.11 45.3,-148.01 52.11,-156.13 55.68,-150.11"/>
</g>
<!-- Node2&#45;&gt;Node4 -->
<g id="edge3" class="edge">
<title>Node2&#45;&gt;Node4</title>
<path fill="none" stroke="midnightblue" d="M131,-190.48C131,-182.08 131,-168.98 131,-158.16"/>
<polygon fill="midnightblue" stroke="midnightblue" points="134.5,-158.01 131,-148.01 127.5,-158.01 134.5,-158.01"/>
</g>
<!-- Node8&#45;&gt;Node6 -->
<g id="edge13" class="edge">
<title>Node8&#45;&gt;Node6</title>
<path fill="none" stroke="midnightblue" d="M562.48,-191.88C505.99,-181.44 400.34,-161.92 335.19,-149.88"/>
<polygon fill="midnightblue" stroke="midnightblue" points="335.56,-146.39 325.09,-148.02 334.29,-153.28 335.56,-146.39"/>
</g>
<!-- Node9 -->
<g id="node9" class="node">
<title>Node9</title>
<g id="a_node9"><a xlink:title=" ">
<polygon fill="none" stroke="#bfbfbf" points="375.5,-129 375.5,-148 434.5,-148 434.5,-129 375.5,-129"/>
<text text-anchor="middle" x="405" y="-136" font-family="Helvetica,sans-Serif" font-size="10.00">functional</text>
</a>
</g>
</g>
<!-- Node8&#45;&gt;Node9 -->
<g id="edge8" class="edge">
<title>Node8&#45;&gt;Node9</title>
<path fill="none" stroke="midnightblue" d="M567.76,-190.44C535.61,-181.94 485.63,-168.17 443,-154 440.74,-153.25 438.41,-152.44 436.08,-151.61"/>
<polygon fill="midnightblue" stroke="midnightblue" points="437.18,-148.29 426.59,-148.11 434.76,-154.85 437.18,-148.29"/>
</g>
<!-- Node10 -->
<g id="node10" class="node">
<title>Node10</title>
<g id="a_node10"><a xlink:title=" ">
<polygon fill="none" stroke="#bfbfbf" points="452.5,-129 452.5,-148 487.5,-148 487.5,-129 452.5,-129"/>
<text text-anchor="middle" x="470" y="-136" font-family="Helvetica,sans-Serif" font-size="10.00">map</text>
</a>
</g>
</g>
<!-- Node8&#45;&gt;Node10 -->
<g id="edge9" class="edge">
<title>Node8&#45;&gt;Node10</title>
<path fill="none" stroke="midnightblue" d="M582.23,-190.48C559.9,-180.33 522.44,-163.32 497,-151.76"/>
<polygon fill="midnightblue" stroke="midnightblue" points="498.45,-148.58 487.89,-147.63 495.55,-154.95 498.45,-148.58"/>
</g>
<!-- Node11 -->
<g id="node11" class="node">
<title>Node11</title>
<g id="a_node11"><a xlink:title=" ">
<polygon fill="none" stroke="#bfbfbf" points="187.5,-6 187.5,-25 238.5,-25 238.5,-6 187.5,-6"/>
<text text-anchor="middle" x="213" y="-13" font-family="Helvetica,sans-Serif" font-size="10.00">memory</text>
</a>
</g>
</g>
<!-- Node8&#45;&gt;Node11 -->
<g id="edge10" class="edge">
<title>Node8&#45;&gt;Node11</title>
<path fill="none" stroke="midnightblue" d="M591.18,-190.46C573.29,-175.24 533.72,-143.13 496,-123 391.92,-67.45 356.63,-74.6 247,-31 245.4,-30.36 243.76,-29.7 242.11,-29.03"/>
<polygon fill="midnightblue" stroke="midnightblue" points="243.28,-25.72 232.71,-25.1 240.59,-32.18 243.28,-25.72"/>
</g>
<!-- Node12 -->
<g id="node12" class="node">
<title>Node12</title>
<g id="a_node12"><a xlink:title=" ">
<polygon fill="none" stroke="#bfbfbf" points="1367,-129 1367,-148 1519,-148 1519,-129 1367,-129"/>
<text text-anchor="middle" x="1443" y="-136" font-family="Helvetica,sans-Serif" font-size="10.00">Builder/GameObjectBuilder.hpp</text>
</a>
</g>
</g>
<!-- Node8&#45;&gt;Node12 -->
<g id="edge11" class="edge">
<title>Node8&#45;&gt;Node12</title>
<path fill="none" stroke="midnightblue" d="M639.7,-191.28C642.84,-190.8 645.97,-190.36 649,-190 962.32,-152.84 1044.38,-188.59 1358,-154 1368.04,-152.89 1378.7,-151.36 1388.95,-149.71"/>
<polygon fill="midnightblue" stroke="midnightblue" points="1389.74,-153.12 1399.02,-148.02 1388.58,-146.22 1389.74,-153.12"/>
</g>
<!-- Node13 -->
<g id="node13" class="node">
<title>Node13</title>
<g id="a_node13"><a xlink:title=" ">
<polygon fill="none" stroke="#bfbfbf" points="1537.5,-129 1537.5,-148 1662.5,-148 1662.5,-129 1537.5,-129"/>
<text text-anchor="middle" x="1600" y="-136" font-family="Helvetica,sans-Serif" font-size="10.00">Builder/SceneBuilder.hpp</text>
</a>
</g>
</g>
<!-- Node8&#45;&gt;Node13 -->
<g id="edge12" class="edge">
<title>Node8&#45;&gt;Node13</title>
<path fill="none" stroke="midnightblue" d="M639.7,-191.25C642.84,-190.77 645.97,-190.34 649,-190 1037.49,-145.86 1139.81,-200.74 1528,-154 1536.28,-153 1545.03,-151.57 1553.47,-149.99"/>
<polygon fill="midnightblue" stroke="midnightblue" points="1554.42,-153.37 1563.55,-148 1553.06,-146.5 1554.42,-153.37"/>
</g>
<!-- Node14 -->
<g id="node14" class="node">
<title>Node14</title>
<g id="a_node14"><a xlink:href="CoinBehaviour_8hpp.html" target="_top" xlink:title=" ">
<polygon fill="none" stroke="black" points="582.5,-129 582.5,-148 713.5,-148 713.5,-129 582.5,-129"/>
<text text-anchor="middle" x="648" y="-136" font-family="Helvetica,sans-Serif" font-size="10.00">Scripts/CoinBehaviour.hpp</text>
</a>
</g>
</g>
<!-- Node8&#45;&gt;Node14 -->
<g id="edge14" class="edge">
<title>Node8&#45;&gt;Node14</title>
<path fill="none" stroke="midnightblue" d="M607.73,-190.48C614.78,-181.55 626.03,-167.31 634.85,-156.14"/>
<polygon fill="midnightblue" stroke="midnightblue" points="637.83,-158.03 641.28,-148.01 632.33,-153.69 637.83,-158.03"/>
</g>
<!-- Node16 -->
<g id="node16" class="node">
<title>Node16</title>
<g id="a_node16"><a xlink:href="CoinCounter_8hpp.html" target="_top" xlink:title=" ">
<polygon fill="none" stroke="black" points="588.5,-67.5 588.5,-86.5 697.5,-86.5 697.5,-67.5 588.5,-67.5"/>
<text text-anchor="middle" x="643" y="-74.5" font-family="Helvetica,sans-Serif" font-size="10.00">../UI/CoinCounter.hpp</text>
</a>
</g>
</g>
<!-- Node8&#45;&gt;Node16 -->
<g id="edge33" class="edge">
<title>Node8&#45;&gt;Node16</title>
<path fill="none" stroke="midnightblue" d="M593.05,-190.21C580.93,-175.67 560.47,-145.96 573,-123 580.82,-108.68 595.36,-98.24 609.18,-91.04"/>
<polygon fill="midnightblue" stroke="midnightblue" points="611.02,-94.03 618.53,-86.56 608,-87.72 611.02,-94.03"/>
</g>
<!-- Node25 -->
<g id="node25" class="node">
<title>Node25</title>
<g id="a_node25"><a xlink:href="FlagBehaviour_8hpp.html" target="_top" xlink:title=" ">
<polygon fill="none" stroke="black" points="731.5,-129 731.5,-148 862.5,-148 862.5,-129 731.5,-129"/>
<text text-anchor="middle" x="797" y="-136" font-family="Helvetica,sans-Serif" font-size="10.00">Scripts/FlagBehaviour.hpp</text>
</a>
</g>
</g>
<!-- Node8&#45;&gt;Node25 -->
<g id="edge29" class="edge">
<title>Node8&#45;&gt;Node25</title>
<path fill="none" stroke="midnightblue" d="M629.08,-190.48C663.29,-180.09 721.2,-162.51 759.27,-150.95"/>
<polygon fill="midnightblue" stroke="midnightblue" points="760.42,-154.26 768.97,-148.01 758.38,-147.56 760.42,-154.26"/>
</g>
<!-- Node26 -->
<g id="node26" class="node">
<title>Node26</title>
<g id="a_node26"><a xlink:href="StarBehaviour_8hpp.html" target="_top" xlink:title=" ">
<polygon fill="none" stroke="black" points="881,-129 881,-148 1011,-148 1011,-129 881,-129"/>
<text text-anchor="middle" x="946" y="-136" font-family="Helvetica,sans-Serif" font-size="10.00">Scripts/StarBehaviour.hpp</text>
</a>
</g>
</g>
<!-- Node8&#45;&gt;Node26 -->
<g id="edge31" class="edge">
<title>Node8&#45;&gt;Node26</title>
<path fill="none" stroke="midnightblue" d="M639.76,-191.65C642.88,-191.08 645.99,-190.52 649,-190 747.9,-172.75 773.17,-171.65 872,-154 879.09,-152.73 886.55,-151.34 893.89,-149.94"/>
<polygon fill="midnightblue" stroke="midnightblue" points="894.63,-153.36 903.78,-148.03 893.3,-146.49 894.63,-153.36"/>
</g>
<!-- Node27 -->
<g id="node27" class="node">
<title>Node27</title>
<g id="a_node27"><a xlink:href="EnemyAttackBehaviour_8hpp.html" target="_top" xlink:title=" ">
<polygon fill="none" stroke="black" points="1029,-129 1029,-148 1199,-148 1199,-129 1029,-129"/>
<text text-anchor="middle" x="1114" y="-136" font-family="Helvetica,sans-Serif" font-size="10.00">Scripts/EnemyAttackBehaviour.hpp</text>
</a>
</g>
</g>
<!-- Node8&#45;&gt;Node27 -->
<g id="edge34" class="edge">
<title>Node8&#45;&gt;Node27</title>
<path fill="none" stroke="midnightblue" d="M639.72,-191.43C642.86,-190.92 645.98,-190.43 649,-190 813.02,-166.71 855.63,-174.64 1020,-154 1030.43,-152.69 1041.48,-151.14 1052.21,-149.54"/>
<polygon fill="midnightblue" stroke="midnightblue" points="1053,-152.96 1062.36,-148 1051.95,-146.04 1053,-152.96"/>
</g>
<!-- Node28 -->
<g id="node28" class="node">
<title>Node28</title>
<g id="a_node28"><a xlink:href="DynamicAnimationBehaviour_8hpp.html" target="_top" xlink:title=" ">
<polygon fill="none" stroke="black" points="1217.5,-123.5 1217.5,-153.5 1348.5,-153.5 1348.5,-123.5 1217.5,-123.5"/>
<text text-anchor="start" x="1225.5" y="-141.5" font-family="Helvetica,sans-Serif" font-size="10.00">Scripts/DynamicAnimation</text>
<text text-anchor="middle" x="1283" y="-130.5" font-family="Helvetica,sans-Serif" font-size="10.00">Behaviour.hpp</text>
</a>
</g>
</g>
<!-- Node8&#45;&gt;Node28 -->
<g id="edge36" class="edge">
<title>Node8&#45;&gt;Node28</title>
<path fill="none" stroke="midnightblue" d="M639.71,-191.33C642.85,-190.83 645.97,-190.38 649,-190 892.77,-159.41 959.32,-185 1207.19,-153.98"/>
<polygon fill="midnightblue" stroke="midnightblue" points="1207.75,-157.44 1217.23,-152.7 1206.86,-150.49 1207.75,-157.44"/>
</g>
<!-- Node30 -->
<g id="node30" class="node">
<title>Node30</title>
<g id="a_node30"><a xlink:title=" ">
<polygon fill="none" stroke="#bfbfbf" points="1680.5,-129 1680.5,-148 1829.5,-148 1829.5,-129 1680.5,-129"/>
<text text-anchor="middle" x="1755" y="-136" font-family="Helvetica,sans-Serif" font-size="10.00">Physics/ForceDrivenEntity.hpp</text>
</a>
</g>
</g>
<!-- Node8&#45;&gt;Node30 -->
<g id="edge39" class="edge">
<title>Node8&#45;&gt;Node30</title>
<path fill="none" stroke="midnightblue" d="M639.7,-191.23C642.84,-190.76 645.97,-190.34 649,-190 1101.19,-139.94 1219.51,-201.26 1672,-154 1682.04,-152.95 1692.7,-151.41 1702.91,-149.73"/>
<polygon fill="midnightblue" stroke="midnightblue" points="1703.67,-153.15 1712.93,-148.01 1702.49,-146.25 1703.67,-153.15"/>
</g>
<!-- Node15 -->
<g id="node15" class="node">
<title>Node15</title>
<g id="a_node15"><a xlink:title=" ">
<polygon fill="none" stroke="#bfbfbf" points="894,-67.5 894,-86.5 998,-86.5 998,-67.5 894,-67.5"/>
<text text-anchor="middle" x="946" y="-74.5" font-family="Helvetica,sans-Serif" font-size="10.00">BehaviourScript.hpp</text>
</a>
</g>
</g>
<!-- Node14&#45;&gt;Node15 -->
<g id="edge15" class="edge">
<title>Node14&#45;&gt;Node15</title>
<path fill="none" stroke="midnightblue" d="M690.7,-128.98C744.14,-118.3 835.65,-100.03 893.37,-88.51"/>
<polygon fill="midnightblue" stroke="midnightblue" points="894.26,-91.9 903.38,-86.51 892.89,-85.03 894.26,-91.9"/>
</g>
<!-- Node14&#45;&gt;Node16 -->
<g id="edge16" class="edge">
<title>Node14&#45;&gt;Node16</title>
<path fill="none" stroke="midnightblue" d="M647.28,-128.98C646.58,-120.58 645.48,-107.48 644.57,-96.66"/>
<polygon fill="midnightblue" stroke="midnightblue" points="648.04,-96.18 643.72,-86.51 641.06,-96.77 648.04,-96.18"/>
</g>
<!-- Node17 -->
<g id="node17" class="node">
<title>Node17</title>
<g id="a_node17"><a xlink:title=" ">
<polygon fill="none" stroke="#bfbfbf" points="256.5,-0.5 256.5,-30.5 351.5,-30.5 351.5,-0.5 256.5,-0.5"/>
<text text-anchor="start" x="264.5" y="-18.5" font-family="Helvetica,sans-Serif" font-size="10.00">boost/serialization</text>
<text text-anchor="middle" x="304" y="-7.5" font-family="Helvetica,sans-Serif" font-size="10.00">/access.hpp</text>
</a>
</g>
</g>
<!-- Node14&#45;&gt;Node17 -->
<g id="edge26" class="edge">
<title>Node14&#45;&gt;Node17</title>
<path fill="none" stroke="midnightblue" d="M636.61,-128.93C616.29,-114.06 571.98,-83.49 530,-67 461.45,-40.08 437.73,-47.75 361.61,-31.03"/>
<polygon fill="midnightblue" stroke="midnightblue" points="362.08,-27.55 351.55,-28.74 360.53,-34.37 362.08,-27.55"/>
</g>
<!-- Node18 -->
<g id="node18" class="node">
<title>Node18</title>
<g id="a_node18"><a xlink:title=" ">
<polygon fill="none" stroke="#bfbfbf" points="879.5,-0.5 879.5,-30.5 974.5,-30.5 974.5,-0.5 879.5,-0.5"/>
<text text-anchor="start" x="887.5" y="-18.5" font-family="Helvetica,sans-Serif" font-size="10.00">boost/serialization</text>
<text text-anchor="middle" x="927" y="-7.5" font-family="Helvetica,sans-Serif" font-size="10.00">/export.hpp</text>
</a>
</g>
</g>
<!-- Node14&#45;&gt;Node18 -->
<g id="edge27" class="edge">
<title>Node14&#45;&gt;Node18</title>
<path fill="none" stroke="midnightblue" d="M667.62,-128.99C712.59,-109.49 823.96,-61.19 885.12,-34.66"/>
<polygon fill="midnightblue" stroke="midnightblue" points="886.71,-37.79 894.49,-30.6 883.92,-31.37 886.71,-37.79"/>
</g>
<!-- Node19 -->
<g id="node19" class="node">
<title>Node19</title>
<g id="a_node19"><a xlink:title=" ">
<polygon fill="none" stroke="#bfbfbf" points="992.5,-0.5 992.5,-30.5 1087.5,-30.5 1087.5,-0.5 992.5,-0.5"/>
<text text-anchor="start" x="1000.5" y="-18.5" font-family="Helvetica,sans-Serif" font-size="10.00">boost/serialization</text>
<text text-anchor="middle" x="1040" y="-7.5" font-family="Helvetica,sans-Serif" font-size="10.00">/shared_ptr.hpp</text>
</a>
</g>
</g>
<!-- Node14&#45;&gt;Node19 -->
<g id="edge28" class="edge">
<title>Node14&#45;&gt;Node19</title>
<path fill="none" stroke="midnightblue" d="M675.56,-128.99C739.69,-109.2 899.85,-59.76 984.91,-33.51"/>
<polygon fill="midnightblue" stroke="midnightblue" points="986.12,-36.79 994.64,-30.5 984.06,-30.11 986.12,-36.79"/>
</g>
<!-- Node16&#45;&gt;Node11 -->
<g id="edge17" class="edge">
<title>Node16&#45;&gt;Node11</title>
<path fill="none" stroke="midnightblue" d="M588.45,-71.77C495.44,-64.22 310.14,-47.67 247,-31 244.64,-30.38 242.24,-29.62 239.85,-28.78"/>
<polygon fill="midnightblue" stroke="midnightblue" points="240.89,-25.43 230.3,-25.02 238.33,-31.95 240.89,-25.43"/>
</g>
<!-- Node16&#45;&gt;Node17 -->
<g id="edge18" class="edge">
<title>Node16&#45;&gt;Node17</title>
<path fill="none" stroke="midnightblue" d="M588.41,-68.79C533.52,-61.2 446.31,-48.23 361.32,-30.95"/>
<polygon fill="midnightblue" stroke="midnightblue" points="362.01,-27.52 351.51,-28.93 360.6,-34.37 362.01,-27.52"/>
</g>
<!-- Node16&#45;&gt;Node18 -->
<g id="edge19" class="edge">
<title>Node16&#45;&gt;Node18</title>
<path fill="none" stroke="midnightblue" d="M690.11,-67.42C733.97,-59.26 801.4,-46.29 869.42,-31.06"/>
<polygon fill="midnightblue" stroke="midnightblue" points="870.47,-34.41 879.46,-28.8 868.94,-27.58 870.47,-34.41"/>
</g>
<!-- Node16&#45;&gt;Node19 -->
<g id="edge20" class="edge">
<title>Node16&#45;&gt;Node19</title>
<path fill="none" stroke="midnightblue" d="M697.67,-70.87C763.25,-64.24 876.64,-51.33 982.54,-31.15"/>
<polygon fill="midnightblue" stroke="midnightblue" points="983.28,-34.57 992.43,-29.24 981.95,-27.7 983.28,-34.57"/>
</g>
<!-- Node20 -->
<g id="node20" class="node">
<title>Node20</title>
<g id="a_node20"><a xlink:title=" ">
<polygon fill="none" stroke="#bfbfbf" points="370,-0.5 370,-30.5 474,-30.5 474,-0.5 370,-0.5"/>
<text text-anchor="start" x="378" y="-18.5" font-family="Helvetica,sans-Serif" font-size="10.00">boost/archive/binary</text>
<text text-anchor="middle" x="422" y="-7.5" font-family="Helvetica,sans-Serif" font-size="10.00">_iarchive.hpp</text>
</a>
</g>
</g>
<!-- Node16&#45;&gt;Node20 -->
<g id="edge21" class="edge">
<title>Node16&#45;&gt;Node20</title>
<path fill="none" stroke="midnightblue" d="M611.34,-67.48C578.19,-58.55 525.29,-44.31 483.82,-33.14"/>
<polygon fill="midnightblue" stroke="midnightblue" points="484.65,-29.74 474.09,-30.52 482.83,-36.5 484.65,-29.74"/>
</g>
<!-- Node21 -->
<g id="node21" class="node">
<title>Node21</title>
<g id="a_node21"><a xlink:title=" ">
<polygon fill="none" stroke="#bfbfbf" points="492,-0.5 492,-30.5 596,-30.5 596,-0.5 492,-0.5"/>
<text text-anchor="start" x="500" y="-18.5" font-family="Helvetica,sans-Serif" font-size="10.00">boost/archive/binary</text>
<text text-anchor="middle" x="544" y="-7.5" font-family="Helvetica,sans-Serif" font-size="10.00">_oarchive.hpp</text>
</a>
</g>
</g>
<!-- Node16&#45;&gt;Node21 -->
<g id="edge22" class="edge">
<title>Node16&#45;&gt;Node21</title>
<path fill="none" stroke="midnightblue" d="M628.82,-67.48C615.16,-59.27 594.01,-46.56 576.25,-35.88"/>
<polygon fill="midnightblue" stroke="midnightblue" points="577.71,-32.67 567.33,-30.52 574.1,-38.67 577.71,-32.67"/>
</g>
<!-- Node22 -->
<g id="node22" class="node">
<title>Node22</title>
<g id="a_node22"><a xlink:title=" ">
<polygon fill="none" stroke="#bfbfbf" points="614.5,-6 614.5,-25 671.5,-25 671.5,-6 614.5,-6"/>
<text text-anchor="middle" x="643" y="-13" font-family="Helvetica,sans-Serif" font-size="10.00">Color.hpp</text>
</a>
</g>
</g>
<!-- Node16&#45;&gt;Node22 -->
<g id="edge23" class="edge">
<title>Node16&#45;&gt;Node22</title>
<path fill="none" stroke="midnightblue" d="M643,-67.48C643,-59.08 643,-45.98 643,-35.16"/>
<polygon fill="midnightblue" stroke="midnightblue" points="646.5,-35.01 643,-25.01 639.5,-35.01 646.5,-35.01"/>
</g>
<!-- Node23 -->
<g id="node23" class="node">
<title>Node23</title>
<g id="a_node23"><a xlink:title=" ">
<polygon fill="none" stroke="#bfbfbf" points="689.5,-6 689.5,-25 768.5,-25 768.5,-6 689.5,-6"/>
<text text-anchor="middle" x="729" y="-13" font-family="Helvetica,sans-Serif" font-size="10.00">Transform.hpp</text>
</a>
</g>
</g>
<!-- Node16&#45;&gt;Node23 -->
<g id="edge24" class="edge">
<title>Node16&#45;&gt;Node23</title>
<path fill="none" stroke="midnightblue" d="M655.32,-67.48C669.12,-57.93 691.7,-42.31 708.23,-30.87"/>
<polygon fill="midnightblue" stroke="midnightblue" points="710.47,-33.58 716.7,-25.01 706.49,-27.82 710.47,-33.58"/>
</g>
<!-- Node24 -->
<g id="node24" class="node">
<title>Node24</title>
<g id="a_node24"><a xlink:title=" ">
<polygon fill="none" stroke="#bfbfbf" points="787,-6 787,-25 861,-25 861,-6 787,-6"/>
<text text-anchor="middle" x="824" y="-13" font-family="Helvetica,sans-Serif" font-size="10.00">UIObject.hpp</text>
</a>
</g>
</g>
<!-- Node16&#45;&gt;Node24 -->
<g id="edge25" class="edge">
<title>Node16&#45;&gt;Node24</title>
<path fill="none" stroke="midnightblue" d="M668.93,-67.48C700.25,-57.18 753.09,-39.81 788.26,-28.25"/>
<polygon fill="midnightblue" stroke="midnightblue" points="789.71,-31.46 798.12,-25.01 787.52,-24.81 789.71,-31.46"/>
</g>
<!-- Node25&#45;&gt;Node15 -->
<g id="edge30" class="edge">
<title>Node25&#45;&gt;Node15</title>
<path fill="none" stroke="midnightblue" d="M818.35,-128.98C843.69,-118.86 886.14,-101.9 915.07,-90.35"/>
<polygon fill="midnightblue" stroke="midnightblue" points="916.7,-93.47 924.69,-86.51 914.11,-86.97 916.7,-93.47"/>
</g>
<!-- Node26&#45;&gt;Node15 -->
<g id="edge32" class="edge">
<title>Node26&#45;&gt;Node15</title>
<path fill="none" stroke="midnightblue" d="M946,-128.98C946,-120.58 946,-107.48 946,-96.66"/>
<polygon fill="midnightblue" stroke="midnightblue" points="949.5,-96.51 946,-86.51 942.5,-96.51 949.5,-96.51"/>
</g>
<!-- Node27&#45;&gt;Node15 -->
<g id="edge35" class="edge">
<title>Node27&#45;&gt;Node15</title>
<path fill="none" stroke="midnightblue" d="M1089.93,-128.98C1060.99,-118.72 1012.24,-101.46 979.6,-89.9"/>
<polygon fill="midnightblue" stroke="midnightblue" points="980.62,-86.55 970.03,-86.51 978.28,-93.15 980.62,-86.55"/>
</g>
<!-- Node28&#45;&gt;Node15 -->
<g id="edge37" class="edge">
<title>Node28&#45;&gt;Node15</title>
<path fill="none" stroke="midnightblue" d="M1217.16,-124.69C1214.07,-124.11 1211,-123.55 1208,-123 1139.54,-110.5 1060.84,-97.12 1007.7,-88.22"/>
<polygon fill="midnightblue" stroke="midnightblue" points="1008.2,-84.76 997.76,-86.56 1007.04,-91.66 1008.2,-84.76"/>
</g>
<!-- Node29 -->
<g id="node29" class="node">
<title>Node29</title>
<g id="a_node29"><a xlink:title=" ">
<polygon fill="none" stroke="#bfbfbf" points="1214.5,-67.5 1214.5,-86.5 1351.5,-86.5 1351.5,-67.5 1214.5,-67.5"/>
<text text-anchor="middle" x="1283" y="-74.5" font-family="Helvetica,sans-Serif" font-size="10.00">Texture/AnimatedSprite.hpp</text>
</a>
</g>
</g>
<!-- Node28&#45;&gt;Node29 -->
<g id="edge38" class="edge">
<title>Node28&#45;&gt;Node29</title>
<path fill="none" stroke="midnightblue" d="M1283,-123.4C1283,-115.47 1283,-105.46 1283,-96.86"/>
<polygon fill="midnightblue" stroke="midnightblue" points="1286.5,-96.66 1283,-86.66 1279.5,-96.66 1286.5,-96.66"/>
</g>
</g>
</svg>
