<svg xmlns="http://www.w3.org/2000/svg" xmlns:xlink="http://www.w3.org/1999/xlink" id="main" onload="init(evt)" version="1.1" xml:space="preserve"><style type="text/css">.edge:hover path{stroke:red}.edge:hover polygon{stroke:red;fill:red}</style><script type="text/javascript"><![CDATA[
var edges = document.getElementsByTagName('g');
if (edges && edges.length) {
  for (var i=0;i<edges.length;i++) {
    if (edges[i].id.substr(0,4)=='edge') {
      edges[i].setAttribute('class','edge');
    }
  }
}
]]></script><defs><circle id="rim" cx="0" cy="0" r="7"/><circle id="rim2" cx="0" cy="0" r="3.5"/><g id="zoomPlus"><use fill="#404040" xlink:href="#rim"><set attributeName="fill" begin="zoomplus.mouseover" end="zoomplus.mouseout" to="#808080"/></use><path fill="none" stroke="#fff" stroke-width="1.5" d="M-4,0h8M0,-4v8" pointer-events="none"/></g><g id="zoomMin"><use fill="#404040" xlink:href="#rim"><set attributeName="fill" begin="zoomminus.mouseover" end="zoomminus.mouseout" to="#808080"/></use><path fill="none" stroke="#fff" stroke-width="1.5" d="M-4,0h8" pointer-events="none"/></g><g id="dirArrow"><path fill="none" stroke="#fff" stroke-width="1.5" d="M0,-3.0v7 M-2.5,-0.5L0,-3.0L2.5,-0.5"/></g><g id="resetDef"><use fill="#404040" xlink:href="#rim2"><set attributeName="fill" begin="reset.mouseover" end="reset.mouseout" to="#808080"/></use></g></defs><script type="text/javascript">var viewWidth = 1838; var viewHeight = 274; var sectionId = &apos;dynsection-0&apos;;</script><script xlink:href="svgpan.js"/><svg id="graph" class="graph"><g id="viewport"><title>src/Game/Levels/MainMenu.cpp</title><g id="node1" class="node"><title>Node1</title><g id="a_node1"><a><polygon fill="#bfbfbf" stroke="#000" points="438 -246.5 438 -265.5 596 -265.5 596 -246.5 438 -246.5"/><text x="517" y="-253.5" font-family="Helvetica,sans-Serif" font-size="10" text-anchor="middle">src/Game/Levels/MainMenu.cpp</text></a></g></g><g id="node2" class="node"><title>Node2</title><g id="a_node2"><a target="_top" xlink:href="MainMenu_8hpp.html"><polygon fill="none" stroke="#000" points="91 -190.5 91 -209.5 171 -209.5 171 -190.5 91 -190.5"/><text x="131" y="-197.5" font-family="Helvetica,sans-Serif" font-size="10" text-anchor="middle">MainMenu.hpp</text></a></g></g><g id="edge1" class="edge"><title>Node1-&gt;Node2</title><path fill="none" stroke="#191970" d="M455.84,-246.44C379.86,-235.81 251.66,-217.88 181.17,-208.02"/><polygon fill="#191970" stroke="#191970" points="181.59 -204.54 171.2 -206.62 180.62 -211.48 181.59 -204.54"/></g><g id="node4" class="node"><title>Node4</title><g id="a_node4"><a><polygon fill="none" stroke="#bfbfbf" points="80.5 -129 80.5 -148 181.5 -148 181.5 -129 80.5 -129"/><text x="131" y="-136" font-family="Helvetica,sans-Serif" font-size="10" text-anchor="middle">UI/FPSCounter.hpp</text></a></g></g><g id="edge40" class="edge"><title>Node1-&gt;Node4</title><path fill="none" stroke="#191970" d="M471.09,-246.49C430.45,-238.52 369.74,-225.52 318,-210 261.2,-192.96 196.88,-167.24 160.41,-152.04"/><polygon fill="#191970" stroke="#191970" points="161.46 -148.68 150.89 -148.04 158.75 -155.14 161.46 -148.68"/></g><g id="node5" class="node"><title>Node5</title><g id="a_node5"><a><polygon fill="none" stroke="#bfbfbf" points="327.5 -190.5 327.5 -209.5 488.5 -209.5 488.5 -190.5 327.5 -190.5"/><text x="408" y="-197.5" font-family="Helvetica,sans-Serif" font-size="10" text-anchor="middle">Behaviour/CollisionBehaviour.hpp</text></a></g></g><g id="edge4" class="edge"><title>Node1-&gt;Node5</title><path fill="none" stroke="#191970" d="M499.49,-246.32C481.93,-237.62 454.67,-224.12 434.47,-214.11"/><polygon fill="#191970" stroke="#191970" points="435.98 -210.96 425.47 -209.65 432.88 -217.23 435.98 -210.96"/></g><g id="node6" class="node"><title>Node6</title><g id="a_node6"><a><polygon fill="none" stroke="#bfbfbf" points="200 -129 200 -148 358 -148 358 -129 200 -129"/><text x="279" y="-136" font-family="Helvetica,sans-Serif" font-size="10" text-anchor="middle">Director/GameObjectFactory.hpp</text></a></g></g><g id="edge5" class="edge"><title>Node1-&gt;Node6</title><path fill="none" stroke="#191970" d="M516.94,-246.44C516.35,-232.5 513.07,-204.97 497,-190 485.24,-179.04 397.54,-161.14 337.02,-149.86"/><polygon fill="#191970" stroke="#191970" points="337.66 -146.41 327.19 -148.04 336.38 -153.3 337.66 -146.41"/></g><g id="node7" class="node"><title>Node7</title><g id="a_node7"><a><polygon fill="none" stroke="#bfbfbf" points="658 -190.5 658 -209.5 754 -209.5 754 -190.5 658 -190.5"/><text x="706" y="-197.5" font-family="Helvetica,sans-Serif" font-size="10" text-anchor="middle">Engine/Engine.hpp</text></a></g></g><g id="edge6" class="edge"><title>Node1-&gt;Node7</title><path fill="none" stroke="#191970" d="M546.95,-246.44C579.16,-237.24 630.53,-222.56 666.14,-212.39"/><polygon fill="#191970" stroke="#191970" points="667.54 -215.63 676.19 -209.52 665.62 -208.9 667.54 -215.63"/></g><g id="node8" class="node"><title>Node8</title><g id="a_node8"><a target="_top" xlink:href="TileConfig_8hpp.html"><polygon fill="none" stroke="#000" points="562.5 -190.5 562.5 -209.5 639.5 -209.5 639.5 -190.5 562.5 -190.5"/><text x="601" y="-197.5" font-family="Helvetica,sans-Serif" font-size="10" text-anchor="middle">TileConfig.hpp</text></a></g></g><g id="edge7" class="edge"><title>Node1-&gt;Node8</title><path fill="none" stroke="#191970" d="M530.5,-246.32C543.6,-237.9 563.71,-224.97 579.11,-215.07"/><polygon fill="#191970" stroke="#191970" points="581.02 -218.01 587.54 -209.65 577.23 -212.12 581.02 -218.01"/></g><g id="node31" class="node"><title>Node31</title><g id="a_node31"><a><polygon fill="none" stroke="#bfbfbf" points="772 -190.5 772 -209.5 862 -209.5 862 -190.5 772 -190.5"/><text x="817" y="-197.5" font-family="Helvetica,sans-Serif" font-size="10" text-anchor="middle">AudioSource.hpp</text></a></g></g><g id="edge41" class="edge"><title>Node1-&gt;Node31</title><path fill="none" stroke="#191970" d="M564.54,-246.44C618.15,-236.79 705.22,-221.12 761.8,-210.94"/><polygon fill="#191970" stroke="#191970" points="762.43 -214.38 771.65 -209.16 761.19 -207.49 762.43 -214.38"/></g><g id="node3" class="node"><title>Node3</title><g id="a_node3"><a><polygon fill="none" stroke="#bfbfbf" points="0 -129 0 -148 62 -148 62 -129 0 -129"/><text x="31" y="-136" font-family="Helvetica,sans-Serif" font-size="10" text-anchor="middle">Scene.hpp</text></a></g></g><g id="edge2" class="edge"><title>Node2-&gt;Node3</title><path fill="none" stroke="#191970" d="M116.67,-190.48C100.34,-180.75 73.4,-164.73 54.09,-153.24"/><polygon fill="#191970" stroke="#191970" points="55.68 -150.11 45.3 -148.01 52.11 -156.13 55.68 -150.11"/></g><g id="edge3" class="edge"><title>Node2-&gt;Node4</title><path fill="none" stroke="#191970" d="M131,-190.48C131,-182.08 131,-168.98 131,-158.16"/><polygon fill="#191970" stroke="#191970" points="134.5 -158.01 131 -148.01 127.5 -158.01 134.5 -158.01"/></g><g id="edge13" class="edge"><title>Node8-&gt;Node6</title><path fill="none" stroke="#191970" d="M562.48,-191.88C505.99,-181.44 400.34,-161.92 335.19,-149.88"/><polygon fill="#191970" stroke="#191970" points="335.56 -146.39 325.09 -148.02 334.29 -153.28 335.56 -146.39"/></g><g id="node9" class="node"><title>Node9</title><g id="a_node9"><a><polygon fill="none" stroke="#bfbfbf" points="375.5 -129 375.5 -148 434.5 -148 434.5 -129 375.5 -129"/><text x="405" y="-136" font-family="Helvetica,sans-Serif" font-size="10" text-anchor="middle">functional</text></a></g></g><g id="edge8" class="edge"><title>Node8-&gt;Node9</title><path fill="none" stroke="#191970" d="M567.76,-190.44C535.61,-181.94 485.63,-168.17 443,-154 440.74,-153.25 438.41,-152.44 436.08,-151.61"/><polygon fill="#191970" stroke="#191970" points="437.18 -148.29 426.59 -148.11 434.76 -154.85 437.18 -148.29"/></g><g id="node10" class="node"><title>Node10</title><g id="a_node10"><a><polygon fill="none" stroke="#bfbfbf" points="452.5 -129 452.5 -148 487.5 -148 487.5 -129 452.5 -129"/><text x="470" y="-136" font-family="Helvetica,sans-Serif" font-size="10" text-anchor="middle">map</text></a></g></g><g id="edge9" class="edge"><title>Node8-&gt;Node10</title><path fill="none" stroke="#191970" d="M582.23,-190.48C559.9,-180.33 522.44,-163.32 497,-151.76"/><polygon fill="#191970" stroke="#191970" points="498.45 -148.58 487.89 -147.63 495.55 -154.95 498.45 -148.58"/></g><g id="node11" class="node"><title>Node11</title><g id="a_node11"><a><polygon fill="none" stroke="#bfbfbf" points="187.5 -6 187.5 -25 238.5 -25 238.5 -6 187.5 -6"/><text x="213" y="-13" font-family="Helvetica,sans-Serif" font-size="10" text-anchor="middle">memory</text></a></g></g><g id="edge10" class="edge"><title>Node8-&gt;Node11</title><path fill="none" stroke="#191970" d="M591.18,-190.46C573.29,-175.24 533.72,-143.13 496,-123 391.92,-67.45 356.63,-74.6 247,-31 245.4,-30.36 243.76,-29.7 242.11,-29.03"/><polygon fill="#191970" stroke="#191970" points="243.28 -25.72 232.71 -25.1 240.59 -32.18 243.28 -25.72"/></g><g id="node12" class="node"><title>Node12</title><g id="a_node12"><a><polygon fill="none" stroke="#bfbfbf" points="1367 -129 1367 -148 1519 -148 1519 -129 1367 -129"/><text x="1443" y="-136" font-family="Helvetica,sans-Serif" font-size="10" text-anchor="middle">Builder/GameObjectBuilder.hpp</text></a></g></g><g id="edge11" class="edge"><title>Node8-&gt;Node12</title><path fill="none" stroke="#191970" d="M639.7,-191.28C642.84,-190.8 645.97,-190.36 649,-190 962.32,-152.84 1044.38,-188.59 1358,-154 1368.04,-152.89 1378.7,-151.36 1388.95,-149.71"/><polygon fill="#191970" stroke="#191970" points="1389.74 -153.12 1399.02 -148.02 1388.58 -146.22 1389.74 -153.12"/></g><g id="node13" class="node"><title>Node13</title><g id="a_node13"><a><polygon fill="none" stroke="#bfbfbf" points="1537.5 -129 1537.5 -148 1662.5 -148 1662.5 -129 1537.5 -129"/><text x="1600" y="-136" font-family="Helvetica,sans-Serif" font-size="10" text-anchor="middle">Builder/SceneBuilder.hpp</text></a></g></g><g id="edge12" class="edge"><title>Node8-&gt;Node13</title><path fill="none" stroke="#191970" d="M639.7,-191.25C642.84,-190.77 645.97,-190.34 649,-190 1037.49,-145.86 1139.81,-200.74 1528,-154 1536.28,-153 1545.03,-151.57 1553.47,-149.99"/><polygon fill="#191970" stroke="#191970" points="1554.42 -153.37 1563.55 -148 1553.06 -146.5 1554.42 -153.37"/></g><g id="node14" class="node"><title>Node14</title><g id="a_node14"><a target="_top" xlink:href="CoinBehaviour_8hpp.html"><polygon fill="none" stroke="#000" points="582.5 -129 582.5 -148 713.5 -148 713.5 -129 582.5 -129"/><text x="648" y="-136" font-family="Helvetica,sans-Serif" font-size="10" text-anchor="middle">Scripts/CoinBehaviour.hpp</text></a></g></g><g id="edge14" class="edge"><title>Node8-&gt;Node14</title><path fill="none" stroke="#191970" d="M607.73,-190.48C614.78,-181.55 626.03,-167.31 634.85,-156.14"/><polygon fill="#191970" stroke="#191970" points="637.83 -158.03 641.28 -148.01 632.33 -153.69 637.83 -158.03"/></g><g id="node16" class="node"><title>Node16</title><g id="a_node16"><a target="_top" xlink:href="CoinCounter_8hpp.html"><polygon fill="none" stroke="#000" points="588.5 -67.5 588.5 -86.5 697.5 -86.5 697.5 -67.5 588.5 -67.5"/><text x="643" y="-74.5" font-family="Helvetica,sans-Serif" font-size="10" text-anchor="middle">../UI/CoinCounter.hpp</text></a></g></g><g id="edge33" class="edge"><title>Node8-&gt;Node16</title><path fill="none" stroke="#191970" d="M593.05,-190.21C580.93,-175.67 560.47,-145.96 573,-123 580.82,-108.68 595.36,-98.24 609.18,-91.04"/><polygon fill="#191970" stroke="#191970" points="611.02 -94.03 618.53 -86.56 608 -87.72 611.02 -94.03"/></g><g id="node25" class="node"><title>Node25</title><g id="a_node25"><a target="_top" xlink:href="FlagBehaviour_8hpp.html"><polygon fill="none" stroke="#000" points="731.5 -129 731.5 -148 862.5 -148 862.5 -129 731.5 -129"/><text x="797" y="-136" font-family="Helvetica,sans-Serif" font-size="10" text-anchor="middle">Scripts/FlagBehaviour.hpp</text></a></g></g><g id="edge29" class="edge"><title>Node8-&gt;Node25</title><path fill="none" stroke="#191970" d="M629.08,-190.48C663.29,-180.09 721.2,-162.51 759.27,-150.95"/><polygon fill="#191970" stroke="#191970" points="760.42 -154.26 768.97 -148.01 758.38 -147.56 760.42 -154.26"/></g><g id="node26" class="node"><title>Node26</title><g id="a_node26"><a target="_top" xlink:href="StarBehaviour_8hpp.html"><polygon fill="none" stroke="#000" points="881 -129 881 -148 1011 -148 1011 -129 881 -129"/><text x="946" y="-136" font-family="Helvetica,sans-Serif" font-size="10" text-anchor="middle">Scripts/StarBehaviour.hpp</text></a></g></g><g id="edge31" class="edge"><title>Node8-&gt;Node26</title><path fill="none" stroke="#191970" d="M639.76,-191.65C642.88,-191.08 645.99,-190.52 649,-190 747.9,-172.75 773.17,-171.65 872,-154 879.09,-152.73 886.55,-151.34 893.89,-149.94"/><polygon fill="#191970" stroke="#191970" points="894.63 -153.36 903.78 -148.03 893.3 -146.49 894.63 -153.36"/></g><g id="node27" class="node"><title>Node27</title><g id="a_node27"><a target="_top" xlink:href="EnemyAttackBehaviour_8hpp.html"><polygon fill="none" stroke="#000" points="1029 -129 1029 -148 1199 -148 1199 -129 1029 -129"/><text x="1114" y="-136" font-family="Helvetica,sans-Serif" font-size="10" text-anchor="middle">Scripts/EnemyAttackBehaviour.hpp</text></a></g></g><g id="edge34" class="edge"><title>Node8-&gt;Node27</title><path fill="none" stroke="#191970" d="M639.72,-191.43C642.86,-190.92 645.98,-190.43 649,-190 813.02,-166.71 855.63,-174.64 1020,-154 1030.43,-152.69 1041.48,-151.14 1052.21,-149.54"/><polygon fill="#191970" stroke="#191970" points="1053 -152.96 1062.36 -148 1051.95 -146.04 1053 -152.96"/></g><g id="node28" class="node"><title>Node28</title><g id="a_node28"><a target="_top" xlink:href="DynamicAnimationBehaviour_8hpp.html"><polygon fill="none" stroke="#000" points="1217.5 -123.5 1217.5 -153.5 1348.5 -153.5 1348.5 -123.5 1217.5 -123.5"/><text x="1225.5" y="-141.5" font-family="Helvetica,sans-Serif" font-size="10" text-anchor="start">Scripts/DynamicAnimation</text><text x="1283" y="-130.5" font-family="Helvetica,sans-Serif" font-size="10" text-anchor="middle">Behaviour.hpp</text></a></g></g><g id="edge36" class="edge"><title>Node8-&gt;Node28</title><path fill="none" stroke="#191970" d="M639.71,-191.33C642.85,-190.83 645.97,-190.38 649,-190 892.77,-159.41 959.32,-185 1207.19,-153.98"/><polygon fill="#191970" stroke="#191970" points="1207.75 -157.44 1217.23 -152.7 1206.86 -150.49 1207.75 -157.44"/></g><g id="node30" class="node"><title>Node30</title><g id="a_node30"><a><polygon fill="none" stroke="#bfbfbf" points="1680.5 -129 1680.5 -148 1829.5 -148 1829.5 -129 1680.5 -129"/><text x="1755" y="-136" font-family="Helvetica,sans-Serif" font-size="10" text-anchor="middle">Physics/ForceDrivenEntity.hpp</text></a></g></g><g id="edge39" class="edge"><title>Node8-&gt;Node30</title><path fill="none" stroke="#191970" d="M639.7,-191.23C642.84,-190.76 645.97,-190.34 649,-190 1101.19,-139.94 1219.51,-201.26 1672,-154 1682.04,-152.95 1692.7,-151.41 1702.91,-149.73"/><polygon fill="#191970" stroke="#191970" points="1703.67 -153.15 1712.93 -148.01 1702.49 -146.25 1703.67 -153.15"/></g><g id="node15" class="node"><title>Node15</title><g id="a_node15"><a><polygon fill="none" stroke="#bfbfbf" points="894 -67.5 894 -86.5 998 -86.5 998 -67.5 894 -67.5"/><text x="946" y="-74.5" font-family="Helvetica,sans-Serif" font-size="10" text-anchor="middle">BehaviourScript.hpp</text></a></g></g><g id="edge15" class="edge"><title>Node14-&gt;Node15</title><path fill="none" stroke="#191970" d="M690.7,-128.98C744.14,-118.3 835.65,-100.03 893.37,-88.51"/><polygon fill="#191970" stroke="#191970" points="894.26 -91.9 903.38 -86.51 892.89 -85.03 894.26 -91.9"/></g><g id="edge16" class="edge"><title>Node14-&gt;Node16</title><path fill="none" stroke="#191970" d="M647.28,-128.98C646.58,-120.58 645.48,-107.48 644.57,-96.66"/><polygon fill="#191970" stroke="#191970" points="648.04 -96.18 643.72 -86.51 641.06 -96.77 648.04 -96.18"/></g><g id="node17" class="node"><title>Node17</title><g id="a_node17"><a><polygon fill="none" stroke="#bfbfbf" points="256.5 -.5 256.5 -30.5 351.5 -30.5 351.5 -.5 256.5 -.5"/><text x="264.5" y="-18.5" font-family="Helvetica,sans-Serif" font-size="10" text-anchor="start">boost/serialization</text><text x="304" y="-7.5" font-family="Helvetica,sans-Serif" font-size="10" text-anchor="middle">/access.hpp</text></a></g></g><g id="edge26" class="edge"><title>Node14-&gt;Node17</title><path fill="none" stroke="#191970" d="M636.61,-128.93C616.29,-114.06 571.98,-83.49 530,-67 461.45,-40.08 437.73,-47.75 361.61,-31.03"/><polygon fill="#191970" stroke="#191970" points="362.08 -27.55 351.55 -28.74 360.53 -34.37 362.08 -27.55"/></g><g id="node18" class="node"><title>Node18</title><g id="a_node18"><a><polygon fill="none" stroke="#bfbfbf" points="879.5 -.5 879.5 -30.5 974.5 -30.5 974.5 -.5 879.5 -.5"/><text x="887.5" y="-18.5" font-family="Helvetica,sans-Serif" font-size="10" text-anchor="start">boost/serialization</text><text x="927" y="-7.5" font-family="Helvetica,sans-Serif" font-size="10" text-anchor="middle">/export.hpp</text></a></g></g><g id="edge27" class="edge"><title>Node14-&gt;Node18</title><path fill="none" stroke="#191970" d="M667.62,-128.99C712.59,-109.49 823.96,-61.19 885.12,-34.66"/><polygon fill="#191970" stroke="#191970" points="886.71 -37.79 894.49 -30.6 883.92 -31.37 886.71 -37.79"/></g><g id="node19" class="node"><title>Node19</title><g id="a_node19"><a><polygon fill="none" stroke="#bfbfbf" points="992.5 -.5 992.5 -30.5 1087.5 -30.5 1087.5 -.5 992.5 -.5"/><text x="1000.5" y="-18.5" font-family="Helvetica,sans-Serif" font-size="10" text-anchor="start">boost/serialization</text><text x="1040" y="-7.5" font-family="Helvetica,sans-Serif" font-size="10" text-anchor="middle">/shared_ptr.hpp</text></a></g></g><g id="edge28" class="edge"><title>Node14-&gt;Node19</title><path fill="none" stroke="#191970" d="M675.56,-128.99C739.69,-109.2 899.85,-59.76 984.91,-33.51"/><polygon fill="#191970" stroke="#191970" points="986.12 -36.79 994.64 -30.5 984.06 -30.11 986.12 -36.79"/></g><g id="edge17" class="edge"><title>Node16-&gt;Node11</title><path fill="none" stroke="#191970" d="M588.45,-71.77C495.44,-64.22 310.14,-47.67 247,-31 244.64,-30.38 242.24,-29.62 239.85,-28.78"/><polygon fill="#191970" stroke="#191970" points="240.89 -25.43 230.3 -25.02 238.33 -31.95 240.89 -25.43"/></g><g id="edge18" class="edge"><title>Node16-&gt;Node17</title><path fill="none" stroke="#191970" d="M588.41,-68.79C533.52,-61.2 446.31,-48.23 361.32,-30.95"/><polygon fill="#191970" stroke="#191970" points="362.01 -27.52 351.51 -28.93 360.6 -34.37 362.01 -27.52"/></g><g id="edge19" class="edge"><title>Node16-&gt;Node18</title><path fill="none" stroke="#191970" d="M690.11,-67.42C733.97,-59.26 801.4,-46.29 869.42,-31.06"/><polygon fill="#191970" stroke="#191970" points="870.47 -34.41 879.46 -28.8 868.94 -27.58 870.47 -34.41"/></g><g id="edge20" class="edge"><title>Node16-&gt;Node19</title><path fill="none" stroke="#191970" d="M697.67,-70.87C763.25,-64.24 876.64,-51.33 982.54,-31.15"/><polygon fill="#191970" stroke="#191970" points="983.28 -34.57 992.43 -29.24 981.95 -27.7 983.28 -34.57"/></g><g id="node20" class="node"><title>Node20</title><g id="a_node20"><a><polygon fill="none" stroke="#bfbfbf" points="370 -.5 370 -30.5 474 -30.5 474 -.5 370 -.5"/><text x="378" y="-18.5" font-family="Helvetica,sans-Serif" font-size="10" text-anchor="start">boost/archive/binary</text><text x="422" y="-7.5" font-family="Helvetica,sans-Serif" font-size="10" text-anchor="middle">_iarchive.hpp</text></a></g></g><g id="edge21" class="edge"><title>Node16-&gt;Node20</title><path fill="none" stroke="#191970" d="M611.34,-67.48C578.19,-58.55 525.29,-44.31 483.82,-33.14"/><polygon fill="#191970" stroke="#191970" points="484.65 -29.74 474.09 -30.52 482.83 -36.5 484.65 -29.74"/></g><g id="node21" class="node"><title>Node21</title><g id="a_node21"><a><polygon fill="none" stroke="#bfbfbf" points="492 -.5 492 -30.5 596 -30.5 596 -.5 492 -.5"/><text x="500" y="-18.5" font-family="Helvetica,sans-Serif" font-size="10" text-anchor="start">boost/archive/binary</text><text x="544" y="-7.5" font-family="Helvetica,sans-Serif" font-size="10" text-anchor="middle">_oarchive.hpp</text></a></g></g><g id="edge22" class="edge"><title>Node16-&gt;Node21</title><path fill="none" stroke="#191970" d="M628.82,-67.48C615.16,-59.27 594.01,-46.56 576.25,-35.88"/><polygon fill="#191970" stroke="#191970" points="577.71 -32.67 567.33 -30.52 574.1 -38.67 577.71 -32.67"/></g><g id="node22" class="node"><title>Node22</title><g id="a_node22"><a><polygon fill="none" stroke="#bfbfbf" points="614.5 -6 614.5 -25 671.5 -25 671.5 -6 614.5 -6"/><text x="643" y="-13" font-family="Helvetica,sans-Serif" font-size="10" text-anchor="middle">Color.hpp</text></a></g></g><g id="edge23" class="edge"><title>Node16-&gt;Node22</title><path fill="none" stroke="#191970" d="M643,-67.48C643,-59.08 643,-45.98 643,-35.16"/><polygon fill="#191970" stroke="#191970" points="646.5 -35.01 643 -25.01 639.5 -35.01 646.5 -35.01"/></g><g id="node23" class="node"><title>Node23</title><g id="a_node23"><a><polygon fill="none" stroke="#bfbfbf" points="689.5 -6 689.5 -25 768.5 -25 768.5 -6 689.5 -6"/><text x="729" y="-13" font-family="Helvetica,sans-Serif" font-size="10" text-anchor="middle">Transform.hpp</text></a></g></g><g id="edge24" class="edge"><title>Node16-&gt;Node23</title><path fill="none" stroke="#191970" d="M655.32,-67.48C669.12,-57.93 691.7,-42.31 708.23,-30.87"/><polygon fill="#191970" stroke="#191970" points="710.47 -33.58 716.7 -25.01 706.49 -27.82 710.47 -33.58"/></g><g id="node24" class="node"><title>Node24</title><g id="a_node24"><a><polygon fill="none" stroke="#bfbfbf" points="787 -6 787 -25 861 -25 861 -6 787 -6"/><text x="824" y="-13" font-family="Helvetica,sans-Serif" font-size="10" text-anchor="middle">UIObject.hpp</text></a></g></g><g id="edge25" class="edge"><title>Node16-&gt;Node24</title><path fill="none" stroke="#191970" d="M668.93,-67.48C700.25,-57.18 753.09,-39.81 788.26,-28.25"/><polygon fill="#191970" stroke="#191970" points="789.71 -31.46 798.12 -25.01 787.52 -24.81 789.71 -31.46"/></g><g id="edge30" class="edge"><title>Node25-&gt;Node15</title><path fill="none" stroke="#191970" d="M818.35,-128.98C843.69,-118.86 886.14,-101.9 915.07,-90.35"/><polygon fill="#191970" stroke="#191970" points="916.7 -93.47 924.69 -86.51 914.11 -86.97 916.7 -93.47"/></g><g id="edge32" class="edge"><title>Node26-&gt;Node15</title><path fill="none" stroke="#191970" d="M946,-128.98C946,-120.58 946,-107.48 946,-96.66"/><polygon fill="#191970" stroke="#191970" points="949.5 -96.51 946 -86.51 942.5 -96.51 949.5 -96.51"/></g><g id="edge35" class="edge"><title>Node27-&gt;Node15</title><path fill="none" stroke="#191970" d="M1089.93,-128.98C1060.99,-118.72 1012.24,-101.46 979.6,-89.9"/><polygon fill="#191970" stroke="#191970" points="980.62 -86.55 970.03 -86.51 978.28 -93.15 980.62 -86.55"/></g><g id="edge37" class="edge"><title>Node28-&gt;Node15</title><path fill="none" stroke="#191970" d="M1217.16,-124.69C1214.07,-124.11 1211,-123.55 1208,-123 1139.54,-110.5 1060.84,-97.12 1007.7,-88.22"/><polygon fill="#191970" stroke="#191970" points="1008.2 -84.76 997.76 -86.56 1007.04 -91.66 1008.2 -84.76"/></g><g id="node29" class="node"><title>Node29</title><g id="a_node29"><a><polygon fill="none" stroke="#bfbfbf" points="1214.5 -67.5 1214.5 -86.5 1351.5 -86.5 1351.5 -67.5 1214.5 -67.5"/><text x="1283" y="-74.5" font-family="Helvetica,sans-Serif" font-size="10" text-anchor="middle">Texture/AnimatedSprite.hpp</text></a></g></g><g id="edge38" class="edge"><title>Node28-&gt;Node29</title><path fill="none" stroke="#191970" d="M1283,-123.4C1283,-115.47 1283,-105.46 1283,-96.86"/><polygon fill="#191970" stroke="#191970" points="1286.5 -96.66 1283 -86.66 1279.5 -96.66 1286.5 -96.66"/></g></g></svg><g id="navigator" fill="#404254" transform="translate(0 0)"><rect width="60" height="60" x="0" y="0" fill="#f2f5e9" fill-opacity=".5" stroke="#606060" stroke-width=".5"/><use id="zoomplus" x="17" y="9" onmousedown="handleZoom(evt,'in')" xlink:href="#zoomPlus"/><use id="zoomminus" x="42" y="9" onmousedown="handleZoom(evt,'out')" xlink:href="#zoomMin"/><use id="reset" x="30" y="36" onmousedown="handleReset()" xlink:href="#resetDef"/><g id="arrowUp" onmousedown="handlePan(0,-1)" transform="translate(30 24)" xlink:href="#dirArrow"><use fill="#404040" xlink:href="#rim"><set attributeName="fill" begin="arrowUp.mouseover" end="arrowUp.mouseout" to="#808080"/></use><path fill="none" stroke="#fff" stroke-width="1.5" d="M0,-3.0v7 M-2.5,-0.5L0,-3.0L2.5,-0.5"/></g><g id="arrowRight" onmousedown="handlePan(1,0)" transform="rotate(90) translate(36 -43)" xlink:href="#dirArrow"><use fill="#404040" xlink:href="#rim"><set attributeName="fill" begin="arrowRight.mouseover" end="arrowRight.mouseout" to="#808080"/></use><path fill="none" stroke="#fff" stroke-width="1.5" d="M0,-3.0v7 M-2.5,-0.5L0,-3.0L2.5,-0.5"/></g><g id="arrowDown" onmousedown="handlePan(0,1)" transform="rotate(180) translate(-30 -48)" xlink:href="#dirArrow"><use fill="#404040" xlink:href="#rim"><set attributeName="fill" begin="arrowDown.mouseover" end="arrowDown.mouseout" to="#808080"/></use><path fill="none" stroke="#fff" stroke-width="1.5" d="M0,-3.0v7 M-2.5,-0.5L0,-3.0L2.5,-0.5"/></g><g id="arrowLeft" onmousedown="handlePan(-1,0)" transform="rotate(270) translate(-36 17)" xlink:href="#dirArrow"><use fill="#404040" xlink:href="#rim"><set attributeName="fill" begin="arrowLeft.mouseover" end="arrowLeft.mouseout" to="#808080"/></use><path fill="none" stroke="#fff" stroke-width="1.5" d="M0,-3.0v7 M-2.5,-0.5L0,-3.0L2.5,-0.5"/></g></g><svg width="100%" height="30" preserveAspectRatio="xMaxYMin meet" viewBox="0 0 15 15"><g id="arrow_out" transform="scale(0.3 0.3)"><a target="_base" xlink:href="MainMenu_8cpp__incl_org.svg"><rect id="button" width="38" height="38" x="6" y="6" fill="#f2f5e9" fill-opacity=".5" stroke="#606060" stroke-width="1" rx="5" ry="5"/><path id="arrow" d="M 11.500037,31.436501 C 11.940474,20.09759 22.043105,11.32322 32.158766,21.979434 L 37.068811,17.246167 C 37.068811,17.246167 37.088388,32 37.088388,32 L 22.160133,31.978069 C 22.160133,31.978069 26.997745,27.140456 26.997745,27.140456 C 18.528582,18.264221 13.291696,25.230495 11.500037,31.436501 z" style="fill:#404040"/></a></g></svg></svg>