<svg xmlns="http://www.w3.org/2000/svg" xmlns:xlink="http://www.w3.org/1999/xlink" width="190pt" height="112" viewBox="0 0 189.5 84"><g id="graph0" class="graph" transform="scale(1 1) rotate(0) translate(4 80)"><title>src/Game/Levels/MainMenu.hpp</title><g id="node1" class="node"><title>Node1</title><g id="a_node1"><a><polygon fill="#bfbfbf" stroke="#000" points="2 -56.5 2 -75.5 160 -75.5 160 -56.5 2 -56.5"/><text x="81" y="-63.5" font-family="Helvetica,sans-Serif" font-size="10" text-anchor="middle">src/Game/Levels/MainMenu.hpp</text></a></g></g><g id="node2" class="node"><title>Node2</title><g id="a_node2"><a><polygon fill="none" stroke="#bfbfbf" points="0 -.5 0 -19.5 62 -19.5 62 -.5 0 -.5"/><text x="31" y="-7.5" font-family="Helvetica,sans-Serif" font-size="10" text-anchor="middle">Scene.hpp</text></a></g></g><g id="edge1" class="edge"><title>Node1-&gt;Node2</title><path fill="none" stroke="#191970" d="M72.74,-56.08C65.54,-48.3 54.89,-36.8 46.15,-27.37"/><polygon fill="#191970" stroke="#191970" points="48.47 -24.71 39.1 -19.75 43.33 -29.47 48.47 -24.71"/></g><g id="node3" class="node"><title>Node3</title><g id="a_node3"><a><polygon fill="none" stroke="#bfbfbf" points="80.5 -.5 80.5 -19.5 181.5 -19.5 181.5 -.5 80.5 -.5"/><text x="131" y="-7.5" font-family="Helvetica,sans-Serif" font-size="10" text-anchor="middle">UI/FPSCounter.hpp</text></a></g></g><g id="edge2" class="edge"><title>Node1-&gt;Node3</title><path fill="none" stroke="#191970" d="M89.26,-56.08C96.46,-48.3 107.11,-36.8 115.85,-27.37"/><polygon fill="#191970" stroke="#191970" points="118.67 -29.47 122.9 -19.75 113.53 -24.71 118.67 -29.47"/></g></g></svg>