<svg xmlns="http://www.w3.org/2000/svg" xmlns:xlink="http://www.w3.org/1999/xlink" id="main" onload="init(evt)" version="1.1" xml:space="preserve"><style type="text/css">.edge:hover path{stroke:red}.edge:hover polygon{stroke:red;fill:red}</style><script type="text/javascript"><![CDATA[
var edges = document.getElementsByTagName('g');
if (edges && edges.length) {
  for (var i=0;i<edges.length;i++) {
    if (edges[i].id.substr(0,4)=='edge') {
      edges[i].setAttribute('class','edge');
    }
  }
}
]]></script><defs><circle id="rim" cx="0" cy="0" r="7"/><circle id="rim2" cx="0" cy="0" r="3.5"/><g id="zoomPlus"><use fill="#404040" xlink:href="#rim"><set attributeName="fill" begin="zoomplus.mouseover" end="zoomplus.mouseout" to="#808080"/></use><path fill="none" stroke="#fff" stroke-width="1.5" d="M-4,0h8M0,-4v8" pointer-events="none"/></g><g id="zoomMin"><use fill="#404040" xlink:href="#rim"><set attributeName="fill" begin="zoomminus.mouseover" end="zoomminus.mouseout" to="#808080"/></use><path fill="none" stroke="#fff" stroke-width="1.5" d="M-4,0h8" pointer-events="none"/></g><g id="dirArrow"><path fill="none" stroke="#fff" stroke-width="1.5" d="M0,-3.0v7 M-2.5,-0.5L0,-3.0L2.5,-0.5"/></g><g id="resetDef"><use fill="#404040" xlink:href="#rim2"><set attributeName="fill" begin="reset.mouseover" end="reset.mouseout" to="#808080"/></use></g></defs><script type="text/javascript">var viewWidth = 688; var viewHeight = 285; var sectionId = &apos;dynsection-0&apos;;</script><script xlink:href="svgpan.js"/><svg id="graph" class="graph"><g id="viewport"><title>src/Scripts/MarioBehaviour.cpp</title><g id="node1" class="node"><title>Node1</title><g id="a_node1"><a><polygon fill="#bfbfbf" stroke="#000" points="391.5 -257.5 391.5 -276.5 543.5 -276.5 543.5 -257.5 391.5 -257.5"/><text x="467.5" y="-264.5" font-family="Helvetica,sans-Serif" font-size="10" text-anchor="middle">src/Scripts/MarioBehaviour.cpp</text></a></g></g><g id="node2" class="node"><title>Node2</title><g id="a_node2"><a target="_top" xlink:href="MarioBehaviour_8hpp.html"><polygon fill="none" stroke="#000" points="248.5 -201.5 248.5 -220.5 350.5 -220.5 350.5 -201.5 248.5 -201.5"/><text x="299.5" y="-208.5" font-family="Helvetica,sans-Serif" font-size="10" text-anchor="middle">MarioBehaviour.hpp</text></a></g></g><g id="edge1" class="edge"><title>Node1-&gt;Node2</title><path fill="none" stroke="#191970" d="M440.88,-257.44C412.49,-248.32 367.36,-233.81 335.75,-223.65"/><polygon fill="#191970" stroke="#191970" points="336.59 -220.24 326 -220.52 334.44 -226.91 336.59 -220.24"/></g><g id="node12" class="node"><title>Node12</title><g id="a_node12"><a><polygon fill="none" stroke="#bfbfbf" points="368 -201.5 368 -220.5 457 -220.5 457 -201.5 368 -201.5"/><text x="412.5" y="-208.5" font-family="Helvetica,sans-Serif" font-size="10" text-anchor="middle">GameObject.hpp</text></a></g></g><g id="edge12" class="edge"><title>Node1-&gt;Node12</title><path fill="none" stroke="#191970" d="M458.42,-257.08C450.33,-249.14 438.3,-237.34 428.59,-227.8"/><polygon fill="#191970" stroke="#191970" points="431 -225.26 421.41 -220.75 426.1 -230.25 431 -225.26"/></g><g id="node13" class="node"><title>Node13</title><g id="a_node13"><a><polygon fill="none" stroke="#bfbfbf" points="475.5 -201.5 475.5 -220.5 571.5 -220.5 571.5 -201.5 475.5 -201.5"/><text x="523.5" y="-208.5" font-family="Helvetica,sans-Serif" font-size="10" text-anchor="middle">Engine/Engine.hpp</text></a></g></g><g id="edge13" class="edge"><title>Node1-&gt;Node13</title><path fill="none" stroke="#191970" d="M476.5,-257.32C484.69,-249.42 497.01,-237.55 506.97,-227.94"/><polygon fill="#191970" stroke="#191970" points="509.57 -230.29 514.34 -220.83 504.71 -225.26 509.57 -230.29"/></g><g id="node14" class="node"><title>Node14</title><g id="a_node14"><a><polygon fill="none" stroke="#bfbfbf" points="589.5 -201.5 589.5 -220.5 679.5 -220.5 679.5 -201.5 589.5 -201.5"/><text x="634.5" y="-208.5" font-family="Helvetica,sans-Serif" font-size="10" text-anchor="middle">AudioSource.hpp</text></a></g></g><g id="edge14" class="edge"><title>Node1-&gt;Node14</title><path fill="none" stroke="#191970" d="M493.96,-257.44C522.18,-248.32 567.04,-233.81 598.47,-223.65"/><polygon fill="#191970" stroke="#191970" points="599.72 -226.92 608.16 -220.52 597.57 -220.26 599.72 -226.92"/></g><g id="node3" class="node"><title>Node3</title><g id="a_node3"><a><polygon fill="none" stroke="#bfbfbf" points="167.5 -140 167.5 -159 271.5 -159 271.5 -140 167.5 -140"/><text x="219.5" y="-147" font-family="Helvetica,sans-Serif" font-size="10" text-anchor="middle">BehaviourScript.hpp</text></a></g></g><g id="edge2" class="edge"><title>Node2-&gt;Node3</title><path fill="none" stroke="#191970" d="M288.04,-201.48C275.33,-192.02 254.59,-176.6 239.25,-165.19"/><polygon fill="#191970" stroke="#191970" points="241.05 -162.17 230.94 -159.01 236.88 -167.79 241.05 -162.17"/></g><g id="node4" class="node"><title>Node4</title><g id="a_node4"><a target="_top" xlink:href="MarioState_8hpp.html"><polygon fill="none" stroke="#000" points="289 -67.5 289 -97.5 392 -97.5 392 -67.5 289 -67.5"/><text x="297" y="-85.5" font-family="Helvetica,sans-Serif" font-size="10" text-anchor="start">Scripts/MarioStates</text><text x="340.5" y="-74.5" font-family="Helvetica,sans-Serif" font-size="10" text-anchor="middle">/MarioState.hpp</text></a></g></g><g id="edge3" class="edge"><title>Node2-&gt;Node4</title><path fill="none" stroke="#191970" d="M301.16,-201.43C304.01,-187.22 310.35,-157.95 318.5,-134 321.55,-125.02 325.55,-115.42 329.29,-107.02"/><polygon fill="#191970" stroke="#191970" points="332.51 -108.38 333.5 -97.83 326.15 -105.47 332.51 -108.38"/></g><g id="node11" class="node"><title>Node11</title><g id="a_node11"><a target="_top" xlink:href="SmallMarioState_8hpp.html"><polygon fill="none" stroke="#000" points="327.5 -134.5 327.5 -164.5 437.5 -164.5 437.5 -134.5 327.5 -134.5"/><text x="335.5" y="-152.5" font-family="Helvetica,sans-Serif" font-size="10" text-anchor="start">Scripts/MarioStates</text><text x="382.5" y="-141.5" font-family="Helvetica,sans-Serif" font-size="10" text-anchor="middle">/SmallMarioState.hpp</text></a></g></g><g id="edge10" class="edge"><title>Node2-&gt;Node11</title><path fill="none" stroke="#191970" d="M311.39,-201.48C322.63,-193.42 339.92,-181.02 354.64,-170.47"/><polygon fill="#191970" stroke="#191970" points="356.85 -173.19 362.94 -164.52 352.77 -167.5 356.85 -173.19"/></g><g id="node5" class="node"><title>Node5</title><g id="a_node5"><a><polygon fill="none" stroke="#bfbfbf" points="0 -.5 0 -30.5 95 -30.5 95 -.5 0 -.5"/><text x="8" y="-18.5" font-family="Helvetica,sans-Serif" font-size="10" text-anchor="start">boost/serialization</text><text x="47.5" y="-7.5" font-family="Helvetica,sans-Serif" font-size="10" text-anchor="middle">/access.hpp</text></a></g></g><g id="edge4" class="edge"><title>Node4-&gt;Node5</title><path fill="none" stroke="#191970" d="M288.57,-71.11C242.72,-61.78 173.8,-47.4 105.23,-31.36"/><polygon fill="#191970" stroke="#191970" points="105.66 -27.86 95.12 -28.98 104.06 -34.68 105.66 -27.86"/></g><g id="node6" class="node"><title>Node6</title><g id="a_node6"><a><polygon fill="none" stroke="#bfbfbf" points="113 -.5 113 -30.5 208 -30.5 208 -.5 113 -.5"/><text x="121" y="-18.5" font-family="Helvetica,sans-Serif" font-size="10" text-anchor="start">boost/serialization</text><text x="160.5" y="-7.5" font-family="Helvetica,sans-Serif" font-size="10" text-anchor="middle">/export.hpp</text></a></g></g><g id="edge5" class="edge"><title>Node4-&gt;Node6</title><path fill="none" stroke="#191970" d="M301.44,-67.4C274.32,-57.6 237.99,-44.48 209,-34.02"/><polygon fill="#191970" stroke="#191970" points="210.08 -30.68 199.48 -30.58 207.7 -37.26 210.08 -30.68"/></g><g id="node7" class="node"><title>Node7</title><g id="a_node7"><a><polygon fill="none" stroke="#bfbfbf" points="226 -.5 226 -30.5 321 -30.5 321 -.5 226 -.5"/><text x="234" y="-18.5" font-family="Helvetica,sans-Serif" font-size="10" text-anchor="start">boost/serialization</text><text x="273.5" y="-7.5" font-family="Helvetica,sans-Serif" font-size="10" text-anchor="middle">/shared_ptr.hpp</text></a></g></g><g id="edge6" class="edge"><title>Node4-&gt;Node7</title><path fill="none" stroke="#191970" d="M325.96,-67.4C317.01,-58.71 305.36,-47.4 295.31,-37.66"/><polygon fill="#191970" stroke="#191970" points="297.62 -35.03 288.01 -30.58 292.75 -40.05 297.62 -35.03"/></g><g id="node8" class="node"><title>Node8</title><g id="a_node8"><a><polygon fill="none" stroke="#bfbfbf" points="339 -6 339 -25 476 -25 476 -6 339 -6"/><text x="407.5" y="-13" font-family="Helvetica,sans-Serif" font-size="10" text-anchor="middle">Texture/AnimatedSprite.hpp</text></a></g></g><g id="edge7" class="edge"><title>Node4-&gt;Node8</title><path fill="none" stroke="#191970" d="M355.04,-67.4C365.69,-57.06 380.16,-43.02 391.2,-32.31"/><polygon fill="#191970" stroke="#191970" points="393.8 -34.67 398.54 -25.19 388.92 -29.65 393.8 -34.67"/></g><g id="node9" class="node"><title>Node9</title><g id="a_node9"><a><polygon fill="none" stroke="#bfbfbf" points="494 -6 494 -25 551 -25 551 -6 494 -6"/><text x="522.5" y="-13" font-family="Helvetica,sans-Serif" font-size="10" text-anchor="middle">Point.hpp</text></a></g></g><g id="edge8" class="edge"><title>Node4-&gt;Node9</title><path fill="none" stroke="#191970" d="M382.22,-67.45C411.27,-57.54 450.87,-43.81 485.5,-31 487.39,-30.3 489.34,-29.57 491.29,-28.83"/><polygon fill="#191970" stroke="#191970" points="492.96 -31.94 501.03 -25.07 490.44 -25.4 492.96 -31.94"/></g><g id="node10" class="node"><title>Node10</title><g id="a_node10"><a><polygon fill="none" stroke="#bfbfbf" points="569 -6 569 -25 678 -25 678 -6 569 -6"/><text x="623.5" y="-13" font-family="Helvetica,sans-Serif" font-size="10" text-anchor="middle">Physics/Collision.hpp</text></a></g></g><g id="edge9" class="edge"><title>Node4-&gt;Node10</title><path fill="none" stroke="#191970" d="M392.07,-69.67C436.65,-59.44 502.83,-44.26 560.5,-31 565.76,-29.79 571.28,-28.52 576.75,-27.26"/><polygon fill="#191970" stroke="#191970" points="577.56 -30.67 586.52 -25.01 575.99 -23.85 577.56 -30.67"/></g><g id="edge11" class="edge"><title>Node11-&gt;Node4</title><path fill="none" stroke="#191970" d="M373.39,-134.4C368.05,-126.13 361.18,-115.51 355.1,-106.1"/><polygon fill="#191970" stroke="#191970" points="357.96 -104.08 349.6 -97.58 352.08 -107.88 357.96 -104.08"/></g></g></svg><g id="navigator" fill="#404254" transform="translate(0 0)"><rect width="60" height="60" x="0" y="0" fill="#f2f5e9" fill-opacity=".5" stroke="#606060" stroke-width=".5"/><use id="zoomplus" x="17" y="9" onmousedown="handleZoom(evt,'in')" xlink:href="#zoomPlus"/><use id="zoomminus" x="42" y="9" onmousedown="handleZoom(evt,'out')" xlink:href="#zoomMin"/><use id="reset" x="30" y="36" onmousedown="handleReset()" xlink:href="#resetDef"/><g id="arrowUp" onmousedown="handlePan(0,-1)" transform="translate(30 24)" xlink:href="#dirArrow"><use fill="#404040" xlink:href="#rim"><set attributeName="fill" begin="arrowUp.mouseover" end="arrowUp.mouseout" to="#808080"/></use><path fill="none" stroke="#fff" stroke-width="1.5" d="M0,-3.0v7 M-2.5,-0.5L0,-3.0L2.5,-0.5"/></g><g id="arrowRight" onmousedown="handlePan(1,0)" transform="rotate(90) translate(36 -43)" xlink:href="#dirArrow"><use fill="#404040" xlink:href="#rim"><set attributeName="fill" begin="arrowRight.mouseover" end="arrowRight.mouseout" to="#808080"/></use><path fill="none" stroke="#fff" stroke-width="1.5" d="M0,-3.0v7 M-2.5,-0.5L0,-3.0L2.5,-0.5"/></g><g id="arrowDown" onmousedown="handlePan(0,1)" transform="rotate(180) translate(-30 -48)" xlink:href="#dirArrow"><use fill="#404040" xlink:href="#rim"><set attributeName="fill" begin="arrowDown.mouseover" end="arrowDown.mouseout" to="#808080"/></use><path fill="none" stroke="#fff" stroke-width="1.5" d="M0,-3.0v7 M-2.5,-0.5L0,-3.0L2.5,-0.5"/></g><g id="arrowLeft" onmousedown="handlePan(-1,0)" transform="rotate(270) translate(-36 17)" xlink:href="#dirArrow"><use fill="#404040" xlink:href="#rim"><set attributeName="fill" begin="arrowLeft.mouseover" end="arrowLeft.mouseout" to="#808080"/></use><path fill="none" stroke="#fff" stroke-width="1.5" d="M0,-3.0v7 M-2.5,-0.5L0,-3.0L2.5,-0.5"/></g></g><svg width="100%" height="30" preserveAspectRatio="xMaxYMin meet" viewBox="0 0 15 15"><g id="arrow_out" transform="scale(0.3 0.3)"><a target="_base" xlink:href="MarioBehaviour_8cpp__incl_org.svg"><rect id="button" width="38" height="38" x="6" y="6" fill="#f2f5e9" fill-opacity=".5" stroke="#606060" stroke-width="1" rx="5" ry="5"/><path id="arrow" d="M 11.500037,31.436501 C 11.940474,20.09759 22.043105,11.32322 32.158766,21.979434 L 37.068811,17.246167 C 37.068811,17.246167 37.088388,32 37.088388,32 L 22.160133,31.978069 C 22.160133,31.978069 26.997745,27.140456 26.997745,27.140456 C 18.528582,18.264221 13.291696,25.230495 11.500037,31.436501 z" style="fill:#404040"/></a></g></svg></svg>