<?xml version="1.0" encoding="UTF-8" standalone="no"?>
<!DOCTYPE svg PUBLIC "-//W3C//DTD SVG 1.1//EN"
 "http://www.w3.org/Graphics/SVG/1.1/DTD/svg11.dtd">
<!-- Generated by graphviz version 2.44.0 ()
 -->
<!-- Title: src/Scripts/MarioStates/MarioState.hpp Pages: 1 -->
<!--zoomable 352 -->
<svg id="main" version="1.1" xmlns="http://www.w3.org/2000/svg" xmlns:xlink="http://www.w3.org/1999/xlink" xml:space="preserve" onload="init(evt)">
<style type="text/css"><![CDATA[
.edge:hover path { stroke: red; }
.edge:hover polygon { stroke: red; fill: red; }
]]></style>
<script type="text/javascript"><![CDATA[
var edges = document.getElementsByTagName('g');
if (edges && edges.length) {
  for (var i=0;i<edges.length;i++) {
    if (edges[i].id.substr(0,4)=='edge') {
      edges[i].setAttribute('class','edge');
    }
  }
}
]]></script>
        <defs>
                <circle id="rim" cx="0" cy="0" r="7"/>
                <circle id="rim2" cx="0" cy="0" r="3.5"/>
                <g id="zoomPlus">
                        <use xlink:href="#rim" fill="#404040">
                                <set attributeName="fill" to="#808080" begin="zoomplus.mouseover" end="zoomplus.mouseout"/>
                        </use>
                        <path d="M-4,0h8M0,-4v8" fill="none" stroke="white" stroke-width="1.5" pointer-events="none"/>
                </g>
                <g id="zoomMin">
                        <use xlink:href="#rim" fill="#404040">
                                <set attributeName="fill" to="#808080" begin="zoomminus.mouseover" end="zoomminus.mouseout"/>
                        </use>
                        <path d="M-4,0h8" fill="none" stroke="white" stroke-width="1.5" pointer-events="none"/>
                </g>
                <g id="dirArrow">
                        <path fill="none" stroke="white" stroke-width="1.5" d="M0,-3.0v7 M-2.5,-0.5L0,-3.0L2.5,-0.5"/>
                </g>
               <g id="resetDef">
                       <use xlink:href="#rim2" fill="#404040">
                               <set attributeName="fill" to="#808080" begin="reset.mouseover" end="reset.mouseout"/>
                       </use>
               </g>
        </defs>

<script type="text/javascript">
var viewWidth = 801;
var viewHeight = 352;
var sectionId = 'dynsection-1';
</script>
<script xlink:href="svgpan.js"/>
<svg id="graph" class="graph">
<g id="viewport">
<title>src/Scripts/MarioStates/MarioState.hpp</title>
<!-- Node1 -->
<g id="node1" class="node">
<title>Node1</title>
<g id="a_node1"><a xlink:title=" ">
<polygon fill="#bfbfbf" stroke="black" points="466.5,-313.5 466.5,-343.5 585.5,-343.5 585.5,-313.5 466.5,-313.5"/>
<text text-anchor="start" x="474.5" y="-331.5" font-family="Helvetica,sans-Serif" font-size="10.00">src/Scripts/MarioStates</text>
<text text-anchor="middle" x="526" y="-320.5" font-family="Helvetica,sans-Serif" font-size="10.00">/MarioState.hpp</text>
</a>
</g>
</g>
<!-- Node2 -->
<g id="node2" class="node">
<title>Node2</title>
<g id="a_node2"><a xlink:href="MarioBehaviour_8hpp.html" target="_top" xlink:title=" ">
<polygon fill="none" stroke="black" points="296,-185 296,-204 448,-204 448,-185 296,-185"/>
<text text-anchor="middle" x="372" y="-192" font-family="Helvetica,sans-Serif" font-size="10.00">src/Scripts/MarioBehaviour.hpp</text>
</a>
</g>
</g>
<!-- Node1&#45;&gt;Node2 -->
<g id="edge1" class="edge">
<title>Node1&#45;&gt;Node2</title>
<path fill="none" stroke="midnightblue" d="M496.92,-307.52C484.35,-298.55 469.66,-287.62 457,-277 427.56,-252.3 395.52,-219.92 380.57,-204.47"/>
<polygon fill="midnightblue" stroke="midnightblue" points="495.04,-310.48 505.23,-313.38 499.08,-304.76 495.04,-310.48"/>
</g>
<!-- Node13 -->
<g id="node13" class="node">
<title>Node13</title>
<g id="a_node13"><a xlink:href="SmallMarioState_8hpp.html" target="_top" xlink:title=" ">
<polygon fill="none" stroke="black" points="466.5,-246.5 466.5,-276.5 585.5,-276.5 585.5,-246.5 466.5,-246.5"/>
<text text-anchor="start" x="474.5" y="-264.5" font-family="Helvetica,sans-Serif" font-size="10.00">src/Scripts/MarioStates</text>
<text text-anchor="middle" x="526" y="-253.5" font-family="Helvetica,sans-Serif" font-size="10.00">/SmallMarioState.hpp</text>
</a>
</g>
</g>
<!-- Node1&#45;&gt;Node13 -->
<g id="edge14" class="edge">
<title>Node1&#45;&gt;Node13</title>
<path fill="none" stroke="midnightblue" d="M526,-303.11C526,-294.15 526,-284.32 526,-276.58"/>
<polygon fill="midnightblue" stroke="midnightblue" points="522.5,-303.4 526,-313.4 529.5,-303.4 522.5,-303.4"/>
</g>
<!-- Node16 -->
<g id="node16" class="node">
<title>Node16</title>
<g id="a_node16"><a xlink:href="StarMarioState_8hpp.html" target="_top" xlink:title=" ">
<polygon fill="none" stroke="black" points="603.5,-246.5 603.5,-276.5 722.5,-276.5 722.5,-246.5 603.5,-246.5"/>
<text text-anchor="start" x="611.5" y="-264.5" font-family="Helvetica,sans-Serif" font-size="10.00">src/Scripts/MarioStates</text>
<text text-anchor="middle" x="663" y="-253.5" font-family="Helvetica,sans-Serif" font-size="10.00">/StarMarioState.hpp</text>
</a>
</g>
</g>
<!-- Node1&#45;&gt;Node16 -->
<g id="edge18" class="edge">
<title>Node1&#45;&gt;Node16</title>
<path fill="none" stroke="midnightblue" d="M565.01,-308.99C586.72,-298.69 613.33,-286.07 633.33,-276.58"/>
<polygon fill="midnightblue" stroke="midnightblue" points="563.26,-305.95 555.73,-313.4 566.26,-312.27 563.26,-305.95"/>
</g>
<!-- Node3 -->
<g id="node3" class="node">
<title>Node3</title>
<g id="a_node3"><a xlink:href="Level_8hpp.html" target="_top" xlink:title=" ">
<polygon fill="none" stroke="black" points="255.5,-123.5 255.5,-142.5 392.5,-142.5 392.5,-123.5 255.5,-123.5"/>
<text text-anchor="middle" x="324" y="-130.5" font-family="Helvetica,sans-Serif" font-size="10.00">src/Game/Levels/Level.hpp</text>
</a>
</g>
</g>
<!-- Node2&#45;&gt;Node3 -->
<g id="edge2" class="edge">
<title>Node2&#45;&gt;Node3</title>
<path fill="none" stroke="midnightblue" d="M358.83,-177.17C349.78,-165.95 338.13,-151.52 330.86,-142.51"/>
<polygon fill="midnightblue" stroke="midnightblue" points="356.12,-179.39 365.12,-184.98 361.57,-174.99 356.12,-179.39"/>
</g>
<!-- Node9 -->
<g id="node9" class="node">
<title>Node9</title>
<g id="a_node9"><a xlink:href="NetworkingClient_8cpp.html" target="_top" xlink:title=" ">
<polygon fill="none" stroke="black" points="383.5,-56.5 383.5,-86.5 518.5,-86.5 518.5,-56.5 383.5,-56.5"/>
<text text-anchor="start" x="391.5" y="-74.5" font-family="Helvetica,sans-Serif" font-size="10.00">src/Networking/Networking</text>
<text text-anchor="middle" x="451" y="-63.5" font-family="Helvetica,sans-Serif" font-size="10.00">Client.cpp</text>
</a>
</g>
</g>
<!-- Node2&#45;&gt;Node9 -->
<g id="edge10" class="edge">
<title>Node2&#45;&gt;Node9</title>
<path fill="none" stroke="midnightblue" d="M383.22,-176.31C398.96,-152.21 427.29,-108.82 441.83,-86.54"/>
<polygon fill="midnightblue" stroke="midnightblue" points="380.22,-174.51 377.68,-184.8 386.08,-178.34 380.22,-174.51"/>
</g>
<!-- Node10 -->
<g id="node10" class="node">
<title>Node10</title>
<g id="a_node10"><a xlink:href="FlagBehaviour_8cpp.html" target="_top" xlink:title=" ">
<polygon fill="none" stroke="black" points="449.5,-123.5 449.5,-142.5 596.5,-142.5 596.5,-123.5 449.5,-123.5"/>
<text text-anchor="middle" x="523" y="-130.5" font-family="Helvetica,sans-Serif" font-size="10.00">src/Scripts/FlagBehaviour.cpp</text>
</a>
</g>
</g>
<!-- Node2&#45;&gt;Node10 -->
<g id="edge11" class="edge">
<title>Node2&#45;&gt;Node10</title>
<path fill="none" stroke="midnightblue" d="M403.01,-181.28C432.35,-169.72 475.63,-152.66 501.41,-142.51"/>
<polygon fill="midnightblue" stroke="midnightblue" points="401.66,-178.05 393.63,-184.98 404.22,-184.57 401.66,-178.05"/>
</g>
<!-- Node11 -->
<g id="node11" class="node">
<title>Node11</title>
<g id="a_node11"><a xlink:href="MarioBehaviour_8cpp.html" target="_top" xlink:title=" ">
<polygon fill="none" stroke="black" points="85,-123.5 85,-142.5 237,-142.5 237,-123.5 85,-123.5"/>
<text text-anchor="middle" x="161" y="-130.5" font-family="Helvetica,sans-Serif" font-size="10.00">src/Scripts/MarioBehaviour.cpp</text>
</a>
</g>
</g>
<!-- Node2&#45;&gt;Node11 -->
<g id="edge12" class="edge">
<title>Node2&#45;&gt;Node11</title>
<path fill="none" stroke="midnightblue" d="M332.1,-182.25C291.11,-170.69 228.2,-152.95 191.18,-142.51"/>
<polygon fill="midnightblue" stroke="midnightblue" points="331.19,-185.63 341.77,-184.98 333.09,-178.89 331.19,-185.63"/>
</g>
<!-- Node12 -->
<g id="node12" class="node">
<title>Node12</title>
<g id="a_node12"><a xlink:href="StarBehaviour_8cpp.html" target="_top" xlink:title=" ">
<polygon fill="none" stroke="black" points="647,-123.5 647,-142.5 793,-142.5 793,-123.5 647,-123.5"/>
<text text-anchor="middle" x="720" y="-130.5" font-family="Helvetica,sans-Serif" font-size="10.00">src/Scripts/StarBehaviour.cpp</text>
</a>
</g>
</g>
<!-- Node2&#45;&gt;Node12 -->
<g id="edge13" class="edge">
<title>Node2&#45;&gt;Node12</title>
<path fill="none" stroke="midnightblue" d="M431.9,-183.26C499.23,-171.75 607.35,-153.26 670.23,-142.51"/>
<polygon fill="midnightblue" stroke="midnightblue" points="431.13,-179.84 421.86,-184.98 432.31,-186.74 431.13,-179.84"/>
</g>
<!-- Node4 -->
<g id="node4" class="node">
<title>Node4</title>
<g id="a_node4"><a xlink:href="Level1_8hpp.html" target="_top" xlink:title=" ">
<polygon fill="none" stroke="black" points="223,-62 223,-81 365,-81 365,-62 223,-62"/>
<text text-anchor="middle" x="294" y="-69" font-family="Helvetica,sans-Serif" font-size="10.00">src/Game/Levels/Level1.hpp</text>
</a>
</g>
</g>
<!-- Node3&#45;&gt;Node4 -->
<g id="edge3" class="edge">
<title>Node3&#45;&gt;Node4</title>
<path fill="none" stroke="midnightblue" d="M315.09,-114.33C309.54,-103.33 302.65,-89.66 298.29,-81.01"/>
<polygon fill="midnightblue" stroke="midnightblue" points="312.07,-116.12 319.7,-123.48 318.32,-112.97 312.07,-116.12"/>
</g>
<!-- Node7 -->
<g id="node7" class="node">
<title>Node7</title>
<g id="a_node7"><a xlink:href="Level2_8hpp.html" target="_top" xlink:title=" ">
<polygon fill="none" stroke="black" points="63,-62 63,-81 205,-81 205,-62 63,-62"/>
<text text-anchor="middle" x="134" y="-69" font-family="Helvetica,sans-Serif" font-size="10.00">src/Game/Levels/Level2.hpp</text>
</a>
</g>
</g>
<!-- Node3&#45;&gt;Node7 -->
<g id="edge6" class="edge">
<title>Node3&#45;&gt;Node7</title>
<path fill="none" stroke="midnightblue" d="M286.9,-120.38C249.96,-108.82 194.16,-91.34 161.17,-81.01"/>
<polygon fill="midnightblue" stroke="midnightblue" points="286.19,-123.83 296.78,-123.48 288.28,-117.15 286.19,-123.83"/>
</g>
<!-- Node3&#45;&gt;Node9 -->
<g id="edge9" class="edge">
<title>Node3&#45;&gt;Node9</title>
<path fill="none" stroke="midnightblue" d="M351.32,-119.2C371.84,-109.58 399.94,-96.42 421.07,-86.52"/>
<polygon fill="midnightblue" stroke="midnightblue" points="349.77,-116.06 342.2,-123.48 352.74,-122.4 349.77,-116.06"/>
</g>
<!-- Node5 -->
<g id="node5" class="node">
<title>Node5</title>
<g id="a_node5"><a xlink:href="Game_8cpp.html" target="_top" xlink:title=" ">
<polygon fill="none" stroke="black" points="160.5,-0.5 160.5,-19.5 267.5,-19.5 267.5,-0.5 160.5,-0.5"/>
<text text-anchor="middle" x="214" y="-7.5" font-family="Helvetica,sans-Serif" font-size="10.00">src/Game/Game.cpp</text>
</a>
</g>
</g>
<!-- Node4&#45;&gt;Node5 -->
<g id="edge4" class="edge">
<title>Node4&#45;&gt;Node5</title>
<path fill="none" stroke="midnightblue" d="M274.23,-55.79C258.88,-44.38 238.14,-28.96 225.44,-19.51"/>
<polygon fill="midnightblue" stroke="midnightblue" points="272.43,-58.82 282.54,-61.98 276.6,-53.2 272.43,-58.82"/>
</g>
<!-- Node6 -->
<g id="node6" class="node">
<title>Node6</title>
<g id="a_node6"><a xlink:href="Level1_8cpp.html" target="_top" xlink:title=" ">
<polygon fill="none" stroke="black" points="286,-0.5 286,-19.5 428,-19.5 428,-0.5 286,-0.5"/>
<text text-anchor="middle" x="357" y="-7.5" font-family="Helvetica,sans-Serif" font-size="10.00">src/Game/Levels/Level1.cpp</text>
</a>
</g>
</g>
<!-- Node4&#45;&gt;Node6 -->
<g id="edge5" class="edge">
<title>Node4&#45;&gt;Node6</title>
<path fill="none" stroke="midnightblue" d="M310.6,-54.82C322.57,-43.52 338.27,-28.69 347.99,-19.51"/>
<polygon fill="midnightblue" stroke="midnightblue" points="307.89,-52.56 303.03,-61.98 312.7,-57.65 307.89,-52.56"/>
</g>
<!-- Node7&#45;&gt;Node5 -->
<g id="edge7" class="edge">
<title>Node7&#45;&gt;Node5</title>
<path fill="none" stroke="midnightblue" d="M153.77,-55.79C169.12,-44.38 189.86,-28.96 202.56,-19.51"/>
<polygon fill="midnightblue" stroke="midnightblue" points="151.4,-53.2 145.46,-61.98 155.57,-58.82 151.4,-53.2"/>
</g>
<!-- Node8 -->
<g id="node8" class="node">
<title>Node8</title>
<g id="a_node8"><a xlink:href="Level2_8cpp.html" target="_top" xlink:title=" ">
<polygon fill="none" stroke="black" points="0,-0.5 0,-19.5 142,-19.5 142,-0.5 0,-0.5"/>
<text text-anchor="middle" x="71" y="-7.5" font-family="Helvetica,sans-Serif" font-size="10.00">src/Game/Levels/Level2.cpp</text>
</a>
</g>
</g>
<!-- Node7&#45;&gt;Node8 -->
<g id="edge8" class="edge">
<title>Node7&#45;&gt;Node8</title>
<path fill="none" stroke="midnightblue" d="M117.4,-54.82C105.43,-43.52 89.73,-28.69 80.01,-19.51"/>
<polygon fill="midnightblue" stroke="midnightblue" points="115.3,-57.65 124.97,-61.98 120.11,-52.56 115.3,-57.65"/>
</g>
<!-- Node13&#45;&gt;Node2 -->
<g id="edge15" class="edge">
<title>Node13&#45;&gt;Node2</title>
<path fill="none" stroke="midnightblue" d="M483.26,-242.46C453.5,-229.9 415.18,-213.72 392.16,-204.01"/>
<polygon fill="midnightblue" stroke="midnightblue" points="482.01,-245.73 492.58,-246.4 484.73,-239.28 482.01,-245.73"/>
</g>
<!-- Node14 -->
<g id="node14" class="node">
<title>Node14</title>
<g id="a_node14"><a xlink:href="SmallMarioState_8cpp.html" target="_top" xlink:title=" ">
<polygon fill="none" stroke="black" points="466.5,-179.5 466.5,-209.5 585.5,-209.5 585.5,-179.5 466.5,-179.5"/>
<text text-anchor="start" x="474.5" y="-197.5" font-family="Helvetica,sans-Serif" font-size="10.00">src/Scripts/MarioStates</text>
<text text-anchor="middle" x="526" y="-186.5" font-family="Helvetica,sans-Serif" font-size="10.00">/SmallMarioState.cpp</text>
</a>
</g>
</g>
<!-- Node13&#45;&gt;Node14 -->
<g id="edge16" class="edge">
<title>Node13&#45;&gt;Node14</title>
<path fill="none" stroke="midnightblue" d="M526,-236.11C526,-227.15 526,-217.32 526,-209.58"/>
<polygon fill="midnightblue" stroke="midnightblue" points="522.5,-236.4 526,-246.4 529.5,-236.4 522.5,-236.4"/>
</g>
<!-- Node15 -->
<g id="node15" class="node">
<title>Node15</title>
<g id="a_node15"><a xlink:href="StarMarioState_8cpp.html" target="_top" xlink:title=" ">
<polygon fill="none" stroke="black" points="603.5,-179.5 603.5,-209.5 722.5,-209.5 722.5,-179.5 603.5,-179.5"/>
<text text-anchor="start" x="611.5" y="-197.5" font-family="Helvetica,sans-Serif" font-size="10.00">src/Scripts/MarioStates</text>
<text text-anchor="middle" x="663" y="-186.5" font-family="Helvetica,sans-Serif" font-size="10.00">/StarMarioState.cpp</text>
</a>
</g>
</g>
<!-- Node13&#45;&gt;Node15 -->
<g id="edge17" class="edge">
<title>Node13&#45;&gt;Node15</title>
<path fill="none" stroke="midnightblue" d="M565.01,-241.99C586.72,-231.69 613.33,-219.07 633.33,-209.58"/>
<polygon fill="midnightblue" stroke="midnightblue" points="563.26,-238.95 555.73,-246.4 566.26,-245.27 563.26,-238.95"/>
</g>
<!-- Node16&#45;&gt;Node12 -->
<g id="edge21" class="edge">
<title>Node16&#45;&gt;Node12</title>
<path fill="none" stroke="midnightblue" d="M702.41,-241.01C714.1,-233.11 725.51,-222.78 732,-210 743.24,-187.84 731.81,-157.76 724.72,-142.97"/>
<polygon fill="midnightblue" stroke="midnightblue" points="700.52,-238.06 693.91,-246.34 704.24,-243.99 700.52,-238.06"/>
</g>
<!-- Node16&#45;&gt;Node14 -->
<g id="edge19" class="edge">
<title>Node16&#45;&gt;Node14</title>
<path fill="none" stroke="midnightblue" d="M623.99,-241.99C602.28,-231.69 575.67,-219.07 555.67,-209.58"/>
<polygon fill="midnightblue" stroke="midnightblue" points="622.74,-245.27 633.27,-246.4 625.74,-238.95 622.74,-245.27"/>
</g>
<!-- Node16&#45;&gt;Node15 -->
<g id="edge20" class="edge">
<title>Node16&#45;&gt;Node15</title>
<path fill="none" stroke="midnightblue" d="M663,-236.11C663,-227.15 663,-217.32 663,-209.58"/>
<polygon fill="midnightblue" stroke="midnightblue" points="659.5,-236.4 663,-246.4 666.5,-236.4 659.5,-236.4"/>
</g>
</g>
</svg>
        <g id="navigator" transform="translate(0 0)" fill="#404254">
                <rect fill="#f2f5e9" fill-opacity="0.5" stroke="#606060" stroke-width=".5" x="0" y="0" width="60" height="60"/>
                <use id="zoomplus" xlink:href="#zoomPlus" x="17" y="9" onmousedown="handleZoom(evt,'in')"/>
                <use id="zoomminus" xlink:href="#zoomMin" x="42" y="9" onmousedown="handleZoom(evt,'out')"/>
                <use id="reset" xlink:href="#resetDef" x="30" y="36" onmousedown="handleReset()"/>
                <g id="arrowUp" xlink:href="#dirArrow" transform="translate(30 24)" onmousedown="handlePan(0,-1)">
                  <use xlink:href="#rim" fill="#404040">
                        <set attributeName="fill" to="#808080" begin="arrowUp.mouseover" end="arrowUp.mouseout"/>
                  </use>
                  <path fill="none" stroke="white" stroke-width="1.5" d="M0,-3.0v7 M-2.5,-0.5L0,-3.0L2.5,-0.5"/>
                </g>
                <g id="arrowRight" xlink:href="#dirArrow" transform="rotate(90) translate(36 -43)" onmousedown="handlePan(1,0)">
                  <use xlink:href="#rim" fill="#404040">
                        <set attributeName="fill" to="#808080" begin="arrowRight.mouseover" end="arrowRight.mouseout"/>
                  </use>
                  <path fill="none" stroke="white" stroke-width="1.5" d="M0,-3.0v7 M-2.5,-0.5L0,-3.0L2.5,-0.5"/>
                </g>
                <g id="arrowDown" xlink:href="#dirArrow" transform="rotate(180) translate(-30 -48)" onmousedown="handlePan(0,1)">
                  <use xlink:href="#rim" fill="#404040">
                        <set attributeName="fill" to="#808080" begin="arrowDown.mouseover" end="arrowDown.mouseout"/>
                  </use>
                  <path fill="none" stroke="white" stroke-width="1.5" d="M0,-3.0v7 M-2.5,-0.5L0,-3.0L2.5,-0.5"/>
                </g>
                <g id="arrowLeft" xlink:href="#dirArrow" transform="rotate(270) translate(-36 17)" onmousedown="handlePan(-1,0)">
                  <use xlink:href="#rim" fill="#404040">
                        <set attributeName="fill" to="#808080" begin="arrowLeft.mouseover" end="arrowLeft.mouseout"/>
                  </use>
                  <path fill="none" stroke="white" stroke-width="1.5" d="M0,-3.0v7 M-2.5,-0.5L0,-3.0L2.5,-0.5"/>
                </g>
        </g>
        <svg viewBox="0 0 15 15" width="100%" height="30px" preserveAspectRatio="xMaxYMin meet">
         <g id="arrow_out" transform="scale(0.3 0.3)">
          <a xlink:href="MarioState_8hpp__dep__incl_org.svg" target="_base">
           <rect id="button" ry="5" rx="5" y="6" x="6" height="38" width="38"
                fill="#f2f5e9" fill-opacity="0.5" stroke="#606060" stroke-width="1.0"/>
           <path id="arrow"
             d="M 11.500037,31.436501 C 11.940474,20.09759 22.043105,11.32322 32.158766,21.979434 L 37.068811,17.246167 C 37.068811,17.246167 37.088388,32 37.088388,32 L 22.160133,31.978069 C 22.160133,31.978069 26.997745,27.140456 26.997745,27.140456 C 18.528582,18.264221 13.291696,25.230495 11.500037,31.436501 z"
             style="fill:#404040;"/>
          </a>
         </g>
        </svg>
</svg>
