<svg xmlns="http://www.w3.org/2000/svg" xmlns:xlink="http://www.w3.org/1999/xlink" width="686pt" height="229pt" viewBox="0 0 686 229"><g id="graph0" class="graph" transform="scale(1 1) rotate(0) translate(4 225)"><title>src/Scripts/MarioBehaviour.hpp</title><g id="node1" class="node"><title>Node1</title><g id="a_node1"><a><polygon fill="#bfbfbf" stroke="#000" points="223.5 -201.5 223.5 -220.5 375.5 -220.5 375.5 -201.5 223.5 -201.5"/><text x="299.5" y="-208.5" font-family="Helvetica,sans-Serif" font-size="10" text-anchor="middle">src/Scripts/MarioBehaviour.hpp</text></a></g></g><g id="node2" class="node"><title>Node2</title><g id="a_node2"><a><polygon fill="none" stroke="#bfbfbf" points="167.5 -140 167.5 -159 271.5 -159 271.5 -140 167.5 -140"/><text x="219.5" y="-147" font-family="Helvetica,sans-Serif" font-size="10" text-anchor="middle">BehaviourScript.hpp</text></a></g></g><g id="edge1" class="edge"><title>Node1-&gt;Node2</title><path fill="none" stroke="#191970" d="M288.04,-201.48C275.33,-192.02 254.59,-176.6 239.25,-165.19"/><polygon fill="#191970" stroke="#191970" points="241.05 -162.17 230.94 -159.01 236.88 -167.79 241.05 -162.17"/></g><g id="node3" class="node"><title>Node3</title><g id="a_node3"><a target="_top" xlink:href="MarioState_8hpp.html"><polygon fill="none" stroke="#000" points="289 -67.5 289 -97.5 392 -97.5 392 -67.5 289 -67.5"/><text x="297" y="-85.5" font-family="Helvetica,sans-Serif" font-size="10" text-anchor="start">Scripts/MarioStates</text><text x="340.5" y="-74.5" font-family="Helvetica,sans-Serif" font-size="10" text-anchor="middle">/MarioState.hpp</text></a></g></g><g id="edge2" class="edge"><title>Node1-&gt;Node3</title><path fill="none" stroke="#191970" d="M301.16,-201.43C304.01,-187.22 310.35,-157.95 318.5,-134 321.55,-125.02 325.55,-115.42 329.29,-107.02"/><polygon fill="#191970" stroke="#191970" points="332.51 -108.38 333.5 -97.83 326.15 -105.47 332.51 -108.38"/></g><g id="node10" class="node"><title>Node10</title><g id="a_node10"><a target="_top" xlink:href="SmallMarioState_8hpp.html"><polygon fill="none" stroke="#000" points="327.5 -134.5 327.5 -164.5 437.5 -164.5 437.5 -134.5 327.5 -134.5"/><text x="335.5" y="-152.5" font-family="Helvetica,sans-Serif" font-size="10" text-anchor="start">Scripts/MarioStates</text><text x="382.5" y="-141.5" font-family="Helvetica,sans-Serif" font-size="10" text-anchor="middle">/SmallMarioState.hpp</text></a></g></g><g id="edge9" class="edge"><title>Node1-&gt;Node10</title><path fill="none" stroke="#191970" d="M311.39,-201.48C322.63,-193.42 339.92,-181.02 354.64,-170.47"/><polygon fill="#191970" stroke="#191970" points="356.85 -173.19 362.94 -164.52 352.77 -167.5 356.85 -173.19"/></g><g id="node4" class="node"><title>Node4</title><g id="a_node4"><a><polygon fill="none" stroke="#bfbfbf" points="0 -.5 0 -30.5 95 -30.5 95 -.5 0 -.5"/><text x="8" y="-18.5" font-family="Helvetica,sans-Serif" font-size="10" text-anchor="start">boost/serialization</text><text x="47.5" y="-7.5" font-family="Helvetica,sans-Serif" font-size="10" text-anchor="middle">/access.hpp</text></a></g></g><g id="edge3" class="edge"><title>Node3-&gt;Node4</title><path fill="none" stroke="#191970" d="M288.57,-71.11C242.72,-61.78 173.8,-47.4 105.23,-31.36"/><polygon fill="#191970" stroke="#191970" points="105.66 -27.86 95.12 -28.98 104.06 -34.68 105.66 -27.86"/></g><g id="node5" class="node"><title>Node5</title><g id="a_node5"><a><polygon fill="none" stroke="#bfbfbf" points="113 -.5 113 -30.5 208 -30.5 208 -.5 113 -.5"/><text x="121" y="-18.5" font-family="Helvetica,sans-Serif" font-size="10" text-anchor="start">boost/serialization</text><text x="160.5" y="-7.5" font-family="Helvetica,sans-Serif" font-size="10" text-anchor="middle">/export.hpp</text></a></g></g><g id="edge4" class="edge"><title>Node3-&gt;Node5</title><path fill="none" stroke="#191970" d="M301.44,-67.4C274.32,-57.6 237.99,-44.48 209,-34.02"/><polygon fill="#191970" stroke="#191970" points="210.08 -30.68 199.48 -30.58 207.7 -37.26 210.08 -30.68"/></g><g id="node6" class="node"><title>Node6</title><g id="a_node6"><a><polygon fill="none" stroke="#bfbfbf" points="226 -.5 226 -30.5 321 -30.5 321 -.5 226 -.5"/><text x="234" y="-18.5" font-family="Helvetica,sans-Serif" font-size="10" text-anchor="start">boost/serialization</text><text x="273.5" y="-7.5" font-family="Helvetica,sans-Serif" font-size="10" text-anchor="middle">/shared_ptr.hpp</text></a></g></g><g id="edge5" class="edge"><title>Node3-&gt;Node6</title><path fill="none" stroke="#191970" d="M325.96,-67.4C317.01,-58.71 305.36,-47.4 295.31,-37.66"/><polygon fill="#191970" stroke="#191970" points="297.62 -35.03 288.01 -30.58 292.75 -40.05 297.62 -35.03"/></g><g id="node7" class="node"><title>Node7</title><g id="a_node7"><a><polygon fill="none" stroke="#bfbfbf" points="339 -6 339 -25 476 -25 476 -6 339 -6"/><text x="407.5" y="-13" font-family="Helvetica,sans-Serif" font-size="10" text-anchor="middle">Texture/AnimatedSprite.hpp</text></a></g></g><g id="edge6" class="edge"><title>Node3-&gt;Node7</title><path fill="none" stroke="#191970" d="M355.04,-67.4C365.69,-57.06 380.16,-43.02 391.2,-32.31"/><polygon fill="#191970" stroke="#191970" points="393.8 -34.67 398.54 -25.19 388.92 -29.65 393.8 -34.67"/></g><g id="node8" class="node"><title>Node8</title><g id="a_node8"><a><polygon fill="none" stroke="#bfbfbf" points="494 -6 494 -25 551 -25 551 -6 494 -6"/><text x="522.5" y="-13" font-family="Helvetica,sans-Serif" font-size="10" text-anchor="middle">Point.hpp</text></a></g></g><g id="edge7" class="edge"><title>Node3-&gt;Node8</title><path fill="none" stroke="#191970" d="M382.22,-67.45C411.27,-57.54 450.87,-43.81 485.5,-31 487.39,-30.3 489.34,-29.57 491.29,-28.83"/><polygon fill="#191970" stroke="#191970" points="492.96 -31.94 501.03 -25.07 490.44 -25.4 492.96 -31.94"/></g><g id="node9" class="node"><title>Node9</title><g id="a_node9"><a><polygon fill="none" stroke="#bfbfbf" points="569 -6 569 -25 678 -25 678 -6 569 -6"/><text x="623.5" y="-13" font-family="Helvetica,sans-Serif" font-size="10" text-anchor="middle">Physics/Collision.hpp</text></a></g></g><g id="edge8" class="edge"><title>Node3-&gt;Node9</title><path fill="none" stroke="#191970" d="M392.07,-69.67C436.65,-59.44 502.83,-44.26 560.5,-31 565.76,-29.79 571.28,-28.52 576.75,-27.26"/><polygon fill="#191970" stroke="#191970" points="577.56 -30.67 586.52 -25.01 575.99 -23.85 577.56 -30.67"/></g><g id="edge10" class="edge"><title>Node10-&gt;Node3</title><path fill="none" stroke="#191970" d="M373.39,-134.4C368.05,-126.13 361.18,-115.51 355.1,-106.1"/><polygon fill="#191970" stroke="#191970" points="357.96 -104.08 349.6 -97.58 352.08 -107.88 357.96 -104.08"/></g></g></svg>