<?xml version="1.0" encoding="UTF-8" standalone="no"?>
<!DOCTYPE svg PUBLIC "-//W3C//DTD SVG 1.1//EN"
 "http://www.w3.org/Graphics/SVG/1.1/DTD/svg11.dtd">
<!-- Generated by graphviz version 2.44.0 ()
 -->
<!-- Title: src/Scripts/MarioBehaviour.hpp Pages: 1 -->
<svg width="954pt" height="207pt"
 viewBox="0.00 0.00 954.00 207.00" xmlns="http://www.w3.org/2000/svg" xmlns:xlink="http://www.w3.org/1999/xlink">
<g id="graph0" class="graph" transform="scale(1 1) rotate(0) translate(4 203)">
<title>src/Scripts/MarioBehaviour.hpp</title>
<!-- Node1 -->
<g id="node1" class="node">
<title>Node1</title>
<g id="a_node1"><a xlink:title=" ">
<polygon fill="#bfbfbf" stroke="black" points="462,-179.5 462,-198.5 614,-198.5 614,-179.5 462,-179.5"/>
<text text-anchor="middle" x="538" y="-186.5" font-family="Helvetica,sans-Serif" font-size="10.00">src/Scripts/MarioBehaviour.hpp</text>
</a>
</g>
</g>
<!-- Node2 -->
<g id="node2" class="node">
<title>Node2</title>
<g id="a_node2"><a xlink:href="Level_8hpp.html" target="_top" xlink:title=" ">
<polygon fill="none" stroke="black" points="255.5,-123.5 255.5,-142.5 392.5,-142.5 392.5,-123.5 255.5,-123.5"/>
<text text-anchor="middle" x="324" y="-130.5" font-family="Helvetica,sans-Serif" font-size="10.00">src/Game/Levels/Level.hpp</text>
</a>
</g>
</g>
<!-- Node1&#45;&gt;Node2 -->
<g id="edge1" class="edge">
<title>Node1&#45;&gt;Node2</title>
<path fill="none" stroke="midnightblue" d="M494.24,-176.96C453.83,-166.76 394.63,-151.82 357.75,-142.52"/>
<polygon fill="midnightblue" stroke="midnightblue" points="493.54,-180.39 504.09,-179.44 495.25,-173.6 493.54,-180.39"/>
</g>
<!-- Node8 -->
<g id="node8" class="node">
<title>Node8</title>
<g id="a_node8"><a xlink:href="NetworkingClient_8cpp.html" target="_top" xlink:title=" ">
<polygon fill="none" stroke="black" points="383.5,-56.5 383.5,-86.5 518.5,-86.5 518.5,-56.5 383.5,-56.5"/>
<text text-anchor="start" x="391.5" y="-74.5" font-family="Helvetica,sans-Serif" font-size="10.00">src/Networking/Networking</text>
<text text-anchor="middle" x="451" y="-63.5" font-family="Helvetica,sans-Serif" font-size="10.00">Client.cpp</text>
</a>
</g>
</g>
<!-- Node1&#45;&gt;Node8 -->
<g id="edge9" class="edge">
<title>Node1&#45;&gt;Node8</title>
<path fill="none" stroke="midnightblue" d="M496.93,-175.51C481.13,-168.54 464.6,-158.13 455,-143 444.23,-126.02 445.62,-101.86 448.01,-86.69"/>
<polygon fill="midnightblue" stroke="midnightblue" points="496.02,-178.92 506.6,-179.41 498.64,-172.43 496.02,-178.92"/>
</g>
<!-- Node9 -->
<g id="node9" class="node">
<title>Node9</title>
<g id="a_node9"><a xlink:href="FlagBehaviour_8cpp.html" target="_top" xlink:title=" ">
<polygon fill="none" stroke="black" points="464.5,-123.5 464.5,-142.5 611.5,-142.5 611.5,-123.5 464.5,-123.5"/>
<text text-anchor="middle" x="538" y="-130.5" font-family="Helvetica,sans-Serif" font-size="10.00">src/Scripts/FlagBehaviour.cpp</text>
</a>
</g>
</g>
<!-- Node1&#45;&gt;Node9 -->
<g id="edge10" class="edge">
<title>Node1&#45;&gt;Node9</title>
<path fill="none" stroke="midnightblue" d="M538,-168.8C538,-159.91 538,-149.78 538,-142.75"/>
<polygon fill="midnightblue" stroke="midnightblue" points="534.5,-169.08 538,-179.08 541.5,-169.08 534.5,-169.08"/>
</g>
<!-- Node10 -->
<g id="node10" class="node">
<title>Node10</title>
<g id="a_node10"><a xlink:href="MarioBehaviour_8cpp.html" target="_top" xlink:title=" ">
<polygon fill="none" stroke="black" points="630,-123.5 630,-142.5 782,-142.5 782,-123.5 630,-123.5"/>
<text text-anchor="middle" x="706" y="-130.5" font-family="Helvetica,sans-Serif" font-size="10.00">src/Scripts/MarioBehaviour.cpp</text>
</a>
</g>
</g>
<!-- Node1&#45;&gt;Node10 -->
<g id="edge11" class="edge">
<title>Node1&#45;&gt;Node10</title>
<path fill="none" stroke="midnightblue" d="M574.39,-176.3C606.04,-166.13 651.17,-151.62 679.5,-142.52"/>
<polygon fill="midnightblue" stroke="midnightblue" points="573.07,-173.05 564.62,-179.44 575.21,-179.72 573.07,-173.05"/>
</g>
<!-- Node11 -->
<g id="node11" class="node">
<title>Node11</title>
<g id="a_node11"><a xlink:href="StarBehaviour_8cpp.html" target="_top" xlink:title=" ">
<polygon fill="none" stroke="black" points="800,-123.5 800,-142.5 946,-142.5 946,-123.5 800,-123.5"/>
<text text-anchor="middle" x="873" y="-130.5" font-family="Helvetica,sans-Serif" font-size="10.00">src/Scripts/StarBehaviour.cpp</text>
</a>
</g>
</g>
<!-- Node1&#45;&gt;Node11 -->
<g id="edge12" class="edge">
<title>Node1&#45;&gt;Node11</title>
<path fill="none" stroke="midnightblue" d="M601.34,-177.79C664.64,-167.59 760.85,-152.08 820.17,-142.52"/>
<polygon fill="midnightblue" stroke="midnightblue" points="600.4,-174.4 591.08,-179.44 601.51,-181.31 600.4,-174.4"/>
</g>
<!-- Node3 -->
<g id="node3" class="node">
<title>Node3</title>
<g id="a_node3"><a xlink:href="Level1_8hpp.html" target="_top" xlink:title=" ">
<polygon fill="none" stroke="black" points="63,-62 63,-81 205,-81 205,-62 63,-62"/>
<text text-anchor="middle" x="134" y="-69" font-family="Helvetica,sans-Serif" font-size="10.00">src/Game/Levels/Level1.hpp</text>
</a>
</g>
</g>
<!-- Node2&#45;&gt;Node3 -->
<g id="edge2" class="edge">
<title>Node2&#45;&gt;Node3</title>
<path fill="none" stroke="midnightblue" d="M286.9,-120.38C249.96,-108.82 194.16,-91.34 161.17,-81.01"/>
<polygon fill="midnightblue" stroke="midnightblue" points="286.19,-123.83 296.78,-123.48 288.28,-117.15 286.19,-123.83"/>
</g>
<!-- Node6 -->
<g id="node6" class="node">
<title>Node6</title>
<g id="a_node6"><a xlink:href="Level2_8hpp.html" target="_top" xlink:title=" ">
<polygon fill="none" stroke="black" points="223,-62 223,-81 365,-81 365,-62 223,-62"/>
<text text-anchor="middle" x="294" y="-69" font-family="Helvetica,sans-Serif" font-size="10.00">src/Game/Levels/Level2.hpp</text>
</a>
</g>
</g>
<!-- Node2&#45;&gt;Node6 -->
<g id="edge5" class="edge">
<title>Node2&#45;&gt;Node6</title>
<path fill="none" stroke="midnightblue" d="M315.09,-114.33C309.54,-103.33 302.65,-89.66 298.29,-81.01"/>
<polygon fill="midnightblue" stroke="midnightblue" points="312.07,-116.12 319.7,-123.48 318.32,-112.97 312.07,-116.12"/>
</g>
<!-- Node2&#45;&gt;Node8 -->
<g id="edge8" class="edge">
<title>Node2&#45;&gt;Node8</title>
<path fill="none" stroke="midnightblue" d="M351.32,-119.2C371.84,-109.58 399.94,-96.42 421.07,-86.52"/>
<polygon fill="midnightblue" stroke="midnightblue" points="349.77,-116.06 342.2,-123.48 352.74,-122.4 349.77,-116.06"/>
</g>
<!-- Node4 -->
<g id="node4" class="node">
<title>Node4</title>
<g id="a_node4"><a xlink:href="Game_8cpp.html" target="_top" xlink:title=" ">
<polygon fill="none" stroke="black" points="160.5,-0.5 160.5,-19.5 267.5,-19.5 267.5,-0.5 160.5,-0.5"/>
<text text-anchor="middle" x="214" y="-7.5" font-family="Helvetica,sans-Serif" font-size="10.00">src/Game/Game.cpp</text>
</a>
</g>
</g>
<!-- Node3&#45;&gt;Node4 -->
<g id="edge3" class="edge">
<title>Node3&#45;&gt;Node4</title>
<path fill="none" stroke="midnightblue" d="M153.77,-55.79C169.12,-44.38 189.86,-28.96 202.56,-19.51"/>
<polygon fill="midnightblue" stroke="midnightblue" points="151.4,-53.2 145.46,-61.98 155.57,-58.82 151.4,-53.2"/>
</g>
<!-- Node5 -->
<g id="node5" class="node">
<title>Node5</title>
<g id="a_node5"><a xlink:href="Level1_8cpp.html" target="_top" xlink:title=" ">
<polygon fill="none" stroke="black" points="0,-0.5 0,-19.5 142,-19.5 142,-0.5 0,-0.5"/>
<text text-anchor="middle" x="71" y="-7.5" font-family="Helvetica,sans-Serif" font-size="10.00">src/Game/Levels/Level1.cpp</text>
</a>
</g>
</g>
<!-- Node3&#45;&gt;Node5 -->
<g id="edge4" class="edge">
<title>Node3&#45;&gt;Node5</title>
<path fill="none" stroke="midnightblue" d="M117.4,-54.82C105.43,-43.52 89.73,-28.69 80.01,-19.51"/>
<polygon fill="midnightblue" stroke="midnightblue" points="115.3,-57.65 124.97,-61.98 120.11,-52.56 115.3,-57.65"/>
</g>
<!-- Node6&#45;&gt;Node4 -->
<g id="edge6" class="edge">
<title>Node6&#45;&gt;Node4</title>
<path fill="none" stroke="midnightblue" d="M274.23,-55.79C258.88,-44.38 238.14,-28.96 225.44,-19.51"/>
<polygon fill="midnightblue" stroke="midnightblue" points="272.43,-58.82 282.54,-61.98 276.6,-53.2 272.43,-58.82"/>
</g>
<!-- Node7 -->
<g id="node7" class="node">
<title>Node7</title>
<g id="a_node7"><a xlink:href="Level2_8cpp.html" target="_top" xlink:title=" ">
<polygon fill="none" stroke="black" points="286,-0.5 286,-19.5 428,-19.5 428,-0.5 286,-0.5"/>
<text text-anchor="middle" x="357" y="-7.5" font-family="Helvetica,sans-Serif" font-size="10.00">src/Game/Levels/Level2.cpp</text>
</a>
</g>
</g>
<!-- Node6&#45;&gt;Node7 -->
<g id="edge7" class="edge">
<title>Node6&#45;&gt;Node7</title>
<path fill="none" stroke="midnightblue" d="M310.6,-54.82C322.57,-43.52 338.27,-28.69 347.99,-19.51"/>
<polygon fill="midnightblue" stroke="midnightblue" points="307.89,-52.56 303.03,-61.98 312.7,-57.65 307.89,-52.56"/>
</g>
</g>
</svg>
