<svg xmlns="http://www.w3.org/2000/svg" xmlns:xlink="http://www.w3.org/1999/xlink" width="143pt" height="95pt" viewBox="0 0 143 95"><g id="graph0" class="graph" transform="scale(1 1) rotate(0) translate(4 91)"><title>src/Networking/NetworkingServer.hpp</title><g id="node1" class="node"><title>Node1</title><g id="a_node1"><a><polygon fill="#bfbfbf" stroke="#000" points="0 -56.5 0 -86.5 135 -86.5 135 -56.5 0 -56.5"/><text x="8" y="-74.5" font-family="Helvetica,sans-Serif" font-size="10" text-anchor="start">src/Networking/Networking</text><text x="67.5" y="-63.5" font-family="Helvetica,sans-Serif" font-size="10" text-anchor="middle">Server.hpp</text></a></g></g><g id="node2" class="node"><title>Node2</title><g id="a_node2"><a><polygon fill="none" stroke="#bfbfbf" points="12 -.5 12 -19.5 53 -19.5 53 -.5 12 -.5"/><text x="32.5" y="-7.5" font-family="Helvetica,sans-Serif" font-size="10" text-anchor="middle">string</text></a></g></g><g id="edge1" class="edge"><title>Node1-&gt;Node2</title><path fill="none" stroke="#191970" d="M59.21,-56.4C54.28,-48.02 47.99,-37.33 42.75,-28.42"/><polygon fill="#191970" stroke="#191970" points="45.68 -26.5 37.59 -19.66 39.65 -30.05 45.68 -26.5"/></g><g id="node3" class="node"><title>Node3</title><g id="a_node3"><a><polygon fill="none" stroke="#bfbfbf" points="71.5 -.5 71.5 -19.5 133.5 -19.5 133.5 -.5 71.5 -.5"/><text x="102.5" y="-7.5" font-family="Helvetica,sans-Serif" font-size="10" text-anchor="middle">Scene.hpp</text></a></g></g><g id="edge2" class="edge"><title>Node1-&gt;Node3</title><path fill="none" stroke="#191970" d="M75.79,-56.4C80.72,-48.02 87.01,-37.33 92.25,-28.42"/><polygon fill="#191970" stroke="#191970" points="95.35 -30.05 97.41 -19.66 89.32 -26.5 95.35 -30.05"/></g></g></svg>