<?xml version="1.0" encoding="UTF-8" standalone="no"?>
<!DOCTYPE svg PUBLIC "-//W3C//DTD SVG 1.1//EN"
 "http://www.w3.org/Graphics/SVG/1.1/DTD/svg11.dtd">
<!-- Generated by graphviz version 2.44.0 ()
 -->
<!-- Title: src/Networking/NetworkingClient.cpp Pages: 1 -->
<svg width="2214pt" height="352pt"
 viewBox="0.00 0.00 2214.40 352.00" xmlns="http://www.w3.org/2000/svg" xmlns:xlink="http://www.w3.org/1999/xlink">
<g id="graph0" class="graph" transform="scale(1 1) rotate(0) translate(4 348)">
<title>src/Networking/NetworkingClient.cpp</title>
<!-- Node1 -->
<g id="node1" class="node">
<title>Node1</title>
<g id="a_node1"><a xlink:title=" ">
<polygon fill="#bfbfbf" stroke="black" points="1269.5,-313.5 1269.5,-343.5 1404.5,-343.5 1404.5,-313.5 1269.5,-313.5"/>
<text text-anchor="start" x="1277.5" y="-331.5" font-family="Helvetica,sans-Serif" font-size="10.00">src/Networking/Networking</text>
<text text-anchor="middle" x="1337" y="-320.5" font-family="Helvetica,sans-Serif" font-size="10.00">Client.cpp</text>
</a>
</g>
</g>
<!-- Node2 -->
<g id="node2" class="node">
<title>Node2</title>
<g id="a_node2"><a xlink:href="NetworkingClient_8hpp.html" target="_top" xlink:title=" ">
<polygon fill="none" stroke="black" points="1191.5,-257.5 1191.5,-276.5 1300.5,-276.5 1300.5,-257.5 1191.5,-257.5"/>
<text text-anchor="middle" x="1246" y="-264.5" font-family="Helvetica,sans-Serif" font-size="10.00">NetworkingClient.hpp</text>
</a>
</g>
</g>
<!-- Node1&#45;&gt;Node2 -->
<g id="edge1" class="edge">
<title>Node1&#45;&gt;Node2</title>
<path fill="none" stroke="midnightblue" d="M1315.43,-313.4C1301.12,-304.04 1282.39,-291.79 1267.99,-282.38"/>
<polygon fill="midnightblue" stroke="midnightblue" points="1269.53,-279.2 1259.24,-276.66 1265.7,-285.06 1269.53,-279.2"/>
</g>
<!-- Node4 -->
<g id="node4" class="node">
<title>Node4</title>
<g id="a_node4"><a xlink:title=" ">
<polygon fill="none" stroke="#bfbfbf" points="1256.5,-201.5 1256.5,-220.5 1417.5,-220.5 1417.5,-201.5 1256.5,-201.5"/>
<text text-anchor="middle" x="1337" y="-208.5" font-family="Helvetica,sans-Serif" font-size="10.00">Behaviour/CollisionBehaviour.hpp</text>
</a>
</g>
</g>
<!-- Node1&#45;&gt;Node4 -->
<g id="edge3" class="edge">
<title>Node1&#45;&gt;Node4</title>
<path fill="none" stroke="midnightblue" d="M1337,-313.34C1337,-292.62 1337,-254.02 1337,-230.9"/>
<polygon fill="midnightblue" stroke="midnightblue" points="1340.5,-230.67 1337,-220.67 1333.5,-230.67 1340.5,-230.67"/>
</g>
<!-- Node5 -->
<g id="node5" class="node">
<title>Node5</title>
<g id="a_node5"><a xlink:title=" ">
<polygon fill="none" stroke="#bfbfbf" points="335.5,-140 335.5,-159 460.5,-159 460.5,-140 335.5,-140"/>
<text text-anchor="middle" x="398" y="-147" font-family="Helvetica,sans-Serif" font-size="10.00">Builder/SceneBuilder.hpp</text>
</a>
</g>
</g>
<!-- Node1&#45;&gt;Node5 -->
<g id="edge4" class="edge">
<title>Node1&#45;&gt;Node5</title>
<path fill="none" stroke="midnightblue" d="M1269.3,-314.81C1123.75,-287.51 770.21,-221.15 474,-165 467.17,-163.71 460,-162.34 452.9,-160.99"/>
<polygon fill="midnightblue" stroke="midnightblue" points="453.08,-157.46 442.6,-159.03 451.77,-164.34 453.08,-157.46"/>
</g>
<!-- Node6 -->
<g id="node6" class="node">
<title>Node6</title>
<g id="a_node6"><a xlink:title=" ">
<polygon fill="none" stroke="#bfbfbf" points="1436,-201.5 1436,-220.5 1532,-220.5 1532,-201.5 1436,-201.5"/>
<text text-anchor="middle" x="1484" y="-208.5" font-family="Helvetica,sans-Serif" font-size="10.00">Engine/Engine.hpp</text>
</a>
</g>
</g>
<!-- Node1&#45;&gt;Node6 -->
<g id="edge5" class="edge">
<title>Node1&#45;&gt;Node6</title>
<path fill="none" stroke="midnightblue" d="M1355.03,-313.34C1382.96,-291.39 1436.44,-249.37 1464.97,-226.95"/>
<polygon fill="midnightblue" stroke="midnightblue" points="1467.27,-229.6 1472.97,-220.67 1462.94,-224.1 1467.27,-229.6"/>
</g>
<!-- Node7 -->
<g id="node7" class="node">
<title>Node7</title>
<g id="a_node7"><a xlink:href="TileConfig_8hpp.html" target="_top" xlink:title=" ">
<polygon fill="none" stroke="black" points="1112.5,-201.5 1112.5,-220.5 1189.5,-220.5 1189.5,-201.5 1112.5,-201.5"/>
<text text-anchor="middle" x="1151" y="-208.5" font-family="Helvetica,sans-Serif" font-size="10.00">TileConfig.hpp</text>
</a>
</g>
</g>
<!-- Node1&#45;&gt;Node7 -->
<g id="edge6" class="edge">
<title>Node1&#45;&gt;Node7</title>
<path fill="none" stroke="midnightblue" d="M1269.39,-317.44C1240.12,-310.24 1207.11,-297.94 1183,-277 1169.08,-264.91 1160.6,-245.34 1155.91,-230.83"/>
<polygon fill="midnightblue" stroke="midnightblue" points="1159.18,-229.55 1153.02,-220.93 1152.46,-231.51 1159.18,-229.55"/>
</g>
<!-- Node30 -->
<g id="node30" class="node">
<title>Node30</title>
<g id="a_node30"><a xlink:href="MarioBehaviour_8hpp.html" target="_top" xlink:title=" ">
<polygon fill="none" stroke="black" points="2033,-201.5 2033,-220.5 2169,-220.5 2169,-201.5 2033,-201.5"/>
<text text-anchor="middle" x="2101" y="-208.5" font-family="Helvetica,sans-Serif" font-size="10.00">Scripts/MarioBehaviour.hpp</text>
</a>
</g>
</g>
<!-- Node1&#45;&gt;Node30 -->
<g id="edge39" class="edge">
<title>Node1&#45;&gt;Node30</title>
<path fill="none" stroke="midnightblue" d="M1404.64,-321.58C1491.56,-313.56 1647.02,-297.82 1779,-277 1877.45,-261.47 1991.56,-236.85 2054.05,-222.79"/>
<polygon fill="midnightblue" stroke="midnightblue" points="2055.02,-226.16 2064,-220.54 2053.47,-219.33 2055.02,-226.16"/>
</g>
<!-- Node35 -->
<g id="node35" class="node">
<title>Node35</title>
<g id="a_node35"><a xlink:href="Level_8hpp.html" target="_top" xlink:title=" ">
<polygon fill="none" stroke="black" points="1650,-257.5 1650,-276.5 1770,-276.5 1770,-257.5 1650,-257.5"/>
<text text-anchor="middle" x="1710" y="-264.5" font-family="Helvetica,sans-Serif" font-size="10.00">Game/Levels/Level.hpp</text>
</a>
</g>
</g>
<!-- Node1&#45;&gt;Node35 -->
<g id="edge50" class="edge">
<title>Node1&#45;&gt;Node35</title>
<path fill="none" stroke="midnightblue" d="M1404.55,-316.72C1473.34,-305.75 1579.19,-288.87 1646.49,-278.13"/>
<polygon fill="midnightblue" stroke="midnightblue" points="1647.21,-281.56 1656.54,-276.53 1646.11,-274.65 1647.21,-281.56"/>
</g>
<!-- Node3 -->
<g id="node3" class="node">
<title>Node3</title>
<g id="a_node3"><a xlink:title=" ">
<polygon fill="none" stroke="#bfbfbf" points="1983.5,-140 1983.5,-159 2024.5,-159 2024.5,-140 1983.5,-140"/>
<text text-anchor="middle" x="2004" y="-147" font-family="Helvetica,sans-Serif" font-size="10.00">string</text>
</a>
</g>
</g>
<!-- Node2&#45;&gt;Node3 -->
<g id="edge2" class="edge">
<title>Node2&#45;&gt;Node3</title>
<path fill="none" stroke="midnightblue" d="M1243.07,-257.44C1238.9,-243.51 1233.29,-215.99 1248,-201 1304.65,-143.28 1896.77,-185.52 1975,-165 1976.72,-164.55 1978.46,-163.99 1980.19,-163.35"/>
<polygon fill="midnightblue" stroke="midnightblue" points="1982,-166.37 1989.71,-159.11 1979.15,-159.98 1982,-166.37"/>
</g>
<!-- Node7&#45;&gt;Node5 -->
<g id="edge11" class="edge">
<title>Node7&#45;&gt;Node5</title>
<path fill="none" stroke="midnightblue" d="M1112.35,-209.05C1008.74,-206.14 716.24,-195.63 475,-165 466.27,-163.89 457.04,-162.42 448.12,-160.84"/>
<polygon fill="midnightblue" stroke="midnightblue" points="448.69,-157.38 438.22,-159.01 447.42,-164.27 448.69,-157.38"/>
</g>
<!-- Node8 -->
<g id="node8" class="node">
<title>Node8</title>
<g id="a_node8"><a xlink:title=" ">
<polygon fill="none" stroke="#bfbfbf" points="1208.5,-140 1208.5,-159 1267.5,-159 1267.5,-140 1208.5,-140"/>
<text text-anchor="middle" x="1238" y="-147" font-family="Helvetica,sans-Serif" font-size="10.00">functional</text>
</a>
</g>
</g>
<!-- Node7&#45;&gt;Node8 -->
<g id="edge7" class="edge">
<title>Node7&#45;&gt;Node8</title>
<path fill="none" stroke="midnightblue" d="M1163.46,-201.48C1177.42,-191.93 1200.26,-176.31 1216.99,-164.87"/>
<polygon fill="midnightblue" stroke="midnightblue" points="1219.28,-167.54 1225.56,-159.01 1215.33,-161.77 1219.28,-167.54"/>
</g>
<!-- Node9 -->
<g id="node9" class="node">
<title>Node9</title>
<g id="a_node9"><a xlink:title=" ">
<polygon fill="none" stroke="#bfbfbf" points="1285.5,-140 1285.5,-159 1320.5,-159 1320.5,-140 1285.5,-140"/>
<text text-anchor="middle" x="1303" y="-147" font-family="Helvetica,sans-Serif" font-size="10.00">map</text>
</a>
</g>
</g>
<!-- Node7&#45;&gt;Node9 -->
<g id="edge8" class="edge">
<title>Node7&#45;&gt;Node9</title>
<path fill="none" stroke="midnightblue" d="M1179.05,-201.46C1204.94,-193.23 1244.21,-179.87 1277,-165 1277.84,-164.62 1278.7,-164.22 1279.56,-163.8"/>
<polygon fill="midnightblue" stroke="midnightblue" points="1281.39,-166.79 1288.64,-159.06 1278.16,-160.58 1281.39,-166.79"/>
</g>
<!-- Node10 -->
<g id="node10" class="node">
<title>Node10</title>
<g id="a_node10"><a xlink:title=" ">
<polygon fill="none" stroke="#bfbfbf" points="509.5,-6 509.5,-25 560.5,-25 560.5,-6 509.5,-6"/>
<text text-anchor="middle" x="535" y="-13" font-family="Helvetica,sans-Serif" font-size="10.00">memory</text>
</a>
</g>
</g>
<!-- Node7&#45;&gt;Node10 -->
<g id="edge9" class="edge">
<title>Node7&#45;&gt;Node10</title>
<path fill="none" stroke="midnightblue" d="M1112.33,-208.5C982.03,-203.28 566.08,-185.09 546,-165 511.65,-130.64 521.8,-66.71 529.63,-35.13"/>
<polygon fill="midnightblue" stroke="midnightblue" points="533.12,-35.64 532.33,-25.08 526.36,-33.83 533.12,-35.64"/>
</g>
<!-- Node11 -->
<g id="node11" class="node">
<title>Node11</title>
<g id="a_node11"><a xlink:title=" ">
<polygon fill="none" stroke="#bfbfbf" points="1488,-140 1488,-159 1640,-159 1640,-140 1488,-140"/>
<text text-anchor="middle" x="1564" y="-147" font-family="Helvetica,sans-Serif" font-size="10.00">Builder/GameObjectBuilder.hpp</text>
</a>
</g>
</g>
<!-- Node7&#45;&gt;Node11 -->
<g id="edge10" class="edge">
<title>Node7&#45;&gt;Node11</title>
<path fill="none" stroke="midnightblue" d="M1189.64,-204.44C1197.69,-203.29 1206.12,-202.1 1214,-201 1331.72,-184.6 1361.51,-183 1479,-165 1487.6,-163.68 1496.68,-162.22 1505.57,-160.74"/>
<polygon fill="midnightblue" stroke="midnightblue" points="1506.22,-164.18 1515.5,-159.07 1505.06,-157.27 1506.22,-164.18"/>
</g>
<!-- Node12 -->
<g id="node12" class="node">
<title>Node12</title>
<g id="a_node12"><a xlink:title=" ">
<polygon fill="none" stroke="#bfbfbf" points="1808,-140 1808,-159 1966,-159 1966,-140 1808,-140"/>
<text text-anchor="middle" x="1887" y="-147" font-family="Helvetica,sans-Serif" font-size="10.00">Director/GameObjectFactory.hpp</text>
</a>
</g>
</g>
<!-- Node7&#45;&gt;Node12 -->
<g id="edge12" class="edge">
<title>Node7&#45;&gt;Node12</title>
<path fill="none" stroke="midnightblue" d="M1189.59,-203.99C1197.64,-202.87 1206.09,-201.81 1214,-201 1473.15,-174.56 1540.15,-194.21 1799,-165 1809.26,-163.84 1820.15,-162.3 1830.64,-160.66"/>
<polygon fill="midnightblue" stroke="midnightblue" points="1831.22,-164.11 1840.54,-159.06 1830.11,-157.2 1831.22,-164.11"/>
</g>
<!-- Node13 -->
<g id="node13" class="node">
<title>Node13</title>
<g id="a_node13"><a xlink:href="CoinBehaviour_8hpp.html" target="_top" xlink:title=" ">
<polygon fill="none" stroke="black" points="555.5,-140 555.5,-159 686.5,-159 686.5,-140 555.5,-140"/>
<text text-anchor="middle" x="621" y="-147" font-family="Helvetica,sans-Serif" font-size="10.00">Scripts/CoinBehaviour.hpp</text>
</a>
</g>
</g>
<!-- Node7&#45;&gt;Node13 -->
<g id="edge13" class="edge">
<title>Node7&#45;&gt;Node13</title>
<path fill="none" stroke="midnightblue" d="M1112.2,-207.38C1033.46,-201.79 849.36,-187.36 696,-165 687.98,-163.83 679.51,-162.39 671.26,-160.88"/>
<polygon fill="midnightblue" stroke="midnightblue" points="671.84,-157.43 661.36,-159.01 670.54,-164.31 671.84,-157.43"/>
</g>
<!-- Node15 -->
<g id="node15" class="node">
<title>Node15</title>
<g id="a_node15"><a xlink:href="CoinCounter_8hpp.html" target="_top" xlink:title=" ">
<polygon fill="none" stroke="black" points="389.5,-73 389.5,-92 498.5,-92 498.5,-73 389.5,-73"/>
<text text-anchor="middle" x="444" y="-80" font-family="Helvetica,sans-Serif" font-size="10.00">../UI/CoinCounter.hpp</text>
</a>
</g>
</g>
<!-- Node7&#45;&gt;Node15 -->
<g id="edge32" class="edge">
<title>Node7&#45;&gt;Node15</title>
<path fill="none" stroke="midnightblue" d="M1112.15,-209.01C981.98,-205.45 566.35,-192.06 513,-165 485.28,-150.94 464.27,-120.34 453.07,-100.89"/>
<polygon fill="midnightblue" stroke="midnightblue" points="456.14,-99.2 448.25,-92.12 450,-102.57 456.14,-99.2"/>
</g>
<!-- Node24 -->
<g id="node24" class="node">
<title>Node24</title>
<g id="a_node24"><a xlink:href="FlagBehaviour_8hpp.html" target="_top" xlink:title=" ">
<polygon fill="none" stroke="black" points="1338.5,-140 1338.5,-159 1469.5,-159 1469.5,-140 1338.5,-140"/>
<text text-anchor="middle" x="1404" y="-147" font-family="Helvetica,sans-Serif" font-size="10.00">Scripts/FlagBehaviour.hpp</text>
</a>
</g>
</g>
<!-- Node7&#45;&gt;Node24 -->
<g id="edge28" class="edge">
<title>Node7&#45;&gt;Node24</title>
<path fill="none" stroke="midnightblue" d="M1187.25,-201.48C1232.15,-190.92 1308.71,-172.91 1357.78,-161.37"/>
<polygon fill="midnightblue" stroke="midnightblue" points="1358.89,-164.71 1367.82,-159.01 1357.28,-157.89 1358.89,-164.71"/>
</g>
<!-- Node25 -->
<g id="node25" class="node">
<title>Node25</title>
<g id="a_node25"><a xlink:href="StarBehaviour_8hpp.html" target="_top" xlink:title=" ">
<polygon fill="none" stroke="black" points="705,-140 705,-159 835,-159 835,-140 705,-140"/>
<text text-anchor="middle" x="770" y="-147" font-family="Helvetica,sans-Serif" font-size="10.00">Scripts/StarBehaviour.hpp</text>
</a>
</g>
</g>
<!-- Node7&#45;&gt;Node25 -->
<g id="edge30" class="edge">
<title>Node7&#45;&gt;Node25</title>
<path fill="none" stroke="midnightblue" d="M1112.14,-204.91C1053.78,-197.13 940.1,-181.45 844,-165 836.81,-163.77 829.25,-162.39 821.82,-160.98"/>
<polygon fill="midnightblue" stroke="midnightblue" points="822.29,-157.51 811.81,-159.06 820.97,-164.38 822.29,-157.51"/>
</g>
<!-- Node26 -->
<g id="node26" class="node">
<title>Node26</title>
<g id="a_node26"><a xlink:href="EnemyAttackBehaviour_8hpp.html" target="_top" xlink:title=" ">
<polygon fill="none" stroke="black" points="853,-140 853,-159 1023,-159 1023,-140 853,-140"/>
<text text-anchor="middle" x="938" y="-147" font-family="Helvetica,sans-Serif" font-size="10.00">Scripts/EnemyAttackBehaviour.hpp</text>
</a>
</g>
</g>
<!-- Node7&#45;&gt;Node26 -->
<g id="edge33" class="edge">
<title>Node7&#45;&gt;Node26</title>
<path fill="none" stroke="midnightblue" d="M1120.48,-201.48C1083.08,-191.03 1019.57,-173.29 978.21,-161.73"/>
<polygon fill="midnightblue" stroke="midnightblue" points="979.03,-158.33 968.46,-159.01 977.15,-165.07 979.03,-158.33"/>
</g>
<!-- Node27 -->
<g id="node27" class="node">
<title>Node27</title>
<g id="a_node27"><a xlink:href="DynamicAnimationBehaviour_8hpp.html" target="_top" xlink:title=" ">
<polygon fill="none" stroke="black" points="1658.5,-134.5 1658.5,-164.5 1789.5,-164.5 1789.5,-134.5 1658.5,-134.5"/>
<text text-anchor="start" x="1666.5" y="-152.5" font-family="Helvetica,sans-Serif" font-size="10.00">Scripts/DynamicAnimation</text>
<text text-anchor="middle" x="1724" y="-141.5" font-family="Helvetica,sans-Serif" font-size="10.00">Behaviour.hpp</text>
</a>
</g>
</g>
<!-- Node7&#45;&gt;Node27 -->
<g id="edge35" class="edge">
<title>Node7&#45;&gt;Node27</title>
<path fill="none" stroke="midnightblue" d="M1189.6,-204.12C1197.65,-202.99 1206.1,-201.89 1214,-201 1403.48,-179.64 1455.07,-191.04 1648.02,-165.03"/>
<polygon fill="midnightblue" stroke="midnightblue" points="1648.78,-168.46 1658.22,-163.64 1647.84,-161.52 1648.78,-168.46"/>
</g>
<!-- Node29 -->
<g id="node29" class="node">
<title>Node29</title>
<g id="a_node29"><a xlink:title=" ">
<polygon fill="none" stroke="#bfbfbf" points="1041.5,-140 1041.5,-159 1190.5,-159 1190.5,-140 1041.5,-140"/>
<text text-anchor="middle" x="1116" y="-147" font-family="Helvetica,sans-Serif" font-size="10.00">Physics/ForceDrivenEntity.hpp</text>
</a>
</g>
</g>
<!-- Node7&#45;&gt;Node29 -->
<g id="edge38" class="edge">
<title>Node7&#45;&gt;Node29</title>
<path fill="none" stroke="midnightblue" d="M1145.99,-201.48C1140.84,-192.73 1132.69,-178.87 1126.18,-167.81"/>
<polygon fill="midnightblue" stroke="midnightblue" points="1129.09,-165.85 1121.01,-159.01 1123.06,-169.4 1129.09,-165.85"/>
</g>
<!-- Node14 -->
<g id="node14" class="node">
<title>Node14</title>
<g id="a_node14"><a xlink:title=" ">
<polygon fill="none" stroke="#bfbfbf" points="1062,-73 1062,-92 1166,-92 1166,-73 1062,-73"/>
<text text-anchor="middle" x="1114" y="-80" font-family="Helvetica,sans-Serif" font-size="10.00">BehaviourScript.hpp</text>
</a>
</g>
</g>
<!-- Node13&#45;&gt;Node14 -->
<g id="edge14" class="edge">
<title>Node13&#45;&gt;Node14</title>
<path fill="none" stroke="midnightblue" d="M662.17,-140C673.14,-137.88 684.99,-135.73 696,-134 821.69,-114.28 969.7,-98.03 1051.57,-89.65"/>
<polygon fill="midnightblue" stroke="midnightblue" points="1052.11,-93.11 1061.7,-88.62 1051.4,-86.15 1052.11,-93.11"/>
</g>
<!-- Node13&#45;&gt;Node15 -->
<g id="edge15" class="edge">
<title>Node13&#45;&gt;Node15</title>
<path fill="none" stroke="midnightblue" d="M597.5,-139.87C566.6,-128.52 512.14,-108.52 477.09,-95.65"/>
<polygon fill="midnightblue" stroke="midnightblue" points="477.91,-92.23 467.32,-92.06 475.5,-98.8 477.91,-92.23"/>
</g>
<!-- Node16 -->
<g id="node16" class="node">
<title>Node16</title>
<g id="a_node16"><a xlink:title=" ">
<polygon fill="none" stroke="#bfbfbf" points="578.5,-0.5 578.5,-30.5 673.5,-30.5 673.5,-0.5 578.5,-0.5"/>
<text text-anchor="start" x="586.5" y="-18.5" font-family="Helvetica,sans-Serif" font-size="10.00">boost/serialization</text>
<text text-anchor="middle" x="626" y="-7.5" font-family="Helvetica,sans-Serif" font-size="10.00">/access.hpp</text>
</a>
</g>
</g>
<!-- Node13&#45;&gt;Node16 -->
<g id="edge25" class="edge">
<title>Node13&#45;&gt;Node16</title>
<path fill="none" stroke="midnightblue" d="M621.33,-139.84C622.08,-120.02 623.94,-70.77 625.08,-40.84"/>
<polygon fill="midnightblue" stroke="midnightblue" points="628.58,-40.91 625.46,-30.78 621.58,-40.64 628.58,-40.91"/>
</g>
<!-- Node17 -->
<g id="node17" class="node">
<title>Node17</title>
<g id="a_node17"><a xlink:title=" ">
<polygon fill="none" stroke="#bfbfbf" points="804.5,-0.5 804.5,-30.5 899.5,-30.5 899.5,-0.5 804.5,-0.5"/>
<text text-anchor="start" x="812.5" y="-18.5" font-family="Helvetica,sans-Serif" font-size="10.00">boost/serialization</text>
<text text-anchor="middle" x="852" y="-7.5" font-family="Helvetica,sans-Serif" font-size="10.00">/export.hpp</text>
</a>
</g>
</g>
<!-- Node13&#45;&gt;Node17 -->
<g id="edge26" class="edge">
<title>Node13&#45;&gt;Node17</title>
<path fill="none" stroke="midnightblue" d="M636.16,-139.84C672.91,-118.83 767.51,-64.78 818.4,-35.7"/>
<polygon fill="midnightblue" stroke="midnightblue" points="820.43,-38.57 827.37,-30.57 816.96,-32.49 820.43,-38.57"/>
</g>
<!-- Node18 -->
<g id="node18" class="node">
<title>Node18</title>
<g id="a_node18"><a xlink:title=" ">
<polygon fill="none" stroke="#bfbfbf" points="691.5,-0.5 691.5,-30.5 786.5,-30.5 786.5,-0.5 691.5,-0.5"/>
<text text-anchor="start" x="699.5" y="-18.5" font-family="Helvetica,sans-Serif" font-size="10.00">boost/serialization</text>
<text text-anchor="middle" x="739" y="-7.5" font-family="Helvetica,sans-Serif" font-size="10.00">/shared_ptr.hpp</text>
</a>
</g>
</g>
<!-- Node13&#45;&gt;Node18 -->
<g id="edge27" class="edge">
<title>Node13&#45;&gt;Node18</title>
<path fill="none" stroke="midnightblue" d="M628.74,-139.84C646.93,-119.5 692.82,-68.16 719.31,-38.52"/>
<polygon fill="midnightblue" stroke="midnightblue" points="722.18,-40.57 726.23,-30.78 716.96,-35.91 722.18,-40.57"/>
</g>
<!-- Node15&#45;&gt;Node10 -->
<g id="edge16" class="edge">
<title>Node15&#45;&gt;Node10</title>
<path fill="none" stroke="midnightblue" d="M456.27,-72.73C471.15,-62.11 496.43,-44.05 514.33,-31.26"/>
<polygon fill="midnightblue" stroke="midnightblue" points="516.82,-33.79 522.92,-25.13 512.75,-28.09 516.82,-33.79"/>
</g>
<!-- Node15&#45;&gt;Node16 -->
<g id="edge17" class="edge">
<title>Node15&#45;&gt;Node16</title>
<path fill="none" stroke="midnightblue" d="M468.17,-72.87C495.83,-62.99 541.86,-46.55 577.09,-33.97"/>
<polygon fill="midnightblue" stroke="midnightblue" points="578.48,-37.19 586.72,-30.53 576.13,-30.6 578.48,-37.19"/>
</g>
<!-- Node15&#45;&gt;Node17 -->
<g id="edge18" class="edge">
<title>Node15&#45;&gt;Node17</title>
<path fill="none" stroke="midnightblue" d="M498.72,-75.45C566,-67.61 683.83,-52.57 794.22,-31.02"/>
<polygon fill="midnightblue" stroke="midnightblue" points="795.06,-34.42 804.19,-29.05 793.7,-27.56 795.06,-34.42"/>
</g>
<!-- Node15&#45;&gt;Node18 -->
<g id="edge19" class="edge">
<title>Node15&#45;&gt;Node18</title>
<path fill="none" stroke="midnightblue" d="M486.68,-72.98C532.34,-63.75 607.14,-48.28 681.45,-31.07"/>
<polygon fill="midnightblue" stroke="midnightblue" points="682.5,-34.42 691.45,-28.75 680.92,-27.6 682.5,-34.42"/>
</g>
<!-- Node19 -->
<g id="node19" class="node">
<title>Node19</title>
<g id="a_node19"><a xlink:title=" ">
<polygon fill="none" stroke="#bfbfbf" points="387,-0.5 387,-30.5 491,-30.5 491,-0.5 387,-0.5"/>
<text text-anchor="start" x="395" y="-18.5" font-family="Helvetica,sans-Serif" font-size="10.00">boost/archive/binary</text>
<text text-anchor="middle" x="439" y="-7.5" font-family="Helvetica,sans-Serif" font-size="10.00">_iarchive.hpp</text>
</a>
</g>
</g>
<!-- Node15&#45;&gt;Node19 -->
<g id="edge20" class="edge">
<title>Node15&#45;&gt;Node19</title>
<path fill="none" stroke="midnightblue" d="M443.33,-72.73C442.7,-64.54 441.72,-51.92 440.86,-40.71"/>
<polygon fill="midnightblue" stroke="midnightblue" points="444.34,-40.29 440.08,-30.59 437.36,-40.83 444.34,-40.29"/>
</g>
<!-- Node20 -->
<g id="node20" class="node">
<title>Node20</title>
<g id="a_node20"><a xlink:title=" ">
<polygon fill="none" stroke="#bfbfbf" points="0,-0.5 0,-30.5 104,-30.5 104,-0.5 0,-0.5"/>
<text text-anchor="start" x="8" y="-18.5" font-family="Helvetica,sans-Serif" font-size="10.00">boost/archive/binary</text>
<text text-anchor="middle" x="52" y="-7.5" font-family="Helvetica,sans-Serif" font-size="10.00">_oarchive.hpp</text>
</a>
</g>
</g>
<!-- Node15&#45;&gt;Node20 -->
<g id="edge21" class="edge">
<title>Node15&#45;&gt;Node20</title>
<path fill="none" stroke="midnightblue" d="M389.29,-74.55C325.52,-66.14 216.78,-50.83 114.1,-31.12"/>
<polygon fill="midnightblue" stroke="midnightblue" points="114.67,-27.67 104.18,-29.2 113.33,-34.54 114.67,-27.67"/>
</g>
<!-- Node21 -->
<g id="node21" class="node">
<title>Node21</title>
<g id="a_node21"><a xlink:title=" ">
<polygon fill="none" stroke="#bfbfbf" points="122.5,-6 122.5,-25 179.5,-25 179.5,-6 122.5,-6"/>
<text text-anchor="middle" x="151" y="-13" font-family="Helvetica,sans-Serif" font-size="10.00">Color.hpp</text>
</a>
</g>
</g>
<!-- Node15&#45;&gt;Node21 -->
<g id="edge22" class="edge">
<title>Node15&#45;&gt;Node21</title>
<path fill="none" stroke="midnightblue" d="M389.39,-73.63C337.09,-65.41 256.27,-50.94 188,-31 185.57,-30.29 183.07,-29.48 180.58,-28.63"/>
<polygon fill="midnightblue" stroke="midnightblue" points="181.72,-25.32 171.13,-25.14 179.3,-31.89 181.72,-25.32"/>
</g>
<!-- Node22 -->
<g id="node22" class="node">
<title>Node22</title>
<g id="a_node22"><a xlink:title=" ">
<polygon fill="none" stroke="#bfbfbf" points="197.5,-6 197.5,-25 276.5,-25 276.5,-6 197.5,-6"/>
<text text-anchor="middle" x="237" y="-13" font-family="Helvetica,sans-Serif" font-size="10.00">Transform.hpp</text>
</a>
</g>
</g>
<!-- Node15&#45;&gt;Node22 -->
<g id="edge23" class="edge">
<title>Node15&#45;&gt;Node22</title>
<path fill="none" stroke="midnightblue" d="M416.51,-72.87C379.83,-61.35 314.77,-40.92 273.87,-28.08"/>
<polygon fill="midnightblue" stroke="midnightblue" points="274.86,-24.72 264.27,-25.06 272.76,-31.4 274.86,-24.72"/>
</g>
<!-- Node23 -->
<g id="node23" class="node">
<title>Node23</title>
<g id="a_node23"><a xlink:title=" ">
<polygon fill="none" stroke="#bfbfbf" points="295,-6 295,-25 369,-25 369,-6 295,-6"/>
<text text-anchor="middle" x="332" y="-13" font-family="Helvetica,sans-Serif" font-size="10.00">UIObject.hpp</text>
</a>
</g>
</g>
<!-- Node15&#45;&gt;Node23 -->
<g id="edge24" class="edge">
<title>Node15&#45;&gt;Node23</title>
<path fill="none" stroke="midnightblue" d="M428.9,-72.73C410.09,-61.82 377.75,-43.05 355.64,-30.22"/>
<polygon fill="midnightblue" stroke="midnightblue" points="357.27,-27.12 346.87,-25.13 353.76,-33.17 357.27,-27.12"/>
</g>
<!-- Node24&#45;&gt;Node14 -->
<g id="edge29" class="edge">
<title>Node24&#45;&gt;Node14</title>
<path fill="none" stroke="midnightblue" d="M1365.79,-139.94C1313.41,-128.2 1219.32,-107.11 1162.17,-94.3"/>
<polygon fill="midnightblue" stroke="midnightblue" points="1162.82,-90.86 1152.3,-92.08 1161.29,-97.69 1162.82,-90.86"/>
</g>
<!-- Node25&#45;&gt;Node14 -->
<g id="edge31" class="edge">
<title>Node25&#45;&gt;Node14</title>
<path fill="none" stroke="midnightblue" d="M813.42,-139.93C823.46,-137.96 834.1,-135.9 844,-134 917.86,-119.86 1003.17,-103.98 1057.8,-93.87"/>
<polygon fill="midnightblue" stroke="midnightblue" points="1058.44,-97.31 1067.63,-92.05 1057.16,-90.42 1058.44,-97.31"/>
</g>
<!-- Node26&#45;&gt;Node14 -->
<g id="edge34" class="edge">
<title>Node26&#45;&gt;Node14</title>
<path fill="none" stroke="midnightblue" d="M961.37,-139.87C992.09,-128.52 1046.24,-108.52 1081.1,-95.65"/>
<polygon fill="midnightblue" stroke="midnightblue" points="1082.64,-98.81 1090.81,-92.06 1080.22,-92.24 1082.64,-98.81"/>
</g>
<!-- Node27&#45;&gt;Node14 -->
<g id="edge36" class="edge">
<title>Node27&#45;&gt;Node14</title>
<path fill="none" stroke="midnightblue" d="M1658.21,-135.41C1655.1,-134.91 1652.02,-134.43 1649,-134 1478.87,-109.58 1276.53,-94.16 1176.45,-87.42"/>
<polygon fill="midnightblue" stroke="midnightblue" points="1176.43,-83.92 1166.22,-86.74 1175.96,-90.9 1176.43,-83.92"/>
</g>
<!-- Node28 -->
<g id="node28" class="node">
<title>Node28</title>
<g id="a_node28"><a xlink:title=" ">
<polygon fill="none" stroke="#bfbfbf" points="1469.5,-6 1469.5,-25 1606.5,-25 1606.5,-6 1469.5,-6"/>
<text text-anchor="middle" x="1538" y="-13" font-family="Helvetica,sans-Serif" font-size="10.00">Texture/AnimatedSprite.hpp</text>
</a>
</g>
</g>
<!-- Node27&#45;&gt;Node28 -->
<g id="edge37" class="edge">
<title>Node27&#45;&gt;Node28</title>
<path fill="none" stroke="midnightblue" d="M1658.39,-135.23C1633.04,-127.59 1605.12,-115.84 1584,-98 1563.98,-81.08 1550.92,-53.12 1544,-34.75"/>
<polygon fill="midnightblue" stroke="midnightblue" points="1547.26,-33.47 1540.63,-25.2 1540.66,-35.8 1547.26,-33.47"/>
</g>
<!-- Node30&#45;&gt;Node14 -->
<g id="edge40" class="edge">
<title>Node30&#45;&gt;Node14</title>
<path fill="none" stroke="midnightblue" d="M2096.52,-201.41C2087.35,-184.86 2064.7,-148.89 2034,-134 1995.45,-115.3 1376.9,-92.53 1176.28,-85.6"/>
<polygon fill="midnightblue" stroke="midnightblue" points="1176.32,-82.1 1166.2,-85.25 1176.08,-89.09 1176.32,-82.1"/>
</g>
<!-- Node31 -->
<g id="node31" class="node">
<title>Node31</title>
<g id="a_node31"><a xlink:href="MarioState_8hpp.html" target="_top" xlink:title=" ">
<polygon fill="none" stroke="black" points="1592.5,-67.5 1592.5,-97.5 1695.5,-97.5 1695.5,-67.5 1592.5,-67.5"/>
<text text-anchor="start" x="1600.5" y="-85.5" font-family="Helvetica,sans-Serif" font-size="10.00">Scripts/MarioStates</text>
<text text-anchor="middle" x="1644" y="-74.5" font-family="Helvetica,sans-Serif" font-size="10.00">/MarioState.hpp</text>
</a>
</g>
</g>
<!-- Node30&#45;&gt;Node31 -->
<g id="edge41" class="edge">
<title>Node30&#45;&gt;Node31</title>
<path fill="none" stroke="midnightblue" d="M2145.01,-201.44C2165.4,-195.03 2187.79,-183.97 2200,-165 2207.46,-153.42 2209.29,-144.17 2200,-134 2167.2,-98.09 1844.01,-87.44 1705.98,-84.52"/>
<polygon fill="midnightblue" stroke="midnightblue" points="1706.04,-81.02 1695.97,-84.32 1705.9,-88.02 1706.04,-81.02"/>
</g>
<!-- Node34 -->
<g id="node34" class="node">
<title>Node34</title>
<g id="a_node34"><a xlink:href="SmallMarioState_8hpp.html" target="_top" xlink:title=" ">
<polygon fill="none" stroke="black" points="2081,-134.5 2081,-164.5 2191,-164.5 2191,-134.5 2081,-134.5"/>
<text text-anchor="start" x="2089" y="-152.5" font-family="Helvetica,sans-Serif" font-size="10.00">Scripts/MarioStates</text>
<text text-anchor="middle" x="2136" y="-141.5" font-family="Helvetica,sans-Serif" font-size="10.00">/SmallMarioState.hpp</text>
</a>
</g>
</g>
<!-- Node30&#45;&gt;Node34 -->
<g id="edge48" class="edge">
<title>Node30&#45;&gt;Node34</title>
<path fill="none" stroke="midnightblue" d="M2106.01,-201.48C2110.36,-194.09 2116.84,-183.08 2122.66,-173.17"/>
<polygon fill="midnightblue" stroke="midnightblue" points="2125.7,-174.92 2127.75,-164.52 2119.66,-171.37 2125.7,-174.92"/>
</g>
<!-- Node31&#45;&gt;Node16 -->
<g id="edge42" class="edge">
<title>Node31&#45;&gt;Node16</title>
<path fill="none" stroke="midnightblue" d="M1592.46,-80.16C1422.44,-75.53 879.55,-59.03 683.7,-31.01"/>
<polygon fill="midnightblue" stroke="midnightblue" points="683.93,-27.51 673.52,-29.5 682.9,-34.43 683.93,-27.51"/>
</g>
<!-- Node31&#45;&gt;Node17 -->
<g id="edge43" class="edge">
<title>Node31&#45;&gt;Node17</title>
<path fill="none" stroke="midnightblue" d="M1592.34,-77.26C1450.96,-65.66 1058.4,-33.44 909.91,-21.25"/>
<polygon fill="midnightblue" stroke="midnightblue" points="909.9,-17.74 899.65,-20.41 909.33,-24.72 909.9,-17.74"/>
</g>
<!-- Node31&#45;&gt;Node18 -->
<g id="edge44" class="edge">
<title>Node31&#45;&gt;Node18</title>
<path fill="none" stroke="midnightblue" d="M1592.49,-79.75C1436.33,-74.23 968.81,-56.17 796.47,-30.99"/>
<polygon fill="midnightblue" stroke="midnightblue" points="796.94,-27.52 786.53,-29.48 795.89,-34.44 796.94,-27.52"/>
</g>
<!-- Node31&#45;&gt;Node28 -->
<g id="edge45" class="edge">
<title>Node31&#45;&gt;Node28</title>
<path fill="none" stroke="midnightblue" d="M1621,-67.4C1603.06,-56.39 1578.28,-41.2 1560.48,-30.28"/>
<polygon fill="midnightblue" stroke="midnightblue" points="1562.23,-27.25 1551.87,-25.01 1558.57,-33.22 1562.23,-27.25"/>
</g>
<!-- Node32 -->
<g id="node32" class="node">
<title>Node32</title>
<g id="a_node32"><a xlink:title=" ">
<polygon fill="none" stroke="#bfbfbf" points="1624.5,-6 1624.5,-25 1681.5,-25 1681.5,-6 1624.5,-6"/>
<text text-anchor="middle" x="1653" y="-13" font-family="Helvetica,sans-Serif" font-size="10.00">Point.hpp</text>
</a>
</g>
</g>
<!-- Node31&#45;&gt;Node32 -->
<g id="edge46" class="edge">
<title>Node31&#45;&gt;Node32</title>
<path fill="none" stroke="midnightblue" d="M1645.95,-67.4C1647.26,-57.96 1648.99,-45.45 1650.41,-35.19"/>
<polygon fill="midnightblue" stroke="midnightblue" points="1653.89,-35.58 1651.8,-25.19 1646.96,-34.62 1653.89,-35.58"/>
</g>
<!-- Node33 -->
<g id="node33" class="node">
<title>Node33</title>
<g id="a_node33"><a xlink:title=" ">
<polygon fill="none" stroke="#bfbfbf" points="1699.5,-6 1699.5,-25 1808.5,-25 1808.5,-6 1699.5,-6"/>
<text text-anchor="middle" x="1754" y="-13" font-family="Helvetica,sans-Serif" font-size="10.00">Physics/Collision.hpp</text>
</a>
</g>
</g>
<!-- Node31&#45;&gt;Node33 -->
<g id="edge47" class="edge">
<title>Node31&#45;&gt;Node33</title>
<path fill="none" stroke="midnightblue" d="M1667.87,-67.4C1686.57,-56.34 1712.44,-41.06 1730.93,-30.13"/>
<polygon fill="midnightblue" stroke="midnightblue" points="1732.77,-33.11 1739.6,-25.01 1729.21,-27.08 1732.77,-33.11"/>
</g>
<!-- Node34&#45;&gt;Node31 -->
<g id="edge49" class="edge">
<title>Node34&#45;&gt;Node31</title>
<path fill="none" stroke="midnightblue" d="M2080.72,-136.43C2076.09,-135.56 2071.47,-134.73 2067,-134 1939.15,-112.98 1788.18,-97.08 1705.61,-89.13"/>
<polygon fill="midnightblue" stroke="midnightblue" points="1705.93,-85.65 1695.65,-88.18 1705.27,-92.62 1705.93,-85.65"/>
</g>
<!-- Node35&#45;&gt;Node4 -->
<g id="edge59" class="edge">
<title>Node35&#45;&gt;Node4</title>
<path fill="none" stroke="midnightblue" d="M1650.9,-257.44C1584.33,-247.81 1476.28,-232.16 1405.92,-221.98"/>
<polygon fill="midnightblue" stroke="midnightblue" points="1406.22,-218.49 1395.83,-220.52 1405.22,-225.41 1406.22,-218.49"/>
</g>
<!-- Node35&#45;&gt;Node6 -->
<g id="edge54" class="edge">
<title>Node35&#45;&gt;Node6</title>
<path fill="none" stroke="midnightblue" d="M1674.19,-257.44C1635.01,-248.08 1572.12,-233.06 1529.48,-222.87"/>
<polygon fill="midnightblue" stroke="midnightblue" points="1530.18,-219.44 1519.64,-220.52 1528.56,-226.24 1530.18,-219.44"/>
</g>
<!-- Node35&#45;&gt;Node12 -->
<g id="edge58" class="edge">
<title>Node35&#45;&gt;Node12</title>
<path fill="none" stroke="midnightblue" d="M1770.28,-264.94C1842.99,-262.24 1958.88,-252.9 1986,-221 2007.67,-195.51 1964.5,-174.54 1928.51,-162.28"/>
<polygon fill="midnightblue" stroke="midnightblue" points="1929.2,-158.82 1918.61,-159.06 1927.03,-165.48 1929.2,-158.82"/>
</g>
<!-- Node35&#45;&gt;Node30 -->
<g id="edge57" class="edge">
<title>Node35&#45;&gt;Node30</title>
<path fill="none" stroke="midnightblue" d="M1770.24,-257.68C1840,-248.05 1954.85,-232.18 2029.19,-221.92"/>
<polygon fill="midnightblue" stroke="midnightblue" points="2029.98,-225.34 2039.4,-220.51 2029.02,-218.41 2029.98,-225.34"/>
</g>
<!-- Node36 -->
<g id="node36" class="node">
<title>Node36</title>
<g id="a_node36"><a xlink:title=" ">
<polygon fill="none" stroke="#bfbfbf" points="1679,-201.5 1679,-220.5 1741,-220.5 1741,-201.5 1679,-201.5"/>
<text text-anchor="middle" x="1710" y="-208.5" font-family="Helvetica,sans-Serif" font-size="10.00">Scene.hpp</text>
</a>
</g>
</g>
<!-- Node35&#45;&gt;Node36 -->
<g id="edge51" class="edge">
<title>Node35&#45;&gt;Node36</title>
<path fill="none" stroke="midnightblue" d="M1710,-257.08C1710,-250.01 1710,-239.86 1710,-230.99"/>
<polygon fill="midnightblue" stroke="midnightblue" points="1713.5,-230.75 1710,-220.75 1706.5,-230.75 1713.5,-230.75"/>
</g>
<!-- Node37 -->
<g id="node37" class="node">
<title>Node37</title>
<g id="a_node37"><a xlink:href="Sprites_8hpp.html" target="_top" xlink:title=" ">
<polygon fill="none" stroke="black" points="1550.5,-201.5 1550.5,-220.5 1661.5,-220.5 1661.5,-201.5 1550.5,-201.5"/>
<text text-anchor="middle" x="1606" y="-208.5" font-family="Helvetica,sans-Serif" font-size="10.00">constants/Sprites.hpp</text>
</a>
</g>
</g>
<!-- Node35&#45;&gt;Node37 -->
<g id="edge52" class="edge">
<title>Node35&#45;&gt;Node37</title>
<path fill="none" stroke="midnightblue" d="M1693.29,-257.32C1676.69,-248.7 1651,-235.36 1631.78,-225.39"/>
<polygon fill="midnightblue" stroke="midnightblue" points="1633.16,-222.16 1622.67,-220.65 1629.93,-228.37 1633.16,-222.16"/>
</g>
<!-- Node38 -->
<g id="node38" class="node">
<title>Node38</title>
<g id="a_node38"><a xlink:title=" ">
<polygon fill="none" stroke="#bfbfbf" points="1759.5,-201.5 1759.5,-220.5 1868.5,-220.5 1868.5,-201.5 1759.5,-201.5"/>
<text text-anchor="middle" x="1814" y="-208.5" font-family="Helvetica,sans-Serif" font-size="10.00">Utility/InputEnum.hpp</text>
</a>
</g>
</g>
<!-- Node35&#45;&gt;Node38 -->
<g id="edge55" class="edge">
<title>Node35&#45;&gt;Node38</title>
<path fill="none" stroke="midnightblue" d="M1726.71,-257.32C1743.31,-248.7 1769,-235.36 1788.22,-225.39"/>
<polygon fill="midnightblue" stroke="midnightblue" points="1790.07,-228.37 1797.33,-220.65 1786.84,-222.16 1790.07,-228.37"/>
</g>
<!-- Node39 -->
<g id="node39" class="node">
<title>Node39</title>
<g id="a_node39"><a xlink:title=" ">
<polygon fill="none" stroke="#bfbfbf" points="1887,-201.5 1887,-220.5 1977,-220.5 1977,-201.5 1887,-201.5"/>
<text text-anchor="middle" x="1932" y="-208.5" font-family="Helvetica,sans-Serif" font-size="10.00">AudioSource.hpp</text>
</a>
</g>
</g>
<!-- Node35&#45;&gt;Node39 -->
<g id="edge56" class="edge">
<title>Node35&#45;&gt;Node39</title>
<path fill="none" stroke="midnightblue" d="M1745.18,-257.44C1783.58,-248.1 1845.18,-233.12 1887.06,-222.93"/>
<polygon fill="midnightblue" stroke="midnightblue" points="1888.1,-226.28 1896.99,-220.52 1886.44,-219.48 1888.1,-226.28"/>
</g>
<!-- Node37&#45;&gt;Node3 -->
<g id="edge53" class="edge">
<title>Node37&#45;&gt;Node3</title>
<path fill="none" stroke="midnightblue" d="M1661.84,-202.07C1664.6,-201.71 1667.33,-201.35 1670,-201 1805.37,-183.5 1844.23,-204.11 1975,-165 1976.67,-164.5 1978.36,-163.91 1980.04,-163.26"/>
<polygon fill="midnightblue" stroke="midnightblue" points="1981.68,-166.36 1989.36,-159.05 1978.8,-159.98 1981.68,-166.36"/>
</g>
</g>
</svg>
