<svg xmlns="http://www.w3.org/2000/svg" xmlns:xlink="http://www.w3.org/1999/xlink" width="686pt" height="216" viewBox="0 0 686 162"><g id="graph0" class="graph" transform="scale(1 1) rotate(0) translate(4 158)"><title>src/Scripts/MarioStates/StarMarioState.hpp</title><g id="node1" class="node"><title>Node1</title><g id="a_node1"><a><polygon fill="#bfbfbf" stroke="#000" points="281 -123.5 281 -153.5 400 -153.5 400 -123.5 281 -123.5"/><text x="289" y="-141.5" font-family="Helvetica,sans-Serif" font-size="10" text-anchor="start">src/Scripts/MarioStates</text><text x="340.5" y="-130.5" font-family="Helvetica,sans-Serif" font-size="10" text-anchor="middle">/StarMarioState.hpp</text></a></g></g><g id="node2" class="node"><title>Node2</title><g id="a_node2"><a target="_top" xlink:href="MarioState_8hpp.html"><polygon fill="none" stroke="#000" points="299.5 -67.5 299.5 -86.5 381.5 -86.5 381.5 -67.5 299.5 -67.5"/><text x="340.5" y="-74.5" font-family="Helvetica,sans-Serif" font-size="10" text-anchor="middle">MarioState.hpp</text></a></g></g><g id="edge1" class="edge"><title>Node1-&gt;Node2</title><path fill="none" stroke="#191970" d="M340.5,-123.4C340.5,-115.47 340.5,-105.46 340.5,-96.86"/><polygon fill="#191970" stroke="#191970" points="344 -96.66 340.5 -86.66 337 -96.66 344 -96.66"/></g><g id="node3" class="node"><title>Node3</title><g id="a_node3"><a><polygon fill="none" stroke="#bfbfbf" points="0 -.5 0 -30.5 95 -30.5 95 -.5 0 -.5"/><text x="8" y="-18.5" font-family="Helvetica,sans-Serif" font-size="10" text-anchor="start">boost/serialization</text><text x="47.5" y="-7.5" font-family="Helvetica,sans-Serif" font-size="10" text-anchor="middle">/access.hpp</text></a></g></g><g id="edge2" class="edge"><title>Node2-&gt;Node3</title><path fill="none" stroke="#191970" d="M299.23,-69.01C253.85,-61.14 178.57,-47.53 105,-31.26"/><polygon fill="#191970" stroke="#191970" points="105.63 -27.82 95.11 -29.05 104.11 -34.65 105.63 -27.82"/></g><g id="node4" class="node"><title>Node4</title><g id="a_node4"><a><polygon fill="none" stroke="#bfbfbf" points="113 -.5 113 -30.5 208 -30.5 208 -.5 113 -.5"/><text x="121" y="-18.5" font-family="Helvetica,sans-Serif" font-size="10" text-anchor="start">boost/serialization</text><text x="160.5" y="-7.5" font-family="Helvetica,sans-Serif" font-size="10" text-anchor="middle">/export.hpp</text></a></g></g><g id="edge3" class="edge"><title>Node2-&gt;Node4</title><path fill="none" stroke="#191970" d="M314.71,-67.48C288.17,-58.7 246.08,-44.79 212.57,-33.71"/><polygon fill="#191970" stroke="#191970" points="213.52 -30.34 202.92 -30.52 211.32 -36.98 213.52 -30.34"/></g><g id="node5" class="node"><title>Node5</title><g id="a_node5"><a><polygon fill="none" stroke="#bfbfbf" points="226 -.5 226 -30.5 321 -30.5 321 -.5 226 -.5"/><text x="234" y="-18.5" font-family="Helvetica,sans-Serif" font-size="10" text-anchor="start">boost/serialization</text><text x="273.5" y="-7.5" font-family="Helvetica,sans-Serif" font-size="10" text-anchor="middle">/shared_ptr.hpp</text></a></g></g><g id="edge4" class="edge"><title>Node2-&gt;Node5</title><path fill="none" stroke="#191970" d="M330.9,-67.48C322.08,-59.64 308.65,-47.71 297,-37.37"/><polygon fill="#191970" stroke="#191970" points="299.09 -34.55 289.29 -30.52 294.44 -39.78 299.09 -34.55"/></g><g id="node6" class="node"><title>Node6</title><g id="a_node6"><a><polygon fill="none" stroke="#bfbfbf" points="339 -6 339 -25 476 -25 476 -6 339 -6"/><text x="407.5" y="-13" font-family="Helvetica,sans-Serif" font-size="10" text-anchor="middle">Texture/AnimatedSprite.hpp</text></a></g></g><g id="edge5" class="edge"><title>Node2-&gt;Node6</title><path fill="none" stroke="#191970" d="M350.1,-67.48C360.55,-58.2 377.47,-43.17 390.24,-31.83"/><polygon fill="#191970" stroke="#191970" points="392.77 -34.27 397.92 -25.01 388.12 -29.03 392.77 -34.27"/></g><g id="node7" class="node"><title>Node7</title><g id="a_node7"><a><polygon fill="none" stroke="#bfbfbf" points="494 -6 494 -25 551 -25 551 -6 494 -6"/><text x="522.5" y="-13" font-family="Helvetica,sans-Serif" font-size="10" text-anchor="middle">Point.hpp</text></a></g></g><g id="edge6" class="edge"><title>Node2-&gt;Node7</title><path fill="none" stroke="#191970" d="M370.14,-67.49C399.59,-58.87 445.95,-44.87 485.5,-31 487.62,-30.26 489.79,-29.47 491.98,-28.66"/><polygon fill="#191970" stroke="#191970" points="493.37 -31.88 501.47 -25.05 490.88 -25.34 493.37 -31.88"/></g><g id="node8" class="node"><title>Node8</title><g id="a_node8"><a><polygon fill="none" stroke="#bfbfbf" points="569 -6 569 -25 678 -25 678 -6 569 -6"/><text x="623.5" y="-13" font-family="Helvetica,sans-Serif" font-size="10" text-anchor="middle">Physics/Collision.hpp</text></a></g></g><g id="edge7" class="edge"><title>Node2-&gt;Node8</title><path fill="none" stroke="#191970" d="M381.52,-67.92C425.75,-59.14 498.21,-44.54 560.5,-31 565.92,-29.82 571.59,-28.56 577.21,-27.29"/><polygon fill="#191970" stroke="#191970" points="578.25 -30.64 587.22 -25.01 576.69 -23.82 578.25 -30.64"/></g></g></svg>