<svg xmlns="http://www.w3.org/2000/svg" xmlns:xlink="http://www.w3.org/1999/xlink" width="686pt" height="380" viewBox="0 0 686 285"><g id="graph0" class="graph" transform="scale(1 1) rotate(0) translate(4 281)"><title>src/Scripts/StarBehaviour.cpp</title><g id="node1" class="node"><title>Node1</title><g id="a_node1"><a><polygon fill="#bfbfbf" stroke="#000" points="208.5 -257.5 208.5 -276.5 354.5 -276.5 354.5 -257.5 208.5 -257.5"/><text x="281.5" y="-264.5" font-family="Helvetica,sans-Serif" font-size="10" text-anchor="middle">src/Scripts/StarBehaviour.cpp</text></a></g></g><g id="node2" class="node"><title>Node2</title><g id="a_node2"><a target="_top" xlink:href="StarBehaviour_8hpp.html"><polygon fill="none" stroke="#000" points="61.5 -201.5 61.5 -220.5 157.5 -220.5 157.5 -201.5 61.5 -201.5"/><text x="109.5" y="-208.5" font-family="Helvetica,sans-Serif" font-size="10" text-anchor="middle">StarBehaviour.hpp</text></a></g></g><g id="edge1" class="edge"><title>Node1-&gt;Node2</title><path fill="none" stroke="#191970" d="M254.25,-257.44C225.06,-248.28 178.58,-233.69 146.19,-223.52"/><polygon fill="#191970" stroke="#191970" points="147.22 -220.17 136.63 -220.52 145.12 -226.85 147.22 -220.17"/></g><g id="node4" class="node"><title>Node4</title><g id="a_node4"><a><polygon fill="none" stroke="#bfbfbf" points="175.5 -201.5 175.5 -220.5 271.5 -220.5 271.5 -201.5 175.5 -201.5"/><text x="223.5" y="-208.5" font-family="Helvetica,sans-Serif" font-size="10" text-anchor="middle">Engine/Engine.hpp</text></a></g></g><g id="edge3" class="edge"><title>Node1-&gt;Node4</title><path fill="none" stroke="#191970" d="M272.18,-257.32C263.61,-249.34 250.69,-237.31 240.31,-227.65"/><polygon fill="#191970" stroke="#191970" points="242.69 -225.09 232.99 -220.83 237.92 -230.21 242.69 -225.09"/></g><g id="node5" class="node"><title>Node5</title><g id="a_node5"><a target="_top" xlink:href="MarioBehaviour_8hpp.html"><polygon fill="none" stroke="#000" points="289.5 -201.5 289.5 -220.5 391.5 -220.5 391.5 -201.5 289.5 -201.5"/><text x="340.5" y="-208.5" font-family="Helvetica,sans-Serif" font-size="10" text-anchor="middle">MarioBehaviour.hpp</text></a></g></g><g id="edge4" class="edge"><title>Node1-&gt;Node5</title><path fill="none" stroke="#191970" d="M290.98,-257.32C299.7,-249.34 312.84,-237.31 323.4,-227.65"/><polygon fill="#191970" stroke="#191970" points="325.83 -230.17 330.85 -220.83 321.11 -225 325.83 -230.17"/></g><g id="node14" class="node"><title>Node14</title><g id="a_node14"><a target="_top" xlink:href="StarMarioState_8hpp.html"><polygon fill="none" stroke="#000" points="414 -134.5 414 -164.5 517 -164.5 517 -134.5 414 -134.5"/><text x="422" y="-152.5" font-family="Helvetica,sans-Serif" font-size="10" text-anchor="start">Scripts/MarioStates</text><text x="465.5" y="-141.5" font-family="Helvetica,sans-Serif" font-size="10" text-anchor="middle">/StarMarioState.hpp</text></a></g></g><g id="edge15" class="edge"><title>Node1-&gt;Node14</title><path fill="none" stroke="#191970" d="M316.34,-257.46C341.21,-250.31 374.69,-238.42 400.5,-221 419.83,-207.95 437.46,-188.08 449.47,-172.75"/><polygon fill="#191970" stroke="#191970" points="452.27 -174.86 455.54 -164.78 446.7 -170.62 452.27 -174.86"/></g><g id="node3" class="node"><title>Node3</title><g id="a_node3"><a><polygon fill="none" stroke="#bfbfbf" points="91.5 -140 91.5 -159 195.5 -159 195.5 -140 91.5 -140"/><text x="143.5" y="-147" font-family="Helvetica,sans-Serif" font-size="10" text-anchor="middle">BehaviourScript.hpp</text></a></g></g><g id="edge2" class="edge"><title>Node2-&gt;Node3</title><path fill="none" stroke="#191970" d="M114.37,-201.48C119.37,-192.73 127.29,-178.87 133.61,-167.81"/><polygon fill="#191970" stroke="#191970" points="136.72 -169.43 138.64 -159.01 130.64 -165.96 136.72 -169.43"/></g><g id="edge5" class="edge"><title>Node5-&gt;Node3</title><path fill="none" stroke="#191970" d="M312.27,-201.48C277.9,-191.09 219.69,-173.51 181.42,-161.95"/><polygon fill="#191970" stroke="#191970" points="182.26 -158.55 171.67 -159.01 180.23 -165.25 182.26 -158.55"/></g><g id="node6" class="node"><title>Node6</title><g id="a_node6"><a target="_top" xlink:href="MarioState_8hpp.html"><polygon fill="none" stroke="#000" points="289 -67.5 289 -97.5 392 -97.5 392 -67.5 289 -67.5"/><text x="297" y="-85.5" font-family="Helvetica,sans-Serif" font-size="10" text-anchor="start">Scripts/MarioStates</text><text x="340.5" y="-74.5" font-family="Helvetica,sans-Serif" font-size="10" text-anchor="middle">/MarioState.hpp</text></a></g></g><g id="edge6" class="edge"><title>Node5-&gt;Node6</title><path fill="none" stroke="#191970" d="M319.02,-201.36C304.11,-194.09 285.39,-182.12 276.5,-165 270.15,-152.77 270.49,-146.4 276.5,-134 282.55,-121.52 293.35,-111.19 304.38,-103.2"/><polygon fill="#191970" stroke="#191970" points="306.43 -106.03 312.78 -97.54 302.52 -100.22 306.43 -106.03"/></g><g id="node13" class="node"><title>Node13</title><g id="a_node13"><a target="_top" xlink:href="SmallMarioState_8hpp.html"><polygon fill="none" stroke="#000" points="285.5 -134.5 285.5 -164.5 395.5 -164.5 395.5 -134.5 285.5 -134.5"/><text x="293.5" y="-152.5" font-family="Helvetica,sans-Serif" font-size="10" text-anchor="start">Scripts/MarioStates</text><text x="340.5" y="-141.5" font-family="Helvetica,sans-Serif" font-size="10" text-anchor="middle">/SmallMarioState.hpp</text></a></g></g><g id="edge13" class="edge"><title>Node5-&gt;Node13</title><path fill="none" stroke="#191970" d="M340.5,-201.48C340.5,-194.47 340.5,-184.19 340.5,-174.7"/><polygon fill="#191970" stroke="#191970" points="344 -174.52 340.5 -164.52 337 -174.52 344 -174.52"/></g><g id="node7" class="node"><title>Node7</title><g id="a_node7"><a><polygon fill="none" stroke="#bfbfbf" points="0 -.5 0 -30.5 95 -30.5 95 -.5 0 -.5"/><text x="8" y="-18.5" font-family="Helvetica,sans-Serif" font-size="10" text-anchor="start">boost/serialization</text><text x="47.5" y="-7.5" font-family="Helvetica,sans-Serif" font-size="10" text-anchor="middle">/access.hpp</text></a></g></g><g id="edge7" class="edge"><title>Node6-&gt;Node7</title><path fill="none" stroke="#191970" d="M288.57,-71.11C242.72,-61.78 173.8,-47.4 105.23,-31.36"/><polygon fill="#191970" stroke="#191970" points="105.66 -27.86 95.12 -28.98 104.06 -34.68 105.66 -27.86"/></g><g id="node8" class="node"><title>Node8</title><g id="a_node8"><a><polygon fill="none" stroke="#bfbfbf" points="113 -.5 113 -30.5 208 -30.5 208 -.5 113 -.5"/><text x="121" y="-18.5" font-family="Helvetica,sans-Serif" font-size="10" text-anchor="start">boost/serialization</text><text x="160.5" y="-7.5" font-family="Helvetica,sans-Serif" font-size="10" text-anchor="middle">/export.hpp</text></a></g></g><g id="edge8" class="edge"><title>Node6-&gt;Node8</title><path fill="none" stroke="#191970" d="M301.44,-67.4C274.32,-57.6 237.99,-44.48 209,-34.02"/><polygon fill="#191970" stroke="#191970" points="210.08 -30.68 199.48 -30.58 207.7 -37.26 210.08 -30.68"/></g><g id="node9" class="node"><title>Node9</title><g id="a_node9"><a><polygon fill="none" stroke="#bfbfbf" points="226 -.5 226 -30.5 321 -30.5 321 -.5 226 -.5"/><text x="234" y="-18.5" font-family="Helvetica,sans-Serif" font-size="10" text-anchor="start">boost/serialization</text><text x="273.5" y="-7.5" font-family="Helvetica,sans-Serif" font-size="10" text-anchor="middle">/shared_ptr.hpp</text></a></g></g><g id="edge9" class="edge"><title>Node6-&gt;Node9</title><path fill="none" stroke="#191970" d="M325.96,-67.4C317.01,-58.71 305.36,-47.4 295.31,-37.66"/><polygon fill="#191970" stroke="#191970" points="297.62 -35.03 288.01 -30.58 292.75 -40.05 297.62 -35.03"/></g><g id="node10" class="node"><title>Node10</title><g id="a_node10"><a><polygon fill="none" stroke="#bfbfbf" points="339 -6 339 -25 476 -25 476 -6 339 -6"/><text x="407.5" y="-13" font-family="Helvetica,sans-Serif" font-size="10" text-anchor="middle">Texture/AnimatedSprite.hpp</text></a></g></g><g id="edge10" class="edge"><title>Node6-&gt;Node10</title><path fill="none" stroke="#191970" d="M355.04,-67.4C365.69,-57.06 380.16,-43.02 391.2,-32.31"/><polygon fill="#191970" stroke="#191970" points="393.8 -34.67 398.54 -25.19 388.92 -29.65 393.8 -34.67"/></g><g id="node11" class="node"><title>Node11</title><g id="a_node11"><a><polygon fill="none" stroke="#bfbfbf" points="494 -6 494 -25 551 -25 551 -6 494 -6"/><text x="522.5" y="-13" font-family="Helvetica,sans-Serif" font-size="10" text-anchor="middle">Point.hpp</text></a></g></g><g id="edge11" class="edge"><title>Node6-&gt;Node11</title><path fill="none" stroke="#191970" d="M382.22,-67.45C411.27,-57.54 450.87,-43.81 485.5,-31 487.39,-30.3 489.34,-29.57 491.29,-28.83"/><polygon fill="#191970" stroke="#191970" points="492.96 -31.94 501.03 -25.07 490.44 -25.4 492.96 -31.94"/></g><g id="node12" class="node"><title>Node12</title><g id="a_node12"><a><polygon fill="none" stroke="#bfbfbf" points="569 -6 569 -25 678 -25 678 -6 569 -6"/><text x="623.5" y="-13" font-family="Helvetica,sans-Serif" font-size="10" text-anchor="middle">Physics/Collision.hpp</text></a></g></g><g id="edge12" class="edge"><title>Node6-&gt;Node12</title><path fill="none" stroke="#191970" d="M392.07,-69.67C436.65,-59.44 502.83,-44.26 560.5,-31 565.76,-29.79 571.28,-28.52 576.75,-27.26"/><polygon fill="#191970" stroke="#191970" points="577.56 -30.67 586.52 -25.01 575.99 -23.85 577.56 -30.67"/></g><g id="edge14" class="edge"><title>Node13-&gt;Node6</title><path fill="none" stroke="#191970" d="M340.5,-134.4C340.5,-126.64 340.5,-116.81 340.5,-107.86"/><polygon fill="#191970" stroke="#191970" points="344 -107.58 340.5 -97.58 337 -107.58 344 -107.58"/></g><g id="edge16" class="edge"><title>Node14-&gt;Node6</title><path fill="none" stroke="#191970" d="M438.38,-134.4C420.28,-124.98 396.27,-112.5 376.57,-102.26"/><polygon fill="#191970" stroke="#191970" points="378.06 -99.08 367.57 -97.58 374.83 -105.3 378.06 -99.08"/></g></g></svg>