<?xml version="1.0" encoding="UTF-8" standalone="no"?>
<!DOCTYPE svg PUBLIC "-//W3C//DTD SVG 1.1//EN"
 "http://www.w3.org/Graphics/SVG/1.1/DTD/svg11.dtd">
<!-- Generated by graphviz version 2.44.0 ()
 -->
<!-- Title: src/Scripts/MarioStates/StarMarioState.cpp Pages: 1 -->
<svg width="740pt" height="218pt"
 viewBox="0.00 0.00 740.00 218.00" xmlns="http://www.w3.org/2000/svg" xmlns:xlink="http://www.w3.org/1999/xlink">
<g id="graph0" class="graph" transform="scale(1 1) rotate(0) translate(4 214)">
<title>src/Scripts/MarioStates/StarMarioState.cpp</title>
<!-- Node1 -->
<g id="node1" class="node">
<title>Node1</title>
<g id="a_node1"><a xlink:title=" ">
<polygon fill="#bfbfbf" stroke="black" points="327,-179.5 327,-209.5 446,-209.5 446,-179.5 327,-179.5"/>
<text text-anchor="start" x="335" y="-197.5" font-family="Helvetica,sans-Serif" font-size="10.00">src/Scripts/MarioStates</text>
<text text-anchor="middle" x="386.5" y="-186.5" font-family="Helvetica,sans-Serif" font-size="10.00">/StarMarioState.cpp</text>
</a>
</g>
</g>
<!-- Node2 -->
<g id="node2" class="node">
<title>Node2</title>
<g id="a_node2"><a xlink:href="StarMarioState_8hpp.html" target="_top" xlink:title=" ">
<polygon fill="none" stroke="black" points="81.5,-123.5 81.5,-142.5 181.5,-142.5 181.5,-123.5 81.5,-123.5"/>
<text text-anchor="middle" x="131.5" y="-130.5" font-family="Helvetica,sans-Serif" font-size="10.00">StarMarioState.hpp</text>
</a>
</g>
</g>
<!-- Node1&#45;&gt;Node2 -->
<g id="edge1" class="edge">
<title>Node1&#45;&gt;Node2</title>
<path fill="none" stroke="midnightblue" d="M326.71,-179.55C281.29,-168.95 219.72,-154.58 177.96,-144.84"/>
<polygon fill="midnightblue" stroke="midnightblue" points="178.58,-141.39 168.05,-142.53 176.99,-148.21 178.58,-141.39"/>
</g>
<!-- Node10 -->
<g id="node10" class="node">
<title>Node10</title>
<g id="a_node10"><a xlink:title=" ">
<polygon fill="none" stroke="#bfbfbf" points="199.5,-123.5 199.5,-142.5 295.5,-142.5 295.5,-123.5 199.5,-123.5"/>
<text text-anchor="middle" x="247.5" y="-130.5" font-family="Helvetica,sans-Serif" font-size="10.00">Engine/Engine.hpp</text>
</a>
</g>
</g>
<!-- Node1&#45;&gt;Node10 -->
<g id="edge9" class="edge">
<title>Node1&#45;&gt;Node10</title>
<path fill="none" stroke="midnightblue" d="M353.56,-179.4C330.34,-169.46 299.51,-156.26 277.08,-146.66"/>
<polygon fill="midnightblue" stroke="midnightblue" points="278.3,-143.38 267.73,-142.66 275.54,-149.81 278.3,-143.38"/>
</g>
<!-- Node11 -->
<g id="node11" class="node">
<title>Node11</title>
<g id="a_node11"><a xlink:title=" ">
<polygon fill="none" stroke="#bfbfbf" points="313.5,-123.5 313.5,-142.5 369.5,-142.5 369.5,-123.5 313.5,-123.5"/>
<text text-anchor="middle" x="341.5" y="-130.5" font-family="Helvetica,sans-Serif" font-size="10.00">Input.hpp</text>
</a>
</g>
</g>
<!-- Node1&#45;&gt;Node11 -->
<g id="edge10" class="edge">
<title>Node1&#45;&gt;Node11</title>
<path fill="none" stroke="midnightblue" d="M375.84,-179.4C369.36,-170.84 361.07,-159.87 354.25,-150.86"/>
<polygon fill="midnightblue" stroke="midnightblue" points="356.87,-148.52 348.05,-142.66 351.29,-152.74 356.87,-148.52"/>
</g>
<!-- Node12 -->
<g id="node12" class="node">
<title>Node12</title>
<g id="a_node12"><a xlink:title=" ">
<polygon fill="none" stroke="#bfbfbf" points="387.5,-123.5 387.5,-142.5 477.5,-142.5 477.5,-123.5 387.5,-123.5"/>
<text text-anchor="middle" x="432.5" y="-130.5" font-family="Helvetica,sans-Serif" font-size="10.00">AudioSource.hpp</text>
</a>
</g>
</g>
<!-- Node1&#45;&gt;Node12 -->
<g id="edge11" class="edge">
<title>Node1&#45;&gt;Node12</title>
<path fill="none" stroke="midnightblue" d="M397.4,-179.4C404.09,-170.75 412.68,-159.64 419.68,-150.58"/>
<polygon fill="midnightblue" stroke="midnightblue" points="422.46,-152.71 425.81,-142.66 416.92,-148.43 422.46,-152.71"/>
</g>
<!-- Node13 -->
<g id="node13" class="node">
<title>Node13</title>
<g id="a_node13"><a xlink:href="SmallMarioState_8hpp.html" target="_top" xlink:title=" ">
<polygon fill="none" stroke="black" points="496,-123.5 496,-142.5 603,-142.5 603,-123.5 496,-123.5"/>
<text text-anchor="middle" x="549.5" y="-130.5" font-family="Helvetica,sans-Serif" font-size="10.00">SmallMarioState.hpp</text>
</a>
</g>
</g>
<!-- Node1&#45;&gt;Node13 -->
<g id="edge12" class="edge">
<title>Node1&#45;&gt;Node13</title>
<path fill="none" stroke="midnightblue" d="M425.13,-179.4C452.84,-169.28 489.81,-155.79 516.22,-146.15"/>
<polygon fill="midnightblue" stroke="midnightblue" points="517.59,-149.37 525.78,-142.66 515.19,-142.8 517.59,-149.37"/>
</g>
<!-- Node14 -->
<g id="node14" class="node">
<title>Node14</title>
<g id="a_node14"><a xlink:href="Sprites_8hpp.html" target="_top" xlink:title=" ">
<polygon fill="none" stroke="black" points="621,-123.5 621,-142.5 732,-142.5 732,-123.5 621,-123.5"/>
<text text-anchor="middle" x="676.5" y="-130.5" font-family="Helvetica,sans-Serif" font-size="10.00">constants/Sprites.hpp</text>
</a>
</g>
</g>
<!-- Node1&#45;&gt;Node14 -->
<g id="edge14" class="edge">
<title>Node1&#45;&gt;Node14</title>
<path fill="none" stroke="midnightblue" d="M446.24,-181.24C498.82,-170.45 574.61,-154.9 624.68,-144.63"/>
<polygon fill="midnightblue" stroke="midnightblue" points="625.56,-148.02 634.65,-142.59 624.15,-141.17 625.56,-148.02"/>
</g>
<!-- Node3 -->
<g id="node3" class="node">
<title>Node3</title>
<g id="a_node3"><a xlink:href="MarioState_8hpp.html" target="_top" xlink:title=" ">
<polygon fill="none" stroke="black" points="299.5,-67.5 299.5,-86.5 381.5,-86.5 381.5,-67.5 299.5,-67.5"/>
<text text-anchor="middle" x="340.5" y="-74.5" font-family="Helvetica,sans-Serif" font-size="10.00">MarioState.hpp</text>
</a>
</g>
</g>
<!-- Node2&#45;&gt;Node3 -->
<g id="edge2" class="edge">
<title>Node2&#45;&gt;Node3</title>
<path fill="none" stroke="midnightblue" d="M164.62,-123.44C200.62,-114.14 258.27,-99.25 297.69,-89.06"/>
<polygon fill="midnightblue" stroke="midnightblue" points="298.73,-92.41 307.54,-86.52 296.98,-85.63 298.73,-92.41"/>
</g>
<!-- Node4 -->
<g id="node4" class="node">
<title>Node4</title>
<g id="a_node4"><a xlink:title=" ">
<polygon fill="none" stroke="#bfbfbf" points="0,-0.5 0,-30.5 95,-30.5 95,-0.5 0,-0.5"/>
<text text-anchor="start" x="8" y="-18.5" font-family="Helvetica,sans-Serif" font-size="10.00">boost/serialization</text>
<text text-anchor="middle" x="47.5" y="-7.5" font-family="Helvetica,sans-Serif" font-size="10.00">/access.hpp</text>
</a>
</g>
</g>
<!-- Node3&#45;&gt;Node4 -->
<g id="edge3" class="edge">
<title>Node3&#45;&gt;Node4</title>
<path fill="none" stroke="midnightblue" d="M299.23,-69.01C253.85,-61.14 178.57,-47.53 105,-31.26"/>
<polygon fill="midnightblue" stroke="midnightblue" points="105.63,-27.82 95.11,-29.05 104.11,-34.65 105.63,-27.82"/>
</g>
<!-- Node5 -->
<g id="node5" class="node">
<title>Node5</title>
<g id="a_node5"><a xlink:title=" ">
<polygon fill="none" stroke="#bfbfbf" points="113,-0.5 113,-30.5 208,-30.5 208,-0.5 113,-0.5"/>
<text text-anchor="start" x="121" y="-18.5" font-family="Helvetica,sans-Serif" font-size="10.00">boost/serialization</text>
<text text-anchor="middle" x="160.5" y="-7.5" font-family="Helvetica,sans-Serif" font-size="10.00">/export.hpp</text>
</a>
</g>
</g>
<!-- Node3&#45;&gt;Node5 -->
<g id="edge4" class="edge">
<title>Node3&#45;&gt;Node5</title>
<path fill="none" stroke="midnightblue" d="M314.71,-67.48C288.17,-58.7 246.08,-44.79 212.57,-33.71"/>
<polygon fill="midnightblue" stroke="midnightblue" points="213.52,-30.34 202.92,-30.52 211.32,-36.98 213.52,-30.34"/>
</g>
<!-- Node6 -->
<g id="node6" class="node">
<title>Node6</title>
<g id="a_node6"><a xlink:title=" ">
<polygon fill="none" stroke="#bfbfbf" points="226,-0.5 226,-30.5 321,-30.5 321,-0.5 226,-0.5"/>
<text text-anchor="start" x="234" y="-18.5" font-family="Helvetica,sans-Serif" font-size="10.00">boost/serialization</text>
<text text-anchor="middle" x="273.5" y="-7.5" font-family="Helvetica,sans-Serif" font-size="10.00">/shared_ptr.hpp</text>
</a>
</g>
</g>
<!-- Node3&#45;&gt;Node6 -->
<g id="edge5" class="edge">
<title>Node3&#45;&gt;Node6</title>
<path fill="none" stroke="midnightblue" d="M330.9,-67.48C322.08,-59.64 308.65,-47.71 297,-37.37"/>
<polygon fill="midnightblue" stroke="midnightblue" points="299.09,-34.55 289.29,-30.52 294.44,-39.78 299.09,-34.55"/>
</g>
<!-- Node7 -->
<g id="node7" class="node">
<title>Node7</title>
<g id="a_node7"><a xlink:title=" ">
<polygon fill="none" stroke="#bfbfbf" points="339,-6 339,-25 476,-25 476,-6 339,-6"/>
<text text-anchor="middle" x="407.5" y="-13" font-family="Helvetica,sans-Serif" font-size="10.00">Texture/AnimatedSprite.hpp</text>
</a>
</g>
</g>
<!-- Node3&#45;&gt;Node7 -->
<g id="edge6" class="edge">
<title>Node3&#45;&gt;Node7</title>
<path fill="none" stroke="midnightblue" d="M350.1,-67.48C360.55,-58.2 377.47,-43.17 390.24,-31.83"/>
<polygon fill="midnightblue" stroke="midnightblue" points="392.77,-34.27 397.92,-25.01 388.12,-29.03 392.77,-34.27"/>
</g>
<!-- Node8 -->
<g id="node8" class="node">
<title>Node8</title>
<g id="a_node8"><a xlink:title=" ">
<polygon fill="none" stroke="#bfbfbf" points="494,-6 494,-25 551,-25 551,-6 494,-6"/>
<text text-anchor="middle" x="522.5" y="-13" font-family="Helvetica,sans-Serif" font-size="10.00">Point.hpp</text>
</a>
</g>
</g>
<!-- Node3&#45;&gt;Node8 -->
<g id="edge7" class="edge">
<title>Node3&#45;&gt;Node8</title>
<path fill="none" stroke="midnightblue" d="M369.63,-67.47C398.84,-58.78 445.03,-44.68 484.5,-31 486.75,-30.22 489.07,-29.39 491.4,-28.55"/>
<polygon fill="midnightblue" stroke="midnightblue" points="492.73,-31.78 500.88,-25.01 490.29,-25.22 492.73,-31.78"/>
</g>
<!-- Node9 -->
<g id="node9" class="node">
<title>Node9</title>
<g id="a_node9"><a xlink:title=" ">
<polygon fill="none" stroke="#bfbfbf" points="569,-6 569,-25 678,-25 678,-6 569,-6"/>
<text text-anchor="middle" x="623.5" y="-13" font-family="Helvetica,sans-Serif" font-size="10.00">Physics/Collision.hpp</text>
</a>
</g>
</g>
<!-- Node3&#45;&gt;Node9 -->
<g id="edge8" class="edge">
<title>Node3&#45;&gt;Node9</title>
<path fill="none" stroke="midnightblue" d="M381.72,-67.79C425.78,-58.95 497.66,-44.36 559.5,-31 564.93,-29.83 570.61,-28.58 576.25,-27.32"/>
<polygon fill="midnightblue" stroke="midnightblue" points="577.31,-30.67 586.3,-25.06 575.78,-23.84 577.31,-30.67"/>
</g>
<!-- Node13&#45;&gt;Node3 -->
<g id="edge13" class="edge">
<title>Node13&#45;&gt;Node3</title>
<path fill="none" stroke="midnightblue" d="M516.38,-123.44C480.38,-114.14 422.73,-99.25 383.31,-89.06"/>
<polygon fill="midnightblue" stroke="midnightblue" points="384.02,-85.63 373.46,-86.52 382.27,-92.41 384.02,-85.63"/>
</g>
<!-- Node15 -->
<g id="node15" class="node">
<title>Node15</title>
<g id="a_node15"><a xlink:title=" ">
<polygon fill="none" stroke="#bfbfbf" points="656,-67.5 656,-86.5 697,-86.5 697,-67.5 656,-67.5"/>
<text text-anchor="middle" x="676.5" y="-74.5" font-family="Helvetica,sans-Serif" font-size="10.00">string</text>
</a>
</g>
</g>
<!-- Node14&#45;&gt;Node15 -->
<g id="edge15" class="edge">
<title>Node14&#45;&gt;Node15</title>
<path fill="none" stroke="midnightblue" d="M676.5,-123.08C676.5,-116.01 676.5,-105.86 676.5,-96.99"/>
<polygon fill="midnightblue" stroke="midnightblue" points="680,-96.75 676.5,-86.75 673,-96.75 680,-96.75"/>
</g>
</g>
</svg>
