<svg xmlns="http://www.w3.org/2000/svg" xmlns:xlink="http://www.w3.org/1999/xlink" id="main" onload="init(evt)" version="1.1" xml:space="preserve"><style type="text/css">.edge:hover path{stroke:red}.edge:hover polygon{stroke:red;fill:red}</style><script type="text/javascript"><![CDATA[
var edges = document.getElementsByTagName('g');
if (edges && edges.length) {
  for (var i=0;i<edges.length;i++) {
    if (edges[i].id.substr(0,4)=='edge') {
      edges[i].setAttribute('class','edge');
    }
  }
}
]]></script><defs><circle id="rim" cx="0" cy="0" r="7"/><circle id="rim2" cx="0" cy="0" r="3.5"/><g id="zoomPlus"><use fill="#404040" xlink:href="#rim"><set attributeName="fill" begin="zoomplus.mouseover" end="zoomplus.mouseout" to="#808080"/></use><path fill="none" stroke="#fff" stroke-width="1.5" d="M-4,0h8M0,-4v8" pointer-events="none"/></g><g id="zoomMin"><use fill="#404040" xlink:href="#rim"><set attributeName="fill" begin="zoomminus.mouseover" end="zoomminus.mouseout" to="#808080"/></use><path fill="none" stroke="#fff" stroke-width="1.5" d="M-4,0h8" pointer-events="none"/></g><g id="dirArrow"><path fill="none" stroke="#fff" stroke-width="1.5" d="M0,-3.0v7 M-2.5,-0.5L0,-3.0L2.5,-0.5"/></g><g id="resetDef"><use fill="#404040" xlink:href="#rim2"><set attributeName="fill" begin="reset.mouseover" end="reset.mouseout" to="#808080"/></use></g></defs><script type="text/javascript">var viewWidth = 640; var viewHeight = 151; var sectionId = &apos;dynsection-1&apos;;</script><script xlink:href="svgpan.js"/><svg id="graph" class="graph"><g id="viewport"><title>src/Scripts/StarBehaviour.hpp</title><g id="node1" class="node"><title>Node1</title><g id="a_node1"><a><polygon fill="#bfbfbf" stroke="#000" points="173 -123.5 173 -142.5 319 -142.5 319 -123.5 173 -123.5"/><text x="246" y="-130.5" font-family="Helvetica,sans-Serif" font-size="10" text-anchor="middle">src/Scripts/StarBehaviour.hpp</text></a></g></g><g id="node2" class="node"><title>Node2</title><g id="a_node2"><a target="_top" xlink:href="StarBehaviour_8cpp.html"><polygon fill="none" stroke="#000" points="104 -67.5 104 -86.5 250 -86.5 250 -67.5 104 -67.5"/><text x="177" y="-74.5" font-family="Helvetica,sans-Serif" font-size="10" text-anchor="middle">src/Scripts/StarBehaviour.cpp</text></a></g></g><g id="edge1" class="edge"><title>Node1-&gt;Node2</title><path fill="none" stroke="#191970" d="M226.96,-117.1C214.54,-107.38 198.76,-95.03 188.29,-86.83"/><polygon fill="#191970" stroke="#191970" points="224.88 -119.92 234.91 -123.32 229.2 -114.4 224.88 -119.92"/></g><g id="node3" class="node"><title>Node3</title><g id="a_node3"><a target="_top" xlink:href="TileConfig_8hpp.html"><polygon fill="none" stroke="#000" points="268 -67.5 268 -86.5 362 -86.5 362 -67.5 268 -67.5"/><text x="315" y="-74.5" font-family="Helvetica,sans-Serif" font-size="10" text-anchor="middle">src/TileConfig.hpp</text></a></g></g><g id="edge2" class="edge"><title>Node1-&gt;Node3</title><path fill="none" stroke="#191970" d="M265.04,-117.1C277.46,-107.38 293.24,-95.03 303.71,-86.83"/><polygon fill="#191970" stroke="#191970" points="262.8 -114.4 257.09 -123.32 267.12 -119.92 262.8 -114.4"/></g><g id="node4" class="node"><title>Node4</title><g id="a_node4"><a target="_top" xlink:href="Level1_8cpp.html"><polygon fill="none" stroke="#000" points="0 -6 0 -25 142 -25 142 -6 0 -6"/><text x="71" y="-13" font-family="Helvetica,sans-Serif" font-size="10" text-anchor="middle">src/Game/Levels/Level1.cpp</text></a></g></g><g id="edge3" class="edge"><title>Node3-&gt;Node4</title><path fill="none" stroke="#191970" d="M270.06,-65.04C222.69,-53.49 149.08,-35.54 105.89,-25.01"/><polygon fill="#191970" stroke="#191970" points="269.5 -68.51 280.04 -67.48 271.15 -61.71 269.5 -68.51"/></g><g id="node5" class="node"><title>Node5</title><g id="a_node5"><a target="_top" xlink:href="Level2_8cpp.html"><polygon fill="none" stroke="#000" points="160 -6 160 -25 302 -25 302 -6 160 -6"/><text x="231" y="-13" font-family="Helvetica,sans-Serif" font-size="10" text-anchor="middle">src/Game/Levels/Level2.cpp</text></a></g></g><g id="edge4" class="edge"><title>Node3-&gt;Node5</title><path fill="none" stroke="#191970" d="M294.69,-61.61C278.53,-50.17 256.48,-34.55 243.01,-25.01"/><polygon fill="#191970" stroke="#191970" points="292.78 -64.55 302.96 -67.48 296.83 -58.84 292.78 -64.55"/></g><g id="node6" class="node"><title>Node6</title><g id="a_node6"><a target="_top" xlink:href="MainMenu_8cpp.html"><polygon fill="none" stroke="#000" points="320 -6 320 -25 478 -25 478 -6 320 -6"/><text x="399" y="-13" font-family="Helvetica,sans-Serif" font-size="10" text-anchor="middle">src/Game/Levels/MainMenu.cpp</text></a></g></g><g id="edge5" class="edge"><title>Node3-&gt;Node6</title><path fill="none" stroke="#191970" d="M335.31,-61.61C351.47,-50.17 373.52,-34.55 386.99,-25.01"/><polygon fill="#191970" stroke="#191970" points="333.17 -58.84 327.04 -67.48 337.22 -64.55 333.17 -58.84"/></g><g id="node7" class="node"><title>Node7</title><g id="a_node7"><a target="_top" xlink:href="NetworkingClient_8cpp.html"><polygon fill="none" stroke="#000" points="496.5 -.5 496.5 -30.5 631.5 -30.5 631.5 -.5 496.5 -.5"/><text x="504.5" y="-18.5" font-family="Helvetica,sans-Serif" font-size="10" text-anchor="start">src/Networking/Networking</text><text x="564" y="-7.5" font-family="Helvetica,sans-Serif" font-size="10" text-anchor="middle">Client.cpp</text></a></g></g><g id="edge6" class="edge"><title>Node3-&gt;Node7</title><path fill="none" stroke="#191970" d="M360.59,-65.11C401.27,-55.39 461.07,-41.1 505.32,-30.52"/><polygon fill="#191970" stroke="#191970" points="359.59 -61.75 350.68 -67.48 361.22 -68.56 359.59 -61.75"/></g></g></svg><g id="navigator" fill="#404254" transform="translate(0 0)"><rect width="60" height="60" x="0" y="0" fill="#f2f5e9" fill-opacity=".5" stroke="#606060" stroke-width=".5"/><use id="zoomplus" x="17" y="9" onmousedown="handleZoom(evt,'in')" xlink:href="#zoomPlus"/><use id="zoomminus" x="42" y="9" onmousedown="handleZoom(evt,'out')" xlink:href="#zoomMin"/><use id="reset" x="30" y="36" onmousedown="handleReset()" xlink:href="#resetDef"/><g id="arrowUp" onmousedown="handlePan(0,-1)" transform="translate(30 24)" xlink:href="#dirArrow"><use fill="#404040" xlink:href="#rim"><set attributeName="fill" begin="arrowUp.mouseover" end="arrowUp.mouseout" to="#808080"/></use><path fill="none" stroke="#fff" stroke-width="1.5" d="M0,-3.0v7 M-2.5,-0.5L0,-3.0L2.5,-0.5"/></g><g id="arrowRight" onmousedown="handlePan(1,0)" transform="rotate(90) translate(36 -43)" xlink:href="#dirArrow"><use fill="#404040" xlink:href="#rim"><set attributeName="fill" begin="arrowRight.mouseover" end="arrowRight.mouseout" to="#808080"/></use><path fill="none" stroke="#fff" stroke-width="1.5" d="M0,-3.0v7 M-2.5,-0.5L0,-3.0L2.5,-0.5"/></g><g id="arrowDown" onmousedown="handlePan(0,1)" transform="rotate(180) translate(-30 -48)" xlink:href="#dirArrow"><use fill="#404040" xlink:href="#rim"><set attributeName="fill" begin="arrowDown.mouseover" end="arrowDown.mouseout" to="#808080"/></use><path fill="none" stroke="#fff" stroke-width="1.5" d="M0,-3.0v7 M-2.5,-0.5L0,-3.0L2.5,-0.5"/></g><g id="arrowLeft" onmousedown="handlePan(-1,0)" transform="rotate(270) translate(-36 17)" xlink:href="#dirArrow"><use fill="#404040" xlink:href="#rim"><set attributeName="fill" begin="arrowLeft.mouseover" end="arrowLeft.mouseout" to="#808080"/></use><path fill="none" stroke="#fff" stroke-width="1.5" d="M0,-3.0v7 M-2.5,-0.5L0,-3.0L2.5,-0.5"/></g></g><svg width="100%" height="30" preserveAspectRatio="xMaxYMin meet" viewBox="0 0 15 15"><g id="arrow_out" transform="scale(0.3 0.3)"><a target="_base" xlink:href="StarBehaviour_8hpp__dep__incl_org.svg"><rect id="button" width="38" height="38" x="6" y="6" fill="#f2f5e9" fill-opacity=".5" stroke="#606060" stroke-width="1" rx="5" ry="5"/><path id="arrow" d="M 11.500037,31.436501 C 11.940474,20.09759 22.043105,11.32322 32.158766,21.979434 L 37.068811,17.246167 C 37.068811,17.246167 37.088388,32 37.088388,32 L 22.160133,31.978069 C 22.160133,31.978069 26.997745,27.140456 26.997745,27.140456 C 18.528582,18.264221 13.291696,25.230495 11.500037,31.436501 z" style="fill:#404040"/></a></g></svg></svg>