<svg xmlns="http://www.w3.org/2000/svg" xmlns:xlink="http://www.w3.org/1999/xlink" width="572" height="106pt" viewBox="0 0 428.5 106"><g id="graph0" class="graph" transform="scale(1 1) rotate(0) translate(4 102)"><title>src/Scripts/MarioStates/StarMarioState.hpp</title><g id="node1" class="node"><title>Node1</title><g id="a_node1"><a><polygon fill="#bfbfbf" stroke="#000" points="137 -67.5 137 -97.5 256 -97.5 256 -67.5 137 -67.5"/><text x="145" y="-85.5" font-family="Helvetica,sans-Serif" font-size="10" text-anchor="start">src/Scripts/MarioStates</text><text x="196.5" y="-74.5" font-family="Helvetica,sans-Serif" font-size="10" text-anchor="middle">/StarMarioState.hpp</text></a></g></g><g id="node2" class="node"><title>Node2</title><g id="a_node2"><a target="_top" xlink:href="SmallMarioState_8cpp.html"><polygon fill="none" stroke="#000" points="0 -.5 0 -30.5 119 -30.5 119 -.5 0 -.5"/><text x="8" y="-18.5" font-family="Helvetica,sans-Serif" font-size="10" text-anchor="start">src/Scripts/MarioStates</text><text x="59.5" y="-7.5" font-family="Helvetica,sans-Serif" font-size="10" text-anchor="middle">/SmallMarioState.cpp</text></a></g></g><g id="edge1" class="edge"><title>Node1-&gt;Node2</title><path fill="none" stroke="#191970" d="M157.49,-62.99C135.78,-52.69 109.17,-40.07 89.17,-30.58"/><polygon fill="#191970" stroke="#191970" points="156.24 -66.27 166.77 -67.4 159.24 -59.95 156.24 -66.27"/></g><g id="node3" class="node"><title>Node3</title><g id="a_node3"><a target="_top" xlink:href="StarMarioState_8cpp.html"><polygon fill="none" stroke="#000" points="137 -.5 137 -30.5 256 -30.5 256 -.5 137 -.5"/><text x="145" y="-18.5" font-family="Helvetica,sans-Serif" font-size="10" text-anchor="start">src/Scripts/MarioStates</text><text x="196.5" y="-7.5" font-family="Helvetica,sans-Serif" font-size="10" text-anchor="middle">/StarMarioState.cpp</text></a></g></g><g id="edge2" class="edge"><title>Node1-&gt;Node3</title><path fill="none" stroke="#191970" d="M196.5,-57.11C196.5,-48.15 196.5,-38.32 196.5,-30.58"/><polygon fill="#191970" stroke="#191970" points="193 -57.4 196.5 -67.4 200 -57.4 193 -57.4"/></g><g id="node4" class="node"><title>Node4</title><g id="a_node4"><a target="_top" xlink:href="StarBehaviour_8cpp.html"><polygon fill="none" stroke="#000" points="274.5 -6 274.5 -25 420.5 -25 420.5 -6 274.5 -6"/><text x="347.5" y="-13" font-family="Helvetica,sans-Serif" font-size="10" text-anchor="middle">src/Scripts/StarBehaviour.cpp</text></a></g></g><g id="edge3" class="edge"><title>Node1-&gt;Node4</title><path fill="none" stroke="#191970" d="M238.79,-63.3C267.91,-50.76 305.26,-34.68 327.74,-25.01"/><polygon fill="#191970" stroke="#191970" points="237.07 -60.23 229.26 -67.4 239.83 -66.66 237.07 -60.23"/></g></g></svg>