<?xml version="1.0" encoding="UTF-8" standalone="no"?>
<!DOCTYPE svg PUBLIC "-//W3C//DTD SVG 1.1//EN"
 "http://www.w3.org/Graphics/SVG/1.1/DTD/svg11.dtd">
<!-- Generated by graphviz version 2.44.0 ()
 -->
<!-- Title: SpriteInfo Pages: 1 -->
<svg width="112pt" height="215pt"
 viewBox="0.00 0.00 112.00 215.00" xmlns="http://www.w3.org/2000/svg" xmlns:xlink="http://www.w3.org/1999/xlink">
<g id="graph0" class="graph" transform="scale(1 1) rotate(0) translate(4 211)">
<title>SpriteInfo</title>
<!-- Node1 -->
<g id="node1" class="node">
<title>Node1</title>
<g id="a_node1"><a xlink:title="contains information about a tile the id is the key through which the tile create method is accessed ...">
<polygon fill="#bfbfbf" stroke="black" points="0,-0.5 0,-90.5 104,-90.5 104,-0.5 0,-0.5"/>
<text text-anchor="middle" x="52" y="-78.5" font-family="Helvetica,sans-Serif" font-size="10.00">SpriteInfo</text>
<polyline fill="none" stroke="black" points="0,-71.5 104,-71.5 "/>
<text text-anchor="start" x="8" y="-59.5" font-family="Helvetica,sans-Serif" font-size="10.00">+ int id</text>
<text text-anchor="start" x="8" y="-48.5" font-family="Helvetica,sans-Serif" font-size="10.00">+ int numberInSheet</text>
<text text-anchor="start" x="8" y="-37.5" font-family="Helvetica,sans-Serif" font-size="10.00">+ std::string objectId</text>
<text text-anchor="start" x="8" y="-26.5" font-family="Helvetica,sans-Serif" font-size="10.00">+ std::string path</text>
<polyline fill="none" stroke="black" points="0,-19.5 104,-19.5 "/>
<text text-anchor="middle" x="52" y="-7.5" font-family="Helvetica,sans-Serif" font-size="10.00"> </text>
</a>
</g>
</g>
<!-- Node2 -->
<g id="node2" class="node">
<title>Node2</title>
<g id="a_node2"><a xlink:href="structSheetPos.html" target="_top" xlink:title=" ">
<polygon fill="none" stroke="black" points="22.5,-138.5 22.5,-206.5 81.5,-206.5 81.5,-138.5 22.5,-138.5"/>
<text text-anchor="middle" x="52" y="-194.5" font-family="Helvetica,sans-Serif" font-size="10.00">SheetPos</text>
<polyline fill="none" stroke="black" points="22.5,-187.5 81.5,-187.5 "/>
<text text-anchor="start" x="30.5" y="-175.5" font-family="Helvetica,sans-Serif" font-size="10.00">+ int x</text>
<text text-anchor="start" x="30.5" y="-164.5" font-family="Helvetica,sans-Serif" font-size="10.00">+ int y</text>
<polyline fill="none" stroke="black" points="22.5,-157.5 81.5,-157.5 "/>
<text text-anchor="middle" x="52" y="-145.5" font-family="Helvetica,sans-Serif" font-size="10.00"> </text>
</a>
</g>
</g>
<!-- Node2&#45;&gt;Node1 -->
<g id="edge1" class="edge">
<title>Node2&#45;&gt;Node1</title>
<path fill="none" stroke="#404040" d="M52,-138.33C52,-127.37 52,-114.86 52,-102.67"/>
<polygon fill="none" stroke="#404040" points="52,-102.66 48,-96.66 52,-90.66 56,-96.66 52,-102.66"/>
<text text-anchor="middle" x="77" y="-112" font-family="Helvetica,sans-Serif" font-size="10.00"> +sheetPos</text>
</g>
</g>
</svg>
