<?xml version="1.0" encoding="UTF-8" standalone="no"?>
<!DOCTYPE svg PUBLIC "-//W3C//DTD SVG 1.1//EN"
 "http://www.w3.org/Graphics/SVG/1.1/DTD/svg11.dtd">
<!-- Generated by graphviz version 2.44.0 ()
 -->
<!-- Title: src/TileConfig.hpp Pages: 1 -->
<!--zoomable 218 -->
<svg id="main" version="1.1" xmlns="http://www.w3.org/2000/svg" xmlns:xlink="http://www.w3.org/1999/xlink" xml:space="preserve" onload="init(evt)">
<style type="text/css"><![CDATA[
.edge:hover path { stroke: red; }
.edge:hover polygon { stroke: red; fill: red; }
]]></style>
<script type="text/javascript"><![CDATA[
var edges = document.getElementsByTagName('g');
if (edges && edges.length) {
  for (var i=0;i<edges.length;i++) {
    if (edges[i].id.substr(0,4)=='edge') {
      edges[i].setAttribute('class','edge');
    }
  }
}
]]></script>
        <defs>
                <circle id="rim" cx="0" cy="0" r="7"/>
                <circle id="rim2" cx="0" cy="0" r="3.5"/>
                <g id="zoomPlus">
                        <use xlink:href="#rim" fill="#404040">
                                <set attributeName="fill" to="#808080" begin="zoomplus.mouseover" end="zoomplus.mouseout"/>
                        </use>
                        <path d="M-4,0h8M0,-4v8" fill="none" stroke="white" stroke-width="1.5" pointer-events="none"/>
                </g>
                <g id="zoomMin">
                        <use xlink:href="#rim" fill="#404040">
                                <set attributeName="fill" to="#808080" begin="zoomminus.mouseover" end="zoomminus.mouseout"/>
                        </use>
                        <path d="M-4,0h8" fill="none" stroke="white" stroke-width="1.5" pointer-events="none"/>
                </g>
                <g id="dirArrow">
                        <path fill="none" stroke="white" stroke-width="1.5" d="M0,-3.0v7 M-2.5,-0.5L0,-3.0L2.5,-0.5"/>
                </g>
               <g id="resetDef">
                       <use xlink:href="#rim2" fill="#404040">
                               <set attributeName="fill" to="#808080" begin="reset.mouseover" end="reset.mouseout"/>
                       </use>
               </g>
        </defs>

<script type="text/javascript">
var viewWidth = 1944;
var viewHeight = 218;
var sectionId = 'dynsection-0';
</script>
<script xlink:href="svgpan.js"/>
<svg id="graph" class="graph">
<g id="viewport">
<title>src/TileConfig.hpp</title>
<!-- Node1 -->
<g id="node1" class="node">
<title>Node1</title>
<g id="a_node1"><a xlink:title=" ">
<polygon fill="#bfbfbf" stroke="black" points="830.5,-190.5 830.5,-209.5 924.5,-209.5 924.5,-190.5 830.5,-190.5"/>
<text text-anchor="middle" x="877.5" y="-197.5" font-family="Helvetica,sans-Serif" font-size="10.00">src/TileConfig.hpp</text>
</a>
</g>
</g>
<!-- Node2 -->
<g id="node2" class="node">
<title>Node2</title>
<g id="a_node2"><a xlink:title=" ">
<polygon fill="none" stroke="#bfbfbf" points="285,-129 285,-148 344,-148 344,-129 285,-129"/>
<text text-anchor="middle" x="314.5" y="-136" font-family="Helvetica,sans-Serif" font-size="10.00">functional</text>
</a>
</g>
</g>
<!-- Node1&#45;&gt;Node2 -->
<g id="edge1" class="edge">
<title>Node1&#45;&gt;Node2</title>
<path fill="none" stroke="midnightblue" d="M830.48,-199.33C737.79,-199.02 525.5,-193.6 352.5,-154 349.5,-153.31 346.42,-152.44 343.37,-151.46"/>
<polygon fill="midnightblue" stroke="midnightblue" points="344.49,-148.15 333.9,-148.1 342.15,-154.74 344.49,-148.15"/>
</g>
<!-- Node3 -->
<g id="node3" class="node">
<title>Node3</title>
<g id="a_node3"><a xlink:title=" ">
<polygon fill="none" stroke="#bfbfbf" points="362,-129 362,-148 397,-148 397,-129 362,-129"/>
<text text-anchor="middle" x="379.5" y="-136" font-family="Helvetica,sans-Serif" font-size="10.00">map</text>
</a>
</g>
</g>
<!-- Node1&#45;&gt;Node3 -->
<g id="edge2" class="edge">
<title>Node1&#45;&gt;Node3</title>
<path fill="none" stroke="midnightblue" d="M830.3,-199.51C745.13,-199.32 560.71,-193.83 411.5,-154 409.35,-153.42 407.15,-152.72 404.98,-151.93"/>
<polygon fill="midnightblue" stroke="midnightblue" points="406.3,-148.69 395.73,-148.1 403.63,-155.16 406.3,-148.69"/>
</g>
<!-- Node4 -->
<g id="node4" class="node">
<title>Node4</title>
<g id="a_node4"><a xlink:title=" ">
<polygon fill="none" stroke="#bfbfbf" points="0,-6 0,-25 51,-25 51,-6 0,-6"/>
<text text-anchor="middle" x="25.5" y="-13" font-family="Helvetica,sans-Serif" font-size="10.00">memory</text>
</a>
</g>
</g>
<!-- Node1&#45;&gt;Node4 -->
<g id="edge3" class="edge">
<title>Node1&#45;&gt;Node4</title>
<path fill="none" stroke="midnightblue" d="M830.26,-196.99C756.89,-193.09 611.52,-182.23 491.5,-154 451.95,-144.7 444.28,-135.13 405.5,-123 254.05,-75.61 210.8,-81.92 60.5,-31 58.58,-30.35 56.62,-29.65 54.66,-28.92"/>
<polygon fill="midnightblue" stroke="midnightblue" points="55.54,-25.5 44.95,-25.09 52.97,-32.01 55.54,-25.5"/>
</g>
<!-- Node5 -->
<g id="node5" class="node">
<title>Node5</title>
<g id="a_node5"><a xlink:title=" ">
<polygon fill="none" stroke="#bfbfbf" points="1298.5,-129 1298.5,-148 1450.5,-148 1450.5,-129 1298.5,-129"/>
<text text-anchor="middle" x="1374.5" y="-136" font-family="Helvetica,sans-Serif" font-size="10.00">Builder/GameObjectBuilder.hpp</text>
</a>
</g>
</g>
<!-- Node1&#45;&gt;Node5 -->
<g id="edge4" class="edge">
<title>Node1&#45;&gt;Node5</title>
<path fill="none" stroke="midnightblue" d="M924.57,-194.79C1001.21,-187.72 1157.67,-172.43 1289.5,-154 1298.54,-152.74 1308.09,-151.25 1317.4,-149.73"/>
<polygon fill="midnightblue" stroke="midnightblue" points="1318.08,-153.16 1327.37,-148.06 1316.93,-146.26 1318.08,-153.16"/>
</g>
<!-- Node6 -->
<g id="node6" class="node">
<title>Node6</title>
<g id="a_node6"><a xlink:title=" ">
<polygon fill="none" stroke="#bfbfbf" points="1469,-129 1469,-148 1594,-148 1594,-129 1469,-129"/>
<text text-anchor="middle" x="1531.5" y="-136" font-family="Helvetica,sans-Serif" font-size="10.00">Builder/SceneBuilder.hpp</text>
</a>
</g>
</g>
<!-- Node1&#45;&gt;Node6 -->
<g id="edge5" class="edge">
<title>Node1&#45;&gt;Node6</title>
<path fill="none" stroke="midnightblue" d="M924.86,-197.29C1024.31,-193.27 1262,-181.42 1459.5,-154 1467.31,-152.92 1475.56,-151.51 1483.57,-150"/>
<polygon fill="midnightblue" stroke="midnightblue" points="1484.39,-153.4 1493.53,-148.04 1483.05,-146.53 1484.39,-153.4"/>
</g>
<!-- Node7 -->
<g id="node7" class="node">
<title>Node7</title>
<g id="a_node7"><a xlink:title=" ">
<polygon fill="none" stroke="#bfbfbf" points="1611.5,-129 1611.5,-148 1769.5,-148 1769.5,-129 1611.5,-129"/>
<text text-anchor="middle" x="1690.5" y="-136" font-family="Helvetica,sans-Serif" font-size="10.00">Director/GameObjectFactory.hpp</text>
</a>
</g>
</g>
<!-- Node1&#45;&gt;Node7 -->
<g id="edge6" class="edge">
<title>Node1&#45;&gt;Node7</title>
<path fill="none" stroke="midnightblue" d="M924.79,-197.76C1040.77,-194.35 1348.48,-183.08 1603.5,-154 1613.54,-152.86 1624.19,-151.34 1634.46,-149.71"/>
<polygon fill="midnightblue" stroke="midnightblue" points="1635.26,-153.13 1644.57,-148.07 1634.14,-146.22 1635.26,-153.13"/>
</g>
<!-- Node8 -->
<g id="node8" class="node">
<title>Node8</title>
<g id="a_node8"><a xlink:href="CoinBehaviour_8hpp.html" target="_top" xlink:title=" ">
<polygon fill="none" stroke="black" points="514,-129 514,-148 645,-148 645,-129 514,-129"/>
<text text-anchor="middle" x="579.5" y="-136" font-family="Helvetica,sans-Serif" font-size="10.00">Scripts/CoinBehaviour.hpp</text>
</a>
</g>
</g>
<!-- Node1&#45;&gt;Node8 -->
<g id="edge7" class="edge">
<title>Node1&#45;&gt;Node8</title>
<path fill="none" stroke="midnightblue" d="M834.8,-190.48C781.36,-179.8 689.85,-161.53 632.13,-150.01"/>
<polygon fill="midnightblue" stroke="midnightblue" points="632.61,-146.53 622.12,-148.01 631.24,-153.4 632.61,-146.53"/>
</g>
<!-- Node10 -->
<g id="node10" class="node">
<title>Node10</title>
<g id="a_node10"><a xlink:href="CoinCounter_8hpp.html" target="_top" xlink:title=" ">
<polygon fill="none" stroke="black" points="454,-67.5 454,-86.5 563,-86.5 563,-67.5 454,-67.5"/>
<text text-anchor="middle" x="508.5" y="-74.5" font-family="Helvetica,sans-Serif" font-size="10.00">../UI/CoinCounter.hpp</text>
</a>
</g>
</g>
<!-- Node1&#45;&gt;Node10 -->
<g id="edge26" class="edge">
<title>Node1&#45;&gt;Node10</title>
<path fill="none" stroke="midnightblue" d="M830.23,-196.74C734.67,-191.69 525.78,-178.01 504.5,-154 490.71,-138.44 495.38,-113.3 501.03,-96.23"/>
<polygon fill="midnightblue" stroke="midnightblue" points="504.33,-97.4 504.52,-86.8 497.77,-94.97 504.33,-97.4"/>
</g>
<!-- Node19 -->
<g id="node19" class="node">
<title>Node19</title>
<g id="a_node19"><a xlink:href="FlagBehaviour_8hpp.html" target="_top" xlink:title=" ">
<polygon fill="none" stroke="black" points="663,-129 663,-148 794,-148 794,-129 663,-129"/>
<text text-anchor="middle" x="728.5" y="-136" font-family="Helvetica,sans-Serif" font-size="10.00">Scripts/FlagBehaviour.hpp</text>
</a>
</g>
</g>
<!-- Node1&#45;&gt;Node19 -->
<g id="edge22" class="edge">
<title>Node1&#45;&gt;Node19</title>
<path fill="none" stroke="midnightblue" d="M856.15,-190.48C830.81,-180.36 788.36,-163.4 759.43,-151.85"/>
<polygon fill="midnightblue" stroke="midnightblue" points="760.39,-148.47 749.81,-148.01 757.8,-154.97 760.39,-148.47"/>
</g>
<!-- Node20 -->
<g id="node20" class="node">
<title>Node20</title>
<g id="a_node20"><a xlink:href="StarBehaviour_8hpp.html" target="_top" xlink:title=" ">
<polygon fill="none" stroke="black" points="812.5,-129 812.5,-148 942.5,-148 942.5,-129 812.5,-129"/>
<text text-anchor="middle" x="877.5" y="-136" font-family="Helvetica,sans-Serif" font-size="10.00">Scripts/StarBehaviour.hpp</text>
</a>
</g>
</g>
<!-- Node1&#45;&gt;Node20 -->
<g id="edge24" class="edge">
<title>Node1&#45;&gt;Node20</title>
<path fill="none" stroke="midnightblue" d="M877.5,-190.48C877.5,-182.08 877.5,-168.98 877.5,-158.16"/>
<polygon fill="midnightblue" stroke="midnightblue" points="881,-158.01 877.5,-148.01 874,-158.01 881,-158.01"/>
</g>
<!-- Node21 -->
<g id="node21" class="node">
<title>Node21</title>
<g id="a_node21"><a xlink:href="EnemyAttackBehaviour_8hpp.html" target="_top" xlink:title=" ">
<polygon fill="none" stroke="black" points="960.5,-129 960.5,-148 1130.5,-148 1130.5,-129 960.5,-129"/>
<text text-anchor="middle" x="1045.5" y="-136" font-family="Helvetica,sans-Serif" font-size="10.00">Scripts/EnemyAttackBehaviour.hpp</text>
</a>
</g>
</g>
<!-- Node1&#45;&gt;Node21 -->
<g id="edge27" class="edge">
<title>Node1&#45;&gt;Node21</title>
<path fill="none" stroke="midnightblue" d="M901.57,-190.48C930.51,-180.22 979.26,-162.96 1011.9,-151.4"/>
<polygon fill="midnightblue" stroke="midnightblue" points="1013.22,-154.65 1021.47,-148.01 1010.88,-148.05 1013.22,-154.65"/>
</g>
<!-- Node22 -->
<g id="node22" class="node">
<title>Node22</title>
<g id="a_node22"><a xlink:href="DynamicAnimationBehaviour_8hpp.html" target="_top" xlink:title=" ">
<polygon fill="none" stroke="black" points="1149,-123.5 1149,-153.5 1280,-153.5 1280,-123.5 1149,-123.5"/>
<text text-anchor="start" x="1157" y="-141.5" font-family="Helvetica,sans-Serif" font-size="10.00">Scripts/DynamicAnimation</text>
<text text-anchor="middle" x="1214.5" y="-130.5" font-family="Helvetica,sans-Serif" font-size="10.00">Behaviour.hpp</text>
</a>
</g>
</g>
<!-- Node1&#45;&gt;Node22 -->
<g id="edge29" class="edge">
<title>Node1&#45;&gt;Node22</title>
<path fill="none" stroke="midnightblue" d="M924.88,-191.17C975.35,-182.76 1057.83,-168.82 1138.8,-154.11"/>
<polygon fill="midnightblue" stroke="midnightblue" points="1139.45,-157.54 1148.66,-152.31 1138.2,-150.66 1139.45,-157.54"/>
</g>
<!-- Node24 -->
<g id="node24" class="node">
<title>Node24</title>
<g id="a_node24"><a xlink:title=" ">
<polygon fill="none" stroke="#bfbfbf" points="1787,-129 1787,-148 1936,-148 1936,-129 1787,-129"/>
<text text-anchor="middle" x="1861.5" y="-136" font-family="Helvetica,sans-Serif" font-size="10.00">Physics/ForceDrivenEntity.hpp</text>
</a>
</g>
</g>
<!-- Node1&#45;&gt;Node24 -->
<g id="edge32" class="edge">
<title>Node1&#45;&gt;Node24</title>
<path fill="none" stroke="midnightblue" d="M924.56,-198.69C1058.52,-197.36 1453.2,-190.4 1778.5,-154 1788.21,-152.91 1798.5,-151.41 1808.42,-149.77"/>
<polygon fill="midnightblue" stroke="midnightblue" points="1809.3,-153.17 1818.57,-148.04 1808.12,-146.27 1809.3,-153.17"/>
</g>
<!-- Node9 -->
<g id="node9" class="node">
<title>Node9</title>
<g id="a_node9"><a xlink:title=" ">
<polygon fill="none" stroke="#bfbfbf" points="825.5,-67.5 825.5,-86.5 929.5,-86.5 929.5,-67.5 825.5,-67.5"/>
<text text-anchor="middle" x="877.5" y="-74.5" font-family="Helvetica,sans-Serif" font-size="10.00">BehaviourScript.hpp</text>
</a>
</g>
</g>
<!-- Node8&#45;&gt;Node9 -->
<g id="edge8" class="edge">
<title>Node8&#45;&gt;Node9</title>
<path fill="none" stroke="midnightblue" d="M622.2,-128.98C675.64,-118.3 767.15,-100.03 824.87,-88.51"/>
<polygon fill="midnightblue" stroke="midnightblue" points="825.76,-91.9 834.88,-86.51 824.39,-85.03 825.76,-91.9"/>
</g>
<!-- Node8&#45;&gt;Node10 -->
<g id="edge9" class="edge">
<title>Node8&#45;&gt;Node10</title>
<path fill="none" stroke="midnightblue" d="M569.33,-128.98C558.15,-119.61 539.98,-104.38 526.41,-93.01"/>
<polygon fill="midnightblue" stroke="midnightblue" points="528.57,-90.25 518.65,-86.51 524.07,-95.61 528.57,-90.25"/>
</g>
<!-- Node11 -->
<g id="node11" class="node">
<title>Node11</title>
<g id="a_node11"><a xlink:title=" ">
<polygon fill="none" stroke="#bfbfbf" points="579,-0.5 579,-30.5 674,-30.5 674,-0.5 579,-0.5"/>
<text text-anchor="start" x="587" y="-18.5" font-family="Helvetica,sans-Serif" font-size="10.00">boost/serialization</text>
<text text-anchor="middle" x="626.5" y="-7.5" font-family="Helvetica,sans-Serif" font-size="10.00">/access.hpp</text>
</a>
</g>
</g>
<!-- Node8&#45;&gt;Node11 -->
<g id="edge19" class="edge">
<title>Node8&#45;&gt;Node11</title>
<path fill="none" stroke="midnightblue" d="M582.88,-128.8C590.01,-110.44 606.8,-67.22 617.34,-40.07"/>
<polygon fill="midnightblue" stroke="midnightblue" points="620.69,-41.13 621.05,-30.54 614.16,-38.59 620.69,-41.13"/>
</g>
<!-- Node12 -->
<g id="node12" class="node">
<title>Node12</title>
<g id="a_node12"><a xlink:title=" ">
<polygon fill="none" stroke="#bfbfbf" points="692,-0.5 692,-30.5 787,-30.5 787,-0.5 692,-0.5"/>
<text text-anchor="start" x="700" y="-18.5" font-family="Helvetica,sans-Serif" font-size="10.00">boost/serialization</text>
<text text-anchor="middle" x="739.5" y="-7.5" font-family="Helvetica,sans-Serif" font-size="10.00">/export.hpp</text>
</a>
</g>
</g>
<!-- Node8&#45;&gt;Node12 -->
<g id="edge20" class="edge">
<title>Node8&#45;&gt;Node12</title>
<path fill="none" stroke="midnightblue" d="M590.75,-128.99C615.91,-109.97 677.28,-63.56 712.83,-36.67"/>
<polygon fill="midnightblue" stroke="midnightblue" points="714.99,-39.42 720.86,-30.6 710.77,-33.84 714.99,-39.42"/>
</g>
<!-- Node13 -->
<g id="node13" class="node">
<title>Node13</title>
<g id="a_node13"><a xlink:title=" ">
<polygon fill="none" stroke="#bfbfbf" points="805,-0.5 805,-30.5 900,-30.5 900,-0.5 805,-0.5"/>
<text text-anchor="start" x="813" y="-18.5" font-family="Helvetica,sans-Serif" font-size="10.00">boost/serialization</text>
<text text-anchor="middle" x="852.5" y="-7.5" font-family="Helvetica,sans-Serif" font-size="10.00">/shared_ptr.hpp</text>
</a>
</g>
</g>
<!-- Node8&#45;&gt;Node13 -->
<g id="edge21" class="edge">
<title>Node8&#45;&gt;Node13</title>
<path fill="none" stroke="midnightblue" d="M598.7,-128.99C642.71,-109.49 751.68,-61.19 811.52,-34.66"/>
<polygon fill="midnightblue" stroke="midnightblue" points="812.96,-37.85 820.69,-30.6 810.13,-31.45 812.96,-37.85"/>
</g>
<!-- Node10&#45;&gt;Node4 -->
<g id="edge10" class="edge">
<title>Node10&#45;&gt;Node4</title>
<path fill="none" stroke="midnightblue" d="M453.91,-68.7C449.04,-68.1 444.18,-67.53 439.5,-67 271.36,-48.05 224.7,-71.83 60.5,-31 57.99,-30.38 55.42,-29.6 52.87,-28.73"/>
<polygon fill="midnightblue" stroke="midnightblue" points="53.91,-25.38 43.32,-25.08 51.41,-31.92 53.91,-25.38"/>
</g>
<!-- Node10&#45;&gt;Node11 -->
<g id="edge11" class="edge">
<title>Node10&#45;&gt;Node11</title>
<path fill="none" stroke="midnightblue" d="M525.41,-67.48C542.06,-59.08 568.05,-45.97 589.51,-35.15"/>
<polygon fill="midnightblue" stroke="midnightblue" points="591.34,-38.15 598.69,-30.52 588.18,-31.9 591.34,-38.15"/>
</g>
<!-- Node10&#45;&gt;Node12 -->
<g id="edge12" class="edge">
<title>Node10&#45;&gt;Node12</title>
<path fill="none" stroke="midnightblue" d="M541.73,-67.47C574.94,-58.95 627.73,-45.38 682.05,-31.37"/>
<polygon fill="midnightblue" stroke="midnightblue" points="683.03,-34.73 691.84,-28.85 681.29,-27.95 683.03,-34.73"/>
</g>
<!-- Node10&#45;&gt;Node13 -->
<g id="edge13" class="edge">
<title>Node10&#45;&gt;Node13</title>
<path fill="none" stroke="midnightblue" d="M563.2,-69.09C619.19,-61.64 708.88,-48.71 794.98,-31.2"/>
<polygon fill="midnightblue" stroke="midnightblue" points="795.83,-34.6 804.92,-29.16 794.42,-27.75 795.83,-34.6"/>
</g>
<!-- Node14 -->
<g id="node14" class="node">
<title>Node14</title>
<g id="a_node14"><a xlink:title=" ">
<polygon fill="none" stroke="#bfbfbf" points="456.5,-0.5 456.5,-30.5 560.5,-30.5 560.5,-0.5 456.5,-0.5"/>
<text text-anchor="start" x="464.5" y="-18.5" font-family="Helvetica,sans-Serif" font-size="10.00">boost/archive/binary</text>
<text text-anchor="middle" x="508.5" y="-7.5" font-family="Helvetica,sans-Serif" font-size="10.00">_iarchive.hpp</text>
</a>
</g>
</g>
<!-- Node10&#45;&gt;Node14 -->
<g id="edge14" class="edge">
<title>Node10&#45;&gt;Node14</title>
<path fill="none" stroke="midnightblue" d="M508.5,-67.48C508.5,-60.47 508.5,-50.19 508.5,-40.7"/>
<polygon fill="midnightblue" stroke="midnightblue" points="512,-40.52 508.5,-30.52 505,-40.52 512,-40.52"/>
</g>
<!-- Node15 -->
<g id="node15" class="node">
<title>Node15</title>
<g id="a_node15"><a xlink:title=" ">
<polygon fill="none" stroke="#bfbfbf" points="69.5,-0.5 69.5,-30.5 173.5,-30.5 173.5,-0.5 69.5,-0.5"/>
<text text-anchor="start" x="77.5" y="-18.5" font-family="Helvetica,sans-Serif" font-size="10.00">boost/archive/binary</text>
<text text-anchor="middle" x="121.5" y="-7.5" font-family="Helvetica,sans-Serif" font-size="10.00">_oarchive.hpp</text>
</a>
</g>
</g>
<!-- Node10&#45;&gt;Node15 -->
<g id="edge15" class="edge">
<title>Node10&#45;&gt;Node15</title>
<path fill="none" stroke="midnightblue" d="M453.87,-68.75C374.55,-58.19 232.41,-39.09 183.72,-31.01"/>
<polygon fill="midnightblue" stroke="midnightblue" points="184.13,-27.53 173.67,-29.25 182.92,-34.42 184.13,-27.53"/>
</g>
<!-- Node16 -->
<g id="node16" class="node">
<title>Node16</title>
<g id="a_node16"><a xlink:title=" ">
<polygon fill="none" stroke="#bfbfbf" points="192,-6 192,-25 249,-25 249,-6 192,-6"/>
<text text-anchor="middle" x="220.5" y="-13" font-family="Helvetica,sans-Serif" font-size="10.00">Color.hpp</text>
</a>
</g>
</g>
<!-- Node10&#45;&gt;Node16 -->
<g id="edge16" class="edge">
<title>Node10&#45;&gt;Node16</title>
<path fill="none" stroke="midnightblue" d="M453.99,-67.51C391.65,-57.58 293.55,-41.19 257.5,-31 254.91,-30.27 252.26,-29.42 249.61,-28.52"/>
<polygon fill="midnightblue" stroke="midnightblue" points="250.82,-25.23 240.23,-25.06 248.4,-31.8 250.82,-25.23"/>
</g>
<!-- Node17 -->
<g id="node17" class="node">
<title>Node17</title>
<g id="a_node17"><a xlink:title=" ">
<polygon fill="none" stroke="#bfbfbf" points="267,-6 267,-25 346,-25 346,-6 267,-6"/>
<text text-anchor="middle" x="306.5" y="-13" font-family="Helvetica,sans-Serif" font-size="10.00">Transform.hpp</text>
</a>
</g>
</g>
<!-- Node10&#45;&gt;Node17 -->
<g id="edge17" class="edge">
<title>Node10&#45;&gt;Node17</title>
<path fill="none" stroke="midnightblue" d="M479.45,-67.47C448.67,-58.43 398.65,-43.73 355.5,-31 352.12,-30 348.61,-28.97 345.09,-27.93"/>
<polygon fill="midnightblue" stroke="midnightblue" points="345.84,-24.5 335.26,-25.02 343.85,-31.21 345.84,-24.5"/>
</g>
<!-- Node18 -->
<g id="node18" class="node">
<title>Node18</title>
<g id="a_node18"><a xlink:title=" ">
<polygon fill="none" stroke="#bfbfbf" points="364.5,-6 364.5,-25 438.5,-25 438.5,-6 364.5,-6"/>
<text text-anchor="middle" x="401.5" y="-13" font-family="Helvetica,sans-Serif" font-size="10.00">UIObject.hpp</text>
</a>
</g>
</g>
<!-- Node10&#45;&gt;Node18 -->
<g id="edge18" class="edge">
<title>Node10&#45;&gt;Node18</title>
<path fill="none" stroke="midnightblue" d="M493.17,-67.48C475.53,-57.67 446.34,-41.43 425.64,-29.92"/>
<polygon fill="midnightblue" stroke="midnightblue" points="427.24,-26.81 416.8,-25.01 423.84,-32.93 427.24,-26.81"/>
</g>
<!-- Node19&#45;&gt;Node9 -->
<g id="edge23" class="edge">
<title>Node19&#45;&gt;Node9</title>
<path fill="none" stroke="midnightblue" d="M749.85,-128.98C775.19,-118.86 817.64,-101.9 846.57,-90.35"/>
<polygon fill="midnightblue" stroke="midnightblue" points="848.2,-93.47 856.19,-86.51 845.61,-86.97 848.2,-93.47"/>
</g>
<!-- Node20&#45;&gt;Node9 -->
<g id="edge25" class="edge">
<title>Node20&#45;&gt;Node9</title>
<path fill="none" stroke="midnightblue" d="M877.5,-128.98C877.5,-120.58 877.5,-107.48 877.5,-96.66"/>
<polygon fill="midnightblue" stroke="midnightblue" points="881,-96.51 877.5,-86.51 874,-96.51 881,-96.51"/>
</g>
<!-- Node21&#45;&gt;Node9 -->
<g id="edge28" class="edge">
<title>Node21&#45;&gt;Node9</title>
<path fill="none" stroke="midnightblue" d="M1021.43,-128.98C992.49,-118.72 943.74,-101.46 911.1,-89.9"/>
<polygon fill="midnightblue" stroke="midnightblue" points="912.12,-86.55 901.53,-86.51 909.78,-93.15 912.12,-86.55"/>
</g>
<!-- Node22&#45;&gt;Node9 -->
<g id="edge30" class="edge">
<title>Node22&#45;&gt;Node9</title>
<path fill="none" stroke="midnightblue" d="M1148.66,-124.69C1145.57,-124.11 1142.5,-123.55 1139.5,-123 1071.04,-110.5 992.34,-97.12 939.2,-88.22"/>
<polygon fill="midnightblue" stroke="midnightblue" points="939.7,-84.76 929.26,-86.56 938.54,-91.66 939.7,-84.76"/>
</g>
<!-- Node23 -->
<g id="node23" class="node">
<title>Node23</title>
<g id="a_node23"><a xlink:title=" ">
<polygon fill="none" stroke="#bfbfbf" points="1146,-67.5 1146,-86.5 1283,-86.5 1283,-67.5 1146,-67.5"/>
<text text-anchor="middle" x="1214.5" y="-74.5" font-family="Helvetica,sans-Serif" font-size="10.00">Texture/AnimatedSprite.hpp</text>
</a>
</g>
</g>
<!-- Node22&#45;&gt;Node23 -->
<g id="edge31" class="edge">
<title>Node22&#45;&gt;Node23</title>
<path fill="none" stroke="midnightblue" d="M1214.5,-123.4C1214.5,-115.47 1214.5,-105.46 1214.5,-96.86"/>
<polygon fill="midnightblue" stroke="midnightblue" points="1218,-96.66 1214.5,-86.66 1211,-96.66 1218,-96.66"/>
</g>
</g>
</svg>
        <g id="navigator" transform="translate(0 0)" fill="#404254">
                <rect fill="#f2f5e9" fill-opacity="0.5" stroke="#606060" stroke-width=".5" x="0" y="0" width="60" height="60"/>
                <use id="zoomplus" xlink:href="#zoomPlus" x="17" y="9" onmousedown="handleZoom(evt,'in')"/>
                <use id="zoomminus" xlink:href="#zoomMin" x="42" y="9" onmousedown="handleZoom(evt,'out')"/>
                <use id="reset" xlink:href="#resetDef" x="30" y="36" onmousedown="handleReset()"/>
                <g id="arrowUp" xlink:href="#dirArrow" transform="translate(30 24)" onmousedown="handlePan(0,-1)">
                  <use xlink:href="#rim" fill="#404040">
                        <set attributeName="fill" to="#808080" begin="arrowUp.mouseover" end="arrowUp.mouseout"/>
                  </use>
                  <path fill="none" stroke="white" stroke-width="1.5" d="M0,-3.0v7 M-2.5,-0.5L0,-3.0L2.5,-0.5"/>
                </g>
                <g id="arrowRight" xlink:href="#dirArrow" transform="rotate(90) translate(36 -43)" onmousedown="handlePan(1,0)">
                  <use xlink:href="#rim" fill="#404040">
                        <set attributeName="fill" to="#808080" begin="arrowRight.mouseover" end="arrowRight.mouseout"/>
                  </use>
                  <path fill="none" stroke="white" stroke-width="1.5" d="M0,-3.0v7 M-2.5,-0.5L0,-3.0L2.5,-0.5"/>
                </g>
                <g id="arrowDown" xlink:href="#dirArrow" transform="rotate(180) translate(-30 -48)" onmousedown="handlePan(0,1)">
                  <use xlink:href="#rim" fill="#404040">
                        <set attributeName="fill" to="#808080" begin="arrowDown.mouseover" end="arrowDown.mouseout"/>
                  </use>
                  <path fill="none" stroke="white" stroke-width="1.5" d="M0,-3.0v7 M-2.5,-0.5L0,-3.0L2.5,-0.5"/>
                </g>
                <g id="arrowLeft" xlink:href="#dirArrow" transform="rotate(270) translate(-36 17)" onmousedown="handlePan(-1,0)">
                  <use xlink:href="#rim" fill="#404040">
                        <set attributeName="fill" to="#808080" begin="arrowLeft.mouseover" end="arrowLeft.mouseout"/>
                  </use>
                  <path fill="none" stroke="white" stroke-width="1.5" d="M0,-3.0v7 M-2.5,-0.5L0,-3.0L2.5,-0.5"/>
                </g>
        </g>
        <svg viewBox="0 0 15 15" width="100%" height="30px" preserveAspectRatio="xMaxYMin meet">
         <g id="arrow_out" transform="scale(0.3 0.3)">
          <a xlink:href="TileConfig_8hpp__incl_org.svg" target="_base">
           <rect id="button" ry="5" rx="5" y="6" x="6" height="38" width="38"
                fill="#f2f5e9" fill-opacity="0.5" stroke="#606060" stroke-width="1.0"/>
           <path id="arrow"
             d="M 11.500037,31.436501 C 11.940474,20.09759 22.043105,11.32322 32.158766,21.979434 L 37.068811,17.246167 C 37.068811,17.246167 37.088388,32 37.088388,32 L 22.160133,31.978069 C 22.160133,31.978069 26.997745,27.140456 26.997745,27.140456 C 18.528582,18.264221 13.291696,25.230495 11.500037,31.436501 z"
             style="fill:#404040;"/>
          </a>
         </g>
        </svg>
</svg>
