<svg xmlns="http://www.w3.org/2000/svg" xmlns:xlink="http://www.w3.org/1999/xlink" width="443pt" height="140pt" viewBox="0 0 442.5 140"><g id="graph0" class="graph" transform="scale(1 1) rotate(0) translate(4 136)"><title>src/Scripts/TimerBehaviour.cpp</title><g id="node1" class="node"><title>Node1</title><g id="a_node1"><a><polygon fill="#bfbfbf" stroke="#000" points="194.5 -112.5 194.5 -131.5 347.5 -131.5 347.5 -112.5 194.5 -112.5"/><text x="271" y="-119.5" font-family="Helvetica,sans-Serif" font-size="10" text-anchor="middle">src/Scripts/TimerBehaviour.cpp</text></a></g></g><g id="node2" class="node"><title>Node2</title><g id="a_node2"><a target="_top" xlink:href="TimerBehaviour_8hpp.html"><polygon fill="none" stroke="#000" points="50.5 -56.5 50.5 -75.5 153.5 -75.5 153.5 -56.5 50.5 -56.5"/><text x="102" y="-63.5" font-family="Helvetica,sans-Serif" font-size="10" text-anchor="middle">TimerBehaviour.hpp</text></a></g></g><g id="edge1" class="edge"><title>Node1-&gt;Node2</title><path fill="none" stroke="#191970" d="M244.22,-112.44C215.67,-103.32 170.27,-88.81 138.46,-78.65"/><polygon fill="#191970" stroke="#191970" points="139.24 -75.23 128.65 -75.52 137.11 -81.89 139.24 -75.23"/></g><g id="node5" class="node"><title>Node5</title><g id="a_node5"><a><polygon fill="none" stroke="#bfbfbf" points="171.5 -56.5 171.5 -75.5 260.5 -75.5 260.5 -56.5 171.5 -56.5"/><text x="216" y="-63.5" font-family="Helvetica,sans-Serif" font-size="10" text-anchor="middle">GameObject.hpp</text></a></g></g><g id="edge4" class="edge"><title>Node1-&gt;Node5</title><path fill="none" stroke="#191970" d="M261.92,-112.08C253.83,-104.14 241.8,-92.34 232.09,-82.8"/><polygon fill="#191970" stroke="#191970" points="234.5 -80.26 224.91 -75.75 229.6 -85.25 234.5 -80.26"/></g><g id="node6" class="node"><title>Node6</title><g id="a_node6"><a><polygon fill="none" stroke="#bfbfbf" points="279 -56.5 279 -75.5 375 -75.5 375 -56.5 279 -56.5"/><text x="327" y="-63.5" font-family="Helvetica,sans-Serif" font-size="10" text-anchor="middle">Engine/Engine.hpp</text></a></g></g><g id="edge5" class="edge"><title>Node1-&gt;Node6</title><path fill="none" stroke="#191970" d="M280,-112.32C288.19,-104.42 300.51,-92.55 310.47,-82.94"/><polygon fill="#191970" stroke="#191970" points="313.07 -85.29 317.84 -75.83 308.21 -80.26 313.07 -85.29"/></g><g id="node7" class="node"><title>Node7</title><g id="a_node7"><a><polygon fill="none" stroke="#bfbfbf" points="393.5 -56.5 393.5 -75.5 434.5 -75.5 434.5 -56.5 393.5 -56.5"/><text x="414" y="-63.5" font-family="Helvetica,sans-Serif" font-size="10" text-anchor="middle">future</text></a></g></g><g id="edge6" class="edge"><title>Node1-&gt;Node7</title><path fill="none" stroke="#191970" d="M293.66,-112.44C317.96,-103.27 356.68,-88.64 383.61,-78.47"/><polygon fill="#191970" stroke="#191970" points="385.19 -81.62 393.3 -74.82 382.71 -75.07 385.19 -81.62"/></g><g id="node3" class="node"><title>Node3</title><g id="a_node3"><a><polygon fill="none" stroke="#bfbfbf" points="0 -.5 0 -19.5 104 -19.5 104 -.5 0 -.5"/><text x="52" y="-7.5" font-family="Helvetica,sans-Serif" font-size="10" text-anchor="middle">BehaviourScript.hpp</text></a></g></g><g id="edge2" class="edge"><title>Node2-&gt;Node3</title><path fill="none" stroke="#191970" d="M93.74,-56.08C86.54,-48.3 75.89,-36.8 67.15,-27.37"/><polygon fill="#191970" stroke="#191970" points="69.47 -24.71 60.1 -19.75 64.33 -29.47 69.47 -24.71"/></g><g id="node4" class="node"><title>Node4</title><g id="a_node4"><a><polygon fill="none" stroke="#bfbfbf" points="122.5 -.5 122.5 -19.5 181.5 -19.5 181.5 -.5 122.5 -.5"/><text x="152" y="-7.5" font-family="Helvetica,sans-Serif" font-size="10" text-anchor="middle">functional</text></a></g></g><g id="edge3" class="edge"><title>Node2-&gt;Node4</title><path fill="none" stroke="#191970" d="M110.26,-56.08C117.46,-48.3 128.11,-36.8 136.85,-27.37"/><polygon fill="#191970" stroke="#191970" points="139.67 -29.47 143.9 -19.75 134.53 -24.71 139.67 -29.47"/></g></g></svg>